<svg xmlns="http://www.w3.org/2000/svg" width="94" height="104" fill="none" viewBox="0 0 94 104"><g clip-path="url(#a)"><path fill="url(#b)" d="m37.14 39.997 6.328 3.692 1.62-2.483-6.544-3.844z"/><path fill="#934f21" d="M43.986 42.027c-.562.324-1.339.108-1.879-.151-.69-.346-1.339-.8-2.03-1.145-.604-.302-1.187-.648-1.662-1.144a1.96 1.96 0 0 1-.497-1.123l-.799 1.511 6.327 3.693 1.62-2.483-.648-.389c.172.475.043.972-.432 1.23" opacity=".41"/><path fill="url(#c)" d="m38.307 38.895 3.325 1.944 2.289.648-5.312-3.11z"/><path fill="url(#d)" d="m68.064 54.508-6.543-3.844-1.404 2.634 6.327 3.693z"/><path fill="#934f21" d="M66.96 55.35c-.56.324-1.338.108-1.878-.151-.713-.346-1.339-.8-2.03-1.145-.605-.302-1.188-.647-1.663-1.144a1.96 1.96 0 0 1-.496-1.123l-.8 1.512 6.328 3.692 1.62-2.483-.649-.389c.173.454.044.95-.431 1.231" opacity=".41"/><path fill="url(#e)" d="m61.586 51.679-.303.518 3.326 1.943 2.31.648z"/><path fill="url(#f)" d="m37.248 40.018 6.327 3.671 1.62-2.505-6.565-3.8z"/><path fill="#934f21" d="M44.093 42.027c-.561.323-1.339.13-1.878-.13-.713-.324-1.34-.777-2.03-1.145-.605-.302-1.188-.626-1.663-1.122a1.96 1.96 0 0 1-.496-1.123l-.8 1.533 6.35 3.67 1.619-2.504-.648-.367c.13.432.021.928-.454 1.188" opacity=".41"/><path fill="url(#g)" d="m38.393 38.917 3.325 1.943 2.31.605-5.333-3.067z"/><path fill="url(#h)" d="m68.257 54.357-6.586-3.779-1.36 2.613 6.326 3.67z"/><path fill="#934f21" d="M67.156 55.2c-.562.323-1.339.107-1.879-.13-.712-.324-1.339-.778-2.03-1.145-.604-.302-1.187-.626-1.662-1.122a1.96 1.96 0 0 1-.497-1.123l-.799 1.533 6.349 3.65 1.62-2.506-.649-.367c.13.454 0 .95-.453 1.21" opacity=".41"/><path fill="url(#i)" d="m61.757 51.571-.302.519 3.325 1.943 2.311.626z"/><path fill="url(#j)" d="M70.74 19.763c.303.195.605.39.929.54.151.087.324.151.475.238.173-.216.41-.454.583-.82 1.879-4.19 1.382-6.565-.993-8.4-1.447-1.102-3.952-2.376-6.068-2.074-2.505.346-3.455 2.83-4.21 4.859v.043c.474.41 1.446.972 2.137 1.36 0 0 .799-3.735 2.634-3.865 1.577-.108 5.032 1.253 5.183 3.477.108 1.533-.8 3.196-1.231 4.124.065.043.108.086.173.13.043.043.345.28.216.194 0 .086.086.151.172.194"/><path fill="#f49c1c" d="M70.74 19.763c.303.195.605.39.929.54.151.087.324.151.475.238.173-.216.41-.454.583-.82 1.879-4.19 1.382-6.565-.993-8.4-1.447-1.102-3.952-2.376-6.068-2.074-2.505.346-3.455 2.83-4.21 4.859v.043c.15.13.366.28.604.432.021-.065.021-.108.043-.151a8 8 0 0 1 .345-1.533c.432-1.728 1.469-2.656 2.721-3.002.26-.086.54-.151.842-.173.324-.021.691 0 1.08.065 1.21.151 2.44.67 3.455 1.404.993.67 1.814 1.533 2.138 2.44.777 2.224.216 5.247-2.505 5.593 0 0 0 .021-.022.043.065.043.108.086.173.13.043.043.346.28.216.194.022.064.108.13.194.172" opacity=".5"/><path fill="#f49c1c" d="M71.367 13.328c-.67-1.015-2.397-1.943-3.542-2.202-3.217-.756-2.807 1.317-4.793 1.921-.497.152-.82-.064-1.015-.41-.216.497-.41 1.015-.605 1.512v.043c.475.41 1.447.972 2.138 1.36 0 0 .799-3.735 2.634-3.865 1.577-.108 5.032 1.252 5.183 3.477.108 1.533-.8 3.195-1.231 4.124.065.043.108.086.173.13.043.043.345.28.216.194.086.043.15.108.237.151.302.194.605.389.929.54.15.086.323.151.475.237.172-.216.41-.453.583-.82.216-.475.388-.907.54-1.339a1 1 0 0 1-.26.043c-.928.043-1.468-.453-1.425-1.295 0-.95.778-2.246-.237-3.8" opacity=".5"/><path fill="#602609" d="m73.354 20.476-12.568-7.298-.647 1.252 12.567 7.277z"/><path fill="url(#k)" d="M91.513 49.778c2.397-6.737 1.987-12.934-.67-16.713-.82-1.166-2.353-2.203-3.13-2.786l-12.33 29.044c4.729 2.03 12.373 1.08 16.13-9.545"/><path fill="#93561b" d="m87.713 30.302-12.33 29.043a10.8 10.8 0 0 0 3.995.842l11.466-27.121c-.82-1.166-2.483-1.382-3.131-2.764"/><path fill="url(#l)" d="m29.842 33.065 45.605 26.322 12.309-29.064L42.15 4z"/><path fill="url(#m)" d="m29.842 33.066 45.605 26.322-2.742-7.881-36.256-20.644z"/><path fill="#fff" d="M73.44 55.955c.69 1.1 1.381 2.159 1.964 3.303l-2.699-7.73-1.533-.864c.756 1.75 1.252 3.65 2.267 5.29"/><path fill="#fffde1" d="M71.992 51.096 36.45 30.863l-6.607 2.181 12.438 7.19c10.213 2.873 20.276 6.133 29.712 10.862" opacity=".48"/><path fill="#fffde1" d="m41.265 33.606-4.816-2.743-6.607 2.181.993.583c.54.043 7.687.087 10.43-.021" opacity=".75"/><path fill="#fff" d="m37.486 31.468-1.037-.605-6.607 2.203z" opacity=".75"/><path fill="url(#n)" d="m80.868 33.066-8.163 18.44 2.743 7.882 12.308-29.065z"/><path fill="#fff" d="m86.115 30.97-5.247 2.095-8.163 18.441 1.75 5.032c1.468-9.545 4.707-18.657 11.66-25.567" opacity=".45"/><path fill="url(#o)" d="m29.842 33.065 6.607-2.203 8.184-18.894L42.15 4z"/><path fill="#fff8d4" d="m36.083 18.295-5.247 12.394c2.44-2.267 5.204-4.016 8.076-5.549l4.038-9.35c-2.268.713-4.664 1.468-6.867 2.505" opacity=".64"/><path fill="url(#p)" d="m44.634 11.968 36.234 21.097 6.888-2.742L42.15 4z"/><path fill="#fff" d="m42.15 4 2.484 7.968.907.518C45.022 10.154 42.15 4 42.15 4m37.81 28.525.908.54 6.888-2.742-.518-.303c-1.49.41-6.327 2.095-7.277 2.505"/><path fill="#fff8d4" d="M68.647 19.289c-6.22-1.598-12.59-3.909-18.938-4.362l16.54 9.63c3.348-.734 6.824-.928 10.322-.69z" opacity=".64"/><path fill="#db854b" d="m72.705 51.507 8.162-18.441-36.234-21.097-8.184 18.894z"/><path fill="#e89054" d="M77.023 41.747c-2.526-1.102-5.074-2.138-7.773-2.721-4.34-.929-9.502-1.706-13.864-.432-1.144.345-2.288.734-3.433 1.101l20.751 11.812z"/><path fill="#6b340e" d="M44.633 35.527c2.591-6.931 8.076-9.35 16.282-7.795 5.614 1.08 13.345 6.09 18.397 8.853l1.555-3.52L44.633 11.97 36.45 30.885z" opacity=".25"/><path fill="#592a0a" d="M42.475 17.022c3.584.367 7.082 1.922 10.278 3.455 4.319 2.073 8.616 4.21 12.762 6.542 3.67 2.073 7.299 4.276 10.775 6.694 1.145.648 2.267 1.296 3.369 2.009l1.187-2.656-36.212-21.097-2.18 5.053z" opacity=".25"/><path fill="#592a0a" d="M47.808 26.976c2.094-5.377 0-9.825-2.246-12.028L38.35 31.964c3.563.712 7.816-.756 9.457-4.988" opacity=".41"/><path fill="#592a0a" d="M38.5 31.986c1.21-2.44 4.017-8.292 5.593-10.495 1.318-1.857 2.83-2.958 4.47-.346-.345-2.699-1.64-4.858-3.001-6.197L38.35 31.964a.4.4 0 0 1 .15.021" opacity=".41"/><path fill="url(#q)" d="M87.756 30.323 75.447 59.388l3.39 1.145 11.834-28.007z"/><path fill="url(#r)" d="m73.505 20.196-12.59-7.299-.647 1.274 12.589 7.256z"/><path fill="url(#s)" d="m79.938 35.182.929-2.116-36.234-21.097.907 2.98z"/><path fill="url(#t)" d="m38.35 31.943 7.19-16.994-.907-2.98-8.184 18.894z"/><path fill="#fff8d4" d="M64.651 11.04c1.145-.886 3.131-.41 3.822-.087.735.324 2.246 1.339 2.462 1.058.238-.302-2.354-1.835-3.757-2.03-1.188-.15-3.066-.15-3.865 1.469-.562 1.123.367.345 1.338-.41"/><path fill="url(#u)" d="m89.268 38.788-6.694 16.239s3.541-.346 5.895-6.479c2.376-6.132.8-9.76.8-9.76"/><path fill="#7a4315" d="M87.152 51.248c.454-.756.907-1.642 1.317-2.7 2.354-6.11.8-9.76.8-9.76l-1.059 2.57c.778.496.583 2.634.562 3.26-.13 2.31-.778 4.125-1.62 6.63"/><path fill="url(#v)" d="M89.18 39.047 82.4 55.242s3.542-.324 5.939-6.456c2.397-6.09.842-9.74.842-9.74"/><path fill="#7a4315" d="M87 51.485c.475-.756.928-1.62 1.339-2.7 2.397-6.11.842-9.738.842-9.738l-1.08 2.57c.778.496.583 2.634.54 3.26-.13 2.31-.799 4.124-1.641 6.608"/><path fill="url(#w)" d="m89.247 38.788-6.694 16.239s3.541-.346 5.895-6.479c2.375-6.132.799-9.76.799-9.76"/><path fill="#7a4315" d="M87.129 51.248a17.6 17.6 0 0 0 1.317-2.7c2.354-6.11.799-9.76.799-9.76l-1.058 2.57c.777.496.605 2.634.561 3.26-.13 2.31-.777 4.125-1.62 6.63"/><path fill="url(#x)" d="m29.345 41.206 35.392 19.931 9.738.237L29.13 35.183z"/><path fill="#ffb206" d="m64.738 61.138 9.738.237-8.637-1.209-36.493-18.959z"/><path fill="url(#y)" d="m10.56 52.11 18.786-10.904-.216-6.024L.02 52.11z"/><path fill="#eda507" d="M.021 52.112H10.56l18.787-10.905L9.76 51.118l-7.104.173 3.951-3.001z"/><path fill="#b96a42" d="m10.559 52.112 34.808 20.017 19.37-10.991-35.392-19.931z"/><path fill="#a06335" d="m29.064 59.238.28-18.031L10.56 52.112l15.46 8.896z"/><path fill="#db854b" d="m29.065 59.238 19.347 11.164 16.325-9.264-35.392-19.931z"/><path fill="#592a0a" d="m30.835 63.772 2.915-1.814s-4.319-18.656-4.405-20.751L10.537 52.112z" opacity=".41"/><path fill="#93561b" d="m29.26 46.303 18.052 11.164 11.92 6.802.777-.454-14.187-8.292-16.54-9.998zm-.086 6.413 24.724 14.576 1.123-.648L29.174 52.11z"/><path fill="#602609" d="m29.259 46.303.021-.778-14.9 8.789.627.367zm-.085 6.413v-.605l-9.22 5.399.647.324z"/><path fill="url(#z)" d="m37.357 40.02 6.349 3.67 1.598-2.505-6.565-3.8z"/><path fill="#934f21" d="M44.203 42.028c-.562.324-1.34.13-1.879-.13-.713-.324-1.339-.777-2.03-1.144-.604-.303-1.187-.627-1.662-1.123a1.96 1.96 0 0 1-.497-1.123l-.8 1.533 6.35 3.67 1.619-2.504-.648-.367c.151.432.022.928-.453 1.188" opacity=".41"/><path fill="url(#A)" d="m38.502 38.918 3.347 1.943 2.289.605-5.334-3.067z"/><path fill="url(#B)" d="m43.575 43.711 1.62-2.504-6.587-3.78-1.36 2.614z"/><path fill="#934f21" d="M44.093 42.05c-.561.323-1.339.129-1.878-.13-.713-.324-1.34-.778-2.03-1.145-.605-.302-1.188-.626-1.663-1.123a1.96 1.96 0 0 1-.496-1.123l-.8 1.533 6.35 3.671 1.619-2.483-.648-.367c.13.41 0 .907-.454 1.166" opacity=".41"/><path fill="url(#C)" d="m41.718 40.883 2.31.626-5.333-3.088-.302.518z"/><g fill="#fff" opacity=".9"><path d="M14.554 57.834c-4.75 11.639 2.85 25.76 16.972 31.505 14.122 5.765 29.41.993 34.161-10.668 4.75-11.638-2.85-25.739-16.972-31.504-14.123-5.744-29.41-.972-34.161 10.667" opacity=".048"/><path d="M15.417 58.18c-4.6 11.25 2.742 24.875 16.39 30.446s28.417.95 33.016-10.3c4.578-11.25-2.742-24.875-16.39-30.447-13.647-5.55-28.417-.95-33.016 10.3" opacity=".095"/><path d="M16.281 58.546c-4.426 10.862 2.656 24.012 15.807 29.368 13.172 5.376 27.424.928 31.85-9.933s-2.656-24.012-15.806-29.368c-13.15-5.376-27.424-.928-31.85 9.933" opacity=".143"/><path d="M17.166 58.892c-4.276 10.451 2.548 23.127 15.245 28.31 12.675 5.182 26.43.885 30.684-9.567 4.276-10.45-2.548-23.126-15.245-28.309s-26.43-.885-30.684 9.566" opacity=".191"/><path d="M18.03 59.238C13.929 69.3 20.493 81.5 32.694 86.488c12.2 4.967 25.437.843 29.54-9.22C66.335 67.206 59.77 55.005 47.57 50.04c-12.222-4.988-25.438-.864-29.54 9.199" opacity=".238"/><path d="M18.894 59.605c-3.952 9.674 2.353 21.399 14.1 26.171 11.725 4.772 24.444.82 28.374-8.853 3.952-9.674-2.375-21.4-14.1-26.172-11.726-4.793-24.444-.82-28.374 8.854" opacity=".286"/><path d="M19.758 59.95c-3.779 9.285 2.268 20.514 13.518 25.113 11.25 4.578 23.429.778 27.23-8.486 3.778-9.285-2.268-20.514-13.518-25.113-11.272-4.578-23.45-.778-27.23 8.486" opacity=".333"/><path d="M20.621 60.317c-3.627 8.875 2.181 19.65 12.935 24.033 10.775 4.384 22.436.756 26.063-8.14 3.628-8.876-2.18-19.65-12.934-24.034-10.775-4.384-22.436-.756-26.064 8.14" opacity=".381"/><path d="M21.486 60.662c-3.455 8.487 2.073 18.765 12.373 22.976 10.3 4.189 21.442.712 24.897-7.774S56.683 57.1 46.383 52.89c-10.278-4.19-21.442-.713-24.897 7.773" opacity=".429"/><path d="M22.349 61.008c-3.304 8.098 1.986 17.901 11.79 21.896 9.825 3.995 20.449.69 23.753-7.407s-1.987-17.9-11.79-21.895c-9.825-3.995-20.45-.691-23.753 7.406" opacity=".476"/><path d="M23.212 61.375c-3.153 7.709 1.879 17.037 11.229 20.838 9.328 3.8 19.456.648 22.587-7.04 3.13-7.709-1.88-17.037-11.23-20.837-9.327-3.823-19.433-.67-22.586 7.039" opacity=".524"/><path d="M24.077 61.72c-2.98 7.3 1.792 16.153 10.645 19.78 8.853 3.606 18.463.627 21.443-6.694 2.98-7.298-1.793-16.151-10.646-19.78-8.853-3.605-18.462-.604-21.442 6.695" opacity=".571"/><path d="M24.94 62.066c-2.829 6.91 1.684 15.289 10.062 18.7 8.379 3.412 17.47.583 20.277-6.327 2.829-6.91-1.685-15.288-10.063-18.7s-17.447-.582-20.276 6.327" opacity=".619"/><path d="M25.804 62.433c-2.656 6.521 1.598 14.403 9.501 17.642 7.904 3.218 16.455.562 19.11-5.96 2.657-6.52-1.597-14.403-9.5-17.642-7.882-3.239-16.433-.561-19.11 5.96" opacity=".667"/><path d="M26.689 62.779c-2.505 6.133 1.49 13.54 8.918 16.562s15.461.519 17.966-5.592c2.505-6.133-1.49-13.54-8.918-16.563-7.428-3.044-15.483-.54-17.966 5.593" opacity=".714"/><path d="M27.554 63.125c-2.333 5.722 1.403 12.675 8.335 15.504 6.953 2.829 14.467.475 16.8-5.247 2.331-5.723-1.404-12.676-8.357-15.505-6.932-2.828-14.446-.475-16.778 5.248" opacity=".762"/><path d="M28.417 63.492c-2.181 5.334 1.295 11.79 7.773 14.424s13.475.454 15.656-4.88c2.18-5.333-1.296-11.79-7.774-14.446-6.478-2.613-13.496-.432-15.655 4.902" opacity=".809"/><path d="M29.281 63.837c-2.008 4.944 1.21 10.926 7.19 13.366 5.982 2.44 12.482.41 14.49-4.513 2.008-4.945-1.21-10.926-7.19-13.366-5.982-2.44-12.482-.432-14.49 4.513" opacity=".857"/><path d="M30.144 64.182c-1.857 4.535 1.102 10.063 6.63 12.309 5.506 2.245 11.487.388 13.344-4.168s-1.101-10.062-6.629-12.308c-5.528-2.224-11.488-.367-13.345 4.167" opacity=".905"/><path d="M31.007 64.55c-1.684 4.145 1.015 9.177 6.046 11.228s10.495.345 12.179-3.8c1.684-4.146-1.015-9.178-6.046-11.23-5.032-2.05-10.495-.345-12.18 3.801" opacity=".952"/><path d="M31.872 64.895c-1.533 3.757.907 8.314 5.463 10.17 4.557 1.858 9.501.324 11.013-3.433 1.533-3.757-.929-8.313-5.463-10.17-4.535-1.858-9.48-.324-11.013 3.433"/></g><g fill="#fff" opacity=".54"><path d="M31.959 25.379c0 .324.065.67.173.972l8.335 47.246 4.707.044 9.501-47.074c.152-.39.238-.778.238-1.188 0-3.24-3.433-10.235-11.488-10.235-8.853.021-11.466 6.996-11.466 10.235" opacity=".048"/><path d="M32.305 25.767c0 .324.065.648.172.972l8.098 46.923 4.556.043 9.22-46.75a3.2 3.2 0 0 0 .238-1.188c0-3.217-3.368-9.976-11.142-9.976-8.551 0-11.142 6.759-11.142 9.976" opacity=".095"/><path d="M32.65 26.134c0 .324.065.648.173.972l7.86 46.577 4.427.043 8.94-46.404c.15-.389.237-.778.237-1.188 0-3.196-3.304-9.717-10.797-9.717-8.292 0-10.84 6.521-10.84 9.717" opacity=".143"/><path d="M32.975 26.501c0 .324.064.648.15.95l7.602 46.253 4.297.044 8.659-46.081a3.2 3.2 0 0 0 .216-1.166c0-3.174-3.24-9.458-10.473-9.458-7.903.022-10.451 6.284-10.451 9.458" opacity=".191"/><path d="M33.318 26.869c0 .323.065.647.152.95l7.363 45.93 4.146.042 8.378-45.756a3.5 3.5 0 0 0 .216-1.166c0-3.153-3.174-9.178-10.127-9.178-7.623 0-10.128 6.047-10.128 9.178" opacity=".238"/><path d="M33.643 27.257c0 .324.064.626.15.95l7.127 45.584 4.016.043 8.12-45.41c.129-.368.215-.757.215-1.167 0-3.131-3.11-8.918-9.803-8.918-7.32-.022-9.825 5.787-9.825 8.918" opacity=".286"/><path d="M33.988 27.625c0 .324.065.626.151.928l6.867 45.26 3.865.044 7.839-45.088c.13-.367.194-.755.194-1.144 0-3.11-3.045-8.68-9.458-8.68-6.996.02-9.458 5.57-9.458 8.68" opacity=".333"/><path d="M34.313 27.992c0 .324.064.626.129.928l6.63 44.915 3.735.043 7.558-44.763c.13-.367.194-.756.194-1.145 0-3.088-2.98-8.4-9.134-8.4-6.65.022-9.112 5.355-9.112 8.422" opacity=".381"/><path d="M34.658 28.38c0 .324.043.626.13.929l6.392 44.59 3.606.043 7.277-44.417c.13-.367.194-.734.194-1.123 0-3.067-2.915-8.141-8.789-8.141-6.391-.043-8.81 5.053-8.81 8.12" opacity=".429"/><path d="M35.004 28.747c0 .302.043.626.13.907l6.132 44.245 3.455.043 6.996-44.094a4 4 0 0 0 .173-1.123c0-3.023-2.85-7.881-8.443-7.881-6.068 0-8.443 4.858-8.443 7.903" opacity=".476"/><path d="M35.328 29.115q0 .454.13.907l5.895 43.921 3.325.043 6.716-43.77c.108-.367.172-.734.172-1.123 0-3.001-2.785-7.622-8.119-7.622-5.744.021-8.119 4.642-8.119 7.644" opacity=".524"/><path d="M35.674 29.482c0 .302.043.604.108.906l5.657 43.598 3.196.043 6.435-43.425a3.9 3.9 0 0 0 .173-1.1c0-2.98-2.721-7.364-7.774-7.364-5.463-.022-7.795 4.362-7.795 7.342" opacity=".571"/><path d="M35.996 29.87c0 .302.043.605.108.907l5.398 43.252 3.045.043 6.154-43.1c.108-.346.151-.713.151-1.102 0-2.958-2.656-7.104-7.45-7.104-5.074-.022-7.406 4.124-7.406 7.104" opacity=".619"/><path d="M36.342 30.237c0 .302.043.604.108.885l5.16 42.928 2.916.043 5.873-42.755c.108-.346.151-.713.151-1.08 0-2.936-2.59-6.845-7.104-6.845-4.815-.021-7.104 3.887-7.104 6.824" opacity=".667"/><path d="M36.666 30.605c0 .302.043.604.108.885l4.923 42.582 2.764.043 5.593-42.43c.086-.346.151-.713.151-1.08 0-2.916-2.526-6.586-6.78-6.586-4.47 0-6.759 3.67-6.759 6.586" opacity=".714"/><path d="M37.012 30.971c0 .303.043.584.108.886l4.664 42.258 2.634.044 5.334-42.108c.086-.345.13-.713.13-1.08 0-2.893-2.44-6.326-6.435-6.326-4.19 0-6.435 3.433-6.435 6.326" opacity=".762"/><path d="M37.357 31.36c0 .302.044.583.087.864l4.426 41.913 2.505.043 5.053-41.762c.087-.346.13-.691.13-1.058 0-2.872-2.376-6.068-6.09-6.068-3.887-.022-6.11 3.196-6.11 6.068" opacity=".809"/><path d="M37.682 31.728c0 .302.043.583.086.863l4.19 41.59 2.353.043 4.772-41.438c.086-.346.13-.691.13-1.058 0-2.85-2.311-5.81-5.766-5.81-3.563 0-5.765 2.96-5.765 5.81" opacity=".857"/><path d="M38.027 32.094c0 .303.044.584.087.864l3.93 41.266 2.224.043 4.491-41.114c.065-.346.108-.691.108-1.037 0-2.829-2.245-5.55-5.42-5.55-3.239-.021-5.42 2.7-5.42 5.528" opacity=".905"/><path d="M38.352 32.483c0 .28.021.583.086.842l3.692 40.92 2.073.043 4.211-40.769a5.4 5.4 0 0 0 .108-1.036c0-2.807-2.18-5.29-5.096-5.29-2.915-.022-5.074 2.483-5.074 5.29" opacity=".952"/><path d="M38.695 32.85q0 .42.065.842l3.455 40.596 1.943.043 3.93-40.445a5.3 5.3 0 0 0 .108-1.036c0-2.786-2.116-5.032-4.75-5.032-2.613 0-4.75 2.246-4.75 5.032"/></g><g fill="#fff" opacity=".54"><path d="m56.812 69.278 13.712-29.065c.173-.238.28-.475.346-.734.518-2.095-.583-7.191-5.809-8.487-5.765-1.425-8.573 2.7-9.09 4.794-.066.216-.066.432-.044.67L53.767 68.5z" opacity=".048"/><path d="m56.769 69.3 13.496-28.893c.15-.216.28-.475.345-.734.518-2.095-.583-7.018-5.636-8.27-5.55-1.383-8.313 2.612-8.832 4.685a2.2 2.2 0 0 0-.043.648l-2.267 31.786z" opacity=".095"/><path d="m56.725 69.32 13.259-28.719c.15-.215.28-.475.345-.734.519-2.073-.583-6.845-5.463-8.033-5.355-1.317-8.054 2.505-8.572 4.578a2.2 2.2 0 0 0-.044.648l-2.375 31.527z" opacity=".143"/><path d="m56.704 69.321 13.02-28.547a2.2 2.2 0 0 0 .324-.734c.519-2.051-.583-6.65-5.29-7.817-5.16-1.274-7.795 2.397-8.314 4.47a2.2 2.2 0 0 0-.043.648l-2.483 31.267z" opacity=".191"/><path d="M56.662 69.342 69.445 40.97q.228-.325.324-.713c.497-2.051-.583-6.478-5.117-7.601-4.945-1.23-7.537 2.31-8.055 4.34a2.2 2.2 0 0 0-.043.648l-2.57 31.008z" opacity=".238"/><path d="M56.619 69.343 69.164 41.14q.227-.323.324-.712c.497-2.03-.583-6.306-4.923-7.364-4.75-1.166-7.299 2.203-7.795 4.233a3.3 3.3 0 0 0-.065.626l-2.678 30.77z" opacity=".286"/><path d="m56.575 69.364 12.308-28.028q.228-.324.324-.713c.497-2.008-.583-6.11-4.75-7.147-4.535-1.123-7.04 2.094-7.536 4.124a3 3 0 0 0-.065.626L54.07 68.738z" opacity=".333"/><path d="M56.553 69.386 68.646 41.53c.13-.216.237-.453.302-.712.497-2.009-.583-5.939-4.578-6.932-4.34-1.08-6.78 2.008-7.277 3.995-.043.216-.065.41-.065.626L54.135 68.76z" opacity=".381"/><path d="m56.51 69.386 11.855-27.704c.13-.217.237-.454.302-.713.497-1.987-.583-5.766-4.405-6.694-4.146-1.015-6.521 1.9-7.018 3.887-.043.216-.065.41-.065.626L54.178 68.78z" opacity=".429"/><path d="m56.466 69.408 11.618-27.532c.13-.216.237-.453.302-.713.497-1.965-.583-5.57-4.232-6.478-3.93-.971-6.262 1.792-6.76 3.78-.042.193-.064.41-.064.625l-3.11 29.735z" opacity=".476"/><path d="m56.423 69.407 11.38-27.36a2.1 2.1 0 0 0 .28-.69c.476-1.965-.582-5.399-4.059-6.263-3.736-.928-6.003 1.706-6.5 3.65-.043.194-.064.41-.064.605l-3.218 29.475z" opacity=".524"/><path d="m56.401 69.428 11.142-27.186c.13-.216.216-.453.281-.69.475-1.944-.583-5.227-3.865-6.047-3.52-.864-5.766 1.598-6.24 3.541a3 3 0 0 0-.066.605l-3.325 29.238z" opacity=".571"/><path d="m56.36 69.45 10.904-27.013c.13-.216.216-.453.281-.69.475-1.922-.583-5.054-3.693-5.81-3.325-.82-5.506 1.512-5.98 3.434-.044.194-.066.41-.066.605l-3.433 28.978z" opacity=".619"/><path d="m56.316 69.45 10.667-26.84a2.5 2.5 0 0 0 .281-.692c.475-1.922-.583-4.858-3.52-5.593-3.13-.777-5.247 1.404-5.722 3.304a2.7 2.7 0 0 0-.065.605l-3.52 28.72z" opacity=".667"/><path d="m56.273 69.472 10.451-26.668c.108-.216.216-.432.26-.67.474-1.9-.584-4.686-3.348-5.377-2.915-.712-4.988 1.296-5.463 3.196a2.7 2.7 0 0 0-.065.583l-3.627 28.46z" opacity=".714"/><path d="m56.23 69.473 10.213-26.496a3.6 3.6 0 0 0 .26-.67c.474-1.878-.584-4.512-3.154-5.138-2.72-.67-4.728 1.209-5.203 3.088-.044.194-.065.388-.087.583l-3.736 28.2z" opacity=".762"/><path d="m56.208 69.494 9.976-26.322a3.6 3.6 0 0 0 .259-.67c.453-1.878-.583-4.318-2.98-4.923-2.527-.626-4.47 1.101-4.945 2.98a5 5 0 0 0-.086.583l-3.844 27.942z" opacity=".809"/><path d="m56.164 69.515 9.739-26.15a3.7 3.7 0 0 0 .259-.67c.453-1.856-.583-4.145-2.808-4.707-2.31-.561-4.232.994-4.664 2.85-.043.195-.064.39-.086.584l-3.952 27.704z" opacity=".857"/><path d="m56.12 69.515 9.502-25.977c.108-.216.194-.432.237-.67.454-1.835-.583-3.973-2.634-4.47-2.116-.518-3.952.907-4.405 2.743-.044.194-.065.389-.087.561l-4.06 27.446z" opacity=".905"/><path d="m56.077 69.537 9.264-25.826c.108-.216.173-.432.237-.648.454-1.814-.583-3.8-2.461-4.254-1.9-.475-3.714.799-4.146 2.634a5 5 0 0 0-.087.562L54.717 69.19z" opacity=".952"/><path d="M59.145 41.724a5 5 0 0 0-.086.562l-4.276 26.927 1.253.345 9.047-25.653c.087-.216.173-.432.238-.648.453-1.813-.583-3.606-2.29-4.038-1.705-.431-3.432.691-3.886 2.505"/></g><g fill="#fff" opacity=".54"><path d="M19.586 32.137c-5.226 1.296-6.349 6.392-5.81 8.486.066.26.174.519.346.734l13.712 29.065 3.045-.777-2.16-32.045a2.3 2.3 0 0 0-.043-.67c-.518-2.094-3.325-6.197-9.09-4.793" opacity=".048"/><path d="M19.694 32.547c-5.053 1.253-6.155 6.176-5.636 8.27.064.26.172.519.345.735l13.475 28.892 2.958-.756-2.267-31.786c.021-.216 0-.453-.044-.67-.518-2.072-3.282-6.045-8.831-4.685" opacity=".095"/><path d="M19.779 32.958c-4.88 1.209-5.981 5.96-5.463 8.032.065.26.173.518.345.734l13.259 28.72 2.872-.734-2.376-31.527a2.2 2.2 0 0 0-.043-.648c-.518-2.073-3.239-5.895-8.594-4.577" opacity=".143"/><path d="M19.887 33.368c-4.707 1.166-5.787 5.765-5.29 7.817.065.259.173.496.324.734l13.02 28.547 2.786-.713-2.483-31.267c.021-.216 0-.432-.043-.648-.497-2.052-3.153-5.723-8.314-4.47" opacity=".191"/><path d="M19.996 33.778c-4.534 1.123-5.614 5.55-5.118 7.601q.098.39.324.713l12.784 28.374 2.699-.691-2.57-31.009c0-.216 0-.432-.043-.648-.54-2.03-3.131-5.55-8.076-4.34" opacity=".238"/><path d="M20.082 34.189c-4.34 1.08-5.42 5.333-4.924 7.363q.098.388.324.712l12.546 28.202 2.591-.67-2.677-30.749c0-.216 0-.432-.065-.648-.497-2.008-3.045-5.377-7.795-4.21" opacity=".286"/><path d="M20.19 34.599c-4.167 1.036-5.247 5.14-4.75 7.147q.097.39.324.713l12.308 28.028 2.505-.647-2.785-30.512c0-.216 0-.432-.065-.626-.497-1.987-2.98-5.204-7.536-4.103" opacity=".333"/><path d="M20.298 35.03c-3.995.994-5.075 4.924-4.578 6.932.065.26.173.497.302.713L28.093 70.53l2.419-.627-2.894-30.252c0-.216 0-.432-.065-.626-.475-2.009-2.915-5.075-7.255-3.995" opacity=".381"/><path d="M20.384 35.44c-3.822.95-4.88 4.73-4.405 6.716.065.26.173.497.303.713l11.854 27.704 2.332-.604-3.001-29.994c0-.215-.022-.41-.065-.626-.475-2.008-2.872-4.945-7.018-3.908" opacity=".429"/><path d="M20.492 35.851c-3.65.907-4.708 4.513-4.233 6.478.065.26.151.475.302.691L28.18 70.552l2.246-.583-3.11-29.734c0-.216-.021-.41-.065-.626-.496-1.965-2.828-4.73-6.759-3.758" opacity=".476"/><path d="M20.6 36.262c-3.476.863-4.534 4.297-4.037 6.262.065.259.151.475.28.69l11.38 27.36 2.16-.562-3.218-29.475c0-.216-.021-.41-.064-.605-.497-1.965-2.764-4.599-6.5-3.67" opacity=".524"/><path d="M20.708 36.672c-3.283.82-4.34 4.103-3.866 6.046.065.237.152.475.281.691l11.142 27.186 2.073-.54-3.325-29.216c0-.194-.022-.41-.065-.604-.497-1.965-2.72-4.449-6.24-3.563" opacity=".571"/><path d="M20.795 37.082c-3.11.778-4.167 3.887-3.692 5.809.064.238.15.475.28.691l10.905 27.014 1.965-.519L26.841 41.1c0-.195-.021-.41-.064-.605-.476-1.922-2.656-4.232-5.982-3.412" opacity=".619"/><path d="M20.902 37.493c-2.936.734-3.995 3.67-3.52 5.592.065.238.152.475.281.691l10.668 26.841 1.878-.497-3.52-28.72c0-.193-.021-.388-.064-.604-.475-1.9-2.592-4.08-5.723-3.303" opacity=".667"/><path d="M21.01 37.903c-2.764.69-3.8 3.477-3.347 5.377.065.237.151.475.26.67l10.45 26.667 1.793-.475-3.628-28.46c0-.195-.021-.389-.086-.583-.475-1.9-2.527-3.93-5.442-3.196" opacity=".714"/><path d="M21.097 38.313c-2.592.648-3.628 3.26-3.153 5.14.065.237.151.474.259.669l10.214 26.495 1.706-.453-3.736-28.202c0-.194-.022-.388-.086-.583-.475-1.857-2.484-3.735-5.204-3.066" opacity=".762"/><path d="M21.206 38.723c-2.419.604-3.455 3.066-2.98 4.923.065.237.15.453.259.67l9.976 26.322 1.62-.432-3.844-27.942c0-.195-.043-.389-.086-.583-.475-1.857-2.419-3.585-4.945-2.959" opacity=".809"/><path d="M21.312 39.134c-2.224.561-3.26 2.85-2.807 4.707.065.238.13.454.238.67l9.738 26.15 1.533-.41-3.951-27.684c0-.194-.043-.388-.087-.583-.453-1.857-2.353-3.433-4.664-2.85" opacity=".857"/><path d="M21.4 39.544c-2.051.497-3.088 2.635-2.635 4.47.065.237.13.453.238.67l9.501 25.976 1.447-.388-4.06-27.446a4 4 0 0 0-.086-.561c-.432-1.814-2.289-3.24-4.405-2.72" opacity=".905"/><path d="M21.508 39.954c-1.879.475-2.894 2.44-2.462 4.253.065.238.13.454.238.648l9.263 25.826 1.339-.367-4.168-27.186a5 5 0 0 0-.086-.562c-.41-1.814-2.224-3.088-4.124-2.613" opacity=".952"/><path d="M21.616 40.364c-1.706.41-2.721 2.224-2.268 4.038.065.237.13.453.238.648l9.048 25.653 1.252-.346-4.254-26.927a5 5 0 0 0-.086-.561c-.497-1.793-2.224-2.937-3.93-2.505"/></g><path fill="#542708" d="m64.522 94.607 1.878-1.252.583-3.714-2.462.82z"/><path fill="#703208" d="m62.168 93.354 2.353 1.253V90.46l-2.656.777z"/><path fill="#542708" d="m48.586 104.001 1.879-1.231.583-3.714-2.462.82z"/><path fill="#703208" d="M46.232 102.769 48.586 104v-4.124l-2.656.777z"/><path fill="#542708" d="m64.414 94.607 1.879-1.252.583-3.714-2.462.82z"/><path fill="#703208" d="m62.06 93.355 2.354 1.252V90.46l-2.656.777z"/><path fill="#542708" d="m48.477 104.001 1.878-1.231.583-3.714-2.461.82z"/><path fill="#703208" d="m46.125 102.77 2.353 1.23v-4.124l-2.656.777z"/><path fill="url(#D)" d="m.021 52.111 45.347 26.172v-6.154L10.559 52.11z"/><path fill="#fffde1" d="m12.373 53.148-1.814-1.058H.021l4.859 2.807c2.332-1.317 4.88-1.814 7.493-1.75"/><path fill="#fff7ab" d="M27.942 66.104a8.5 8.5 0 0 1 2.246-2.7L19.39 57.207c-2.807.626-5.68.842-8.53 1.188l16.476 9.5c.13-.625.324-1.23.605-1.791"/><path fill="#fffde1" d="M42.366 70.4c.195 1.9-.021 3.822-.626 5.787l3.628 2.095v-6.154z"/><path fill="#fff8bb" d="m.021 52.111 10.538.583 34.809 20.233v-.799L10.559 52.112z"/><path fill="#fffde1" d="M45.368 78.283v-6.154l-1.101 4.275L.02 52.111z"/><path fill="url(#E)" d="m74.475 61.374-9.738-.237-19.37 10.99v6.155z"/><path fill="#fffde1" d="m73.224 61.331-8.487-.216-2.526 1.425c3.65-.561 7.363-.907 11.013-1.209"/><path fill="#fffde1" d="m56.295 65.93-7.363 4.168a16.3 16.3 0 0 1 2.548 4.643l12.265-7.126c-2.44-.712-4.902-1.317-7.45-1.684" opacity=".6"/><path fill="#ffce00" d="m64.737 61.137-19.37 10.99v6.155l29.108-16.908L46.9 75.993v-3.865z"/><path fill="#a06335" d="m68.818 88.67 4.988-22.63-28.438 12.243-.065 24.055z"/><path fill="#592a0a" d="M55.02 95.406c-2.721 1.879-6.262 4.902-9.717 4.902v2.03l23.515-13.669 4.988-22.651-2.375 1.014c.367 8.055-2.548 14.986-7.385 20.277-2.635 2.937-5.809 5.873-9.026 8.097" opacity=".28"/><path fill="#592a0a" d="M47.743 100.934c0-.065 0-.151.021-.216.713-3.736.929-7.622 2.462-11.142 1.425-3.26 3.865-5.83 6.63-8.011 4.62-3.65 9.803-6.651 15.417-8.487l1.555-7.017-28.439 12.243-.065 24.055z" opacity=".41"/><path fill="url(#F)" d="m74.454 68.458.021-7.083-29.108 16.908-.021 7.298z"/><path fill="#824216" d="m49.664 75.799-4.297 2.505-.021 7.298 5.441-3.217c-.475-2.203-.993-4.362-1.123-6.586m16.693-9.695c-.389 2.915-1.274 5.7-2.267 8.465l10.386-6.111.022-7.083z" opacity=".24"/><path fill="#592a0a" d="M61.844 70.898c4.146-1.879 8.292-3.714 12.632-4.859l.022-4.664-21.96 12.762c.042.064.064.13.086.194a140 140 0 0 1 9.22-3.433m-14.231 6.089-2.246 1.318-.021 7.298.67-.389c.366-2.785.863-5.55 1.597-8.227" opacity=".28"/><path fill="url(#G)" d="m74.454 68.458.021-7.083-.669 6.737-28.46 17.47z"/><path fill="#db854b" d="m6.176 79.75 39.128 22.587.064-24.055L.713 56.667z"/><path fill="#c9753d" d="m.713 56.667 5.463 23.084 39.128 22.586.021-6.845c-3.455-.065-7.126-.928-9.415-1.576-4.685-1.296-17.296-8.357-17.75-8.551-4.016-1.857-9.09-4.448-11.336-8.508-2.613-4.729-4.427-13.042-.8-17.62z"/><path fill="#c9753d" d="M2.376 63.685c7.234 2.353 18.656 10.3 21.161 12.308 6.392 5.053 10.43 9.501 13.928 15.03 1.641 2.59 2.419 4.923 4.319 9.306l3.498 2.03.065-24.055L.69 56.688z"/><path fill="url(#H)" d="m0 59.432 45.346 26.15.022-7.3L.022 52.113z"/><path fill="url(#I)" d="M41.352 82.428c-.864-2.699-1.922-5.355-2.742-8.054l-2.656-1.533c-.648 2.246-1.75 4.016-3.218 5.441l8.918 5.14c-.108-.324-.194-.648-.302-.994" opacity=".65"/><path fill="url(#J)" d="m4.75 62.174 8.098 4.664c-2.246-3.11-3.974-6.543-4.384-9.847l-3.001-1.727c-.238 2.31-.54 4.6-.713 6.91" opacity=".67"/><path fill="url(#K)" d="M18.527 68.954C13.474 66.104 2.872 61.072.021 57.077v2.354l45.347 26.15v-3.866c-3.757-1.122-18.527-8.076-26.84-12.761" opacity=".51"/><path fill="url(#L)" d="m0 59.431 45.346 26.15-.086-.605L0 59.108z"/><path fill="url(#M)" d="m44.202 78.477 1.144 7.104.022-7.298L.022 52.11 0 59.431l.54-6.585z"/><path fill="#93561b" d="m2.332 63.491.173.778L20.557 75.41l24.79 14.165-.044-.734L19.09 73.468zm2.052 8.637 31.289 18.484 9.673 4.578-.043-.605-41.07-23.062z"/><path fill="#602609" d="m72.079 73.813.15-.648-26.926 15.677.043.734zM51.802 91.476 70.718 80.03l.108-.518-25.523 15.072.043.605z"/><path fill="url(#N)" d="m10.73 84.631 2.074-1.058-1.21-.713-.95.432z"/><path fill="url(#O)" d="m7.667 82.86 3.066 1.77-.087-1.339-3.087-1.813z"/><path fill="url(#P)" d="m7.665 81.543 2.98 1.749-.886-9.674-3.39-1.857z"/><path fill="url(#Q)" d="m6.953 76.145.713 5.376 3.001 1.771-.28-3.066c-1.34-1.231-2.527-2.57-3.434-4.082"/><path fill="url(#R)" d="m10.645 83.292.95-.432-.67-9.652-1.165.41z"/><path fill="url(#S)" d="m9.76 73.618 1.165-.41-3.433-1.857-1.123.388z"/><path fill="#93561b" d="M7.644 73.207c-.67.216-.95 1.231-.627 2.224.324 1.015 1.145 1.642 1.836 1.426.67-.216.95-1.231.626-2.225-.345-1.014-1.166-1.662-1.835-1.425"/><path fill="url(#T)" d="M7.557 73.423c-.561.194-.777 1.08-.475 2.008.303.929.994 1.512 1.577 1.34.561-.195.777-1.08.475-2.01-.324-.928-1.015-1.532-1.577-1.338"/><path fill="#93561b" d="M1.987 55.414c-.669.216-.95 1.231-.626 2.246s1.145 1.641 1.836 1.425c.669-.216.95-1.23.626-2.224-.346-1.036-1.166-1.684-1.836-1.447"/><path fill="url(#U)" d="M1.901 55.631c-.561.194-.777 1.08-.475 2.008.302.907.993 1.512 1.576 1.34.562-.195.778-1.08.475-2.01-.302-.928-1.015-1.532-1.576-1.338"/><path fill="#93561b" d="M12.374 61.418c-.67.215-.95 1.23-.626 2.224.324 1.014 1.144 1.64 1.835 1.425.67-.216.95-1.231.627-2.224-.346-1.015-1.167-1.641-1.836-1.426"/><path fill="url(#V)" d="M12.288 61.634c-.562.194-.778 1.08-.475 2.008.302.907 1.015 1.512 1.576 1.339.561-.194.777-1.08.475-2.008-.324-.929-1.015-1.533-1.576-1.339"/><path fill="#93561b" d="M31.85 72.689c-.669.216-.95 1.23-.626 2.246.324 1.015 1.145 1.64 1.836 1.425.67-.216.95-1.231.626-2.224-.345-1.037-1.166-1.663-1.835-1.447"/><path fill="url(#W)" d="M31.764 72.906c-.561.172-.777 1.08-.475 2.008s.993 1.511 1.576 1.338c.562-.194.778-1.08.476-2.008s-1.015-1.533-1.577-1.338"/><path fill="#93561b" d="M42.237 78.693c-.669.216-.95 1.23-.626 2.246.324 1.015 1.145 1.64 1.836 1.425.67-.216.95-1.231.626-2.224-.346-1.015-1.166-1.663-1.836-1.447"/><path fill="url(#X)" d="M42.151 78.908c-.561.173-.777 1.08-.475 2.008.302.929.993 1.512 1.576 1.34.562-.195.778-1.08.475-2.009-.302-.928-1.014-1.512-1.576-1.339"/><path fill="#93561b" d="M47.053 80.14c-.324 1.015-.044 2.008.626 2.224s1.49-.41 1.835-1.425c.324-1.015.043-2.009-.626-2.246-.69-.216-1.511.432-1.835 1.447"/><path fill="url(#Y)" d="M47.399 80.247c-.303.907-.087 1.814.475 2.008.561.173 1.274-.41 1.576-1.339.302-.928.086-1.813-.475-2.008-.583-.173-1.274.41-1.576 1.339"/><path fill="#93561b" d="M61.822 73.273c.324-1.015.044-2.009-.626-2.225s-1.49.41-1.835 1.425c-.346 1.015-.043 2.009.626 2.225.67.237 1.49-.41 1.835-1.425"/><path fill="url(#Z)" d="M61.759 73.25c.302-.928.086-1.813-.476-2.007-.56-.195-1.273.41-1.576 1.317-.302.928-.086 1.814.475 2.008.562.194 1.274-.389 1.577-1.317"/><path fill="#93561b" d="M73.03 66.773c.324-1.015.043-2.009-.626-2.225-.67-.216-1.49.41-1.836 1.426-.324 1.014-.043 2.008.626 2.224.691.216 1.512-.432 1.836-1.425"/><path fill="url(#aa)" d="M72.964 66.752c.302-.929.086-1.814-.475-2.009-.562-.194-1.274.41-1.577 1.34-.302.906-.086 1.813.475 2.007.562.173 1.274-.431 1.577-1.338"/><path fill="#845203" d="M22.22 72.712c4.275 2.267 5.592.323 5.592.323v-3.908l-9.436-5.441-.087 4.189c0-.022-.086 2.699 3.93 4.837"/><path fill="url(#ab)" d="M21.722 72.474c4.276 2.267 5.14 1.166 5.14 1.166v-3.91l-9.437-5.441-.086 4.19c-.022 0 .345 1.856 4.383 3.994"/><path fill="#fff7ab" d="M24.379 68.307c1.015 1.684 1.792 3.584 2.138 5.528.259-.087.345-.195.345-.195v-3.908z" opacity=".32"/><path fill="#fff7ab" d="M21.4 69.17c-.583-1.555-1.426-2.915-2.462-3.995l-1.533-.885-.087 4.19s.367 1.878 4.384 4.016a.7.7 0 0 1 .173.086c0-1.253-.108-2.462-.475-3.412" opacity=".22"/><path fill="#fff7ab" d="M21.68 68.954c-.584-1.555-1.188-2.721-2.721-3.78L17.9 64.57c1.037 1.296 1.965 2.635 2.419 4.297.173.691.216 1.793.086 2.85.389.238.82.497 1.296.757a.7.7 0 0 1 .173.086c.28-1.145.172-2.635-.195-3.606" opacity=".32"/><path fill="#fff8d4" d="M22.393 67.594c1.317.777 3.239 1.36 4.06 2.418.086.13.323.734.388.886v-1.166l-9.436-5.442-.087 4.19s.065.323.454.884c-.26-1.1-.324-3.239.151-4.016.389-.691 3.218 1.49 4.47 2.246"/><path fill="url(#ac)" d="m26.84 69.732.972-.605-9.436-5.441-.972.604z"/><path fill="url(#ad)" d="M19.024 68.35c.389-.26 1.166-.368.972-.93-.108-.302-.67-.841-1.706-.712-1.166.238-2.03.907-2.224 1.879-.26 1.144 1.1 2.224 1.835 2.677 2.008 1.275 4.103 1.75 5.981 1.318.929-.216 2.117-.8 2.009-1.577s-1.706-1.187-2.505-.799c-.907.432-2.073.562-3.045.195-.799-.303-2.505-1.274-1.317-2.052"/><path fill="#f49c1c" d="M19.693 71.524c-1.403-.54-2.98-1.49-3.26-2.634-.303-1.166 1.295-1.88 2.461-2.181a2.8 2.8 0 0 0-.604 0c-1.166.237-2.03.907-2.224 1.878-.26 1.145 1.1 2.224 1.835 2.678 2.008 1.274 4.103 1.749 5.981 1.317.821-.194 1.836-.67 1.987-1.317-.194-.518-.54-.346-.67-.216-1.187 1.08-4.556.842-5.506.475"/><path fill="#f49c1c" d="M21.68 72.172c-3.174-.152-5.182-2.138-5.592-3.024.194.929 1.23 1.728 1.835 2.117 2.009 1.274 4.103 1.749 5.982 1.317.928-.216 2.116-.8 2.008-1.577-.065-.518-.82-.885-1.533-.95.086.065.108.195.237.26 1.231.518.605 2.03-2.936 1.856"/><path fill="#f49c1c" d="M18.571 68.133c-1.468 1.058 1.296 2.592 2.116 2.764.864.173 1.598.216 2.44-.13.583-.237 1.36-.474 2.095-.496-.562-.259-1.339-.302-1.814-.086-.907.432-2.073.561-3.045.194-.799-.302-2.504-1.252-1.338-2.03.388-.259 1.166-.367.971-.928a1.16 1.16 0 0 0-.54-.54c0 .022-.021.065 0 .086.367.454-.345.778-.885 1.166"/><path fill="#fff8d4" d="M18.01 67.831c.173-.15 1.252-.928.497-.907v.043c-1.058.13-2.354 1.447-1.684 2.484.302.475.928.907 1.381 1.187.476.303 1.188.735 1.771.627-.259-.368-.864-.67-1.252-.972-.367-.324-.8-.648-1.058-1.08-.367-.583-.13-.993.345-1.382"/><path fill="#845203" d="M20.385 72.063c-2.872-.604-4.146-2.44-4.319-2.893.195.928 1.231 1.727 1.836 2.116 2.008 1.274 4.103 1.75 5.981 1.317.929-.216 2.116-.799 2.009-1.576-.065-.518-.821-.885-1.534-.95.022.021 1.512.345 1.015 1.209-.583 1.015-2.785 1.23-4.988.777"/><path fill="url(#ae)" d="m39.106 99.703 3.001 1.771-.432-9.48-2.98-1.597z"/><path fill="url(#af)" d="m38.912 95.45.194 4.253 2.98 1.771L42 99.358c-1.058-1.274-2.16-2.57-3.088-3.909"/><path fill="url(#ag)" d="m42.108 101.474.95-.432-.346-9.394-1.036.346z"/><path fill="url(#ah)" d="m38.695 90.396 2.937 1.641 1.08-.388-2.894-1.62z"/><path fill="#93561b" d="M39.646 91.736c-.67.216-.95 1.23-.627 2.224.324 1.015 1.145 1.64 1.836 1.425.67-.216.95-1.23.626-2.224-.324-1.015-1.144-1.663-1.835-1.425"/><path fill="url(#ai)" d="M39.58 91.951c-.56.195-.777 1.08-.474 2.009.302.928 1.014 1.511 1.576 1.338.561-.194.777-1.08.475-2.008-.324-.928-1.015-1.533-1.576-1.339"/><path fill="url(#aj)" d="m42.172 102.791 2.073-1.058-1.209-.691-.95.41z"/><path fill="url(#ak)" d="m39.084 101.042 3.088 1.749-.086-1.339-3.088-1.792z"/><path fill="#fffb71" d="M38.271 16.645c-.813.813-.732 1.89.183 2.399.956.549 1.952.04 2.46-.834 1.2-1.93-1.484-3.232-2.643-1.565" opacity=".72"/><path fill="#fff" d="M44.472 77.044a3.926 3.926 0 0 1-3.923 3.923 3.926 3.926 0 0 1-3.924-3.923 3.913 3.913 0 0 1 3.924-3.924 3.913 3.913 0 0 1 3.923 3.924" opacity=".077"/><path fill="#fff" d="M40.548 80.764a3.72 3.72 0 1 0 0-7.44 3.72 3.72 0 0 0 0 7.44" opacity=".154"/><path fill="#fff" d="M44.065 77.043a3.518 3.518 0 0 1-7.034 0 3.518 3.518 0 0 1 7.034 0" opacity=".231"/><path fill="#fff" d="M40.55 80.337a3.293 3.293 0 1 0 0-6.587 3.293 3.293 0 0 0 0 6.587" opacity=".308"/><path fill="#fff" d="M43.64 77.043a3.09 3.09 0 0 1-3.091 3.09 3.09 3.09 0 0 1-3.09-3.09 3.09 3.09 0 0 1 3.09-3.09 3.09 3.09 0 0 1 3.09 3.09" opacity=".385"/><path fill="#fff" d="M43.436 77.044a2.9 2.9 0 0 1-2.887 2.887 2.9 2.9 0 0 1-2.887-2.887 2.9 2.9 0 0 1 2.887-2.887 2.885 2.885 0 0 1 2.887 2.887" opacity=".462"/><path fill="#fff" d="M40.549 79.726a2.683 2.683 0 1 0 0-5.367 2.683 2.683 0 0 0 0 5.367" opacity=".538"/><path fill="#fff" d="M43.008 77.043a2.455 2.455 0 0 1-2.46 2.46 2.455 2.455 0 0 1-2.46-2.46 2.455 2.455 0 0 1 2.46-2.46c1.362-.02 2.46 1.098 2.46 2.46" opacity=".615"/><path fill="#fff" d="M42.804 77.044a2.265 2.265 0 0 1-2.257 2.256 2.265 2.265 0 0 1-2.256-2.256 2.265 2.265 0 0 1 2.257-2.257c1.24 0 2.256.996 2.256 2.257" opacity=".692"/><path fill="#fff" d="M42.603 77.044a2.05 2.05 0 0 1-2.054 2.053 2.05 2.05 0 0 1-2.053-2.053c0-1.139.915-2.054 2.053-2.054 1.139 0 2.054.915 2.054 2.053" opacity=".769"/><path fill="#fff" d="M42.378 77.043c0 1.017-.834 1.85-1.85 1.85a1.857 1.857 0 0 1-1.85-1.85c0-1.016.833-1.85 1.85-1.85 1.037 0 1.85.834 1.85 1.85" opacity=".846"/><path fill="#fff" d="M42.175 77.044c0 .894-.732 1.626-1.627 1.626a1.63 1.63 0 0 1-1.626-1.626c0-.895.732-1.627 1.626-1.627.895-.02 1.627.712 1.627 1.627" opacity=".923"/><path fill="#fff" d="M41.971 77.043c0 .793-.63 1.423-1.423 1.423s-1.423-.63-1.423-1.423.63-1.423 1.423-1.423 1.423.63 1.423 1.423"/><path fill="#fff" d="M40.184 76.454c-.183.854-3.68 1.118-3.68 1.118s2.887.224 3.68.57c.731.325.955 6.586.955 6.586s.183-5.428.264-6.586c.04-.468 5.692-1.017 5.692-1.017s-3.883-.447-5.773-.63c-.203-.02-.57-4.92-.57-4.92s-.386 4.025-.569 4.88"/><path fill="#fff" d="M14.771 62.935a2.64 2.64 0 0 1-3.639.853 2.636 2.636 0 0 1-.833-3.638 2.64 2.64 0 0 1 3.639-.854 2.64 2.64 0 0 1 .833 3.639" opacity=".077"/><path fill="#fff" d="M14.65 62.874a2.503 2.503 0 0 1-3.457.793 2.503 2.503 0 0 1-.793-3.456 2.503 2.503 0 0 1 3.457-.793 2.503 2.503 0 0 1 .792 3.456" opacity=".154"/><path fill="#fff" d="M14.527 62.792c-.691 1.098-2.155 1.444-3.253.752a2.35 2.35 0 0 1-.752-3.252c.691-1.098 2.155-1.444 3.253-.752a2.35 2.35 0 0 1 .752 3.252" opacity=".231"/><path fill="#fff" d="M14.404 62.732a2.233 2.233 0 0 1-3.07.711 2.233 2.233 0 0 1-.711-3.07 2.233 2.233 0 0 1 3.07-.711c1.057.65 1.362 2.013.711 3.07" opacity=".308"/><path fill="#fff" d="M14.303 62.65a2.08 2.08 0 0 1-2.866.672 2.08 2.08 0 0 1-.671-2.867 2.08 2.08 0 0 1 2.866-.67 2.08 2.08 0 0 1 .671 2.866" opacity=".385"/><path fill="#fff" d="M14.18 62.57c-.569.914-1.768 1.179-2.683.63a1.94 1.94 0 0 1-.61-2.684c.57-.915 1.769-1.179 2.684-.63.894.59 1.179 1.769.61 2.683" opacity=".462"/><path fill="#fff" d="M14.059 62.508c-.529.834-1.647 1.098-2.48.57-.834-.529-1.098-1.647-.57-2.48a1.79 1.79 0 0 1 2.48-.57c.834.508 1.098 1.627.57 2.48" opacity=".538"/><path fill="#fff" d="M13.937 62.427a1.67 1.67 0 0 1-2.297.529 1.67 1.67 0 0 1-.529-2.297 1.65 1.65 0 0 1 2.277-.529 1.663 1.663 0 0 1 .55 2.297" opacity=".615"/><path fill="#fff" d="M13.815 62.345a1.52 1.52 0 1 1-2.582-1.606 1.52 1.52 0 1 1 2.582 1.606" opacity=".692"/><path fill="#fff" d="M13.694 62.285c-.407.65-1.26.833-1.911.447-.65-.407-.834-1.26-.447-1.911a1.387 1.387 0 0 1 1.91-.447c.671.406.854 1.26.448 1.91" opacity=".769"/><path fill="#fff" d="M13.572 62.203a1.225 1.225 0 0 1-1.708.386 1.225 1.225 0 0 1-.386-1.707 1.225 1.225 0 0 1 1.707-.387c.59.366.752 1.118.386 1.708" opacity=".846"/><path fill="#fff" d="M13.47 62.122a1.11 1.11 0 0 1-1.524.345 1.11 1.11 0 0 1-.346-1.524 1.09 1.09 0 0 1 1.504-.346c.529.346.671 1.016.366 1.525" opacity=".923"/><path fill="#fff" d="M13.348 62.061a.958.958 0 1 1-1.626-1.016.96.96 0 0 1 1.32-.305c.448.264.59.874.306 1.321"/><path fill="#fff" d="M12.534 61.085c-.407.427-2.5-.671-2.5-.671s1.585 1.159 1.89 1.647c.305.447-1.79 4.106-1.79 4.106s2.034-3.029 2.501-3.659c.183-.264 3.599 1.443 3.599 1.443s-2.054-1.646-3.07-2.419c-.102-.081 1.443-3.009 1.443-3.009s-1.667 2.135-2.073 2.562"/><path fill="#fff" d="M61.671 71.9a2.655 2.655 0 0 1-2.866 2.4 2.655 2.655 0 0 1-2.399-2.867c.122-1.444 1.423-2.521 2.867-2.4A2.655 2.655 0 0 1 61.67 71.9" opacity=".077"/><path fill="#fff" d="M61.53 71.9a2.51 2.51 0 0 1-2.725 2.278 2.48 2.48 0 0 1-2.257-2.724 2.48 2.48 0 0 1 2.725-2.257c1.362.102 2.378 1.321 2.256 2.704" opacity=".154"/><path fill="#fff" d="M61.386 71.88a2.35 2.35 0 0 1-2.561 2.134 2.364 2.364 0 0 1-2.135-2.561 2.35 2.35 0 0 1 2.562-2.135 2.35 2.35 0 0 1 2.134 2.562" opacity=".231"/><path fill="#fff" d="M61.244 71.86a2.217 2.217 0 0 1-2.419 2.012c-1.22-.101-2.114-1.2-2.012-2.419s1.199-2.114 2.419-2.013c1.22.123 2.134 1.2 2.012 2.42" opacity=".308"/><path fill="#fff" d="M61.1 71.86a2.09 2.09 0 0 1-2.256 1.89 2.09 2.09 0 0 1-1.89-2.256 2.09 2.09 0 0 1 2.256-1.891 2.064 2.064 0 0 1 1.89 2.256" opacity=".385"/><path fill="#fff" d="M60.96 71.839a1.956 1.956 0 0 1-2.115 1.769 1.94 1.94 0 0 1 .366-3.863 1.907 1.907 0 0 1 1.748 2.094" opacity=".462"/><path fill="#fff" d="M60.837 71.819a1.785 1.785 0 0 1-1.951 1.626 1.785 1.785 0 0 1-1.627-1.952 1.785 1.785 0 0 1 1.952-1.626 1.826 1.826 0 0 1 1.626 1.952" opacity=".538"/><path fill="#fff" d="M60.695 71.819a1.664 1.664 0 1 1-3.314-.306 1.664 1.664 0 0 1 3.314.306" opacity=".615"/><path fill="#fff" d="M60.553 71.798a1.537 1.537 0 0 1-1.647 1.383 1.537 1.537 0 0 1-1.382-1.647 1.54 1.54 0 0 1 1.646-1.382c.834.081 1.464.813 1.383 1.646" opacity=".692"/><path fill="#fff" d="M60.41 71.8a1.36 1.36 0 0 1-1.504 1.24 1.36 1.36 0 0 1-1.24-1.505 1.36 1.36 0 0 1 1.504-1.24c.752.06 1.301.732 1.24 1.504" opacity=".769"/><path fill="#fff" d="M60.268 71.778a1.23 1.23 0 0 1-1.342 1.118 1.23 1.23 0 0 1-1.118-1.341c.06-.671.67-1.18 1.342-1.118.67.06 1.179.65 1.118 1.341" opacity=".846"/><path fill="#fff" d="M60.125 71.758a1.097 1.097 0 0 1-1.2.996 1.097 1.097 0 0 1-.996-1.2c.061-.61.59-1.057 1.2-.996s1.057.61.996 1.2" opacity=".923"/><path fill="#fff" d="M59.982 71.759a.958.958 0 1 1-1.91-.163.96.96 0 0 1 1.036-.874.93.93 0 0 1 .874 1.037"/><path fill="#fff" d="M58.824 71.25c-.183.57-2.54.529-2.54.529s1.93.325 2.439.61c.467.264.244 4.472.244 4.472s.447-3.639.569-4.391c.06-.325 3.862-.325 3.862-.325s-2.581-.529-3.821-.773c-.143-.02-.082-3.334-.082-3.334s-.488 2.643-.67 3.212"/><g clip-path="url(#al)"><path fill="#f98b00" d="M47.301 23.568c-12.088-7.589-23.131-11.76-24.666-9.314s7.02 10.579 19.107 18.168c12.088 7.59 23.13 11.76 24.666 9.315 1.535-2.445-7.02-10.58-19.107-18.169"/><path fill="#ffec6c" d="M47.784 22.802c-16.373-10.28-31.89-15.038-34.66-10.628-2.768 4.41 8.26 16.319 24.632 26.599C54.128 49.052 69.646 53.809 72.415 49.4c2.769-4.41-8.259-16.32-24.631-26.598m18.625 18.935c-1.535 2.444-12.578-1.726-24.666-9.315-12.087-7.59-20.642-15.724-19.107-18.168 1.535-2.445 12.579 1.725 24.666 9.314S67.944 39.292 66.41 41.737"/><path fill="#ffa300" stroke="#000" stroke-width=".5" d="M38.67 12.853c9.904-2.265 19.77 3.93 22.035 13.834 2.264 9.905-3.93 19.77-13.835 22.035-9.905 2.264-19.77-3.93-22.035-13.835-2.264-9.904 3.93-19.77 13.835-22.034Z"/><path fill="url(#am)" stroke="#000" stroke-width=".5" d="M26.696 20.695c4.834-7.7 14.698-10.184 22.023-5.585 7.327 4.6 9.375 14.565 4.541 22.264-4.834 7.7-14.698 10.185-22.025 5.585s-9.373-14.565-4.539-22.264Z"/><path fill="url(#an)" stroke="#000" stroke-width=".5" d="M34.042 13.93a2.08 2.08 0 0 1 2.635 1.309c3.217 9.574 12.818 15.575 22.834 14.27a2.082 2.082 0 0 1 .537 4.127h.001c-11.982 1.562-23.471-5.618-27.317-17.071a2.08 2.08 0 0 1 1.31-2.635Z"/><path fill="#f98b00" stroke="#000" stroke-width=".5" d="M55.259 31.81a2.08 2.08 0 0 1 2.029-2.13q.837-.021 1.67-.107l.554-.065a2.082 2.082 0 0 1 .534 4.128 26 26 0 0 1-2.657.204 2.08 2.08 0 0 1-2.114-1.817z"/><path fill="#ffa300" stroke="#000" stroke-width=".5" d="M25.459 23.044a2.08 2.08 0 0 1 2.492 1.566l.136.561c2.992 11.71 14.836 18.988 26.686 16.279a2.08 2.08 0 1 1 .927 4.057c-14.273 3.263-28.543-5.695-31.806-19.97l-.037-.21a2.08 2.08 0 0 1 1.602-2.283ZM42.325 12.68a2.08 2.08 0 0 1 2.919.374A21.4 21.4 0 0 0 56.39 20.54a2.082 2.082 0 0 1-.989 4.042l-.125-.03a25.6 25.6 0 0 1-13.324-8.954 2.08 2.08 0 0 1 .373-2.918Z"/><path fill="#f98b00" stroke="#000" stroke-width=".5" d="M43.681 43.42a2.08 2.08 0 0 1 2.397-1.707 22.3 22.3 0 0 0 8.693-.262 2.08 2.08 0 1 1 .928 4.057 26.4 26.4 0 0 1-10.309.309 2.08 2.08 0 0 1-1.709-2.397Z"/><path fill="#ffec6c" d="M37.755 38.773c6.844 4.297 13.525 7.611 19.201 9.712l4.158-6.62c-4.673-1.293-11.818-4.7-19.372-9.443-7.553-4.742-13.727-9.697-16.921-13.344l-4.157 6.62c4.359 4.2 10.247 8.777 17.09 13.075z"/><path fill="#ffff9d" d="M27.1 30.157a2.32 2.32 0 0 1-2.013-.48C22.57 27.582 10.162 16.89 13.124 12.175a2.33 2.33 0 0 1 4.218 1.865c.382 1.394 3.365 5.926 10.728 12.055a2.33 2.33 0 0 1-.97 4.062M17.075 14.65l-.004.005zm43.021 34.557a2.33 2.33 0 0 1-1.259-.062c-6.312-2.116-13.8-5.8-21.081-10.371a130 130 0 0 1-7.398-4.997 2.331 2.331 0 0 1 2.75-3.766 124 124 0 0 0 7.127 4.815c6.978 4.381 14.11 7.897 20.085 9.898a2.332 2.332 0 0 1-.224 4.483m9.994 1.637c-1.413.323-3.24.266-5.588-.175a2.332 2.332 0 0 1 .863-4.582c2.247.422 3.302.297 3.669.216a2.33 2.33 0 0 1 3.374 3.109c-.444.7-1.226 1.182-2.318 1.432m-1.612-3.938-.004.005z"/><path fill="#d6deff" stroke="#000" stroke-width=".5" d="M44.612 54.533a.916.916 0 1 1 .409 1.785.916.916 0 0 1-.41-1.785ZM22.603 52.39a.916.916 0 1 1 .407 1.786.916.916 0 0 1-.407-1.786Zm39.44-20.972a2.081 2.081 0 1 1 .927 4.058 2.081 2.081 0 0 1-.927-4.058Zm-37.395 3.767a2.08 2.08 0 1 1 .926 4.057 2.08 2.08 0 0 1-.926-4.057Zm39.44-20.972A.915.915 0 1 1 64.495 16a.915.915 0 0 1-.407-1.786ZM50.746 2.918a2.08 2.08 0 1 1 .926 4.058 2.08 2.08 0 0 1-.926-4.058ZM20.069 9.931a.915.915 0 1 1 .408 1.784.915.915 0 0 1-.408-1.784Z"/></g></g><defs><linearGradient id="b" x1="37.14" x2="45.093" y1="40.502" y2="40.548" gradientUnits="userSpaceOnUse"><stop stop-color="#ffd612"/><stop offset=".654" stop-color="#fa0"/></linearGradient><linearGradient id="c" x1="38.303" x2="43.934" y1="39.907" y2="39.94" gradientUnits="userSpaceOnUse"><stop stop-color="#fff654"/><stop offset=".654" stop-color="#ffd947"/></linearGradient><linearGradient id="d" x1="60.124" x2="68.076" y1="53.81" y2="53.855" gradientUnits="userSpaceOnUse"><stop stop-color="#ffd612"/><stop offset=".654" stop-color="#fa0"/></linearGradient><linearGradient id="e" x1="61.286" x2="66.92" y1="53.214" y2="53.246" gradientUnits="userSpaceOnUse"><stop stop-color="#fff654"/><stop offset=".654" stop-color="#ffd947"/></linearGradient><linearGradient id="f" x1="37.241" x2="45.194" y1="40.539" y2="40.539" gradientUnits="userSpaceOnUse"><stop stop-color="#ffd612"/><stop offset=".654" stop-color="#fa0"/></linearGradient><linearGradient id="g" x1="38.4" x2="44.034" y1="39.937" y2="39.937" gradientUnits="userSpaceOnUse"><stop stop-color="#fff654"/><stop offset=".654" stop-color="#ffd947"/></linearGradient><linearGradient id="h" x1="60.301" x2="68.251" y1="53.716" y2="53.716" gradientUnits="userSpaceOnUse"><stop stop-color="#ffd612"/><stop offset=".654" stop-color="#fa0"/></linearGradient><linearGradient id="i" x1="61.459" x2="67.091" y1="53.115" y2="53.115" gradientUnits="userSpaceOnUse"><stop stop-color="#fff654"/><stop offset=".654" stop-color="#ffd947"/></linearGradient><linearGradient id="j" x1="61.384" x2="73.859" y1="14.887" y2="14.887" gradientUnits="userSpaceOnUse"><stop stop-color="#fff654"/><stop offset=".654" stop-color="#ffd947"/></linearGradient><linearGradient id="k" x1="75.393" x2="93.094" y1="45.245" y2="45.245" gradientUnits="userSpaceOnUse"><stop stop-color="#c67602"/><stop offset=".654" stop-color="#dd9300"/></linearGradient><linearGradient id="l" x1="29.849" x2="87.754" y1="31.69" y2="31.69" gradientUnits="userSpaceOnUse"><stop stop-color="#a1d7de"/><stop offset=".654" stop-color="#77b4bd"/></linearGradient><linearGradient id="m" x1="61.823" x2="45.753" y1="38.528" y2="52.013" gradientUnits="userSpaceOnUse"><stop stop-color="#fff654"/><stop offset=".654" stop-color="#ffd947"/></linearGradient><linearGradient id="n" x1="87.755" x2="72.709" y1="44.855" y2="44.855" gradientUnits="userSpaceOnUse"><stop stop-color="#fff654"/><stop offset=".654" stop-color="#ffd947"/></linearGradient><linearGradient id="o" x1="29.849" x2="44.635" y1="18.525" y2="18.525" gradientUnits="userSpaceOnUse"><stop stop-color="#fff654"/><stop offset=".654" stop-color="#ffd947"/></linearGradient><linearGradient id="p" x1="42.147" x2="87.755" y1="18.525" y2="18.525" gradientUnits="userSpaceOnUse"><stop stop-color="#fff654"/><stop offset=".654" stop-color="#ffd947"/></linearGradient><linearGradient id="q" x1="85.941" x2="80.376" y1="47.16" y2="44.201" gradientUnits="userSpaceOnUse"><stop stop-color="#ce7b02"/><stop offset=".654" stop-color="#e69900"/></linearGradient><linearGradient id="r" x1="60.272" x2="73.514" y1="17.163" y2="17.163" gradientUnits="userSpaceOnUse"><stop stop-color="#f59d0f"/><stop offset=".654" stop-color="#f57f00"/></linearGradient><linearGradient id="s" x1="44.634" x2="80.87" y1="23.577" y2="23.577" gradientUnits="userSpaceOnUse"><stop stop-color="#ce7b02"/><stop offset=".654" stop-color="#e69900"/></linearGradient><linearGradient id="t" x1="36.456" x2="45.534" y1="21.959" y2="21.959" gradientUnits="userSpaceOnUse"><stop stop-color="#ce7b02"/><stop offset=".654" stop-color="#e69900"/></linearGradient><linearGradient id="u" x1="82.582" x2="89.784" y1="46.902" y2="46.902" gradientUnits="userSpaceOnUse"><stop offset=".248" stop-color="#9f5c03"/><stop offset=".737" stop-color="#98540a"/><stop offset="1" stop-color="#934d0f"/></linearGradient><linearGradient id="v" x1="82.439" x2="89.646" y1="47.123" y2="47.164" gradientUnits="userSpaceOnUse"><stop offset=".248" stop-color="#9f5c03"/><stop offset=".737" stop-color="#98540a"/><stop offset="1" stop-color="#934d0f"/></linearGradient><linearGradient id="w" x1="82.555" x2="89.759" y1="46.901" y2="46.901" gradientUnits="userSpaceOnUse"><stop offset=".248" stop-color="#9f5c03"/><stop offset=".737" stop-color="#98540a"/><stop offset="1" stop-color="#934d0f"/></linearGradient><linearGradient id="x" x1="29.133" x2="74.484" y1="48.281" y2="48.281" gradientUnits="userSpaceOnUse"><stop stop-color="#fae848"/><stop offset=".654" stop-color="#facc3d"/></linearGradient><linearGradient id="y" x1="28.813" x2="3.399" y1="34.806" y2="56.131" gradientUnits="userSpaceOnUse"><stop stop-color="#fae848"/><stop offset=".654" stop-color="#facc3d"/></linearGradient><linearGradient id="z" x1="37.354" x2="45.306" y1="40.54" y2="40.54" gradientUnits="userSpaceOnUse"><stop stop-color="#ffd612"/><stop offset=".654" stop-color="#fa0"/></linearGradient><linearGradient id="A" x1="38.512" x2="44.145" y1="39.938" y2="39.938" gradientUnits="userSpaceOnUse"><stop stop-color="#fff654"/><stop offset=".654" stop-color="#ffd947"/></linearGradient><linearGradient id="B" x1="37.241" x2="45.193" y1="40.565" y2="40.565" gradientUnits="userSpaceOnUse"><stop stop-color="#ffd612"/><stop offset=".654" stop-color="#fa0"/></linearGradient><linearGradient id="C" x1="38.398" x2="44.033" y1="39.965" y2="39.965" gradientUnits="userSpaceOnUse"><stop stop-color="#fff654"/><stop offset=".654" stop-color="#ffd947"/></linearGradient><linearGradient id="D" x1=".022" x2="45.37" y1="65.199" y2="65.199" gradientUnits="userSpaceOnUse"><stop stop-color="#fff654"/><stop offset=".654" stop-color="#ffd947"/></linearGradient><linearGradient id="E" x1="45.37" x2="74.484" y1="69.712" y2="69.712" gradientUnits="userSpaceOnUse"><stop stop-color="#fff654"/><stop offset=".654" stop-color="#ffd947"/></linearGradient><linearGradient id="F" x1="45.349" x2="74.484" y1="73.477" y2="73.477" gradientUnits="userSpaceOnUse"><stop stop-color="#ce7b02"/><stop offset=".654" stop-color="#e69900"/></linearGradient><linearGradient id="G" x1="45.349" x2="74.484" y1="73.477" y2="73.477" gradientUnits="userSpaceOnUse"><stop stop-color="#fff654"/><stop offset=".654" stop-color="#ffd947"/></linearGradient><linearGradient id="H" x1="-.002" x2="45.37" y1="68.844" y2="68.844" gradientUnits="userSpaceOnUse"><stop stop-color="#ffd612"/><stop offset=".654" stop-color="#fa0"/></linearGradient><linearGradient id="I" x1=".003" x2="45.37" y1="78.146" y2="78.146" gradientUnits="userSpaceOnUse"><stop stop-color="#fff654"/><stop offset=".654" stop-color="#ffd947"/></linearGradient><linearGradient id="J" x1="-.003" x2="45.373" y1="61.038" y2="61.038" gradientUnits="userSpaceOnUse"><stop stop-color="#fff654"/><stop offset=".654" stop-color="#ffd947"/></linearGradient><linearGradient id="K" x1="-.002" x2="45.36" y1="71.329" y2="71.329" gradientUnits="userSpaceOnUse"><stop stop-color="#fff654"/><stop offset=".654" stop-color="#ffd947"/></linearGradient><linearGradient id="L" x1="-.002" x2="45.349" y1="72.346" y2="72.346" gradientUnits="userSpaceOnUse"><stop stop-color="#fff654"/><stop offset=".654" stop-color="#ffd947"/></linearGradient><linearGradient id="M" x1="-.002" x2="45.37" y1="68.844" y2="68.844" gradientUnits="userSpaceOnUse"><stop stop-color="#f59d0f"/><stop offset=".654" stop-color="#f57f00"/></linearGradient><linearGradient id="N" x1="10.654" x2="12.811" y1="83.746" y2="83.746" gradientUnits="userSpaceOnUse"><stop stop-color="#b5601a"/><stop offset=".654" stop-color="#e27e00"/></linearGradient><linearGradient id="O" x1="9.558" x2="8.724" y1="82.497" y2="83.644" gradientUnits="userSpaceOnUse"><stop stop-color="#ffd612"/><stop offset=".654" stop-color="#fa0"/></linearGradient><linearGradient id="P" x1="6.372" x2="10.654" y1="77.525" y2="77.525" gradientUnits="userSpaceOnUse"><stop stop-color="#f9aa0b"/><stop offset=".654" stop-color="#fa0"/></linearGradient><linearGradient id="Q" x1="6.373" x2="10.655" y1="79.721" y2="79.721" gradientUnits="userSpaceOnUse"><stop stop-color="#fff654"/><stop offset=".654" stop-color="#ffd947"/></linearGradient><linearGradient id="R" x1="9.767" x2="11.606" y1="78.253" y2="78.253" gradientUnits="userSpaceOnUse"><stop stop-color="#b5601a"/><stop offset=".654" stop-color="#e27e00"/></linearGradient><linearGradient id="S" x1="6.372" x2="10.916" y1="72.49" y2="72.49" gradientUnits="userSpaceOnUse"><stop stop-color="#fff654"/><stop offset=".654" stop-color="#ffd947"/></linearGradient><linearGradient id="ab" x1="17.327" x2="26.849" y1="69.098" y2="69.098" gradientUnits="userSpaceOnUse"><stop stop-color="#ffdd12"/><stop offset=".654" stop-color="#ffb000"/></linearGradient><linearGradient id="ac" x1="17.41" x2="27.811" y1="66.707" y2="66.707" gradientUnits="userSpaceOnUse"><stop stop-color="#f59d0f"/><stop offset=".654" stop-color="#f57f00"/></linearGradient><linearGradient id="ad" x1="16.039" x2="25.907" y1="69.714" y2="69.714" gradientUnits="userSpaceOnUse"><stop stop-color="#fff654"/><stop offset=".654" stop-color="#ffd947"/></linearGradient><linearGradient id="ae" x1="38.692" x2="42.099" y1="95.936" y2="95.936" gradientUnits="userSpaceOnUse"><stop stop-color="#f9aa0b"/><stop offset=".654" stop-color="#fa0"/></linearGradient><linearGradient id="af" x1="38.694" x2="42.1" y1="98.457" y2="98.457" gradientUnits="userSpaceOnUse"><stop stop-color="#fff654"/><stop offset=".654" stop-color="#ffd947"/></linearGradient><linearGradient id="ag" x1="41.673" x2="43.052" y1="96.554" y2="96.554" gradientUnits="userSpaceOnUse"><stop stop-color="#b5601a"/><stop offset=".654" stop-color="#e27e00"/></linearGradient><linearGradient id="ah" x1="38.692" x2="42.703" y1="91.025" y2="91.025" gradientUnits="userSpaceOnUse"><stop stop-color="#fff654"/><stop offset=".654" stop-color="#ffd947"/></linearGradient><linearGradient id="aj" x1="42.082" x2="44.241" y1="101.909" y2="101.909" gradientUnits="userSpaceOnUse"><stop stop-color="#b5601a"/><stop offset=".654" stop-color="#e27e00"/></linearGradient><linearGradient id="ak" x1="40.985" x2="40.151" y1="100.661" y2="101.808" gradientUnits="userSpaceOnUse"><stop stop-color="#ffd612"/><stop offset=".654" stop-color="#fa0"/></linearGradient><linearGradient id="am" x1="36.342" x2="43.614" y1="13.128" y2="44.941" gradientUnits="userSpaceOnUse"><stop stop-color="#ffbe00"/><stop offset="1" stop-color="#f70"/></linearGradient><linearGradient id="an" x1="44.397" x2="50.086" y1="11.295" y2="36.179" gradientUnits="userSpaceOnUse"><stop stop-color="#ffa300"/><stop offset="1" stop-color="#ffcd73"/></linearGradient><radialGradient id="T" cx="0" cy="0" r="1" gradientTransform="matrix(1.4524 0 0 1.45238 8.103 75.08)" gradientUnits="userSpaceOnUse"><stop stop-color="#fcfce6"/><stop offset=".267" stop-color="#fff654"/><stop offset=".697" stop-color="#ffd947"/></radialGradient><radialGradient id="U" cx="0" cy="0" r="1" gradientTransform="translate(2.456 57.287)scale(1.45259)" gradientUnits="userSpaceOnUse"><stop stop-color="#fcfce6"/><stop offset=".267" stop-color="#fff654"/><stop offset=".697" stop-color="#ffd947"/></radialGradient><radialGradient id="V" cx="0" cy="0" r="1" gradientTransform="matrix(1.45281 0 0 1.45282 12.836 63.296)" gradientUnits="userSpaceOnUse"><stop stop-color="#fcfce6"/><stop offset=".267" stop-color="#fff654"/><stop offset=".697" stop-color="#ffd947"/></radialGradient><radialGradient id="W" cx="0" cy="0" r="1" gradientTransform="translate(32.319 74.57)scale(1.45259)" gradientUnits="userSpaceOnUse"><stop stop-color="#fcfce6"/><stop offset=".267" stop-color="#fff654"/><stop offset=".697" stop-color="#ffd947"/></radialGradient><radialGradient id="X" cx="0" cy="0" r="1" gradientTransform="matrix(1.45324 0 0 1.45325 42.7 80.58)" gradientUnits="userSpaceOnUse"><stop stop-color="#fcfce6"/><stop offset=".267" stop-color="#fff654"/><stop offset=".697" stop-color="#ffd947"/></radialGradient><radialGradient id="Y" cx="0" cy="0" r="1" gradientTransform="matrix(1.45348 0 0 1.45346 48.412 80.58)" gradientUnits="userSpaceOnUse"><stop stop-color="#fcfce6"/><stop offset=".267" stop-color="#fff654"/><stop offset=".697" stop-color="#ffd947"/></radialGradient><radialGradient id="Z" cx="0" cy="0" r="1" gradientTransform="translate(60.73 72.921)scale(1.45281)" gradientUnits="userSpaceOnUse"><stop stop-color="#fcfce6"/><stop offset=".267" stop-color="#fff654"/><stop offset=".697" stop-color="#ffd947"/></radialGradient><radialGradient id="aa" cx="0" cy="0" r="1" gradientTransform="matrix(1.45304 0 0 1.45302 71.942 66.41)" gradientUnits="userSpaceOnUse"><stop stop-color="#fcfce6"/><stop offset=".267" stop-color="#fff654"/><stop offset=".697" stop-color="#ffd947"/></radialGradient><radialGradient id="ai" cx="0" cy="0" r="1" gradientTransform="translate(40.122 93.613)scale(1.45259)" gradientUnits="userSpaceOnUse"><stop stop-color="#fcfce6"/><stop offset=".267" stop-color="#fff654"/><stop offset=".697" stop-color="#ffd947"/></radialGradient><clipPath id="a"><path fill="#fff" d="M0 0h94v104H0z"/></clipPath><clipPath id="al"><path fill="#fff" d="M12 11.439 62.032 0 73.47 50.033 23.438 61.47z"/></clipPath></defs></svg>