<svg xmlns="http://www.w3.org/2000/svg" width="94" height="100" fill="none" viewBox="0 0 94 100"><path fill="url(#a)" d="m37.14 35.997 6.328 3.692 1.62-2.483-6.544-3.844z"/><path fill="#934f21" d="M43.986 38.026c-.561.324-1.339.108-1.879-.151-.69-.346-1.338-.799-2.03-1.144-.604-.303-1.187-.648-1.662-1.145a1.96 1.96 0 0 1-.497-1.123l-.799 1.512 6.327 3.692 1.62-2.483-.648-.389c.172.475.043.972-.432 1.231" opacity=".41"/><path fill="url(#b)" d="m38.307 34.895 3.325 1.944 2.29.647-5.313-3.11z"/><path fill="url(#c)" d="m68.063 50.508-6.543-3.844-1.404 2.634 6.327 3.693z"/><path fill="#934f21" d="M66.961 51.35c-.561.324-1.338.108-1.878-.151-.713-.346-1.339-.8-2.03-1.145-.605-.302-1.188-.648-1.663-1.144a1.96 1.96 0 0 1-.496-1.123l-.8 1.511 6.328 3.693 1.62-2.483-.649-.389c.173.453.043.95-.432 1.23" opacity=".41"/><path fill="url(#d)" d="m61.585 47.679-.303.518 3.326 1.944 2.31.647z"/><path fill="url(#e)" d="m37.249 36.018 6.327 3.671 1.62-2.505-6.565-3.8z"/><path fill="#934f21" d="M44.094 38.026c-.562.324-1.339.13-1.879-.13-.712-.323-1.339-.777-2.03-1.144-.604-.302-1.187-.626-1.662-1.123a1.96 1.96 0 0 1-.497-1.122l-.799 1.533 6.349 3.67 1.62-2.504-.649-.367c.13.432.022.928-.453 1.187" opacity=".41"/><path fill="url(#f)" d="m38.393 34.917 3.326 1.943 2.31.605-5.333-3.067z"/><path fill="url(#g)" d="m68.257 50.356-6.586-3.779-1.36 2.613 6.326 3.671z"/><path fill="#934f21" d="M67.156 51.199c-.562.324-1.34.108-1.879-.13-.713-.324-1.339-.777-2.03-1.144-.604-.303-1.187-.627-1.663-1.123a1.96 1.96 0 0 1-.496-1.123l-.8 1.533 6.35 3.65 1.619-2.506-.648-.367c.13.454 0 .95-.453 1.21" opacity=".41"/><path fill="url(#h)" d="m61.757 47.57-.302.519 3.325 1.943 2.31.627z"/><path fill="url(#i)" d="M70.74 15.764c.303.194.605.388.929.54.15.086.324.15.475.237.173-.216.41-.454.583-.82 1.879-4.19 1.382-6.565-.993-8.4-1.447-1.102-3.952-2.376-6.068-2.074-2.505.346-3.455 2.83-4.211 4.859v.043c.475.41 1.447.972 2.138 1.36 0 0 .799-3.735 2.634-3.865 1.576-.108 5.031 1.253 5.183 3.477.108 1.533-.8 3.196-1.231 4.124.065.043.108.087.172.13.044.043.346.28.216.194 0 .086.087.151.173.194"/><path fill="#f49c1c" d="M70.74 15.764c.303.194.605.388.929.54.15.086.324.15.475.237.173-.216.41-.454.583-.82 1.879-4.19 1.382-6.565-.993-8.4-1.447-1.102-3.952-2.376-6.068-2.074-2.505.346-3.455 2.83-4.211 4.859v.043c.151.13.367.28.605.432.021-.065.021-.108.043-.151a8 8 0 0 1 .345-1.533c.432-1.728 1.469-2.656 2.721-3.002.26-.086.54-.15.842-.173.324-.021.691 0 1.08.065 1.21.151 2.44.67 3.455 1.404.993.67 1.814 1.533 2.138 2.44.777 2.224.216 5.247-2.505 5.593 0 0 0 .021-.022.043.065.043.108.086.173.13.043.043.345.28.216.194.021.065.108.13.194.173" opacity=".5"/><path fill="#f49c1c" d="M71.367 9.328c-.67-1.015-2.397-1.943-3.542-2.202-3.217-.756-2.807 1.317-4.794 1.922-.496.15-.82-.065-1.014-.41-.217.496-.41 1.014-.605 1.51v.044c.475.41 1.447.972 2.138 1.36 0 0 .799-3.735 2.634-3.865 1.576-.108 5.031 1.253 5.183 3.477.107 1.533-.8 3.196-1.231 4.124.064.043.108.086.172.13.043.043.346.28.216.194.087.043.151.108.238.151.302.194.604.389.928.54.151.086.324.151.475.238.173-.216.41-.454.583-.821.216-.475.39-.907.54-1.339a1 1 0 0 1-.259.043c-.928.043-1.468-.453-1.425-1.295 0-.95.777-2.246-.237-3.8" opacity=".5"/><path fill="#602609" d="M73.353 16.476 60.786 9.177l-.648 1.253 12.567 7.277z"/><path fill="url(#j)" d="M91.513 45.778c2.397-6.737 1.987-12.934-.67-16.713-.82-1.166-2.353-2.203-3.13-2.786l-12.33 29.043c4.729 2.03 12.373 1.08 16.13-9.544"/><path fill="#93561b" d="m87.713 26.301-12.33 29.043c1.187.497 2.548.82 3.995.843l11.466-27.122c-.82-1.166-2.484-1.382-3.131-2.764"/><path fill="url(#k)" d="m29.842 29.065 45.606 26.322 12.308-29.064L42.151 0z"/><path fill="url(#l)" d="m29.842 29.065 45.606 26.323-2.743-7.882L36.45 26.863z"/><path fill="#fff" d="M73.44 51.955c.69 1.1 1.381 2.159 1.964 3.303l-2.699-7.73-1.533-.864c.756 1.75 1.252 3.65 2.267 5.29"/><path fill="#fffde1" d="M71.993 47.096 36.45 26.863l-6.608 2.18 12.438 7.191c10.214 2.872 20.276 6.133 29.713 10.862" opacity=".48"/><path fill="#fffde1" d="m41.265 29.605-4.815-2.742-6.608 2.18.993.583c.54.044 7.688.087 10.43-.021" opacity=".75"/><path fill="#fff" d="m37.486 27.467-1.036-.604-6.608 2.202z" opacity=".75"/><path fill="url(#m)" d="m80.868 29.065-8.163 18.44 2.743 7.882 12.308-29.064z"/><path fill="#fff" d="m86.115 26.97-5.247 2.095-8.163 18.44 1.75 5.032c1.468-9.544 4.707-18.657 11.66-25.567" opacity=".45"/><path fill="url(#n)" d="m29.842 29.065 6.608-2.203 8.184-18.894L42.15 0z"/><path fill="#fff8d4" d="M36.083 14.295 30.835 26.69c2.44-2.268 5.204-4.017 8.076-5.55l4.038-9.35c-2.267.713-4.664 1.469-6.866 2.505" opacity=".64"/><path fill="url(#o)" d="m44.634 7.968 36.233 21.097 6.889-2.742L42.15 0z"/><path fill="#fff" d="m42.15 0 2.483 7.968.907.518C45.022 6.154 42.15 0 42.15 0m37.81 28.525.908.54 6.888-2.742-.518-.303c-1.49.41-6.327 2.095-7.277 2.505"/><path fill="#fff8d4" d="M68.646 15.288c-6.22-1.598-12.59-3.908-18.938-4.361l16.54 9.63c3.348-.734 6.824-.928 10.322-.69z" opacity=".64"/><path fill="#db854b" d="m72.705 47.506 8.163-18.441L44.634 7.968 36.45 26.862z"/><path fill="#e89054" d="M77.024 37.746c-2.526-1.102-5.074-2.138-7.774-2.721-4.34-.928-9.5-1.706-13.863-.432-1.144.346-2.289.734-3.433 1.101l20.751 11.812z"/><path fill="#6b340e" d="M44.634 31.527c2.591-6.932 8.076-9.35 16.281-7.796 5.615 1.08 13.345 6.09 18.398 8.854l1.555-3.52L44.634 7.968 36.45 26.884z" opacity=".25"/><path fill="#592a0a" d="M42.474 13.02c3.585.368 7.083 1.923 10.279 3.456 4.319 2.073 8.616 4.21 12.761 6.543 3.671 2.073 7.3 4.275 10.776 6.694 1.144.647 2.267 1.295 3.368 2.008l1.188-2.656L44.634 7.968l-2.181 5.053z" opacity=".25"/><path fill="#592a0a" d="M47.808 22.976c2.094-5.377 0-9.825-2.246-12.028L38.35 27.964c3.563.712 7.817-.756 9.458-4.988" opacity=".41"/><path fill="#592a0a" d="M38.5 27.985c1.21-2.44 4.017-8.291 5.594-10.494 1.317-1.857 2.828-2.958 4.47-.346-.346-2.699-1.642-4.858-3.002-6.197L38.35 27.964a.4.4 0 0 1 .15.021" opacity=".41"/><path fill="url(#p)" d="M87.756 26.323 75.448 55.387l3.39 1.145L90.67 28.525z"/><path fill="url(#q)" d="M73.504 16.195 60.915 8.897l-.648 1.274 12.59 7.255z"/><path fill="url(#r)" d="m79.94 31.181.928-2.116L44.634 7.968l.907 2.98z"/><path fill="url(#s)" d="m38.35 27.942 7.19-16.994-.906-2.98-8.184 18.894z"/><path fill="#fff8d4" d="M64.65 7.04c1.145-.886 3.132-.411 3.823-.087.734.324 2.246 1.339 2.462 1.058.237-.302-2.354-1.835-3.758-2.03-1.187-.15-3.066-.15-3.865 1.469-.561 1.122.367.345 1.339-.41"/><path fill="url(#t)" d="m89.268 34.788-6.694 16.238s3.54-.346 5.895-6.478c2.375-6.133.799-9.76.799-9.76"/><path fill="#7a4315" d="M87.151 47.247c.454-.756.907-1.641 1.318-2.7 2.353-6.11.799-9.76.799-9.76l-1.058 2.57c.777.497.583 2.635.56 3.26-.129 2.311-.776 4.125-1.619 6.63"/><path fill="url(#u)" d="m89.181 35.046-6.78 16.196s3.541-.324 5.938-6.457c2.397-6.09.842-9.739.842-9.739"/><path fill="#7a4315" d="M87 47.484c.475-.756.929-1.62 1.339-2.699 2.397-6.11.842-9.739.842-9.739l-1.08 2.57c.778.497.583 2.635.54 3.26-.13 2.311-.799 4.125-1.64 6.608"/><path fill="url(#v)" d="m89.246 34.788-6.694 16.238s3.541-.346 5.895-6.478c2.375-6.133.799-9.76.799-9.76"/><path fill="#7a4315" d="M87.13 47.247c.453-.756.907-1.641 1.317-2.7 2.354-6.11.799-9.76.799-9.76l-1.058 2.57c.777.497.605 2.635.561 3.26-.13 2.311-.777 4.125-1.62 6.63"/><path fill="url(#w)" d="m29.346 37.206 35.391 19.93 9.739.238L29.13 31.181z"/><path fill="#ffb206" d="m64.737 57.137 9.739.238-8.638-1.21-36.493-18.959z"/><path fill="url(#x)" d="m10.56 48.11 18.786-10.904-.216-6.025L.022 48.111z"/><path fill="#eda507" d="M.022 48.111h10.537l18.787-10.905L9.76 47.118l-7.104.172 3.952-3.001z"/><path fill="#b96a42" d="m10.56 48.111 34.808 20.017 19.37-10.99-35.392-19.932z"/><path fill="#a06335" d="m29.065 55.237.28-18.03L10.56 48.11l15.461 8.897z"/><path fill="#db854b" d="M29.065 55.237 48.413 66.4l16.324-9.264-35.392-19.93z"/><path fill="#592a0a" d="m30.836 59.772 2.915-1.814S29.432 39.3 29.346 37.206L10.538 48.111z" opacity=".41"/><path fill="#93561b" d="m29.26 42.302 18.052 11.164 11.92 6.802.776-.453-14.186-8.292-16.541-9.998zm-.087 6.414L53.897 63.29l1.123-.647L29.173 48.11z"/><path fill="#602609" d="m29.26 42.302.02-.777-14.899 8.789.627.367zm-.087 6.414v-.605l-9.22 5.398.647.324z"/><path fill="url(#y)" d="m37.357 36.019 6.348 3.67 1.598-2.504-6.564-3.8z"/><path fill="#934f21" d="M44.202 38.027c-.561.324-1.339.13-1.879-.13-.712-.324-1.338-.777-2.03-1.144-.604-.302-1.187-.626-1.662-1.123a1.96 1.96 0 0 1-.497-1.123l-.799 1.533 6.349 3.671 1.62-2.505-.648-.367c.15.432.021.929-.454 1.188" opacity=".41"/><path fill="url(#z)" d="m38.501 34.917 3.347 1.944 2.29.604-5.334-3.066z"/><path fill="url(#A)" d="m43.576 39.711 1.62-2.505-6.587-3.779-1.36 2.613z"/><path fill="#934f21" d="M44.094 38.049c-.562.324-1.339.13-1.879-.13-.712-.324-1.339-.777-2.03-1.144-.604-.303-1.187-.627-1.662-1.123a1.96 1.96 0 0 1-.497-1.123l-.799 1.533 6.349 3.67 1.62-2.482-.649-.367c.13.41 0 .906-.453 1.166" opacity=".41"/><path fill="url(#B)" d="m41.719 36.882 2.31.627-5.333-3.088-.303.518z"/><g fill="#fff" opacity=".9"><path d="M14.554 53.833c-4.75 11.639 2.85 25.761 16.973 31.505 14.122 5.766 29.41.993 34.16-10.667 4.751-11.64-2.85-25.74-16.972-31.505-14.122-5.744-29.41-.972-34.16 10.667" opacity=".048"/><path d="M15.418 54.179c-4.6 11.25 2.742 24.876 16.39 30.447 13.646 5.57 28.416.95 33.016-10.3 4.578-11.25-2.742-24.876-16.39-30.447-13.647-5.55-28.417-.95-33.016 10.3" opacity=".095"/><path d="M16.282 54.546c-4.427 10.862 2.656 24.012 15.806 29.367 13.172 5.377 27.424.929 31.85-9.933s-2.655-24.012-15.806-29.367c-13.15-5.377-27.424-.929-31.85 9.933" opacity=".143"/><path d="M17.167 54.892c-4.276 10.45 2.548 23.126 15.245 28.309 12.675 5.182 26.43.885 30.684-9.566 4.276-10.452-2.548-23.127-15.245-28.31s-26.43-.885-30.684 9.566" opacity=".191"/><path d="M18.03 55.237C13.929 65.299 20.493 77.5 32.694 82.488c12.2 4.966 25.437.842 29.54-9.22S59.77 51.004 47.57 46.037c-12.222-4.988-25.437-.864-29.54 9.199" opacity=".238"/><path d="M18.894 55.604c-3.951 9.674 2.354 21.4 14.1 26.171 11.726 4.773 24.445.821 28.375-8.853 3.951-9.674-2.376-21.4-14.1-26.171-11.726-4.794-24.445-.82-28.375 8.853" opacity=".286"/><path d="M19.758 55.95c-3.779 9.285 2.268 20.513 13.518 25.113 11.25 4.578 23.429.777 27.23-8.487 3.778-9.285-2.268-20.513-13.518-25.113-11.272-4.578-23.45-.777-27.23 8.487" opacity=".333"/><path d="M20.622 56.316c-3.628 8.875 2.181 19.65 12.935 24.034 10.775 4.383 22.435.756 26.063-8.14 3.628-8.876-2.18-19.651-12.934-24.034-10.776-4.384-22.436-.756-26.064 8.14" opacity=".381"/><path d="M21.486 56.662c-3.455 8.486 2.073 18.765 12.373 22.975 10.3 4.19 21.442.713 24.897-7.773 3.455-8.487-2.073-18.765-12.373-22.976-10.278-4.189-21.442-.712-24.897 7.774" opacity=".429"/><path d="M22.35 57.007c-3.304 8.098 1.986 17.901 11.79 21.896 9.825 3.995 20.449.691 23.752-7.406 3.304-8.098-1.986-17.901-11.79-21.896-9.825-3.995-20.449-.691-23.752 7.406" opacity=".476"/><path d="M23.213 57.375c-3.152 7.708 1.879 17.037 11.229 20.837 9.328 3.8 19.456.648 22.587-7.04 3.13-7.708-1.879-17.036-11.229-20.837-9.328-3.822-19.434-.67-22.587 7.04" opacity=".524"/><path d="M24.077 57.72c-2.98 7.299 1.792 16.152 10.646 19.78 8.853 3.606 18.462.626 21.442-6.694 2.98-7.299-1.792-16.152-10.646-19.78-8.853-3.606-18.462-.605-21.442 6.694" opacity=".571"/><path d="M24.94 58.066c-2.828 6.91 1.685 15.288 10.063 18.7s17.47.582 20.277-6.327c2.828-6.91-1.685-15.289-10.063-18.7-8.378-3.412-17.448-.583-20.276 6.327" opacity=".619"/><path d="M25.805 58.433c-2.657 6.521 1.597 14.403 9.5 17.642 7.904 3.217 16.455.561 19.11-5.96 2.657-6.521-1.597-14.403-9.5-17.642-7.882-3.239-16.433-.561-19.11 5.96" opacity=".667"/><path d="M26.69 58.778c-2.505 6.132 1.49 13.539 8.918 16.562s15.46.518 17.966-5.593c2.504-6.132-1.49-13.539-8.918-16.562-7.429-3.044-15.483-.54-17.966 5.593" opacity=".714"/><path d="M27.554 59.124c-2.332 5.722 1.403 12.675 8.335 15.504 6.953 2.829 14.467.475 16.8-5.247 2.331-5.723-1.404-12.676-8.357-15.504-6.932-2.83-14.446-.476-16.778 5.247" opacity=".762"/><path d="M28.417 59.491c-2.18 5.334 1.296 11.79 7.774 14.424s13.474.454 15.655-4.88-1.295-11.79-7.774-14.446c-6.478-2.613-13.496-.432-15.655 4.902" opacity=".809"/><path d="M29.281 59.836c-2.008 4.945 1.21 10.927 7.19 13.367 5.982 2.44 12.482.41 14.49-4.514 2.008-4.944-1.21-10.926-7.19-13.366-5.982-2.44-12.482-.432-14.49 4.513" opacity=".857"/><path d="M30.145 60.182c-1.857 4.534 1.1 10.062 6.629 12.308 5.506 2.246 11.488.389 13.345-4.168 1.857-4.556-1.102-10.062-6.63-12.308-5.528-2.224-11.487-.367-13.344 4.167" opacity=".905"/><path d="M31.009 60.549c-1.685 4.146 1.014 9.177 6.046 11.228 5.031 2.052 10.494.346 12.179-3.8 1.684-4.146-1.015-9.178-6.047-11.229-5.031-2.051-10.494-.345-12.178 3.8" opacity=".952"/><path d="M31.872 60.894c-1.533 3.758.907 8.314 5.464 10.17 4.556 1.858 9.5.325 11.012-3.432 1.533-3.758-.928-8.314-5.463-10.171s-9.48-.324-11.013 3.433"/></g><g fill="#fff" opacity=".54"><path d="M31.959 21.378c0 .324.064.67.172.972l8.335 47.247 4.708.043 9.501-47.074c.151-.389.238-.778.238-1.188 0-3.239-3.434-10.235-11.488-10.235-8.854.021-11.466 6.996-11.466 10.235" opacity=".048"/><path d="M32.304 21.767c0 .324.065.648.173.971l8.097 46.923 4.557.043 9.22-46.75c.151-.388.238-.777.238-1.187 0-3.218-3.369-9.976-11.143-9.976-8.55 0-11.142 6.758-11.142 9.976" opacity=".095"/><path d="M32.65 22.134c0 .323.064.647.172.971l7.86 46.577 4.427.044 8.94-46.405c.15-.389.237-.777.237-1.187 0-3.196-3.304-9.718-10.797-9.718-8.292 0-10.84 6.522-10.84 9.718" opacity=".143"/><path d="M32.973 22.5c0 .325.065.648.152.95l7.6 46.254 4.298.043 8.659-46.08a3.2 3.2 0 0 0 .216-1.166c0-3.175-3.24-9.458-10.473-9.458-7.904.021-10.452 6.283-10.452 9.458" opacity=".191"/><path d="M33.319 22.868c0 .324.065.648.151.95l7.364 45.93 4.145.043 8.379-45.757a3.5 3.5 0 0 0 .216-1.166c0-3.153-3.175-9.177-10.128-9.177-7.622 0-10.127 6.046-10.127 9.177" opacity=".238"/><path d="M33.643 23.257c0 .324.064.626.15.95L40.92 69.79l4.016.043 8.12-45.411c.129-.367.215-.756.215-1.166 0-3.131-3.11-8.919-9.803-8.919-7.32-.021-9.825 5.788-9.825 8.919" opacity=".286"/><path d="M33.988 23.624c0 .324.065.626.151.928l6.867 45.26 3.865.044 7.839-45.088c.13-.367.194-.756.194-1.144 0-3.11-3.045-8.68-9.458-8.68-6.996.02-9.458 5.57-9.458 8.68" opacity=".333"/><path d="M34.312 23.99c0 .325.065.627.13.93l6.629 44.914 3.736.043 7.557-44.763c.13-.367.195-.756.195-1.145 0-3.088-2.98-8.4-9.134-8.4-6.651.022-9.113 5.356-9.113 8.422" opacity=".381"/><path d="M34.658 24.38c0 .323.043.626.13.928l6.391 44.59 3.606.044 7.277-44.418c.13-.367.194-.734.194-1.123 0-3.066-2.915-8.14-8.788-8.14-6.392-.044-8.81 5.052-8.81 8.119" opacity=".429"/><path d="M35.003 24.747c0 .302.043.626.13.906L41.265 69.9l3.455.043 6.997-44.094c.108-.367.172-.734.172-1.123 0-3.023-2.85-7.882-8.443-7.882-6.067 0-8.443 4.859-8.443 7.904" opacity=".476"/><path d="M35.327 25.114q0 .453.13.907l5.895 43.92 3.325.044 6.716-43.77c.108-.367.172-.734.172-1.123 0-3.001-2.785-7.622-8.119-7.622-5.744.021-8.119 4.642-8.119 7.644" opacity=".524"/><path d="M35.673 25.481c0 .302.043.605.108.907l5.657 43.597 3.196.043 6.435-43.424c.108-.367.172-.734.172-1.101 0-2.98-2.72-7.364-7.773-7.364-5.463-.021-7.795 4.362-7.795 7.342" opacity=".571"/><path d="M35.997 25.87c0 .302.043.604.107.907l5.399 43.251 3.044.044 6.155-43.101c.108-.346.15-.713.15-1.101 0-2.959-2.655-7.105-7.449-7.105-5.074-.021-7.407 4.125-7.407 7.105" opacity=".619"/><path d="M36.342 26.236c0 .303.043.605.108.886l5.16 42.927 2.916.044 5.873-42.756a3.6 3.6 0 0 0 .151-1.08c0-2.936-2.59-6.844-7.104-6.844-4.815-.022-7.104 3.886-7.104 6.823" opacity=".667"/><path d="M36.666 26.603c0 .303.043.605.108.886l4.923 42.582 2.764.043 5.593-42.43c.086-.346.15-.713.15-1.08 0-2.916-2.526-6.587-6.78-6.587-4.47 0-6.758 3.671-6.758 6.586" opacity=".714"/><path d="M37.011 26.97c0 .303.043.584.108.886l4.664 42.258 2.635.044 5.334-42.108c.086-.345.13-.712.13-1.08 0-2.893-2.441-6.326-6.436-6.326-4.189 0-6.435 3.433-6.435 6.327" opacity=".762"/><path d="M37.357 27.36c0 .302.043.583.086.863l4.427 41.913 2.505.044 5.053-41.762c.086-.346.13-.691.13-1.058 0-2.872-2.376-6.068-6.09-6.068-3.887-.022-6.111 3.196-6.111 6.068" opacity=".809"/><path d="M37.68 27.727c0 .302.044.583.087.863l4.19 41.59 2.353.043 4.772-41.438c.087-.346.13-.691.13-1.058 0-2.85-2.31-5.81-5.766-5.81-3.563 0-5.765 2.96-5.765 5.81" opacity=".857"/><path d="M38.026 28.093c0 .303.043.583.087.864l3.93 41.265 2.224.043 4.491-41.114c.065-.345.108-.69.108-1.036 0-2.829-2.246-5.55-5.42-5.55-3.239-.021-5.42 2.7-5.42 5.528" opacity=".905"/><path d="M38.35 28.482c0 .28.022.583.087.842l3.692 40.92 2.073.043 4.21-40.768a5.4 5.4 0 0 0 .109-1.037c0-2.807-2.181-5.29-5.096-5.29-2.915-.022-5.075 2.483-5.075 5.29" opacity=".952"/><path d="M38.696 28.849q0 .42.065.842l3.454 40.596 1.944.043 3.93-40.444c.065-.324.108-.67.108-1.037 0-2.785-2.116-5.031-4.75-5.031-2.614 0-4.751 2.246-4.751 5.031"/></g><g fill="#fff" opacity=".54"><path d="m56.813 65.278 13.712-29.065c.172-.238.28-.475.345-.734.518-2.095-.583-7.191-5.809-8.487-5.765-1.425-8.572 2.7-9.09 4.794-.065.216-.065.432-.044.67L53.767 64.5z" opacity=".048"/><path d="m56.77 65.3 13.496-28.893c.15-.216.28-.475.345-.734.518-2.095-.583-7.018-5.636-8.27-5.55-1.383-8.313 2.612-8.832 4.685a2.2 2.2 0 0 0-.043.648l-2.267 31.786z" opacity=".095"/><path d="m56.726 65.32 13.258-28.719a2.3 2.3 0 0 0 .346-.734c.518-2.073-.583-6.845-5.463-8.033-5.355-1.317-8.055 2.505-8.573 4.578a2.2 2.2 0 0 0-.043.648l-2.375 31.527z" opacity=".143"/><path d="m56.705 65.32 13.02-28.546a2.2 2.2 0 0 0 .324-.734c.519-2.051-.583-6.65-5.29-7.817-5.16-1.274-7.795 2.397-8.314 4.47a2.2 2.2 0 0 0-.043.648L53.92 64.608z" opacity=".191"/><path d="m56.662 65.342 12.783-28.374q.227-.324.324-.712c.496-2.052-.583-6.478-5.118-7.601-4.945-1.231-7.536 2.31-8.054 4.34a2.2 2.2 0 0 0-.044.648l-2.57 31.008z" opacity=".238"/><path d="m56.618 65.342 12.546-28.2q.227-.325.324-.713c.497-2.03-.583-6.306-4.923-7.364-4.75-1.166-7.299 2.203-7.796 4.233a3.3 3.3 0 0 0-.064.626l-2.678 30.77z" opacity=".286"/><path d="m56.575 65.364 12.308-28.028q.228-.324.324-.713c.497-2.008-.583-6.11-4.75-7.147-4.535-1.123-7.04 2.094-7.536 4.124a3 3 0 0 0-.065.626L54.07 64.738z" opacity=".333"/><path d="M56.553 65.385 68.646 37.53c.13-.216.237-.454.302-.713.497-2.008-.583-5.938-4.578-6.931-4.34-1.08-6.78 2.008-7.277 3.994-.043.216-.065.41-.065.627l-2.893 30.252z" opacity=".381"/><path d="M56.51 65.386 68.365 37.68c.13-.216.238-.453.302-.712.497-1.987-.583-5.766-4.405-6.694-4.146-1.015-6.521 1.9-7.018 3.886-.043.216-.064.41-.064.627L54.178 64.78z" opacity=".429"/><path d="m56.467 65.407 11.617-27.531c.13-.216.238-.454.303-.713.496-1.965-.583-5.571-4.233-6.478-3.93-.972-6.262 1.792-6.758 3.779-.044.194-.065.41-.065.626l-3.11 29.734z" opacity=".476"/><path d="m56.424 65.407 11.38-27.359a2.1 2.1 0 0 0 .28-.691c.475-1.965-.583-5.398-4.06-6.262-3.735-.929-6.002 1.706-6.499 3.65-.043.194-.065.41-.065.604l-3.217 29.475z" opacity=".524"/><path d="m56.402 65.429 11.143-27.186c.13-.216.216-.454.28-.691.475-1.944-.583-5.226-3.865-6.046-3.52-.864-5.765 1.597-6.24 3.54a3 3 0 0 0-.065.605L54.329 64.89z" opacity=".571"/><path d="m56.36 65.45 10.904-27.013c.13-.216.216-.453.28-.691.476-1.922-.582-5.053-3.692-5.809-3.325-.82-5.506 1.512-5.981 3.434a3 3 0 0 0-.065.604l-3.433 28.979z" opacity=".619"/><path d="m56.316 65.45 10.667-26.84a2.4 2.4 0 0 0 .28-.691c.476-1.922-.582-4.86-3.52-5.593-3.13-.778-5.246 1.403-5.721 3.303a2.7 2.7 0 0 0-.065.605l-3.52 28.72z" opacity=".667"/><path d="m56.273 65.472 10.451-26.668c.108-.216.216-.432.26-.67.474-1.9-.584-4.685-3.348-5.376-2.915-.713-4.988 1.295-5.463 3.196a2.7 2.7 0 0 0-.065.583l-3.628 28.46z" opacity=".714"/><path d="m56.23 65.472 10.213-26.495a3.6 3.6 0 0 0 .26-.67c.474-1.878-.584-4.513-3.153-5.139-2.721-.67-4.73 1.21-5.204 3.088-.043.194-.065.389-.087.583L54.524 65.04z" opacity=".762"/><path d="m56.208 65.494 9.976-26.323a3.6 3.6 0 0 0 .26-.67c.453-1.878-.584-4.318-2.98-4.922-2.527-.627-4.47 1.1-4.945 2.98-.044.194-.065.388-.087.583l-3.844 27.941z" opacity=".809"/><path d="m56.165 65.515 9.738-26.15c.108-.215.195-.431.26-.669.453-1.857-.584-4.146-2.808-4.707-2.31-.562-4.232.993-4.664 2.85a5 5 0 0 0-.086.583l-3.952 27.705z" opacity=".857"/><path d="m56.121 65.515 9.502-25.977c.108-.216.194-.431.237-.67.454-1.835-.583-3.972-2.634-4.469-2.117-.518-3.952.907-4.405 2.742-.044.195-.065.39-.087.562l-4.06 27.445z" opacity=".905"/><path d="m56.078 65.537 9.264-25.826c.108-.216.173-.432.238-.648.453-1.814-.584-3.8-2.462-4.254-1.9-.475-3.714.799-4.146 2.634a5 5 0 0 0-.086.562L54.718 65.19z" opacity=".952"/><path d="M59.145 37.724a5 5 0 0 0-.087.562l-4.275 26.927 1.252.345 9.048-25.653c.086-.216.173-.432.237-.648.454-1.813-.583-3.606-2.288-4.038-1.706-.431-3.434.691-3.887 2.505"/></g><g fill="#fff" opacity=".54"><path d="M19.586 28.137c-5.226 1.295-6.349 6.391-5.81 8.486.066.259.174.518.346.734l13.712 29.065 3.045-.777-2.16-32.045c.022-.216 0-.454-.043-.67-.518-2.094-3.325-6.197-9.09-4.793" opacity=".048"/><path d="M19.694 28.547c-5.053 1.252-6.155 6.176-5.636 8.27.064.26.172.519.345.734l13.475 28.893 2.958-.756-2.267-31.786c.021-.216 0-.453-.044-.67-.518-2.072-3.282-6.045-8.831-4.685" opacity=".095"/><path d="M19.78 28.958c-4.88 1.209-5.982 5.96-5.463 8.032.065.26.172.519.345.735l13.259 28.719 2.872-.734-2.376-31.527a2.2 2.2 0 0 0-.043-.648c-.518-2.073-3.239-5.895-8.594-4.577" opacity=".143"/><path d="M19.888 29.368c-4.708 1.166-5.787 5.765-5.29 7.817.064.259.172.496.323.734l13.021 28.547 2.786-.713-2.484-31.267a2.2 2.2 0 0 0-.043-.648c-.496-2.052-3.152-5.722-8.313-4.47" opacity=".191"/><path d="M19.996 29.778c-4.535 1.123-5.614 5.55-5.118 7.6q.098.39.324.713l12.783 28.374 2.7-.69-2.57-31.009c0-.216 0-.432-.043-.648-.54-2.03-3.131-5.55-8.076-4.34" opacity=".238"/><path d="M20.082 30.188c-4.34 1.08-5.42 5.334-4.923 7.364q.096.388.324.712l12.545 28.201 2.592-.669-2.678-30.75c0-.215 0-.431-.065-.647-.496-2.008-3.044-5.377-7.795-4.21" opacity=".286"/><path d="M20.19 30.598c-4.168 1.037-5.247 5.14-4.75 7.148q.096.388.323.712l12.309 28.029 2.505-.648-2.786-30.512c0-.216 0-.432-.065-.626-.496-1.986-2.98-5.204-7.536-4.103" opacity=".333"/><path d="M20.298 31.03c-3.995.994-5.074 4.924-4.578 6.932.065.259.173.496.303.712l12.07 27.856 2.419-.626-2.894-30.253c0-.216 0-.432-.065-.626-.475-2.008-2.915-5.074-7.255-3.995" opacity=".381"/><path d="M20.384 31.44c-3.822.95-4.88 4.73-4.405 6.716.065.26.173.497.303.713l11.854 27.704 2.332-.604-3.001-29.994c0-.216-.022-.41-.065-.626-.475-2.008-2.872-4.945-7.018-3.908" opacity=".429"/><path d="M20.492 31.851c-3.649.907-4.707 4.513-4.232 6.478.065.26.151.475.302.691L28.18 66.552l2.245-.583-3.11-29.734c0-.216-.02-.41-.064-.626-.497-1.965-2.829-4.73-6.759-3.758" opacity=".476"/><path d="M20.6 32.261c-3.476.864-4.534 4.297-4.038 6.262.065.26.151.475.281.691l11.38 27.36 2.16-.562-3.218-29.475c0-.216-.022-.41-.065-.605-.497-1.965-2.764-4.6-6.5-3.67" opacity=".524"/><path d="M20.708 32.672c-3.282.82-4.34 4.102-3.865 6.046.065.237.151.475.28.69l11.143 27.187 2.073-.54-3.325-29.216c0-.194-.022-.41-.065-.605-.497-1.965-2.721-4.448-6.24-3.562" opacity=".571"/><path d="M20.795 33.082c-3.11.778-4.168 3.887-3.693 5.809.065.237.151.475.28.69l10.906 27.014 1.965-.518L26.84 37.1c0-.195-.022-.41-.065-.605-.475-1.922-2.656-4.232-5.981-3.412" opacity=".619"/><path d="M20.903 33.492c-2.937.734-3.995 3.67-3.52 5.593.065.237.151.475.28.69l10.668 26.842 1.878-.497-3.52-28.72c0-.194-.02-.388-.064-.604-.475-1.9-2.591-4.081-5.722-3.304" opacity=".667"/><path d="M21.01 33.902c-2.764.691-3.8 3.477-3.347 5.377.065.238.152.475.26.67l10.45 26.668 1.793-.475-3.628-28.46c0-.195-.021-.39-.086-.584-.475-1.9-2.526-3.93-5.442-3.196" opacity=".714"/><path d="M21.097 34.313c-2.591.648-3.628 3.26-3.153 5.139.065.238.152.475.26.67l10.213 26.495 1.706-.454-3.736-28.2c0-.195-.021-.39-.086-.584-.475-1.857-2.483-3.736-5.204-3.066" opacity=".762"/><path d="M21.205 34.723c-2.419.604-3.455 3.066-2.98 4.923.065.237.151.453.26.67l9.975 26.322 1.62-.432-3.844-27.942a2.7 2.7 0 0 0-.086-.583c-.475-1.857-2.419-3.585-4.945-2.958" opacity=".809"/><path d="M21.313 35.133c-2.224.562-3.26 2.85-2.807 4.708.064.237.13.453.237.67l9.739 26.149 1.533-.41-3.951-27.683c0-.195-.044-.389-.087-.583-.453-1.857-2.354-3.434-4.664-2.85" opacity=".857"/><path d="M21.4 35.544c-2.052.496-3.088 2.634-2.635 4.47.065.237.13.453.238.669l9.5 25.977 1.447-.389-4.06-27.445a4 4 0 0 0-.086-.562c-.431-1.813-2.288-3.239-4.405-2.72" opacity=".905"/><path d="M21.507 35.954c-1.879.475-2.893 2.44-2.462 4.253.065.238.13.454.238.648l9.264 25.826 1.338-.367-4.167-27.186a5 5 0 0 0-.087-.562c-.41-1.814-2.224-3.088-4.124-2.613" opacity=".952"/><path d="M21.615 36.364c-1.705.41-2.72 2.224-2.267 4.038.065.237.13.453.238.648l9.047 25.653 1.253-.346-4.254-26.927a5 5 0 0 0-.087-.561c-.496-1.793-2.224-2.937-3.93-2.505"/></g><path fill="#542708" d="m64.521 90.607 1.879-1.253.583-3.714-2.462.82z"/><path fill="#703208" d="m62.168 89.354 2.354 1.252v-4.145l-2.657.777z"/><path fill="#542708" d="m48.585 100 1.879-1.23.583-3.715-2.462.82z"/><path fill="#703208" d="m46.232 98.769 2.354 1.23v-4.124l-2.657.778z"/><path fill="#542708" d="m64.413 90.606 1.879-1.252.583-3.714-2.462.82z"/><path fill="#703208" d="m62.06 89.354 2.353 1.252V86.46l-2.656.778z"/><path fill="#542708" d="m48.477 100 1.879-1.23.583-3.715-2.462.82z"/><path fill="#703208" d="m46.124 98.769 2.353 1.23v-4.124l-2.656.778z"/><path fill="url(#C)" d="m.022 48.11 45.346 26.172v-6.154L10.56 48.11z"/><path fill="#fffde1" d="M12.373 49.147 10.56 48.09H.022l4.858 2.807c2.332-1.317 4.88-1.814 7.493-1.749"/><path fill="#fff7ab" d="M27.942 62.103a8.5 8.5 0 0 1 2.246-2.699L19.39 53.207c-2.807.626-5.68.842-8.53 1.187l16.476 9.502c.13-.627.324-1.231.605-1.793"/><path fill="#fffde1" d="M42.366 66.4c.195 1.9-.021 3.822-.626 5.787l3.628 2.095v-6.154z"/><path fill="#fff8bb" d="m.022 48.11 10.537.584 34.81 20.233v-.8l-34.81-20.016z"/><path fill="#fffde1" d="M45.368 74.282v-6.154l-1.101 4.275L.022 48.111z"/><path fill="url(#D)" d="m74.476 57.374-9.739-.237-19.369 10.99v6.155z"/><path fill="#fffde1" d="m73.224 57.33-8.487-.215-2.526 1.425c3.65-.562 7.363-.907 11.013-1.21"/><path fill="#fffde1" d="m56.295 61.93-7.364 4.168a16.3 16.3 0 0 1 2.548 4.642l12.265-7.126c-2.44-.712-4.901-1.317-7.45-1.684" opacity=".6"/><path fill="#ffce00" d="m64.737 57.137-19.369 10.99v6.155l29.108-16.908-27.575 14.619v-3.865z"/><path fill="#a06335" d="m68.819 84.668 4.988-22.63-28.44 12.244-.064 24.055z"/><path fill="#592a0a" d="M55.02 91.406c-2.72 1.878-6.262 4.901-9.717 4.901v2.03L68.82 84.668l4.988-22.651-2.376 1.015c.367 8.054-2.548 14.986-7.385 20.276-2.634 2.937-5.808 5.873-9.026 8.098" opacity=".28"/><path fill="#592a0a" d="M47.743 96.933c0-.064 0-.15.022-.216.712-3.735.928-7.622 2.462-11.142 1.425-3.26 3.865-5.83 6.629-8.011 4.62-3.65 9.803-6.65 15.417-8.486l1.555-7.018L45.39 74.303l-.065 24.056z" opacity=".41"/><path fill="url(#E)" d="m74.455 64.457.021-7.083-29.108 16.908-.022 7.299z"/><path fill="#824216" d="m49.665 71.799-4.297 2.505-.022 7.298 5.442-3.217c-.475-2.203-.993-4.362-1.123-6.586m16.692-9.696c-.389 2.916-1.274 5.701-2.267 8.465l10.386-6.11.022-7.084z" opacity=".24"/><path fill="#592a0a" d="M61.844 66.897c4.146-1.878 8.292-3.714 12.632-4.858l.022-4.665-21.961 12.762c.043.065.065.13.086.195a140 140 0 0 1 9.22-3.434m-14.229 6.09-2.246 1.317-.022 7.298.67-.388c.367-2.786.864-5.55 1.598-8.227" opacity=".28"/><path fill="url(#F)" d="m74.455 64.457.021-7.083-.67 6.738-28.46 17.469z"/><path fill="#db854b" d="m6.176 75.75 39.127 22.588.065-24.056L.712 52.667z"/><path fill="#c9753d" d="m.712 52.667 5.464 23.084 39.127 22.587.022-6.846c-3.455-.065-7.126-.928-9.415-1.576-4.686-1.296-17.296-8.357-17.75-8.551-4.016-1.857-9.09-4.448-11.337-8.508-2.612-4.729-4.426-13.042-.798-17.62z"/><path fill="#c9753d" d="M2.375 59.684c7.234 2.354 18.657 10.3 21.162 12.309 6.392 5.053 10.43 9.5 13.928 15.029 1.64 2.591 2.418 4.923 4.318 9.307l3.498 2.03.065-24.056L.691 52.688z"/><path fill="url(#G)" d="m0 55.43 45.346 26.15.022-7.298L.022 48.11z"/><path fill="url(#H)" d="M41.352 78.428c-.864-2.7-1.922-5.355-2.743-8.054l-2.656-1.533c-.648 2.245-1.749 4.016-3.217 5.441l8.918 5.14c-.108-.325-.194-.648-.302-.994" opacity=".65"/><path fill="url(#I)" d="m4.75 58.173 8.098 4.664c-2.246-3.11-3.973-6.543-4.383-9.846l-3.002-1.728c-.237 2.31-.54 4.6-.712 6.91" opacity=".67"/><path fill="url(#J)" d="M18.527 64.954C13.474 62.104 2.872 57.072.022 53.077v2.354l45.346 26.15v-3.866c-3.757-1.123-18.527-8.076-26.84-12.761" opacity=".51"/><path fill="url(#K)" d="m0 55.43 45.346 26.15-.086-.604L0 55.106z"/><path fill="url(#L)" d="m44.202 74.476 1.144 7.105.022-7.3L.022 48.112 0 55.43l.54-6.586z"/><path fill="#93561b" d="m2.332 59.49.173.778L20.557 71.41l24.79 14.165-.044-.734L19.09 69.467zm2.051 8.638 31.29 18.484 9.673 4.578-.043-.605-41.07-23.062z"/><path fill="#602609" d="m72.08 69.812.15-.648-26.927 15.677.043.734zM51.803 87.476 70.719 76.03l.108-.518-25.524 15.072.043.605z"/><path fill="url(#M)" d="m10.732 80.63 2.073-1.058-1.21-.712-.95.431z"/><path fill="url(#N)" d="m7.666 78.86 3.066 1.77-.086-1.339-3.088-1.813z"/><path fill="url(#O)" d="m7.666 77.542 2.98 1.75-.886-9.675-3.39-1.857z"/><path fill="url(#P)" d="m6.953 72.144.713 5.376 3.001 1.771-.28-3.066c-1.34-1.23-2.527-2.57-3.434-4.081"/><path fill="url(#Q)" d="m10.645 79.292.95-.432-.669-9.653-1.166.41z"/><path fill="url(#R)" d="m9.76 69.618 1.166-.41-3.433-1.858-1.123.389z"/><path fill="#93561b" d="M7.644 69.207c-.67.216-.95 1.23-.626 2.224.324 1.015 1.144 1.641 1.835 1.425.67-.216.95-1.23.626-2.224-.345-1.015-1.166-1.663-1.835-1.425"/><path fill="url(#S)" d="M7.558 69.423c-.562.194-.778 1.08-.475 2.008.302.929.993 1.512 1.576 1.339.561-.194.777-1.08.475-2.008-.324-.929-1.015-1.533-1.576-1.339"/><path fill="#93561b" d="M1.987 51.414c-.67.216-.95 1.231-.627 2.246.324 1.015 1.145 1.641 1.836 1.425.67-.216.95-1.23.626-2.224-.346-1.036-1.166-1.684-1.836-1.447"/><path fill="url(#T)" d="M1.9 51.63c-.561.195-.777 1.08-.475 2.009.302.907.993 1.511 1.576 1.339.562-.195.778-1.08.475-2.008-.302-.929-1.014-1.534-1.576-1.34"/><path fill="#93561b" d="M12.373 57.417c-.67.216-.95 1.231-.626 2.224.324 1.015 1.144 1.642 1.835 1.426.67-.216.95-1.231.627-2.224-.346-1.015-1.166-1.642-1.836-1.426"/><path fill="url(#U)" d="M12.287 57.633c-.562.195-.778 1.08-.475 2.008.302.907 1.015 1.512 1.576 1.34.562-.195.777-1.08.475-2.009-.324-.928-1.015-1.533-1.576-1.339"/><path fill="#93561b" d="M31.85 68.69c-.669.215-.95 1.23-.626 2.245s1.145 1.64 1.836 1.425c.67-.216.95-1.23.626-2.224-.346-1.037-1.166-1.663-1.835-1.447"/><path fill="url(#V)" d="M31.764 68.905c-.561.173-.777 1.08-.475 2.008.302.929.993 1.512 1.576 1.339.562-.194.778-1.08.475-2.008-.302-.929-1.015-1.533-1.576-1.339"/><path fill="#93561b" d="M42.237 74.692c-.67.216-.95 1.231-.626 2.246s1.144 1.641 1.835 1.425c.67-.216.95-1.23.626-2.224-.345-1.015-1.166-1.663-1.835-1.447"/><path fill="url(#W)" d="M42.15 74.908c-.56.173-.777 1.08-.474 2.008.302.929.993 1.512 1.576 1.34.561-.195.777-1.08.475-2.009s-1.015-1.512-1.576-1.339"/><path fill="#93561b" d="M47.052 76.139c-.324 1.015-.043 2.008.627 2.224.669.216 1.49-.41 1.835-1.425.324-1.015.043-2.008-.626-2.246-.691-.216-1.512.432-1.836 1.447"/><path fill="url(#X)" d="M47.398 76.247c-.303.907-.087 1.814.475 2.008.561.173 1.274-.41 1.576-1.339.303-.928.087-1.813-.475-2.008-.583-.173-1.274.41-1.576 1.339"/><path fill="#93561b" d="M61.822 69.272c.324-1.015.044-2.008-.626-2.224s-1.49.41-1.835 1.425c-.346 1.015-.043 2.008.626 2.224.67.238 1.49-.41 1.835-1.425"/><path fill="url(#Y)" d="M61.758 69.25c.302-.928.086-1.814-.475-2.008-.562-.194-1.274.41-1.577 1.317-.302.929-.086 1.814.475 2.009.562.194 1.274-.39 1.577-1.318"/><path fill="#93561b" d="M73.03 62.772c.323-1.015.043-2.008-.627-2.224s-1.49.41-1.835 1.425c-.324 1.015-.043 2.009.626 2.225.69.216 1.511-.432 1.835-1.426"/><path fill="url(#Z)" d="M72.965 62.75c.302-.928.086-1.813-.475-2.007-.562-.195-1.275.41-1.577 1.338-.302.907-.086 1.814.475 2.008.562.173 1.274-.431 1.576-1.338"/><path fill="#845203" d="M22.22 68.711c4.275 2.267 5.593.324 5.593.324v-3.908l-9.437-5.442-.086 4.19c0-.022-.087 2.698 3.93 4.836"/><path fill="url(#aa)" d="M21.723 68.474c4.276 2.267 5.14 1.166 5.14 1.166v-3.91l-9.437-5.441-.086 4.189c-.022 0 .345 1.857 4.383 3.995"/><path fill="#fff7ab" d="M24.38 64.306c1.014 1.684 1.791 3.584 2.137 5.528.259-.087.345-.195.345-.195v-3.908z" opacity=".32"/><path fill="#fff7ab" d="M21.4 65.17c-.584-1.555-1.426-2.915-2.462-3.995l-1.534-.885-.086 4.189s.367 1.879 4.383 4.016a.7.7 0 0 1 .173.087c0-1.253-.108-2.462-.475-3.412" opacity=".22"/><path fill="#fff7ab" d="M21.68 64.954c-.583-1.555-1.188-2.721-2.72-3.78l-1.06-.604c1.037 1.296 1.965 2.635 2.419 4.297.172.691.215 1.792.086 2.85.389.238.82.497 1.296.756a.7.7 0 0 1 .172.087c.281-1.145.173-2.635-.194-3.606" opacity=".32"/><path fill="#fff8d4" d="M22.393 63.594c1.317.777 3.238 1.36 4.06 2.418.085.13.323.734.388.885v-1.166l-9.437-5.441-.086 4.189s.065.324.453.885c-.259-1.101-.323-3.239.152-4.016.388-.691 3.217 1.49 4.47 2.246"/><path fill="url(#ab)" d="m26.84 65.731.973-.604-9.437-5.442-.972.605z"/><path fill="url(#ac)" d="M19.024 64.35c.389-.26 1.166-.368.972-.93-.108-.302-.67-.841-1.706-.712-1.166.238-2.03.907-2.224 1.879-.26 1.144 1.1 2.224 1.835 2.677 2.008 1.275 4.103 1.75 5.981 1.318.929-.216 2.117-.8 2.009-1.577s-1.706-1.187-2.505-.799c-.907.432-2.073.562-3.045.195-.799-.303-2.505-1.274-1.317-2.052"/><path fill="#f49c1c" d="M19.693 67.524c-1.403-.54-2.98-1.49-3.26-2.635-.303-1.166 1.295-1.878 2.461-2.18a2.8 2.8 0 0 0-.604 0c-1.166.237-2.03.906-2.224 1.878-.26 1.144 1.1 2.224 1.835 2.678 2.008 1.274 4.103 1.749 5.981 1.317.821-.195 1.836-.67 1.987-1.317-.194-.519-.54-.346-.67-.216-1.187 1.08-4.556.842-5.506.475"/><path fill="#f49c1c" d="M21.68 68.171c-3.174-.15-5.182-2.138-5.593-3.023.195.929 1.231 1.728 1.836 2.116 2.008 1.274 4.103 1.75 5.981 1.318.929-.216 2.116-.8 2.008-1.577-.064-.518-.82-.885-1.533-.95.087.065.108.194.238.26 1.23.517.604 2.029-2.937 1.856"/><path fill="#f49c1c" d="M18.57 64.133c-1.468 1.058 1.296 2.592 2.117 2.764.863.173 1.598.216 2.44-.13.583-.237 1.36-.474 2.094-.496-.561-.259-1.339-.302-1.814-.086-.907.432-2.073.561-3.044.194-.8-.302-2.505-1.252-1.34-2.03.39-.259 1.167-.367.973-.928a1.16 1.16 0 0 0-.54-.54c0 .022-.022.065 0 .086.367.454-.346.778-.886 1.166"/><path fill="#fff8d4" d="M18.01 63.83c.172-.15 1.252-.928.496-.906v.043c-1.058.13-2.354 1.447-1.684 2.483.302.475.928.907 1.381 1.188.476.302 1.188.734 1.771.626-.259-.367-.864-.67-1.252-.971-.367-.324-.8-.648-1.058-1.08-.367-.583-.13-.993.345-1.382"/><path fill="#845203" d="M20.384 68.064c-2.872-.605-4.146-2.44-4.318-2.894.194.928 1.23 1.727 1.835 2.116 2.008 1.274 4.103 1.75 5.982 1.317.928-.216 2.116-.799 2.008-1.576-.065-.518-.82-.885-1.533-.95.021.022 1.511.345 1.014 1.21-.583 1.014-2.785 1.23-4.988.776"/><path fill="url(#ad)" d="m39.106 95.703 3.002 1.77-.432-9.48-2.98-1.597z"/><path fill="url(#ae)" d="m38.912 91.449.194 4.254 2.98 1.77-.087-2.116c-1.058-1.274-2.159-2.57-3.087-3.908"/><path fill="url(#af)" d="m42.108 97.474.95-.432-.346-9.394-1.036.346z"/><path fill="url(#ag)" d="m38.696 86.396 2.937 1.641 1.08-.389-2.894-1.619z"/><path fill="#93561b" d="M39.646 87.735c-.67.216-.95 1.23-.626 2.224.323 1.015 1.144 1.641 1.835 1.425.67-.216.95-1.23.626-2.224-.324-1.015-1.144-1.663-1.835-1.425"/><path fill="url(#ah)" d="M39.581 87.951c-.561.194-.777 1.08-.475 2.008.302.929 1.015 1.512 1.576 1.34.562-.195.778-1.08.475-2.01-.323-.928-1.014-1.532-1.576-1.338"/><path fill="url(#ai)" d="m42.172 98.79 2.073-1.057-1.209-.691-.95.41z"/><path fill="url(#aj)" d="m39.084 97.041 3.088 1.75-.086-1.34-3.088-1.792z"/><path fill="url(#ak)" d="M17.78 23.5c0 12.97 10.51 23.501 23.5 23.501 12.97 0 23.5-10.51 23.5-23.5C64.78 10.53 54.27 0 41.28 0c-12.97.02-23.5 10.53-23.5 23.5"/><path fill="#0516dd" d="M17.78 23.5c0 12.97 10.51 23.502 23.5 23.502 12.97 0 23.5-10.51 23.5-23.501C64.78 10.978 55.003.752 42.664.04c.122.06.223.122.345.183-.06-.02 2.013.975.956.59.203.08.406.162.63.223.772.264 1.586.549 2.378.854 3.741.508 5.632 2.968 6.038 6.017.509.285.976.61 1.403 1.017.894.894 1.748 1.89 2.094 3.15.447 1.668.102 3.172-.732 4.372 1.626 1.91 2.053 4.41 1.464 6.85-.265 1.098-.976 2.115-1.79 2.928.61 1.789.977 3.517.672 5.489-.427 2.663-3.11 5.224-5.916 5.062-1.2-.061-2.196-.447-3.05-.895-.04.02-.081.041-.101.082-.59.447-1.18.894-1.79 1.341-1.646 1.2-3.293 2.237-5.204 2.989-4.35 1.687-9.615-.427-10.632-5.286-.081-.427-2.033-1.728-2.927-2.012a9.55 9.55 0 0 1-3.924-2.338 8.36 8.36 0 0 1-2.724-2.684c-1.606-2.541-1.687-5.631-1.647-8.68a20.5 20.5 0 0 0-.427 4.208" opacity=".4"/><path fill="url(#al)" d="M48.68 39.032c-2.663-.142-4.92-1.403-7.623-.447-1.952.691-3.782 2.094-5.794 2.541-3.131.691-6.079-.61-8.071-3.09-1.81-2.257-4.574-7.237-7.623-5.57.325.813.731 1.585 1.158 2.358 2.196.285 3.599 1.423 5.001 3.151 2.745 3.354 5.855 6.546 10.714 5.204 3.598-.996 7.359-1.545 10.917-2.643 3.395-1.036 9.188-3.374 9.209-7.664 0-2.398.203-4.899 1.484-6.993 1.85-3.05 3.293-5.306 3.354-9.026.02-1.606.366-2.765.976-3.7a23.5 23.5 0 0 0-7.46-8.803c-.163 1.566.284 3.334 1.585 5.347 1.464 2.256 3.253 5.204.955 7.644-.915.976-1.91 1.687-3.191 2.094-2.602.813-2.643 2.602-1.688 5.062 1.078 2.785 3.64 6.098 2.989 9.29-.692 3.375-3.538 5.428-6.892 5.245" opacity=".41"/><path fill="#f029cb" d="M48.924 41.268c-2.44 1.606-2.358 5.123-7.766 3.68-2.927-.793-5.53-.956-8.355.447a23.5 23.5 0 0 0 8.477 1.606c12.97 0 23.5-10.51 23.5-23.5 0-1.85-.223-3.64-.63-5.367-.203 4.635-2.378 4.736-3.333 8.375-1.078 4.087.894 8.132-1.322 10.795-5.082 6.16-7.643 2.358-10.571 3.964" opacity=".46"/><path fill="#37f022" d="M50.794 23.48c-3.923-.528-8.314 5.632-11.852 7.36-3.15 1.524-6.2.142-7.704-2.928-2.684-5.489-3.883-14.8-11.873-12.909a22.6 22.6 0 0 0-1.342 5.123c5.733 1.667 7.685 8.925 12.239 12.808 2.277 1.951 5.509 3.212 8.538 2.337 2.42-.711 3.863-2.317 5.61-4.025 3.091-3.05 6.16-4.33 10.308-2.582 1.606.671 3.598 1.993 4.716-.427.529-1.158.834-2.46.407-3.7-.691-1.971-2.114-3.516-3.66-4.878-2.236-1.993-5.732-3.965-6.932-6.851-1.423-3.456 3.7-7.665-.508-9.942-3.842-2.073-7.42-2.968-11.73-1.789-2.785.753-5.489 1.77-8.254 2.562a24 24 0 0 0-4.045 3.253c.59-.082 1.159-.224 1.667-.346 3.801-.894 7.481-2.52 11.343-3.13 2.908-.468 6.1-.387 7.482 2.764.223.508.223 1.18.04 1.708-.569 1.626-.69 3.029-.08 4.716.975 2.704 3.74 3.619 5.874 5.164 1.322.955 2.541 2.297 2.054 4.106-.366 1.119-1.058 1.77-2.298 1.606" opacity=".34"/><path fill="#e517ba" d="M56.812 27.444c-1.484.448-3.05.488-4.615.509.793.101 1.627.345 2.5.711 1.607.671 3.599 1.992 4.717-.427.529-1.159.834-2.46.407-3.7-.692-1.972-2.115-3.517-3.66-4.879-2.236-1.992-5.733-3.964-6.932-6.85-1.423-3.457 3.7-7.665-.508-9.942-.366-.203-.752-.386-1.118-.569.63.447 1.504 1.484 1.91 2.094.834 2.46-.69 3.375-1.138 5.204-.284 1.098-.813 2.338-.752 3.355.224 3.72 5.936 5.753 8.437 7.948 1.728 1.484 4.432 5.408.752 6.546" opacity=".45"/><path fill="#ff64cb" d="M30.648 31.43c-1.708-2.196-2.846-4.697-4.35-6.994-1.017-1.057-1.993-2.196-3.07-3.192-1.464-.955-3.131-1.545-5.022-1.91h-.02c-.04.264-.102.507-.142.772 5.733 1.667 7.684 8.924 12.238 12.807 2.277 1.952 5.51 3.212 8.538 2.338 2.42-.711 3.863-2.317 5.611-4.025 1.342-1.322 2.663-2.318 4.086-2.867-1.87.55-3.476 1.627-5.123 2.907-4.187 3.233-8.965 5.002-12.746.163" opacity=".54"/><path fill="url(#am)" d="M56.914 31.409c-3.152-.834-5.916-3.07-9.088-.752-4.35 3.191-6.404 7.115-12.482 6.546-8.762-.834-10.45-12.849-17.504-15.207-.04.509-.06.996-.06 1.505 0 1.22.101 2.44.284 3.618 2.866-.467 5.835 1.22 7.42 3.985 2.033 3.537 1.606 12.665 8.274 10.591 3.578-1.118 6.567-6.464 10.877-5.204 1.362.386 5.53 2.826 6.424 1.362.67-1.098 1.504-2.053 2.155-3.15.792-1.363 2.764-1.343 4.045-.956.752.223 1.28.853 1.972 1.158 1.992.895 2.927-1.992 3.253-3.171.63-2.338 1.077-4.818.955-7.237-.162-3.13-2.48-5.042-4.797-6.81-2.826-2.156-6.018-4.88-5.794-8.823.101-1.79.59-3.477 1.077-5.123a23 23 0 0 0-3.375-1.79c.915.671 1.647 1.525 1.85 2.725.305 1.667-.853 3.293-1.28 4.838-1.281 4.676 5.163 7.36 7.847 10.368 2.703 3.03 3.76 6.322 1.626 10.002-.732 1.22-2.236 1.89-3.68 1.525" opacity=".66"/><path fill="#fff766" d="M33.474 3.07c-7.197 2.175-10.795 8.437-11.507 14.556-.833 7.135 7.868 9.046 14.434 7.887 7.868-1.382 13.072-7.4 12.259-14.393-.732-6.342-6.485-11.18-15.186-8.05" opacity=".43"/><path fill="#f4ffb6" d="M26.643 12.909c-.427 2.846.732 5.774 4.168 6.282 5.895.894 12.766-5.387 14.027-10.206.813-3.17-.996-5.53-4.534-5.753-3.171-.203-6.586.976-8.355 2.155l.183-.02c-2.968 1.87-4.98 4.29-5.489 7.542" opacity=".32"/><path fill="#fffb71" d="M30.241 7.197c-2.297 2.297-2.073 5.346.509 6.81 2.703 1.525 5.489.102 6.993-2.338 3.375-5.53-4.188-9.168-7.502-4.472m8.03 5.448c-.813.813-.732 1.89.183 2.399.956.548 1.952.04 2.46-.834 1.2-1.931-1.484-3.232-2.643-1.565" opacity=".72"/><path fill="#fff" d="M44.472 73.043a3.926 3.926 0 0 1-3.924 3.924 3.926 3.926 0 0 1-3.923-3.924 3.913 3.913 0 0 1 3.923-3.923 3.913 3.913 0 0 1 3.924 3.923" opacity=".077"/><path fill="#fff" d="M40.548 76.763a3.72 3.72 0 1 0 0-7.44 3.72 3.72 0 0 0 0 7.44" opacity=".154"/><path fill="#fff" d="M44.066 73.043a3.518 3.518 0 0 1-7.035 0 3.518 3.518 0 0 1 7.035 0" opacity=".231"/><path fill="#fff" d="M40.549 76.336a3.293 3.293 0 1 0 0-6.587 3.293 3.293 0 0 0 0 6.587" opacity=".308"/><path fill="#fff" d="M43.639 73.043a3.09 3.09 0 0 1-3.09 3.09 3.09 3.09 0 0 1-3.09-3.09 3.09 3.09 0 0 1 3.09-3.09 3.09 3.09 0 0 1 3.09 3.09" opacity=".385"/><path fill="#fff" d="M43.435 73.043a2.9 2.9 0 0 1-2.887 2.887 2.9 2.9 0 0 1-2.886-2.887 2.9 2.9 0 0 1 2.886-2.887 2.885 2.885 0 0 1 2.887 2.887" opacity=".462"/><path fill="#fff" d="M40.548 75.726a2.683 2.683 0 1 0 0-5.366 2.683 2.683 0 0 0 0 5.366" opacity=".538"/><path fill="#fff" d="M43.008 73.043a2.455 2.455 0 0 1-2.46 2.46 2.455 2.455 0 0 1-2.46-2.46 2.455 2.455 0 0 1 2.46-2.46c1.362-.02 2.46 1.098 2.46 2.46" opacity=".615"/><path fill="#fff" d="M42.805 73.043a2.265 2.265 0 0 1-2.257 2.256 2.265 2.265 0 0 1-2.256-2.256 2.265 2.265 0 0 1 2.256-2.257c1.24 0 2.257.996 2.257 2.257" opacity=".692"/><path fill="#fff" d="M42.602 73.043a2.05 2.05 0 0 1-2.054 2.053 2.05 2.05 0 0 1-2.053-2.053c0-1.138.915-2.053 2.053-2.053 1.139 0 2.054.915 2.054 2.053" opacity=".769"/><path fill="#fff" d="M42.378 73.043c0 1.016-.834 1.85-1.85 1.85a1.857 1.857 0 0 1-1.85-1.85c0-1.017.834-1.85 1.85-1.85 1.037 0 1.85.833 1.85 1.85" opacity=".846"/><path fill="#fff" d="M42.175 73.043c0 .894-.732 1.626-1.627 1.626a1.63 1.63 0 0 1-1.626-1.626 1.63 1.63 0 0 1 1.626-1.626c.895-.02 1.627.711 1.627 1.626" opacity=".923"/><path fill="#fff" d="M41.971 73.043c0 .793-.63 1.423-1.423 1.423s-1.423-.63-1.423-1.423.63-1.423 1.423-1.423 1.423.63 1.423 1.423"/><path fill="#fff" d="M40.183 72.454c-.183.854-3.68 1.118-3.68 1.118s2.887.224 3.68.57c.731.324.955 6.586.955 6.586s.183-5.428.264-6.587c.041-.468 5.692-1.016 5.692-1.016s-3.882-.448-5.773-.63c-.203-.02-.57-4.92-.57-4.92s-.386 4.025-.568 4.879"/><path fill="#fff" d="M14.77 58.935a2.64 2.64 0 0 1-3.638.853 2.636 2.636 0 0 1-.834-3.639 2.64 2.64 0 0 1 3.639-.853 2.64 2.64 0 0 1 .834 3.639" opacity=".077"/><path fill="#fff" d="M14.649 58.874a2.503 2.503 0 0 1-3.456.792 2.503 2.503 0 0 1-.793-3.455 2.503 2.503 0 0 1 3.456-.793 2.503 2.503 0 0 1 .793 3.456" opacity=".154"/><path fill="#fff" d="M14.527 58.792c-.691 1.098-2.155 1.444-3.253.752a2.35 2.35 0 0 1-.752-3.252c.691-1.098 2.155-1.444 3.252-.753a2.35 2.35 0 0 1 .753 3.253" opacity=".231"/><path fill="#fff" d="M14.405 58.732a2.23 2.23 0 0 1-3.07.711 2.233 2.233 0 0 1-.712-3.07 2.233 2.233 0 0 1 3.07-.711c1.057.65 1.362 2.012.712 3.07" opacity=".308"/><path fill="#fff" d="M14.303 58.65a2.08 2.08 0 0 1-2.867.67 2.08 2.08 0 0 1-.67-2.865 2.08 2.08 0 0 1 2.866-.671 2.08 2.08 0 0 1 .67 2.866" opacity=".385"/><path fill="#fff" d="M14.181 58.569c-.57.915-1.768 1.179-2.683.63a1.94 1.94 0 0 1-.61-2.683c.569-.915 1.768-1.18 2.683-.63.895.589 1.18 1.768.61 2.683" opacity=".462"/><path fill="#fff" d="M14.059 58.508c-.528.833-1.647 1.097-2.48.569-.834-.529-1.098-1.647-.57-2.48a1.79 1.79 0 0 1 2.48-.57c.834.509 1.099 1.627.57 2.48" opacity=".538"/><path fill="#fff" d="M13.937 58.427a1.67 1.67 0 0 1-2.297.528 1.67 1.67 0 0 1-.529-2.297 1.65 1.65 0 0 1 2.277-.529 1.663 1.663 0 0 1 .55 2.298" opacity=".615"/><path fill="#fff" d="M13.815 58.345a1.52 1.52 0 1 1-2.582-1.606 1.52 1.52 0 1 1 2.582 1.606" opacity=".692"/><path fill="#fff" d="M13.693 58.284c-.406.65-1.26.834-1.91.447-.651-.406-.834-1.26-.448-1.91a1.387 1.387 0 0 1 1.91-.448c.672.407.855 1.26.448 1.911" opacity=".769"/><path fill="#fff" d="M13.571 58.203a1.225 1.225 0 0 1-1.707.386 1.225 1.225 0 0 1-.387-1.707 1.225 1.225 0 0 1 1.708-.387c.59.366.752 1.118.386 1.708" opacity=".846"/><path fill="#fff" d="M13.47 58.121a1.11 1.11 0 0 1-1.525.346 1.11 1.11 0 0 1-.346-1.525 1.09 1.09 0 0 1 1.504-.345c.529.345.671 1.016.366 1.524" opacity=".923"/><path fill="#fff" d="M13.348 58.06a.958.958 0 1 1-1.626-1.016.96.96 0 0 1 1.32-.305c.448.265.59.875.306 1.322"/><path fill="#fff" d="M12.534 57.085c-.406.427-2.5-.671-2.5-.671s1.585 1.159 1.89 1.647c.305.447-1.788 4.106-1.788 4.106s2.033-3.029 2.5-3.659c.183-.264 3.598 1.443 3.598 1.443s-2.053-1.646-3.07-2.419c-.101-.081 1.444-3.009 1.444-3.009s-1.667 2.135-2.074 2.562"/><path fill="#fff" d="M49.839 14.19a2.67 2.67 0 0 1-2.867 2.4 2.655 2.655 0 0 1-2.398-2.867 2.655 2.655 0 0 1 2.866-2.4 2.655 2.655 0 0 1 2.399 2.867" opacity=".077"/><path fill="#fff" d="M49.697 14.19a2.51 2.51 0 0 1-2.725 2.277 2.48 2.48 0 0 1-2.256-2.724 2.48 2.48 0 0 1 2.724-2.257c1.362.102 2.379 1.322 2.257 2.704" opacity=".154"/><path fill="#fff" d="M49.554 14.17a2.35 2.35 0 0 1-2.561 2.134 2.35 2.35 0 0 1-2.135-2.561 2.35 2.35 0 0 1 2.562-2.135 2.35 2.35 0 0 1 2.134 2.562" opacity=".231"/><path fill="#fff" d="M49.412 14.17c-.102 1.22-1.2 2.114-2.42 2.012a2.244 2.244 0 0 1-2.012-2.419c.102-1.22 1.2-2.114 2.42-2.012a2.206 2.206 0 0 1 2.012 2.419" opacity=".308"/><path fill="#fff" d="M49.27 14.15a2.09 2.09 0 0 1-2.257 1.89 2.09 2.09 0 0 1-1.89-2.257 2.09 2.09 0 0 1 2.256-1.89 2.076 2.076 0 0 1 1.89 2.256" opacity=".385"/><path fill="#fff" d="M49.127 14.13a1.956 1.956 0 0 1-2.114 1.768 1.926 1.926 0 0 1-1.748-2.114 1.94 1.94 0 0 1 2.114-1.749 1.92 1.92 0 0 1 1.748 2.094" opacity=".462"/><path fill="#fff" d="M49.005 14.129a1.785 1.785 0 0 1-1.951 1.626 1.785 1.785 0 0 1-1.627-1.951 1.773 1.773 0 0 1 1.952-1.627c.976.082 1.708.956 1.626 1.952" opacity=".538"/><path fill="#fff" d="M48.863 14.109a1.665 1.665 0 1 1-3.315-.306 1.665 1.665 0 0 1 3.315.306" opacity=".615"/><path fill="#fff" d="M48.72 14.088a1.54 1.54 0 0 1-1.646 1.383 1.54 1.54 0 0 1-1.383-1.647 1.54 1.54 0 0 1 1.647-1.382c.834.081 1.464.813 1.383 1.646" opacity=".692"/><path fill="#fff" d="M48.579 14.089a1.36 1.36 0 0 1-1.505 1.24 1.36 1.36 0 0 1-1.24-1.505 1.36 1.36 0 0 1 1.504-1.24c.753.061 1.301.752 1.24 1.505" opacity=".769"/><path fill="#fff" d="M48.436 14.068c-.06.67-.67 1.18-1.342 1.118a1.245 1.245 0 0 1-1.118-1.342 1.247 1.247 0 0 1 1.342-1.118c.67.061 1.179.671 1.118 1.342" opacity=".846"/><path fill="#fff" d="M48.294 14.068a1.097 1.097 0 0 1-1.2.996 1.097 1.097 0 0 1-.996-1.199c.061-.61.59-1.057 1.2-.996s1.057.59.996 1.2" opacity=".923"/><path fill="#fff" d="M48.151 14.048a.958.958 0 1 1-1.91-.163.96.96 0 0 1 1.036-.874.93.93 0 0 1 .874 1.037"/><path fill="#fff" d="M46.993 13.54c-.183.569-2.541.528-2.541.528s1.93.325 2.439.61c.468.264.244 4.473.244 4.473s.447-3.62.59-4.392c.06-.325 3.862-.325 3.862-.325s-2.582-.528-3.822-.772c-.142-.02-.081-3.335-.081-3.335s-.508 2.643-.691 3.213"/><path fill="#fff" d="M61.67 67.9a2.655 2.655 0 0 1-2.866 2.399 2.655 2.655 0 0 1-2.399-2.867c.122-1.443 1.423-2.52 2.867-2.398A2.655 2.655 0 0 1 61.67 67.9" opacity=".077"/><path fill="#fff" d="M61.528 67.9a2.51 2.51 0 0 1-2.724 2.277 2.48 2.48 0 0 1-2.257-2.724 2.48 2.48 0 0 1 2.725-2.257c1.362.102 2.378 1.322 2.256 2.704" opacity=".154"/><path fill="#fff" d="M61.386 67.88a2.35 2.35 0 0 1-2.562 2.134 2.364 2.364 0 0 1-2.134-2.561 2.35 2.35 0 0 1 2.561-2.135 2.35 2.35 0 0 1 2.135 2.562" opacity=".231"/><path fill="#fff" d="M61.244 67.86a2.217 2.217 0 0 1-2.42 2.012c-1.22-.102-2.114-1.2-2.012-2.42s1.2-2.114 2.42-2.012c1.219.122 2.134 1.2 2.012 2.42" opacity=".308"/><path fill="#fff" d="M61.101 67.86a2.09 2.09 0 0 1-2.256 1.89 2.09 2.09 0 0 1-1.89-2.257 2.09 2.09 0 0 1 2.256-1.89 2.064 2.064 0 0 1 1.89 2.256" opacity=".385"/><path fill="#fff" d="M60.959 67.84a1.956 1.956 0 0 1-2.114 1.768 1.94 1.94 0 0 1 .366-3.863 1.907 1.907 0 0 1 1.748 2.094" opacity=".462"/><path fill="#fff" d="M60.837 67.819a1.785 1.785 0 0 1-1.952 1.626 1.785 1.785 0 0 1-1.626-1.952 1.785 1.785 0 0 1 1.952-1.626 1.826 1.826 0 0 1 1.626 1.952" opacity=".538"/><path fill="#fff" d="M60.695 67.819a1.664 1.664 0 1 1-3.315-.306 1.664 1.664 0 0 1 3.315.306" opacity=".615"/><path fill="#fff" d="M60.552 67.798a1.537 1.537 0 0 1-1.646 1.383 1.537 1.537 0 0 1-1.383-1.647 1.54 1.54 0 0 1 1.647-1.382c.834.08 1.464.813 1.382 1.646" opacity=".692"/><path fill="#fff" d="M60.41 67.798a1.36 1.36 0 0 1-1.504 1.24 1.36 1.36 0 0 1-1.24-1.504 1.36 1.36 0 0 1 1.504-1.24c.752.061 1.301.732 1.24 1.504" opacity=".769"/><path fill="#fff" d="M60.268 67.778a1.23 1.23 0 0 1-1.342 1.118 1.23 1.23 0 0 1-1.118-1.342c.061-.67.67-1.179 1.342-1.118.67.061 1.179.65 1.118 1.342" opacity=".846"/><path fill="#fff" d="M60.125 67.758a1.097 1.097 0 0 1-1.2.996 1.097 1.097 0 0 1-.995-1.2c.06-.61.59-1.057 1.2-.996s1.056.61.995 1.2" opacity=".923"/><path fill="#fff" d="M59.983 67.758a.958.958 0 1 1-1.91-.163.96.96 0 0 1 1.036-.874.93.93 0 0 1 .874 1.037"/><path fill="#fff" d="M58.824 67.25c-.183.569-2.54.528-2.54.528s1.93.325 2.439.61c.467.264.244 4.472.244 4.472s.447-3.638.569-4.39c.06-.326 3.862-.326 3.862-.326s-2.582-.529-3.822-.773c-.142-.02-.08-3.334-.08-3.334s-.489 2.643-.672 3.212"/><path fill="#fff" d="M32.457 26.021c.346.935-.122 1.992-1.057 2.338a1.804 1.804 0 0 1-2.338-1.057c-.345-.935.122-1.992 1.057-2.338a1.83 1.83 0 0 1 2.338 1.057" opacity=".077"/><path fill="#fff" d="M32.356 26.062c.325.894-.122 1.89-.997 2.216a1.714 1.714 0 0 1-2.216-.996 1.705 1.705 0 0 1 .997-2.216 1.7 1.7 0 0 1 2.216.996" opacity=".154"/><path fill="#fff" d="M32.274 26.082a1.623 1.623 0 0 1-3.029 1.159c-.325-.834.102-1.769.935-2.094s1.769.102 2.094.935" opacity=".231"/><path fill="#fff" d="M32.193 26.123a1.526 1.526 0 0 1-.895 1.972 1.526 1.526 0 0 1-1.972-.895 1.526 1.526 0 0 1 .895-1.972 1.543 1.543 0 0 1 1.972.895" opacity=".308"/><path fill="#fff" d="M32.091 26.164c.285.732-.101 1.565-.833 1.85-.732.284-1.566-.102-1.85-.834s.101-1.565.833-1.85a1.42 1.42 0 0 1 1.85.834" opacity=".385"/><path fill="#fff" d="M32.01 26.204a1.337 1.337 0 1 1-2.5.956 1.337 1.337 0 1 1 2.5-.956" opacity=".462"/><path fill="#fff" d="M31.908 26.224a1.255 1.255 0 0 1-.711 1.606c-.63.244-1.362-.08-1.586-.711-.244-.63.081-1.362.712-1.586a1.206 1.206 0 0 1 1.585.691" opacity=".538"/><path fill="#fff" d="M31.827 26.265c.224.59-.081 1.24-.67 1.464a1.136 1.136 0 0 1-1.465-.671c-.223-.59.082-1.24.671-1.464s1.24.081 1.464.671" opacity=".615"/><path fill="#fff" d="M31.725 26.306a1.03 1.03 0 0 1-.61 1.341 1.03 1.03 0 0 1-1.341-.61 1.03 1.03 0 0 1 .61-1.341 1.03 1.03 0 0 1 1.341.61" opacity=".692"/><path fill="#fff" d="M31.644 26.326a.95.95 0 0 1-.549 1.22.947.947 0 0 1-1.22-.55.95.95 0 0 1 .55-1.219.95.95 0 0 1 1.219.549" opacity=".769"/><path fill="#fff" d="M31.563 26.367a.86.86 0 0 1-.488 1.098.86.86 0 0 1-1.098-.488.86.86 0 0 1 .488-1.098c.427-.183.915.04 1.098.488" opacity=".846"/><path fill="#fff" d="M31.461 26.407a.75.75 0 0 1-.447.976.75.75 0 0 1-.976-.447.75.75 0 0 1 .447-.976.75.75 0 0 1 .976.447" opacity=".923"/><path fill="#fff" d="M31.38 26.428c.122.345-.04.732-.386.854a.67.67 0 0 1-.854-.387.67.67 0 0 1 .386-.853.69.69 0 0 1 .854.386"/><path fill="#fff" d="M30.506 26.469c.06.406-1.424 1.077-1.424 1.077s1.281-.386 1.688-.346c.366.02 1.484 2.684 1.484 2.684s-.813-2.379-.956-2.887c-.06-.203 2.298-1.362 2.298-1.362s-1.749.447-2.602.671c-.102.02-1.058-2.033-1.058-2.033s.509 1.789.57 2.196"/><path fill="#fff" d="M36.421 10.51c-1.3 2.074-4.045 2.725-6.119 1.424a4.444 4.444 0 0 1-1.402-6.12 4.463 4.463 0 0 1 6.119-1.423c2.053 1.302 2.703 4.046 1.402 6.12" opacity=".077"/><path fill="#fff" d="M36.218 10.388c-1.22 1.972-3.822 2.562-5.794 1.342a4.214 4.214 0 0 1-1.341-5.794c1.22-1.972 3.822-2.561 5.794-1.342a4.214 4.214 0 0 1 1.341 5.794" opacity=".154"/><path fill="#fff" d="M36.015 10.266a3.975 3.975 0 0 1-5.469 1.26c-1.87-1.158-2.419-3.618-1.26-5.468a3.975 3.975 0 0 1 5.468-1.26 3.98 3.98 0 0 1 1.26 5.468" opacity=".231"/><path fill="#fff" d="M35.812 10.145a3.75 3.75 0 0 1-5.144 1.199A3.726 3.726 0 0 1 29.49 6.2a3.726 3.726 0 0 1 5.143-1.18 3.7 3.7 0 0 1 1.18 5.124" opacity=".308"/><path fill="#fff" d="M35.608 10.022c-1.016 1.647-3.171 2.135-4.818 1.118s-2.134-3.171-1.118-4.818a3.51 3.51 0 0 1 4.818-1.118 3.475 3.475 0 0 1 1.118 4.818" opacity=".385"/><path fill="#fff" d="M35.405 9.9a3.26 3.26 0 0 1-4.493 1.037 3.26 3.26 0 0 1-1.037-4.493 3.26 3.26 0 0 1 4.493-1.036A3.26 3.26 0 0 1 35.405 9.9" opacity=".462"/><path fill="#fff" d="M35.222 9.758c-.874 1.423-2.744 1.85-4.167.956a3.01 3.01 0 0 1-.956-4.168c.874-1.423 2.744-1.85 4.168-.955 1.402.894 1.83 2.764.955 4.167" opacity=".538"/><path fill="#fff" d="M35.019 9.636a2.8 2.8 0 0 1-3.842.895 2.8 2.8 0 0 1-.895-3.842 2.8 2.8 0 0 1 3.842-.895c1.301.834 1.708 2.541.895 3.842" opacity=".615"/><path fill="#fff" d="M34.815 9.514a2.545 2.545 0 0 1-3.517.813 2.545 2.545 0 0 1-.813-3.517 2.545 2.545 0 0 1 3.517-.813 2.545 2.545 0 0 1 .813 3.517" opacity=".692"/><path fill="#fff" d="M34.612 9.392c-.67 1.078-2.114 1.423-3.192.732-1.077-.67-1.423-2.114-.731-3.192.67-1.077 2.114-1.423 3.191-.731 1.078.67 1.403 2.114.732 3.191" opacity=".769"/><path fill="#fff" d="M34.409 9.27a2.08 2.08 0 0 1-2.867.671 2.08 2.08 0 0 1-.67-2.866 2.1 2.1 0 0 1 2.866-.671c.996.61 1.28 1.89.67 2.866" opacity=".846"/><path fill="#fff" d="M34.205 9.148a1.85 1.85 0 0 1-2.54.59c-.855-.529-1.14-1.688-.59-2.542s1.687-1.118 2.54-.59a1.824 1.824 0 0 1 .59 2.542" opacity=".923"/><path fill="#fff" d="M34.023 9.026a1.61 1.61 0 0 1-2.216.508 1.61 1.61 0 0 1-.509-2.215 1.61 1.61 0 0 1 2.216-.509c.732.468.976 1.464.508 2.216"/><path fill="#fff" d="M32.66 7.38c-.69.711-4.208-1.139-4.208-1.139s2.643 1.952 3.192 2.765c.508.752-3.009 6.871-3.009 6.871s3.415-5.103 4.188-6.14c.325-.426 6.058 2.42 6.058 2.42s-3.456-2.745-5.143-4.066c-.183-.142 2.399-5.062 2.399-5.062s-2.785 3.639-3.477 4.35"/><defs><linearGradient id="a" x1="37.14" x2="45.093" y1="36.502" y2="36.547" gradientUnits="userSpaceOnUse"><stop stop-color="#ffd612"/><stop offset=".654" stop-color="#fa0"/></linearGradient><linearGradient id="b" x1="38.303" x2="43.934" y1="35.907" y2="35.939" gradientUnits="userSpaceOnUse"><stop stop-color="#fff654"/><stop offset=".654" stop-color="#ffd947"/></linearGradient><linearGradient id="c" x1="60.123" x2="68.075" y1="49.81" y2="49.855" gradientUnits="userSpaceOnUse"><stop stop-color="#ffd612"/><stop offset=".654" stop-color="#fa0"/></linearGradient><linearGradient id="d" x1="61.285" x2="66.919" y1="49.214" y2="49.246" gradientUnits="userSpaceOnUse"><stop stop-color="#fff654"/><stop offset=".654" stop-color="#ffd947"/></linearGradient><linearGradient id="e" x1="37.242" x2="45.194" y1="36.539" y2="36.539" gradientUnits="userSpaceOnUse"><stop stop-color="#ffd612"/><stop offset=".654" stop-color="#fa0"/></linearGradient><linearGradient id="f" x1="38.401" x2="44.034" y1="35.937" y2="35.937" gradientUnits="userSpaceOnUse"><stop stop-color="#fff654"/><stop offset=".654" stop-color="#ffd947"/></linearGradient><linearGradient id="g" x1="60.301" x2="68.251" y1="49.716" y2="49.716" gradientUnits="userSpaceOnUse"><stop stop-color="#ffd612"/><stop offset=".654" stop-color="#fa0"/></linearGradient><linearGradient id="h" x1="61.459" x2="67.091" y1="49.114" y2="49.114" gradientUnits="userSpaceOnUse"><stop stop-color="#fff654"/><stop offset=".654" stop-color="#ffd947"/></linearGradient><linearGradient id="i" x1="61.383" x2="73.859" y1="10.887" y2="10.887" gradientUnits="userSpaceOnUse"><stop stop-color="#fff654"/><stop offset=".654" stop-color="#ffd947"/></linearGradient><linearGradient id="j" x1="75.393" x2="93.094" y1="41.245" y2="41.245" gradientUnits="userSpaceOnUse"><stop stop-color="#c67602"/><stop offset=".654" stop-color="#dd9300"/></linearGradient><linearGradient id="k" x1="29.849" x2="87.755" y1="27.69" y2="27.69" gradientUnits="userSpaceOnUse"><stop stop-color="#a1d7de"/><stop offset=".654" stop-color="#77b4bd"/></linearGradient><linearGradient id="l" x1="61.823" x2="45.753" y1="34.528" y2="48.012" gradientUnits="userSpaceOnUse"><stop stop-color="#fff654"/><stop offset=".654" stop-color="#ffd947"/></linearGradient><linearGradient id="m" x1="87.755" x2="72.709" y1="40.855" y2="40.855" gradientUnits="userSpaceOnUse"><stop stop-color="#fff654"/><stop offset=".654" stop-color="#ffd947"/></linearGradient><linearGradient id="n" x1="29.849" x2="44.635" y1="14.525" y2="14.525" gradientUnits="userSpaceOnUse"><stop stop-color="#fff654"/><stop offset=".654" stop-color="#ffd947"/></linearGradient><linearGradient id="o" x1="42.147" x2="87.755" y1="14.525" y2="14.525" gradientUnits="userSpaceOnUse"><stop stop-color="#fff654"/><stop offset=".654" stop-color="#ffd947"/></linearGradient><linearGradient id="p" x1="85.942" x2="80.376" y1="43.16" y2="40.2" gradientUnits="userSpaceOnUse"><stop stop-color="#ce7b02"/><stop offset=".654" stop-color="#e69900"/></linearGradient><linearGradient id="q" x1="60.272" x2="73.513" y1="13.163" y2="13.163" gradientUnits="userSpaceOnUse"><stop stop-color="#f59d0f"/><stop offset=".654" stop-color="#f57f00"/></linearGradient><linearGradient id="r" x1="44.635" x2="80.871" y1="19.577" y2="19.577" gradientUnits="userSpaceOnUse"><stop stop-color="#ce7b02"/><stop offset=".654" stop-color="#e69900"/></linearGradient><linearGradient id="s" x1="36.456" x2="45.535" y1="17.959" y2="17.959" gradientUnits="userSpaceOnUse"><stop stop-color="#ce7b02"/><stop offset=".654" stop-color="#e69900"/></linearGradient><linearGradient id="t" x1="82.581" x2="89.784" y1="42.901" y2="42.901" gradientUnits="userSpaceOnUse"><stop offset=".248" stop-color="#9f5c03"/><stop offset=".737" stop-color="#98540a"/><stop offset="1" stop-color="#934d0f"/></linearGradient><linearGradient id="u" x1="82.44" x2="89.646" y1="43.123" y2="43.164" gradientUnits="userSpaceOnUse"><stop offset=".248" stop-color="#9f5c03"/><stop offset=".737" stop-color="#98540a"/><stop offset="1" stop-color="#934d0f"/></linearGradient><linearGradient id="v" x1="82.555" x2="89.758" y1="42.9" y2="42.9" gradientUnits="userSpaceOnUse"><stop offset=".248" stop-color="#9f5c03"/><stop offset=".737" stop-color="#98540a"/><stop offset="1" stop-color="#934d0f"/></linearGradient><linearGradient id="w" x1="29.134" x2="74.485" y1="44.281" y2="44.281" gradientUnits="userSpaceOnUse"><stop stop-color="#fae848"/><stop offset=".654" stop-color="#facc3d"/></linearGradient><linearGradient id="x" x1="28.813" x2="3.399" y1="30.806" y2="52.131" gradientUnits="userSpaceOnUse"><stop stop-color="#fae848"/><stop offset=".654" stop-color="#facc3d"/></linearGradient><linearGradient id="y" x1="37.353" x2="45.305" y1="36.539" y2="36.539" gradientUnits="userSpaceOnUse"><stop stop-color="#ffd612"/><stop offset=".654" stop-color="#fa0"/></linearGradient><linearGradient id="z" x1="38.512" x2="44.144" y1="35.937" y2="35.937" gradientUnits="userSpaceOnUse"><stop stop-color="#fff654"/><stop offset=".654" stop-color="#ffd947"/></linearGradient><linearGradient id="A" x1="37.242" x2="45.194" y1="36.565" y2="36.565" gradientUnits="userSpaceOnUse"><stop stop-color="#ffd612"/><stop offset=".654" stop-color="#fa0"/></linearGradient><linearGradient id="B" x1="38.399" x2="44.033" y1="35.964" y2="35.964" gradientUnits="userSpaceOnUse"><stop stop-color="#fff654"/><stop offset=".654" stop-color="#ffd947"/></linearGradient><linearGradient id="C" x1=".022" x2="45.37" y1="61.198" y2="61.198" gradientUnits="userSpaceOnUse"><stop stop-color="#fff654"/><stop offset=".654" stop-color="#ffd947"/></linearGradient><linearGradient id="D" x1="45.37" x2="74.485" y1="65.712" y2="65.712" gradientUnits="userSpaceOnUse"><stop stop-color="#fff654"/><stop offset=".654" stop-color="#ffd947"/></linearGradient><linearGradient id="E" x1="45.349" x2="74.485" y1="69.476" y2="69.476" gradientUnits="userSpaceOnUse"><stop stop-color="#ce7b02"/><stop offset=".654" stop-color="#e69900"/></linearGradient><linearGradient id="F" x1="45.349" x2="74.485" y1="69.476" y2="69.476" gradientUnits="userSpaceOnUse"><stop stop-color="#fff654"/><stop offset=".654" stop-color="#ffd947"/></linearGradient><linearGradient id="G" x1="-.002" x2="45.37" y1="64.843" y2="64.843" gradientUnits="userSpaceOnUse"><stop stop-color="#ffd612"/><stop offset=".654" stop-color="#fa0"/></linearGradient><linearGradient id="H" x1=".003" x2="45.37" y1="74.145" y2="74.145" gradientUnits="userSpaceOnUse"><stop stop-color="#fff654"/><stop offset=".654" stop-color="#ffd947"/></linearGradient><linearGradient id="I" x1="-.002" x2="45.374" y1="57.038" y2="57.038" gradientUnits="userSpaceOnUse"><stop stop-color="#fff654"/><stop offset=".654" stop-color="#ffd947"/></linearGradient><linearGradient id="J" x1="-.002" x2="45.36" y1="67.329" y2="67.329" gradientUnits="userSpaceOnUse"><stop stop-color="#fff654"/><stop offset=".654" stop-color="#ffd947"/></linearGradient><linearGradient id="K" x1="-.002" x2="45.349" y1="68.345" y2="68.345" gradientUnits="userSpaceOnUse"><stop stop-color="#fff654"/><stop offset=".654" stop-color="#ffd947"/></linearGradient><linearGradient id="L" x1="-.002" x2="45.37" y1="64.843" y2="64.843" gradientUnits="userSpaceOnUse"><stop stop-color="#f59d0f"/><stop offset=".654" stop-color="#f57f00"/></linearGradient><linearGradient id="M" x1="10.655" x2="12.812" y1="79.745" y2="79.745" gradientUnits="userSpaceOnUse"><stop stop-color="#b5601a"/><stop offset=".654" stop-color="#e27e00"/></linearGradient><linearGradient id="N" x1="9.557" x2="8.723" y1="78.497" y2="79.644" gradientUnits="userSpaceOnUse"><stop stop-color="#ffd612"/><stop offset=".654" stop-color="#fa0"/></linearGradient><linearGradient id="O" x1="6.373" x2="10.655" y1="73.525" y2="73.525" gradientUnits="userSpaceOnUse"><stop stop-color="#f9aa0b"/><stop offset=".654" stop-color="#fa0"/></linearGradient><linearGradient id="P" x1="6.373" x2="10.655" y1="75.72" y2="75.72" gradientUnits="userSpaceOnUse"><stop stop-color="#fff654"/><stop offset=".654" stop-color="#ffd947"/></linearGradient><linearGradient id="Q" x1="9.767" x2="11.606" y1="74.252" y2="74.252" gradientUnits="userSpaceOnUse"><stop stop-color="#b5601a"/><stop offset=".654" stop-color="#e27e00"/></linearGradient><linearGradient id="R" x1="6.373" x2="10.916" y1="68.49" y2="68.49" gradientUnits="userSpaceOnUse"><stop stop-color="#fff654"/><stop offset=".654" stop-color="#ffd947"/></linearGradient><linearGradient id="aa" x1="17.328" x2="26.85" y1="65.098" y2="65.098" gradientUnits="userSpaceOnUse"><stop stop-color="#ffdd12"/><stop offset=".654" stop-color="#ffb000"/></linearGradient><linearGradient id="ab" x1="17.411" x2="27.811" y1="62.706" y2="62.706" gradientUnits="userSpaceOnUse"><stop stop-color="#f59d0f"/><stop offset=".654" stop-color="#f57f00"/></linearGradient><linearGradient id="ac" x1="16.039" x2="25.907" y1="65.714" y2="65.714" gradientUnits="userSpaceOnUse"><stop stop-color="#fff654"/><stop offset=".654" stop-color="#ffd947"/></linearGradient><linearGradient id="ad" x1="38.692" x2="42.1" y1="91.936" y2="91.936" gradientUnits="userSpaceOnUse"><stop stop-color="#f9aa0b"/><stop offset=".654" stop-color="#fa0"/></linearGradient><linearGradient id="ae" x1="38.694" x2="42.1" y1="94.456" y2="94.456" gradientUnits="userSpaceOnUse"><stop stop-color="#fff654"/><stop offset=".654" stop-color="#ffd947"/></linearGradient><linearGradient id="af" x1="41.673" x2="43.052" y1="92.554" y2="92.554" gradientUnits="userSpaceOnUse"><stop stop-color="#b5601a"/><stop offset=".654" stop-color="#e27e00"/></linearGradient><linearGradient id="ag" x1="38.692" x2="42.703" y1="87.025" y2="87.025" gradientUnits="userSpaceOnUse"><stop stop-color="#fff654"/><stop offset=".654" stop-color="#ffd947"/></linearGradient><linearGradient id="ai" x1="42.082" x2="44.241" y1="97.909" y2="97.909" gradientUnits="userSpaceOnUse"><stop stop-color="#b5601a"/><stop offset=".654" stop-color="#e27e00"/></linearGradient><linearGradient id="aj" x1="40.985" x2="40.151" y1="96.66" y2="97.808" gradientUnits="userSpaceOnUse"><stop stop-color="#ffd612"/><stop offset=".654" stop-color="#fa0"/></linearGradient><linearGradient id="al" x1="19.564" x2="64.769" y1="23.936" y2="23.936" gradientUnits="userSpaceOnUse"><stop stop-color="#ce32f0"/><stop offset=".43" stop-color="#c12df0"/><stop offset="1" stop-color="#a924f0"/></linearGradient><linearGradient id="am" x1="17.786" x2="63.444" y1="21.95" y2="21.95" gradientUnits="userSpaceOnUse"><stop stop-color="#00b2f0"/><stop offset=".126" stop-color="#0da7f0"/><stop offset=".358" stop-color="#308af0"/><stop offset=".673" stop-color="#685bf0"/><stop offset="1" stop-color="#a924f0"/></linearGradient><radialGradient id="S" cx="0" cy="0" r="1" gradientTransform="matrix(1.4524 0 0 1.45238 8.103 71.08)" gradientUnits="userSpaceOnUse"><stop stop-color="#fcfce6"/><stop offset=".267" stop-color="#fff654"/><stop offset=".697" stop-color="#ffd947"/></radialGradient><radialGradient id="T" cx="0" cy="0" r="1" gradientTransform="translate(2.455 53.287)scale(1.45259)" gradientUnits="userSpaceOnUse"><stop stop-color="#fcfce6"/><stop offset=".267" stop-color="#fff654"/><stop offset=".697" stop-color="#ffd947"/></radialGradient><radialGradient id="U" cx="0" cy="0" r="1" gradientTransform="matrix(1.45281 0 0 1.45282 12.835 59.296)" gradientUnits="userSpaceOnUse"><stop stop-color="#fcfce6"/><stop offset=".267" stop-color="#fff654"/><stop offset=".697" stop-color="#ffd947"/></radialGradient><radialGradient id="V" cx="0" cy="0" r="1" gradientTransform="translate(32.319 70.57)scale(1.45259)" gradientUnits="userSpaceOnUse"><stop stop-color="#fcfce6"/><stop offset=".267" stop-color="#fff654"/><stop offset=".697" stop-color="#ffd947"/></radialGradient><radialGradient id="W" cx="0" cy="0" r="1" gradientTransform="matrix(1.45324 0 0 1.45325 42.7 76.58)" gradientUnits="userSpaceOnUse"><stop stop-color="#fcfce6"/><stop offset=".267" stop-color="#fff654"/><stop offset=".697" stop-color="#ffd947"/></radialGradient><radialGradient id="X" cx="0" cy="0" r="1" gradientTransform="matrix(1.45348 0 0 1.45346 48.411 76.58)" gradientUnits="userSpaceOnUse"><stop stop-color="#fcfce6"/><stop offset=".267" stop-color="#fff654"/><stop offset=".697" stop-color="#ffd947"/></radialGradient><radialGradient id="Y" cx="0" cy="0" r="1" gradientTransform="translate(60.73 68.921)scale(1.45281)" gradientUnits="userSpaceOnUse"><stop stop-color="#fcfce6"/><stop offset=".267" stop-color="#fff654"/><stop offset=".697" stop-color="#ffd947"/></radialGradient><radialGradient id="Z" cx="0" cy="0" r="1" gradientTransform="matrix(1.45304 0 0 1.45302 71.943 62.409)" gradientUnits="userSpaceOnUse"><stop stop-color="#fcfce6"/><stop offset=".267" stop-color="#fff654"/><stop offset=".697" stop-color="#ffd947"/></radialGradient><radialGradient id="ah" cx="0" cy="0" r="1" gradientTransform="translate(40.123 89.613)scale(1.45259)" gradientUnits="userSpaceOnUse"><stop stop-color="#fcfce6"/><stop offset=".267" stop-color="#fff654"/><stop offset=".697" stop-color="#ffd947"/></radialGradient><radialGradient id="ak" cx="0" cy="0" r="1" gradientTransform="translate(41.279 23.505)scale(23.4928)" gradientUnits="userSpaceOnUse"><stop stop-color="#01979f"/><stop offset=".211" stop-color="#04a4ab"/><stop offset=".602" stop-color="#0dc7ca"/><stop offset="1" stop-color="#18f0f0"/></radialGradient></defs></svg>