<svg xmlns="http://www.w3.org/2000/svg" width="168" height="179" fill="none" viewBox="0 0 168 179"><g clip-path="url(#a)"><path fill="url(#b)" d="m52.437 66.623 63.24 35.668 17.401.425-81.027-46.875z"/><path fill="#ffb206" d="m115.677 102.292 17.402.425-15.434-2.203-65.207-33.891z"/><path fill="url(#c)" d="m18.83 86.1 33.607-19.477-.386-10.782L.039 86.099z"/><path fill="#eda507" d="M.04 86.1h18.79l33.607-19.477L17.44 84.322l-12.695.348 7.061-5.41z"/><path fill="#b96a42" d="m18.83 86.1 62.237 35.862 34.61-19.67-63.24-35.669z"/><path fill="#a06335" d="m51.936 98.891.501-32.268L18.83 86.1l27.665 15.96z"/><path fill="#db854b" d="m51.934 98.891 34.571 19.979 29.17-16.578-63.24-35.669z"/><path fill="#592a0a" d="m55.1 107.006 5.208-3.246s-7.716-33.389-7.87-37.137L18.83 86.138z" opacity=".41"/><path fill="#93561b" d="M52.281 75.704 84.5 95.684l21.338 12.211 1.389-.812-25.35-14.878L52.32 74.352zm-.154 11.478 44.18 26.084 2.005-1.12L52.128 86.1z"/><path fill="#602609" d="m52.282 75.704.039-1.352L25.697 90.08l1.12.618zm-.154 11.478V86.1l-16.476 9.7 1.12.579z"/><path fill="url(#d)" d="m66.52 64.497 11.344 6.53 2.893-4.443-11.768-6.802z"/><path fill="#934f21" d="M78.79 68.091c-1.004.58-2.393.193-3.358-.232-1.234-.58-2.392-1.391-3.626-2.048-1.08-.541-2.123-1.12-2.971-2.01-.54-.58-.81-1.313-.888-2.009l-1.428 2.744 11.344 6.57 2.894-4.483-1.157-.657c.231.734 0 1.623-.81 2.125" opacity=".41"/><path fill="url(#e)" d="m68.604 62.526 5.942 3.44 4.128 1.12-9.53-5.487z"/><path fill="url(#f)" d="m121.966 90.157-11.768-6.801-2.469 4.714 11.343 6.57z"/><path fill="#934f21" d="M119.998 91.664c-1.003.58-2.392.193-3.357-.232-1.273-.58-2.392-1.39-3.627-2.048-1.08-.54-2.122-1.12-2.97-2.01-.541-.579-.811-1.313-.888-2.009l-1.427 2.744 11.343 6.57 2.894-4.483-1.157-.657c.231.734 0 1.623-.811 2.125" opacity=".41"/><path fill="url(#g)" d="m110.314 85.172-.502.927 5.943 3.44 4.128 1.12z"/><path fill="url(#h)" d="M126.363 28.25c.54.347 1.08.695 1.659.965.27.155.579.27.849.425.309-.386.733-.811 1.042-1.468 3.356-7.497 2.469-11.748-1.775-15.033-2.585-1.97-7.061-4.25-10.842-3.71-4.476.619-6.174 5.063-7.525 8.695v.078c.849.734 2.586 1.739 3.821 2.434 0 0 1.427-6.685 4.707-6.917 2.816-.193 8.99 2.241 9.26 6.222.193 2.743-1.428 5.719-2.199 7.38.115.078.193.155.308.233.078.077.618.502.386.348.039.154.193.27.309.347"/><path fill="#f49c1c" d="M126.363 28.25c.54.347 1.08.695 1.659.965.27.155.579.27.849.425.309-.386.733-.811 1.042-1.468 3.356-7.497 2.469-11.748-1.775-15.033-2.585-1.97-7.061-4.25-10.842-3.71-4.476.619-6.174 5.063-7.525 8.695v.078c.271.232.656.502 1.081.773.038-.078.038-.194.077-.27.116-.89.309-1.817.617-2.745.772-3.091 2.624-4.753 4.862-5.371a6.2 6.2 0 0 1 1.505-.31c.579-.038 1.235 0 1.929.117 2.161.27 4.36 1.197 6.174 2.511 1.775 1.198 3.241 2.744 3.82 4.367 1.389 3.98.385 9.39-4.476 10.009 0 0-.039.039-.039.077.116.078.193.155.309.232.077.078.617.503.386.348.077.116.231.232.347.31" opacity=".5"/><path fill="#f49c1c" d="M127.522 16.695c-1.196-1.817-4.283-3.478-6.328-3.942-5.749-1.353-5.016 2.357-8.566 3.44-.887.27-1.466-.117-1.813-.735-.386.889-.733 1.816-1.081 2.666v.078c.849.734 2.585 1.739 3.82 2.434 0 0 1.428-6.685 4.707-6.917 2.817-.193 8.991 2.241 9.261 6.222.193 2.743-1.428 5.72-2.2 7.38.116.078.193.155.309.232.077.078.617.503.386.348.116.078.27.194.386.271.54.348 1.08.696 1.659.966.27.154.579.27.849.425.309-.386.733-.811 1.041-1.468.386-.85.695-1.623.965-2.396l-.463.115c-1.659.078-2.624-.81-2.546-2.318.038-1.7 1.427-3.98-.386-6.801" opacity=".5"/><path fill="#602609" d="m131.032 29.486-22.417-13.062-1.158 2.28 22.418 12.984z"/><path fill="url(#i)" d="M163.522 81.964c4.283-12.057 3.55-23.148-1.196-29.91-1.467-2.087-4.206-3.942-5.595-4.986l-22.032 51.977c8.45 3.632 22.109 1.893 28.823-17.08"/><path fill="#93561b" d="m156.731 47.068-22.032 51.977a19.3 19.3 0 0 0 7.138 1.507l20.489-48.537c-1.505-2.048-4.437-2.435-5.595-4.947"/><path fill="url(#j)" d="m53.324 52.015 81.491 47.146 21.993-52.015L75.318 0z"/><path fill="url(#k)" d="m53.324 52.015 81.491 47.146-4.901-14.105-64.783-36.944z"/><path fill="#fff" d="M131.226 92.978c1.196 1.97 2.469 3.864 3.511 5.912l-4.823-13.834-2.701-1.546c1.312 3.169 2.199 6.53 4.013 9.468"/><path fill="#fffde1" d="M128.641 84.322 65.131 48.15l-11.807 3.904L75.55 64.921c18.25 5.101 36.231 10.936 53.092 19.4" opacity=".48"/><path fill="#fffde1" d="m73.735 53.02-8.604-4.908-11.807 3.903L55.1 53.06c.965.038 13.736.116 18.636-.039" opacity=".75"/><path fill="#fff" d="m66.983 49.156-1.852-1.044-11.807 3.903z" opacity=".75"/><path fill="url(#l)" d="m144.499 52.015-14.585 33.04 4.9 14.106 21.993-52.015z"/><path fill="#fff" d="m153.875 48.306-9.376 3.748-14.585 33.002 3.125 9.004c2.624-17.08 8.373-33.388 20.836-45.754" opacity=".45"/><path fill="url(#m)" d="m53.324 52.015 11.807-3.903 14.624-33.814L75.317 0z"/><path fill="#fff8d4" d="M64.476 25.621 55.1 47.803c4.398-4.057 9.298-7.188 14.43-9.931l7.216-16.733c-4.052 1.275-8.335 2.627-12.27 4.482" opacity=".64"/><path fill="url(#n)" d="m79.754 14.298 64.744 37.717 12.309-4.87L75.317 0z"/><path fill="#fff" d="m75.316 0 4.438 14.26 1.62.927C80.448 11.052 75.316 0 75.316 0m67.563 51.087 1.62.966 12.309-4.908-.926-.54c-2.663.734-11.305 3.748-13.003 4.482"/><path fill="#fff8d4" d="M122.661 27.399c-11.112-2.86-22.495-6.995-33.839-7.806l29.556 17.235c5.981-1.314 12.193-1.662 18.443-1.237z" opacity=".64"/><path fill="#db854b" d="m129.914 85.056 14.585-33.04-64.745-37.717-14.623 33.814z"/><path fill="#e89054" d="M137.631 67.589c-4.515-1.97-9.068-3.826-13.891-4.87-7.755-1.7-16.977-3.052-24.771-.772-2.045.58-4.09 1.314-6.135 1.97l37.08 21.14z"/><path fill="#6b340e" d="M79.754 56.46c4.63-12.405 14.431-16.733 29.093-13.95 10.032 1.931 23.845 10.897 32.874 15.843l2.778-6.299L79.754 14.3 65.131 48.15z" opacity=".25"/><path fill="#592a0a" d="M75.896 23.341c6.404.657 12.655 3.44 18.366 6.183 7.717 3.71 15.395 7.536 22.803 11.71 6.56 3.71 13.042 7.651 19.254 11.98 2.045 1.158 4.051 2.318 6.019 3.593l2.122-4.792L79.715 14.26l-3.897 9.042c.039 0 .078.04.078.04" opacity=".25"/><path fill="#592a0a" d="M85.425 41.156c3.743-9.623 0-17.584-4.012-21.525L68.525 50.083c6.367 1.275 13.968-1.353 16.9-8.927" opacity=".41"/><path fill="#592a0a" d="M68.795 50.083c2.161-4.367 7.177-14.84 9.994-18.78 2.353-3.324 5.054-5.295 7.987-.62-.618-4.83-2.933-8.694-5.363-11.09L68.525 50.044a.7.7 0 0 0 .27.04" opacity=".41"/><path fill="url(#o)" d="M156.808 47.146 134.814 99.16l6.019 2.048 21.183-50.122z"/><path fill="url(#p)" d="m131.342 29.022-22.495-13.1-1.158 2.28 22.495 13.023z"/><path fill="url(#q)" d="m142.801 55.841 1.698-3.825-64.745-37.717 1.62 5.333z"/><path fill="url(#r)" d="m68.526 50.045 12.849-30.413-1.62-5.333L65.13 48.113z"/><path fill="#fff8d4" d="M115.522 12.636c2.045-1.584 5.595-.734 6.83-.154 1.311.58 4.012 2.396 4.398 1.893.425-.54-4.205-3.285-6.713-3.632-2.123-.27-5.48-.27-6.907 2.627-1.003 2.01.656.58 2.392-.734"/><path fill="url(#s)" d="m159.508 62.256-11.961 29.06s6.328-.618 10.533-11.593c4.245-10.936 1.428-17.467 1.428-17.467"/><path fill="#7a4315" d="M155.727 84.593a31.4 31.4 0 0 0 2.353-4.83c4.206-10.937 1.428-17.468 1.428-17.468l-1.891 4.599c1.389.888 1.042 4.714 1.003 5.835-.231 4.135-1.389 7.38-2.893 11.864"/><path fill="url(#t)" d="m82.307 98.955-4.245 4.87.464 6.453 4.861 4.212 6.405-.425 4.244-4.869-.462-6.454-4.862-4.212z"/><path fill="url(#u)" d="m78.525 110.278 4.862 4.212 6.405-.425 4.244-4.869-3.28-2.435-7.562-1.237z"/><path fill="url(#v)" d="m84.93 101.738 1.274-.116 2.508-3.092-6.405.425z"/><path fill="url(#w)" d="m90.756 106.761 3.28 2.435-.463-6.454-2.932 2.744z"/><path fill="url(#x)" d="m78.526 110.278 2.855-2.667-.116-1.623-3.203-2.164z"/><path fill="url(#y)" d="m83.387 114.49 6.405-.425-2.701-3.091-1.543.27z"/><path fill="url(#z)" d="m84.931 101.738-3.665 4.251.115 1.623 4.168 3.633 1.543-.271 3.665-4.212-.115-1.275-4.437-3.865z"/><path fill="url(#A)" d="m85.24 103.051-2.586 3.014.077 1.16 2.971 2.589 1.08-.194 2.586-3.014-.039-.889-3.163-2.743z"/><path fill="#1a4096" d="M93.613 103.051c-.27 1.739-1.274 3.053-3.396 3.285-2.508.309-5.209-.812-7.678-.154a.83.83 0 0 1-.926-1.237c.887-1.546.849-3.787.424-5.642l-3.935 4.521.463 6.415 4.861 4.212 6.405-.463 4.206-4.87z" opacity=".52"/><path fill="#f24c01" d="m50.397 98.84-3.01-2.706-5.942-1.661 3.511 3.13z"/><path fill="url(#B)" d="m57.535 97.37 1.235-3.439 5.016-5.1-1.505 3.786z"/><path fill="#dd4603" d="m50.398 98.84-3.01-2.706 11.73-2.473-1.582 3.71z"/><path fill="url(#C)" d="m52.984 100.308-2.586-1.468 7.138-1.469-2.16 2.435z"/><path fill="#c64208" d="m62.282 92.617-4.707 4.753-2.16 2.435s3.124-2.203 3.202-2.28c.038-.077 3.665-4.908 3.665-4.908"/><path fill="#db4705" d="m52.983 100.308-2.586-1.469-5.44-1.236 4.669 2.01z"/><path fill="#ff9466" d="m55.993 89.333-7.331 1.7-5.556-1.7 4.36-3.632L54.796 84l4.978 1.237z"/><path fill="#fce2d9" d="m55.993 89.333-7.331 1.7-5.556-1.7 5.517 1.12 7.138-1.584 4.013-3.633z"/><path fill="#f2743d" d="m55.258 87.4-6.56 1.392-3.82-.619 2.933-2.589 6.675-1.507 3.589 1.005z"/><path fill="#e86b35" d="m54.487 84.077-1.505.348c-.27 1.507-1.89 2.744-3.086 3.478-.464.27-1.042.58-1.66.85l.425.077 6.56-1.39 2.816-2.358z"/><path fill="#fc8049" d="m43.104 89.333-1.659 5.178 5.942 1.624 1.274-5.102z"/><path fill="#ff9e78" d="M43.22 89.371c1.428 2.164 2.74 4.251 3.55 6.608l.58.155 1.272-5.101z"/><path fill="#e25518" d="m55.992 89.333 3.126 4.328 4.668-4.83-4.012-3.595z"/><path fill="#f7743b" d="m60.121 85.546-.347-.31-3.743 4.135 3.126 4.328.385-.386c-.385-2.59-.077-5.14.58-7.767"/><path fill="#ff6d33" d="m48.662 91.033-1.273 5.102 11.73-2.474-3.126-4.328z"/><path fill="#f45610" d="M56.186 89.604c1.003 3.13-5.75 5.719-8.18 6.105-.232.039-.386-.038-.502-.193l-.154.58 11.73-2.435z"/><path fill="#771904" d="M62.668 87.825c-.579 2.087-1.697 4.02-3.897 4.792-1.003.348-2.045.464-3.125.464a9 9 0 0 1-1.428 0c-3.974-.502-8.681 2.048-12.347.116l-.424 1.314h-.039l3.511 3.13 4.63 2.01 3.357.695 2.431-.502s3.125-2.203 3.203-2.28c.077-.078 3.704-4.908 3.704-4.908l1.505-3.749z" opacity=".37"/><path fill="#f24c01" d="m64.75 100.424.04-4.058-2.817-5.526.077 4.714z"/><path fill="url(#D)" d="m70.693 104.713 3.357-1.43 7.1.31-3.782 1.429z"/><path fill="#dd4603" d="m64.752 100.424.039-4.058 9.684 7.033-3.781 1.314z"/><path fill="url(#E)" d="m65.447 103.322-.695-2.898 5.942 4.289-3.241.039z"/><path fill="#c64208" d="m77.367 105.022-6.675-.309-3.24.039s3.703.85 3.819.85 6.096-.58 6.096-.58"/><path fill="#db4705" d="m65.446 103.322-.694-2.898-2.701-4.87 1.659 4.793z"/><path fill="#ff9466" d="m75.555 98.182-6.135-4.29-2.508-5.293 5.633.811 6.135 4.29 2.47 4.521z"/><path fill="#fce2d9" d="m75.555 98.182-6.135-4.29-2.508-5.293 2.894 4.869 5.98 4.212 5.364.541z"/><path fill="#f2743d" d="m76.48 96.327-5.401-3.942-2.122-3.207 3.859.425 5.633 3.903 1.697 3.362z"/><path fill="#e86b35" d="m78.448 93.506-1.273-.889c-1.273.812-3.318.464-4.63.039a12 12 0 0 1-1.736-.657l.231.386 5.44 3.942 3.627.541z"/><path fill="#fc8049" d="m66.912 88.599-4.94 2.28 2.817 5.487 4.63-2.473z"/><path fill="#ff9e78" d="M66.989 88.753c-.656 2.512-1.312 4.87-2.47 7.072l.27.54 4.63-2.472z"/><path fill="#e25518" d="m75.555 98.183-1.08 5.217 6.675.193v-5.372z"/><path fill="#f7743b" d="M81.15 98.685v-.464h-5.556l-1.12 5.217h.54c1.699-1.971 3.743-3.478 6.136-4.754"/><path fill="#ff6d33" d="m69.42 93.893-4.63 2.473 9.684 7.033 1.08-5.217z"/><path fill="#f45610" d="M75.516 98.53c-1.621 2.859-8.103-.387-9.994-1.932-.154-.116-.193-.31-.193-.464l-.54.27 9.685 7.034z"/><path fill="#771904" d="M81.15 101.081c-.965 0-2.161-.271-3.203-.619-1.466-.54-3.28-.695-4.591-1.468-1.35-.773-2.084-2.164-3.589-2.821-1.852-.811-3.704-1.43-5.479-2.319a17 17 0 0 1-2.276-1.004l.038 2.666 1.66 4.792 1.736 2.976 2.006 1.468s3.704.85 3.82.85 6.135-.579 6.135-.579l3.781-1.43z" opacity=".37"/><path fill="#9cea20" d="m61.278 93.738-7.718 5.526.927 9.43 8.604 3.903 7.717-5.488-.926-9.43z"/><path fill="#7bc614" d="m54.486 108.693 8.605 3.903-.926-9.429z"/><path fill="#5ba504" d="m63.092 112.596 7.717-5.487-8.643-3.942z"/><path fill="#85d621" d="m62.166 103.167 8.643 3.942-.926-9.43z"/><path fill="#d8f456" d="m62.165 103.167 7.717-5.487-8.605-3.942z"/><path fill="#b7ed5a" d="m53.56 99.264 8.605 3.903-.887-9.429z"/><path fill="#f9ffca" d="m68.57 105.795-.578-6.028c.386-.618.888-1.275 1.89-2.087-.732.31-1.157.812-1.581.966-.27.116-.579.232-.888.27l-5.479-2.511c-.077-.348-.27-.696-.347-1.082-.077-.425-.27-.966-.309-1.391-.038.425-.115.888-.038 1.352.038.348.077.657.038 1.005l-5.209 3.748c-.887 0-1.774-.657-2.276-.811.54.502 1.389.85 1.93 1.275l.617 6.415c-.348.618-1.08 1.198-1.62 1.623.385-.232.81-.502 1.195-.773a2.5 2.5 0 0 1 .656-.309l6.058 2.744c.386.618.617 1.43.579 2.125.115-.734.038-1.507.115-2.241l5.17-3.71c.194.116.502.155.734.193.54.116 1.042.309 1.582.425-.309-.27-.926-.502-1.196-.657-.425-.115-.81-.27-1.042-.541"/><path fill="#f9ff85" d="m68.57 105.795-.463-4.792c-1.35 1.275-3.01 2.28-4.746 2.821-2.122.657-5.093 1.275-7.33.425l.27 2.705c-.348.618-1.081 1.198-1.621 1.623.386-.232.81-.502 1.196-.773.231-.154.424-.232.656-.309l6.058 2.744c.385.618.617 1.43.578 2.125.116-.734.039-1.507.116-2.241l5.17-3.71c.193.116.502.155.734.193.54.116 1.041.309 1.581.425-.308-.27-.925-.502-1.196-.656-.385-.155-.771-.31-1.003-.58"/><path fill="#afed45" d="m61.51 97.1-5.016 3.633.579 6.145 5.672 2.589 5.016-3.594-.579-6.183z"/><path fill="#cbff71" d="m59.387 107.96 3.318 1.507 5.055-3.594-.078-.58c-3.125.116-5.787 1.159-8.295 2.667M61.51 97.1l-5.055 3.595.039.231c3.24-1.932 7.06-1.777 10.726-.734l-.038-.54zm.076 6.068c-1.35.309-3.357.463-4.437 1.468-.077.077-.193.155-.27.232l.116 1.082c1.968-1.237 4.398-2.048 6.289-2.435 1.428-.309 2.855-.386 4.244-.309l-.038-.348c-1.968-.077-3.975-.116-5.904.31"/><path fill="#cbff71" d="m56.57 101.583.27 2.821c2.894-2.435 6.56-3.517 10.573-2.319l-.039-.541c-3.511-1.159-7.138-1.43-10.804.039"/><path fill="#fcff8a" d="m56.494 100.733.077.966c2.817.579 6.097-.812 7.486-3.246q.057-.06.115-.116l-2.623-1.198z" opacity=".42"/><path fill="#a2cc09" d="M66.603 99.419c-.155 3.517-2.817 6.067-5.904 7.072-1.273.425-2.662.425-3.627.116l.039.27 5.633 2.551 5.055-3.594-.618-6.183z" opacity=".42"/><path fill="#fff" d="M62.05 96.714c-.58-.194-.888-.078-1.428.231-.463.27-3.126 2.28-3.974 3.092l-.04.077c0 .039-.038.078-.038.078.425 0 .618-.348.926-.58.347-.27.733-.541 1.12-.773a35 35 0 0 0 1.929-1.352c.424-.31.887-.541 1.389-.425.54.115 1.118.463 1.659.618.54.193 1.08.502 1.62.734s1.042.618 1.62.696c-.694-.503-1.504-.89-2.276-1.353-.849-.464-1.659-.812-2.508-1.043"/><path fill="#1b4c03" d="M64.943 101.777c-.965-.116-1.968-1.508-2.585-2.165-.965-1.043-1.814-2.202-2.585-3.361-.309-.271-.618-.503-.926-.773l-5.287 3.787.926 9.429 8.605 3.942 7.717-5.527-.772-8.076c-1.389 1.545-3.01 2.975-5.093 2.744" opacity=".44"/><path fill="#0347f2" d="m32.185 104.404-3.743-1.893-6.405.038 4.399 2.126z"/><path fill="url(#F)" d="m38.9 100.849.232-3.748 3.55-6.493-.425 4.174z"/><path fill="#0541dd" d="m32.186 104.404-3.743-1.894 10.997-5.758-.54 4.096z"/><path fill="url(#G)" d="m35.157 105.099-2.971-.695 6.713-3.555-1.466 3.052z"/><path fill="#0e43c6" d="m42.257 94.781-3.357 6.067-1.466 3.053s2.469-3.053 2.546-3.169 2.277-5.95 2.277-5.95"/><path fill="#0943db" d="m35.156 105.1-2.971-.696-5.75.271 5.21.657z"/><path fill="#bbcfff" d="m35.118 93.314-6.83 3.748-6.018-.116 3.28-4.83 6.829-3.749 5.324-.193z"/><path fill="#e9f0ff" d="m35.118 93.314-6.83 3.748-6.018-.116 5.787-.425 6.675-3.633 2.971-4.714z"/><path fill="#7097f2" d="m33.806 91.613-6.134 3.246-3.975.463 2.2-3.4 6.212-3.44h3.858z"/><path fill="#628ae8" d="m32.108 88.482-1.39.773c.155 1.585-1.118 3.285-2.083 4.328a15 15 0 0 1-1.389 1.314l.463-.038 6.135-3.246 2.16-3.13z"/><path fill="#86a8fc" d="m22.27 96.945-.194 5.642 6.367-.077-.155-5.449z"/><path fill="#aec6ff" d="M22.385 96.945c2.006 1.74 3.935 3.44 5.401 5.565h.657l-.155-5.449z"/><path fill="#2b60e2" d="m35.117 93.314 4.322 3.439 3.24-6.145-4.977-2.434z"/><path fill="#6d95f7" d="m38.127 88.367-.425-.232-2.585 5.178 4.322 3.44.27-.503c-1.08-2.473-1.505-5.062-1.582-7.883"/><path fill="#326bfc" d="m28.29 97.062.153 5.449 10.997-5.758-4.322-3.44z"/><path fill="#1e5af4" d="M35.389 93.545c1.89 2.821-4.09 7.342-6.406 8.424a.65.65 0 0 1-.54-.038v.618l10.958-5.758z"/><path fill="#1a4096" d="M42.41 90.492c-.308 3.4-1.89 6.686-5.324 8.038-3.203 1.314-6.56-.85-9.57 1.275-1.62 1.121-3.047 2.319-4.784 3.053l3.704 1.778 5.21.657 3.55-.232 2.276-1.198s2.469-3.053 2.546-3.169 2.277-5.95 2.277-5.95l.424-4.174z" opacity=".52"/><path fill="#5bea20" d="M29.794 99.535 22 106.336l2.006 10.164 9.801 3.323 7.794-6.801-2.045-10.164z"/><path fill="#40c614" d="m24.006 116.5 9.8 3.323-2.006-10.125z"/><path fill="#24a504" d="m33.807 119.823 7.794-6.801-9.8-3.324z"/><path fill="#48d621" d="m31.8 109.698 9.801 3.324-2.045-10.164z"/><path fill="#aff456" d="m31.8 109.699 7.755-6.841-9.762-3.323z"/><path fill="#89ed5a" d="m22 106.336 9.8 3.363-2.006-10.164z"/><path fill="#ecffca" d="m39.016 111.862-1.273-6.492c.347-.734.849-1.507 1.813-2.512-.771.387-1.157 1.005-1.62 1.237-.27.154-.618.309-.926.386l-6.212-2.125c-.116-.348-.386-.734-.502-1.121-.154-.464-.424-1.005-.463-1.468 0 .463-.038.966.077 1.468.077.387.154.734.154 1.082l-5.286 4.638c-1.003.115-1.967-.542-2.585-.657.656.502 1.62.772 2.2 1.197l1.389 6.918c-.31.734-1.042 1.43-1.62 1.932.424-.309.848-.618 1.234-.966.231-.193.424-.271.656-.386l6.868 2.357c.502.618.81 1.468.849 2.241.038-.811-.116-1.662-.116-2.473l5.247-4.599c.232.116.58.116.81.116.618.039 1.158.193 1.776.309-.348-.27-1.042-.463-1.39-.579s-.771-.271-1.08-.503"/><path fill="#deff85" d="m39.016 111.862-1.003-5.139a13.54 13.54 0 0 1-4.862 3.593c-2.238.967-5.402 1.933-7.91 1.237l.579 2.899c-.309.734-1.042 1.429-1.62 1.932.424-.309.848-.619 1.234-.966.232-.194.424-.271.656-.387l6.868 2.357a4 4 0 0 1 .849 2.242c.038-.812-.116-1.662-.116-2.473l5.247-4.599c.232.116.58.116.81.116.618.039 1.159.193 1.776.309-.348-.27-1.042-.464-1.39-.58-.385-.154-.81-.309-1.118-.541"/><path fill="#7aed45" d="m30.45 103.167-5.093 4.444 1.312 6.647 6.405 2.203 5.093-4.483-1.311-6.647z"/><path fill="#9eff71" d="m29.291 115.148 3.781 1.275 5.093-4.483-.115-.657c-3.434.58-6.212 2.01-8.759 3.865m1.159-11.981-5.093 4.483.039.27c3.318-2.434 7.486-2.705 11.575-1.971l-.115-.579zm.694 6.57c-1.428.464-3.588.889-4.669 2.087-.077.116-.154.193-.27.309l.232 1.198c2.006-1.585 4.552-2.705 6.559-3.324a19 19 0 0 1 4.591-.772l-.077-.348c-2.122 0-4.321.154-6.366.85"/><path fill="#9eff71" d="m25.51 108.577.617 3.014c2.894-2.937 6.752-4.521 11.228-3.671l-.115-.58c-3.898-.888-7.872-.811-11.73 1.237"/><path fill="#e3ff8a" d="m25.357 107.611.193 1.043c3.126.348 6.521-1.507 7.794-4.328a.5.5 0 0 1 .116-.154l-3.01-1.005z" opacity=".42"/><path fill="#6dcc09" d="M36.197 105.1c.193 3.825-2.392 6.917-5.672 8.308-1.311.58-2.855.734-3.935.541l.077.309 6.405 2.203 5.093-4.483-1.312-6.646z" opacity=".42"/><path fill="#fff" d="M30.95 102.665c-.655-.116-1.002 0-1.504.426-.463.347-3.164 2.821-3.974 3.787l-.039.077c0 .039-.038.077-.038.116.463-.039.655-.425.925-.734.348-.348.734-.657 1.12-.967.655-.54 1.311-1.12 1.929-1.7.424-.386.887-.695 1.466-.618.617.077 1.235.348 1.852.502s1.196.425 1.814.619c.617.193 1.196.541 1.813.579-.81-.502-1.736-.811-2.624-1.198-.849-.425-1.775-.695-2.74-.889"/><path fill="#1b4c03" d="m39.555 102.859-3.627-1.237c-.077 1.546-.694 3.208-1.505 4.753-.617 1.971-1.697 3.71-3.395 5.333-2.817 2.705-5.363 1.932-7.987.155l.926 4.676 9.8 3.323 7.795-6.84z" opacity=".44"/><path fill="#03f27c" d="m45.613 111.128-3.164-3.555-6.79-2.667 3.742 4.096z"/><path fill="url(#H)" d="m54.217 110.239 1.852-3.864 6.482-5.333-2.238 4.212z"/><path fill="#05dd82" d="m45.613 111.128-3.164-3.556 14.045-1.429-2.277 4.096z"/><path fill="url(#I)" d="m48.469 113.138-2.856-2.01 8.605-.889-2.856 2.628z"/><path fill="#0ec66b" d="m60.315 105.254-6.135 4.985-2.817 2.589s3.897-2.164 4.013-2.28c.116-.038 4.939-5.294 4.939-5.294"/><path fill="#09db8a" d="m48.468 113.138-2.856-2.01-6.212-2.125 5.21 2.898z"/><path fill="#bbffd6" d="m53.37 100.655-8.798 1.082-6.328-2.666 5.556-3.749 8.798-1.082 5.71 2.048z"/><path fill="#e9fff1" d="m53.37 100.656-8.798 1.082-6.328-2.667 6.328 1.971 8.604-.966 5.132-3.787z"/><path fill="#70f2a3" d="m52.75 98.298-7.91.812-4.36-1.198 3.743-2.628 8.026-1.005 4.09 1.624z"/><path fill="#62e897" d="m52.25 94.28-1.775.231c-.501 1.74-2.546 3.014-4.051 3.671-.617.27-1.312.58-2.045.812l.502.154 7.87-.811 3.628-2.396z"/><path fill="#86fcbd" d="m38.244 99.071-2.547 5.836 6.753 2.666 2.122-5.835z"/><path fill="#aeffd1" d="M38.398 99.11c1.39 2.704 2.701 5.293 3.396 8.192l.695.27 2.122-5.835z"/><path fill="#2be281" d="m53.37 100.656 3.125 5.487 6.057-5.101-4.244-4.753z"/><path fill="#6df7b0" d="m58.655 96.714-.386-.425-4.9 4.367 3.126 5.449.501-.425c-.077-3.015.579-5.952 1.66-8.966"/><path fill="#32fc9f" d="m44.571 101.737-2.122 5.836 14.045-1.43-3.126-5.488z"/><path fill="#1ef49a" d="M53.562 101.003c.81 3.787-7.409 6.028-10.341 6.183a.62.62 0 0 1-.54-.271l-.232.657 14.045-1.429z"/><path fill="#02683c" d="M56.649 108.5c-4.244 1.623-7.293-.386-10.92-1.546a40 40 0 0 1-3.048 0c-1.929-.077-4.205-.116-6.019-.966l2.74 3.014 5.209 2.899 3.858 1.236 2.894-.309s3.897-2.164 4.013-2.28c.038-.038 1.273-1.352 2.469-2.666-.386.27-.772.464-1.196.618" opacity=".39"/><path fill="#206eea" d="m70.616 99.419-6.25 5.333 1.504 8.115 7.717 2.744 6.25-5.372-1.504-8.076z"/><path fill="#1458c6" d="m65.87 112.867 7.716 2.743-1.505-8.115z"/><path fill="#0441a5" d="m73.587 115.61 6.25-5.371-7.755-2.744z"/><path fill="#2166d6" d="m72.082 107.495 7.756 2.744-1.505-8.077z"/><path fill="#69adff" d="m72.082 107.496 6.25-5.333-7.717-2.744z"/><path fill="#9dc9fc" d="m64.365 104.752 7.717 2.744-1.466-8.077z"/><path fill="#cae0ff" d="m77.831 109.311-.965-5.178c.27-.58.656-1.198 1.467-1.971-.618.309-.926.773-1.273.966a4 4 0 0 1-.734.309l-4.938-1.738c-.116-.31-.31-.58-.386-.889-.116-.348-.309-.812-.348-1.16 0 .348-.038.773.039 1.16.077.309.116.579.116.85l-4.245 3.632c-.771.078-1.582-.425-2.044-.541.501.425 1.273.619 1.736.966l1.003 5.527c-.27.579-.849 1.12-1.312 1.507.309-.232.656-.503.965-.735.193-.154.347-.231.54-.309l5.44 1.933c.386.502.656 1.197.656 1.777.039-.657-.077-1.314-.077-1.932l4.206-3.594c.193.077.463.077.656.116.463.039.926.193 1.389.27-.27-.231-.849-.386-1.08-.463-.27-.193-.58-.309-.81-.503"/><path fill="#85b8ff" d="m77.831 109.312-.771-4.096c-1.08 1.198-2.431 2.203-3.898 2.782-1.774.734-4.32 1.507-6.327.889l.424 2.319c-.27.579-.849 1.12-1.312 1.507.309-.232.656-.503.965-.735.193-.154.347-.231.54-.309l5.44 1.933c.386.502.656 1.197.656 1.777.039-.657-.077-1.314-.077-1.932l4.206-3.594c.193.077.463.077.656.116.463.039.926.193 1.389.271-.27-.232-.849-.387-1.08-.464-.27-.155-.58-.271-.81-.464"/><path fill="#4586ed" d="m71.078 102.317-4.09 3.478 1.004 5.295 5.054 1.816 4.09-3.517-1.003-5.294z"/><path fill="#71a8ff" d="m70.037 111.862 3.01 1.044 4.09-3.517-.078-.502c-2.739.386-4.977 1.468-7.022 2.975m1.041-9.545-4.09 3.478.039.194c2.662-1.894 5.98-2.087 9.183-1.469l-.077-.464zm.502 5.217c-1.157.348-2.855.657-3.704 1.585-.077.077-.154.154-.192.231l.154.928c1.62-1.237 3.666-2.125 5.248-2.589a15 15 0 0 1 3.626-.58l-.038-.309c-1.737.116-3.473.232-5.093.734"/><path fill="#71a8ff" d="m67.143 106.568.463 2.396c2.315-2.319 5.401-3.517 8.951-2.783l-.077-.463c-3.125-.773-6.29-.735-9.337.85"/><path fill="#8abbff" d="m66.988 105.795.155.851c2.47.309 5.209-1.16 6.212-3.363.038-.038.038-.077.077-.115l-2.354-.851z" opacity=".42"/><path fill="#0957cc" d="M75.631 103.94c.116 3.053-1.968 5.449-4.592 6.57-1.041.464-2.276.58-3.125.386l.039.232 5.054 1.778 4.09-3.517-.964-5.294z" opacity=".42"/><path fill="#fff" d="M71.503 101.931c-.54-.116-.771 0-1.196.309-.347.27-2.547 2.203-3.203 2.976l-.038.038c0 .039-.039.039-.039.077.348-.038.54-.347.733-.579.27-.271.618-.503.888-.773.54-.425 1.042-.85 1.543-1.314.347-.309.733-.541 1.158-.464.502.078 1.003.309 1.466.425.502.116.965.348 1.428.503.463.154.926.463 1.427.463-.656-.386-1.389-.656-2.083-1.004-.579-.271-1.35-.503-2.084-.657"/><path fill="#1a4096" d="M73.702 110.123c-3.782.039-5.71-2.976-9.106-4.058l1.273 6.802 7.755 2.744 6.251-5.333-.424-2.319c-1.505 1.43-3.704 2.126-5.75 2.164" opacity=".52"/><path fill="#fc531f" d="m85.51 110.742.154 8.811 7.679 4.29 7.562-4.522-.154-8.849-7.678-4.251z"/><path fill="#c6400b" d="m93.342 123.842 7.563-4.521-7.678-4.29z"/><path fill="#a52f02" d="m100.905 119.32-.155-8.849-7.523 4.56z"/><path fill="#ea4918" d="m93.227 115.032 7.524-4.56-7.679-4.251z"/><path fill="#fc7044" d="m93.227 115.032-.154-8.811-7.563 4.521z"/><path fill="#ff9e78" d="m85.664 119.552 7.563-4.521-7.717-4.29z"/><path fill="#ffe6de" d="m98.589 111.515-4.9-2.744c-.309-.618-.54-1.352-.618-2.55-.154.695 0 1.275-.077 1.739-.038.27-.116.579-.27.811l-4.784 2.899c-.309-.116-.695-.155-1.004-.271-.385-.154-.887-.309-1.196-.502.309.232.618.541 1.004.734.308.154.54.309.771.502l.116 5.99c-.463.696-1.428 1.005-1.852 1.314.694-.154 1.389-.618 2.006-.773l5.248 2.898c.27.619.347 1.469.385 2.126.04-.425.04-.889.078-1.314 0-.232.077-.425.116-.657l5.286-3.169c.656 0 1.427.271 1.89.696-.501-.464-1.119-.85-1.659-1.275l-.116-5.952c.193-.116.386-.309.54-.463.348-.348.772-.657 1.158-.966-.386.077-.887.425-1.119.579-.347.078-.656.271-1.003.348"/><path fill="#ffcbbd" d="m98.589 111.515-3.897-2.164c.27 1.7.154 3.516-.347 5.139-.618 1.971-1.698 4.599-3.55 5.836l2.2 1.236c.27.618.347 1.469.385 2.126.039-.426.039-.889.077-1.314 0-.232.077-.425.116-.657l5.286-3.169c.656 0 1.428.27 1.891.696-.502-.464-1.12-.851-1.66-1.276l-.115-5.951c.193-.116.386-.309.54-.464.347-.347.772-.657 1.158-.966-.386.077-.888.425-1.12.58-.308.077-.617.27-.964.348"/><path fill="#ed5d26" d="m88.248 112.326.077 5.758 5.055 2.783 4.939-2.937-.116-5.797-5.016-2.782z"/><path fill="#ff733e" d="m95.387 119.669 2.932-1.739-.077-5.758-.502-.271c-1.543 2.474-2.16 5.063-2.353 7.768m-7.139-7.343.077 5.758.193.116c.231-3.478 2.354-6.376 5.093-8.618l-.424-.231zm4.631 3.131c-.464 1.198-1.39 2.821-1.197 4.173 0 .116.039.232.039.348l.887.502c.078-2.164.772-4.482 1.466-6.105a15.5 15.5 0 0 1 2.007-3.401l-.27-.155c-1.158 1.43-2.238 2.937-2.933 4.638"/><path fill="#ff733e" d="m89.059 118.471 2.276 1.275c-.309-3.516.772-6.878 3.82-9.313l-.424-.232c-2.778 2.048-4.9 4.676-5.672 8.27"/><path fill="#ff7b4c" d="m88.325 118.084.81.425c1.93-1.855 2.624-5.101 1.467-7.458-.039-.039-.039-.116-.039-.155l-2.315 1.392z" opacity=".42"/><path fill="#cc3b05" d="M92.686 109.659c2.585 1.971 3.163 5.372 2.276 8.27-.347 1.198-1.08 2.242-1.813 2.821l.231.116 4.939-2.975-.077-5.758-5.055-2.821z" opacity=".42"/><path fill="#fff" d="M88.21 111.707c-.463.348-.54.657-.58 1.198 0 .503.078 3.633.27 4.676l.04.039c.038.039.038.039.038.077.193-.309.077-.657.039-1.004-.039-.426 0-.851 0-1.276 0-.734 0-1.468-.039-2.202-.038-.503.039-.966.386-1.276.386-.347.926-.618 1.35-.927s.926-.541 1.39-.85c.462-.271 1.003-.464 1.389-.85-.772.27-1.505.695-2.239 1.043a12.5 12.5 0 0 0-2.044 1.352"/><path fill="#771904" d="M93.844 115.07c-2.084-1.469-2.778-4.676-3.858-6.995l-4.476 2.705.154 8.811 7.717 4.29 7.562-4.522-.038-2.048c-2.47-.502-4.978-.811-7.061-2.241" opacity=".37"/><path fill="url(#J)" d="m79.49 108.732-2.006 5.14 2.2 5.101 5.131 2.048 5.094-2.241 2.006-5.14-2.2-5.101-5.131-2.01z"/><path fill="url(#K)" d="m79.684 118.973 5.132 2.048 5.093-2.241 2.006-5.14-3.357-1.043-6.482 1.159z"/><path fill="url(#L)" d="m82.423 110.201 1.003-.464 1.157-3.208-5.093 2.203z"/><path fill="url(#M)" d="m88.557 112.597 3.357 1.043-2.2-5.101-1.581 3.053z"/><path fill="url(#N)" d="m79.684 118.973 1.543-3.014-.579-1.275-3.164-.812z"/><path fill="url(#O)" d="m84.815 121.021 5.093-2.242-3.087-1.7-1.158.657z"/><path fill="url(#P)" d="m82.423 110.201-1.775 4.483.58 1.275 4.437 1.778 1.157-.657 1.736-4.483-.424-1.005-4.707-1.855z"/><path fill="url(#Q)" d="m83.08 111.205-1.273 3.169.385.889 3.164 1.275.81-.502 1.274-3.13-.309-.735-3.357-1.314z"/><path fill="#02683c" d="M84.005 114.76c-1.158-1.391-1.698-3.323-3.357-4.328-.502-.309-1.003-.541-1.544-.773l-1.659 4.174 2.2 5.101 5.131 2.048 5.093-2.203.85-2.164c-2.509.58-4.862.425-6.714-1.855" opacity=".39"/><path fill="#03f27c" d="m59.889 121.33-3.396-1.352-5.595.463 3.975 1.546z"/><path fill="url(#R)" d="m65.523 117.814-.039-3.324 2.701-5.874-.115 3.672z"/><path fill="#05dd82" d="m59.89 121.33-3.396-1.353 9.222-5.796-.193 3.632z"/><path fill="url(#S)" d="m62.55 121.755-2.661-.425 5.633-3.517-1.042 2.744z"/><path fill="#0ec66b" d="m68.068 112.287-2.546 5.526-1.08 2.744s1.967-2.86 2.006-2.937c.077-.077 1.62-5.333 1.62-5.333"/><path fill="#09db8a" d="m62.551 121.755-2.662-.425-5.016.657 4.592.232z"/><path fill="#bbffd6" d="m61.702 111.476-5.71 3.748-5.287.271 2.585-4.444 5.71-3.749 4.63-.502z"/><path fill="#e9fff1" d="m61.702 111.476-5.71 3.748-5.287.271 5.055-.773 5.594-3.594 2.277-4.328z"/><path fill="#70f2a3" d="m60.468 110.046-5.17 3.246-3.435.696 1.698-3.13 5.209-3.401 3.357-.27z"/><path fill="#62e897" d="m58.77 107.457-1.157.773c.231 1.353-.733 2.937-1.544 3.942-.308.386-.694.85-1.157 1.236l.386-.077 5.17-3.246 1.66-2.898z"/><path fill="#86fcbd" d="m50.705 115.495.232 4.947 5.556-.464-.502-4.753z"/><path fill="#aeffd1" d="M50.822 115.495c1.891 1.391 3.666 2.744 5.093 4.522l.58-.039-.502-4.753z"/><path fill="#2be281" d="m61.703 111.476 4.013 2.705 2.47-5.565-4.554-1.816z"/><path fill="#6df7b0" d="m64.018 106.954-.386-.154-1.929 4.676 4.013 2.705.193-.464c-1.08-2.087-1.62-4.328-1.89-6.763"/><path fill="#32fc9f" d="m55.992 115.224.502 4.753 9.222-5.796-4.013-2.705z"/><path fill="#1ef49a" d="M61.973 111.631c1.852 2.357-3.087 6.685-5.055 7.767-.154.078-.347.078-.463 0l.077.541 9.222-5.758z"/><path fill="#02683c" d="M62.782 119.011c-5.325 2.821-7.987-3.246-9.878-7.342l-2.199 3.826.232 4.908h-.04l3.975 1.545 4.592.232 3.087-.464 1.89-1.198s1.968-2.859 2.007-2.937c.038-.077 1.582-5.371 1.582-5.371v-.541c-.888 3.169-2.74 6.028-5.248 7.342" opacity=".39"/><path fill="#f24c01" d="m36.97 121.523-1.003-4.328-4.399-5.256 1.235 5.063z"/><path fill="url(#T)" d="m44.455 124.615 3.241-2.357 7.756-1.507-3.704 2.512z"/><path fill="#dd4603" d="m36.97 121.523-1.003-4.328 12.231 5.063-3.743 2.357z"/><path fill="url(#U)" d="m38.435 124.46-1.466-2.937 7.485 3.092-3.473.889z"/><path fill="#c64208" d="m51.748 123.263-7.293 1.391-3.473.889s4.206-.039 4.322-.078c.116-.038 6.444-2.202 6.444-2.202"/><path fill="#db4705" d="m38.436 124.46-1.466-2.937-4.167-4.521 3.01 4.714z"/><path fill="#ff9466" d="m48.044 116.383-7.717-3.052-4.052-5.063 6.251-.58 7.717 3.053 3.781 4.213z"/><path fill="#fce2d9" d="m48.044 116.384-7.717-3.053-4.052-5.062 4.36 4.482 7.486 3.015 5.903-.812z"/><path fill="#f2743d" d="m48.545 114.143-6.83-2.86-3.086-2.937 4.283-.502 7.022 2.743 2.663 3.169z"/><path fill="#e86b35" d="m49.935 110.587-1.583-.618c-1.196 1.198-3.433 1.352-4.977 1.236a14 14 0 0 1-2.045-.27l.347.348 6.868 2.859 4.052-.386z"/><path fill="#fc8049" d="m36.276 108.269-4.708 3.71 4.399 5.216 4.36-3.864z"/><path fill="#ff9e78" d="M36.392 108.385c-.039 2.859-.155 5.565-.849 8.27l.424.541 4.36-3.865z"/><path fill="#e25518" d="m48.043 116.384.154 5.874 7.254-1.507-1.427-5.797z"/><path fill="#f7743b" d="m54.178 115.456-.115-.502-5.981 1.43.154 5.874.618-.116c1.234-2.551 3.087-4.676 5.324-6.686"/><path fill="#ff6d33" d="m40.327 113.331-4.36 3.864 12.231 5.063-.154-5.874z"/><path fill="#f45610" d="M48.044 116.731c-1.042 3.478-8.798 1.662-11.267.464-.232-.116-.309-.27-.309-.464l-.501.426 12.231 5.062z"/><path fill="#771904" d="M52.326 116.538c-.54.077-1.08.155-1.66.193-1.465.155-2.893.387-4.282.928-.154.116-.347.193-.502.309-.81.58-2.43 2.28-3.858 2.705-.424.193-.887.309-1.389.232-1.582-.271-2.97-.966-4.244-1.855-1.582-1.005-2.971-2.319-4.09-3.787l.463 1.816 3.01 4.715 2.623 2.743 2.547 1.044s4.205-.039 4.321-.078c.116-.038 6.444-2.202 6.444-2.202l3.704-2.474-1.12-4.56c-.616.078-1.272.194-1.967.271" opacity=".37"/><path fill="url(#V)" d="m47.696 117.968-4.206 4.869.463 6.454 4.823 4.212 6.444-.464 4.206-4.869-.425-6.415-4.861-4.212z"/><path fill="url(#W)" d="m43.955 129.291 4.823 4.212 6.444-.464 4.206-4.869-3.28-2.434-7.563-1.237z"/><path fill="url(#X)" d="m50.32 120.75 1.274-.154 2.547-3.053-6.444.425z"/><path fill="url(#Y)" d="m56.146 125.735 3.28 2.435-.425-6.415-2.933 2.744z"/><path fill="url(#Z)" d="m43.953 129.29 2.817-2.705-.116-1.623-3.164-2.125z"/><path fill="url(#aa)" d="m48.777 133.504 6.444-.464-2.74-3.092-1.504.309z"/><path fill="url(#ab)" d="m50.32 120.75-3.666 4.213.116 1.623 4.206 3.671 1.505-.309 3.665-4.213-.077-1.236-4.476-3.903z"/><path fill="url(#ac)" d="m50.667 122.065-2.624 3.014.116 1.159 2.97 2.551 1.081-.194 2.585-2.975-.077-.889-3.164-2.744z"/><path fill="#1a4096" d="m43.876 122.374-.386.464.463 6.415 4.862 4.212 6.444-.464 2.276-2.628c-5.286-.231-10.07-4.328-13.659-7.999" opacity=".52"/><path fill="#0347f2" d="m98.087 125.581 1.39-3.942-.85-6.376-1.543 4.637z"/><path fill="url(#ad)" d="m102.371 131.841 3.781-.232 6.83 2.744-4.167.077z"/><path fill="#0541dd" d="m98.088 125.581 1.389-3.941 7.061 10.202h-4.167z"/><path fill="url(#ae)" d="m97.74 128.634.348-3.053 4.282 6.26-3.163-1.082z"/><path fill="#0e43c6" d="m108.814 134.431-6.443-2.589-3.203-1.082s3.318 2.087 3.434 2.125z"/><path fill="#0943db" d="m97.74 128.634.347-3.053-1.004-5.681-.038 5.256z"/><path fill="#bbcfff" d="m109.393 127.126-4.553-6.337-.617-5.99 5.209 2.705 4.553 6.299.848 5.256z"/><path fill="#e9f0ff" d="m109.393 127.126-4.553-6.337-.617-5.99 1.157 5.719 4.399 6.183 5.054 2.358z"/><path fill="#7097f2" d="m110.937 125.659-3.974-5.758-.926-3.865 3.627 1.778 4.167 5.758.463 3.826z"/><path fill="#628ae8" d="m113.83 123.571-.926-1.275c-1.543.348-3.395-.696-4.553-1.546-.463-.348-1.003-.773-1.466-1.236l.116.425 3.935 5.719 3.396 1.778z"/><path fill="#86a8fc" d="m104.222 114.799-5.595.502.849 6.338 5.363-.85z"/><path fill="#aec6ff" d="M104.262 114.954c-1.505 2.242-2.932 4.328-4.862 6.067l.078.657 5.363-.85z"/><path fill="#2b60e2" d="m109.392 127.127-2.855 4.715 6.444 2.512 1.852-5.295z"/><path fill="#6d95f7" d="m114.678 129.523.155-.464-5.441-1.932-2.855 4.715.54.193c2.277-1.314 4.823-2.087 7.601-2.512"/><path fill="#326bfc" d="m104.84 120.789-5.363.85 7.061 10.202 2.855-4.714z"/><path fill="#1e5af4" d="M109.239 127.436c-2.585 2.203-7.756-3.168-9.106-5.332-.116-.194-.116-.387 0-.542l-.617.116 7.061 10.203z"/><path fill="#1a4096" d="M107.772 126.199c-.772-.773-1.081-2.164-1.428-3.169-.656-1.893-1.852-2.937-3.55-3.903-1.659-.966-3.241-1.893-4.283-3.4l-1.427 4.173-.04 5.256.695 3.478 1.467 2.125s3.318 2.087 3.434 2.125c.115.039 6.173 1.546 6.173 1.546l4.167-.077 1.66-4.831.154-.463-.579-3.555c-1.813 1.777-4.476 2.666-6.443.695" opacity=".52"/><path fill="#9cea20" d="m69.65 110.703-5.17 8.966 5.17 8.965h10.341l5.17-8.965-5.17-8.966z"/><path fill="#7bc614" d="M69.652 128.634h10.34l-5.17-8.965z"/><path fill="#5ba504" d="m79.99 128.634 5.17-8.965H74.82z"/><path fill="#85d621" d="M74.82 119.669h10.34l-5.17-8.966z"/><path fill="#d8f456" d="m74.823 119.669 5.17-8.966h-10.34z"/><path fill="#b7ed5a" d="M64.48 119.669h10.341l-5.17-8.966z"/><path fill="#f9ffca" d="m82.345 119.398-3.319-5.72c.078-.811.309-1.7.926-2.937-.578.619-.771 1.314-1.118 1.701-.194.232-.463.502-.772.657h-6.56c-.231-.31-.617-.58-.849-.889-.27-.387-.694-.812-.925-1.237.154.425.27.928.54 1.353.192.348.347.618.501.966l-3.51 6.106c-.888.425-2.046.154-2.663.193.771.27 1.775.193 2.47.425l3.51 6.106c-.077.773-.501 1.7-.887 2.357.309-.425.579-.85.849-1.275.154-.232.308-.425.501-.58h7.254c.656.425 1.273 1.121 1.505 1.855-.231-.773-.617-1.507-.926-2.28l3.473-6.029c.27 0 .578-.077.81-.154.579-.155 1.157-.155 1.775-.271-.425-.154-1.158-.077-1.505-.116-.27-.116-.695-.116-1.08-.231"/><path fill="#f9ff85" d="m82.345 119.398-2.624-4.56c-.772 1.893-1.968 3.632-3.434 4.946-1.813 1.623-4.476 3.594-7.1 3.71l1.467 2.551c-.078.772-.502 1.7-.888 2.357.309-.425.58-.85.85-1.275.153-.232.308-.425.5-.58h7.255c.656.425 1.273 1.121 1.504 1.855-.231-.773-.617-1.507-.926-2.28l3.473-6.029c.27 0 .579-.077.81-.154.579-.155 1.158-.155 1.775-.271-.424-.154-1.157-.077-1.505-.116-.347-.038-.771-.038-1.157-.154"/><path fill="#afed45" d="m71.425 113.91-3.396 5.874 3.396 5.874h6.79l3.357-5.874-3.356-5.874z"/><path fill="#cbff71" d="M74.205 125.659h4.013l3.395-5.874-.308-.58c-3.087 1.585-5.287 3.865-7.1 6.454m-2.78-11.749-3.396 5.874.116.232c2.354-3.362 6.212-4.985 10.302-5.604l-.309-.502zm2.779 6.029c-1.196.928-3.126 2.01-3.743 3.478-.038.116-.116.232-.154.348l.617 1.044c1.39-2.126 3.473-4.02 5.132-5.256a18.3 18.3 0 0 1 4.09-2.203l-.193-.309c-2.007.734-4.013 1.584-5.75 2.898"/><path fill="#cbff71" d="m68.533 120.634 1.544 2.667c1.775-3.71 4.939-6.454 9.453-7.072l-.309-.502c-3.974.386-7.717 1.739-10.688 4.907"/><path fill="#fcff8a" d="m68.03 119.784.54.928c3.048-.696 5.671-3.555 5.941-6.608 0-.077.039-.116.039-.155h-3.164z" opacity=".42"/><path fill="#a2cc09" d="M77.522 113.911c1.428 3.555-.077 7.303-2.7 9.699-1.081.967-2.431 1.624-3.55 1.74l.154.27h6.752l3.395-5.874-3.395-5.874h-.656z" opacity=".42"/><path fill="#fff" d="M71.773 113.292c-.656.077-.927.309-1.312.889-.31.502-2.084 3.71-2.547 4.869v.194c.424-.194.463-.619.656-1.005.193-.425.502-.85.772-1.276a32 32 0 0 0 1.273-2.202c.27-.503.617-.928 1.196-1.044.617-.116 1.312-.077 1.93-.116.655-.038 1.273 0 1.929 0 .617 0 1.311.116 1.929-.038-.926-.194-1.93-.232-2.894-.309-1.003-.116-1.968-.078-2.933.038"/><path fill="#1b4c03" d="M85.085 119.553c-.926 1.082-2.084 1.932-3.473 2.125-1.505.232-2.894-1.352-3.897-2.28-1.235-.657-2.508-1.275-3.82-1.468-2.97-.425-5.865.154-8.759.58l-.655 1.12 5.17 8.966h10.34l5.17-8.966z" opacity=".44"/><path fill="#bbcfff" d="m97.818 123.417-8.296.116-5.633-3.092 5.517-2.937 8.296-.154 5.132 2.434z"/><path fill="#86a9fc" d="M90.062 120.983v-.155c.077-1.198-.231-2.28-.077-3.323h-.579l-5.517 2.937 5.633 3.091c.193-.85.463-1.7.54-2.55"/><path fill="#7aa1fc" d="M97.702 117.35h-.463c.039 1.12.078 2.241-.231 3.362.038.077.077.116.116.193.193.811.578 1.623.81 2.434l4.9-3.516z"/><path fill="#e9f0ff" d="m97.818 123.417-8.296.116-5.633-3.092 5.633 2.667 8.296-.116 5.016-3.208z"/><path fill="#3368e5" d="m97.47 121.446-7.601.155-3.82-2.01 3.742-2.125 7.602-.116 3.82 1.971z"/><path fill="#406cd3" d="M97.394 117.35h-.232c-.116 1.314-1.466 2.628-2.508 3.168-.887.464-1.93.812-3.01 1.044l5.827-.116 3.743-2.125z"/><path fill="#86a8fc" d="m83.89 120.441-2.972 5.217 6.058 3.131 2.546-5.256z"/><path fill="#7c99dd" d="m97.816 123.417 2.393 5.371 6.135-4.173-3.512-4.831z"/><path fill="#1e5af4" d="m89.523 123.533-2.546 5.256h13.234l-2.392-5.372z"/><path fill="#e9f0ff" d="m89.292 123.301-2.315 5.487 2.932-5.255zm8.758-.232 2.161 5.758-2.855-5.526z"/><path fill="#3b6be0" d="M86.976 128.788v5.526l-4.63-2.782-1.428-5.874z"/><path fill="#295ad6" d="M86.976 128.788v5.526l-.579-5.178-5.479-3.478z"/><path fill="#053cce" d="M100.211 128.788H86.977v5.526h13.234z"/><path fill="#0235bc" d="M100.211 128.788v5.526l-.965-4.598-11.652-.271-.617 4.869v-5.526z"/><path fill="#305fd6" d="m106.344 124.615-1.466 6.338-4.669 3.362v-5.526z"/><path fill="#1144c9" d="m106.344 124.615-5.479 4.831-.656 4.869v-5.526z"/><path fill="#174fdd" d="m82.346 131.532 2.855 3.594 8.45 5.603-6.675-6.453z"/><path fill="#1144c9" d="m104.878 130.952-4.668 3.362-6.56 6.415 8.412-5.758z"/><path fill="#0235bc" d="m86.977 134.276 13.234.039-6.56 6.415z"/><path fill="#0433b2" d="m97.896 134.314-.039.039c-.424.966-1.042 1.816-1.698 2.628l-2.546 3.362-.039.348.077.077 6.56-6.415zm-10.919-.038h6.636l-4.784.657 1.659 2.744z"/><path fill="#1a4096" d="M99.246 131.726c-2.161.309-4.36.27-6.02-1.391-1.196-1.198-2.314-2.976-3.82-3.787-1.041-.58-2.122-1.083-3.202-1.623-1.543-.116-3.125-.116-4.669-.387l-.617 1.121 1.428 5.874 2.855 3.593 8.411 5.604 8.45-5.758 2.778-3.98.348-1.43c-1.814 1.12-3.975 1.893-5.942 2.164" opacity=".52"/><path fill="#ff8e66" d="m71.85 124.074-8.063 1.932-6.174-1.855 4.785-4.057 8.064-1.894 5.518 1.314z"/><path fill="#fc7849" d="M63.787 123.34v-.039c0-.039-.039-.039-.039-.077-.193-1.16-.733-2.164-.771-3.246l-.58.154-4.784 4.058 6.135 1.855c.039-.928.116-1.817.039-2.705"/><path fill="#fc7342" d="m70.46 118.2-.462.116c.27 1.082.54 2.164.501 3.324.04.038.116.077.155.154.347.773.887 1.469 1.312 2.203l4.051-4.483z"/><path fill="#fce2d9" d="m71.85 124.074-8.063 1.932-6.174-1.855 6.058 1.391 8.103-1.855 4.206-4.173z"/><path fill="#f75c28" d="m71.078 122.258-7.37 1.739-4.167-1.121 3.241-2.898 7.37-1.701 4.167 1.121z"/><path fill="#d35223" d="m70.152 118.277-.231.039c.154 1.314-.888 2.86-1.775 3.594-.772.657-1.737 1.198-2.74 1.662l5.672-1.353 3.241-2.86z"/><path fill="#fc9a7c" d="m57.612 124.151-1.813 5.72 6.598 1.777 1.389-5.642z"/><path fill="#f27951" d="m71.85 124.074 3.472 4.792 5.093-5.372-4.437-3.98z"/><path fill="#f44d10" d="m63.786 126.007-1.39 5.641 12.926-2.782-3.472-4.792z"/><path fill="#fce2d9" d="m63.477 125.812-1.08 5.836 1.774-5.758zm8.529-2.085 3.318 5.178-3.974-4.792z"/><path fill="#f96735" d="m62.397 131.649 1.157 5.41-5.093-1.739-2.662-5.449z"/><path fill="#d64916" d="m62.397 131.649 1.157 5.41-1.659-4.947-6.096-2.241z"/><path fill="#dd420e" d="m75.3 128.847-12.935 2.799 1.166 5.401 12.935-2.799z"/><path fill="#bc3301" d="m75.322 128.866 1.158 5.372-1.89-4.251-11.46 2.203.424 4.869-1.157-5.41z"/><path fill="#ef5a26" d="m80.416 123.494-.078 6.492-3.858 4.251-1.158-5.371z"/><path fill="#c93c09" d="m80.416 123.494-4.283 5.874.347 4.869-1.158-5.371z"/><path fill="#dd440d" d="m58.46 135.319 3.55 2.899 9.415 3.709-7.871-4.907z"/><path fill="#c93c09" d="m80.339 129.986-3.859 4.251-5.054 7.69 7.022-7.419z"/><path fill="#bc3301" d="m63.555 137.02 12.926-2.783-5.055 7.691z"/><path fill="#b23102" d="m74.203 134.74-.038.039c-.193 1.005-.656 1.971-1.12 2.937-.617 1.275-1.195 2.55-1.813 3.825l.039.348.077.039 5.093-7.652zm-10.648 2.28 6.443-1.391-4.514 1.623 2.2 2.318z"/><path fill="#771904" d="M66.95 132.151c-2.778 3.4-7.215 1.043-10.495-.966l2.007 4.135 3.55 2.898 9.414 3.671 7.06-7.42 1.892-4.482.077-4.831c-5.44.464-9.492 2.126-13.505 6.995" opacity=".37"/><path fill="#bbffd6" d="m84.699 131.842-8.296.154-5.634-3.091 5.518-2.976 8.296-.155 5.132 2.474z"/><path fill="#86fcb0" d="M76.943 129.407v-.039c0-.038-.038-.077 0-.077.039-1.198-.231-2.28-.077-3.323h-.579l-5.518 2.937 5.634 3.091c.193-.85.463-1.7.54-2.589"/><path fill="#7afcaa" d="M84.583 125.774h-.463c.039 1.121.078 2.242-.231 3.362.038.078.077.116.115.194.194.811.58 1.623.81 2.434l4.901-3.516z"/><path fill="#e9fff1" d="m84.699 131.841-8.296.155-5.634-3.092 5.634 2.667 8.295-.116 5.017-3.208z"/><path fill="#33e579" d="m84.353 129.909-7.602.116-3.82-1.971 3.743-2.126 7.602-.116 3.82 1.971z"/><path fill="#40d37a" d="M84.275 125.812h-.232c-.116 1.314-1.466 2.628-2.508 3.169-.887.464-1.93.812-3.01 1.044l5.827-.116 3.742-2.126z"/><path fill="#86fcbd" d="m70.77 128.904-2.971 5.217 6.058 3.13 2.546-5.255z"/><path fill="#7cdda2" d="m84.7 131.841 2.391 5.41 6.136-4.173-3.512-4.831z"/><path fill="#1ef49a" d="m76.404 131.996-2.547 5.256h13.235l-2.392-5.41z"/><path fill="#e9fff1" d="m76.173 131.764-2.316 5.487 2.933-5.256zm8.757-.232 2.161 5.758-2.894-5.526z"/><path fill="#3be089" d="M73.857 137.251v5.526l-4.63-2.782-1.428-5.874z"/><path fill="#29d687" d="M73.857 137.251v5.526l-.579-5.178-5.48-3.478z"/><path fill="#05ce84" d="M87.092 137.252H73.857v5.526h13.235z"/><path fill="#02bc78" d="M87.092 137.252v5.526l-.965-4.598-11.652-.271-.618 4.869v-5.526z"/><path fill="#30d68a" d="m93.227 133.078-1.466 6.338-4.67 3.362v-5.526z"/><path fill="#11c97f" d="m93.227 133.078-5.48 4.831-.655 4.869v-5.526z"/><path fill="#17dd82" d="m69.227 139.995 2.855 3.594 8.411 5.603-6.636-6.453z"/><path fill="#11c97f" d="m91.76 139.416-4.668 3.362-6.598 6.415 8.45-5.797z"/><path fill="#02bc7c" d="m73.857 142.739 13.235.039-6.598 6.415z"/><path fill="#04b280" d="m84.776 142.739-.038.039c-.424.966-1.042 1.816-1.698 2.628a96 96 0 0 0-2.547 3.362l-.038.348.077.077 6.56-6.415zm-10.919 0h6.598l-4.745.619 1.659 2.743z"/><path fill="#02683c" d="M83.62 143.009c-5.518 1.546-10.495-2.087-14.933-5.294l.54 2.28 2.856 3.594 8.411 5.564 8.45-5.757 2.778-3.981.27-1.237c-2.469 2.242-5.517 4.02-8.372 4.831" opacity=".39"/><path fill="#542708" d="m115.059 162.151 3.395-2.202 1.042-6.647-4.437 1.468z"/><path fill="#703208" d="m110.892 159.948 4.167 2.203v-7.381l-4.707 1.352z"/><path fill="#542708" d="m86.584 179 3.395-2.203 1.042-6.686-4.437 1.508z"/><path fill="#703208" d="M82.415 176.797 86.582 179v-7.381l-4.707 1.353z"/><path fill="url(#af)" d="m.04 86.1 81.027 46.875v-11.014L18.83 86.1z"/><path fill="#fffde1" d="M22.11 87.993 18.867 86.1H.04l8.682 5.023c4.128-2.396 8.72-3.246 13.388-3.13"/><path fill="#fff7ab" d="M49.928 111.179c.888-1.7 2.277-3.478 3.974-4.83L34.61 95.258c-5.016 1.12-10.148 1.507-15.24 2.125l29.44 17.004c.27-1.121.578-2.203 1.118-3.208"/><path fill="#fffde1" d="M75.703 118.869c.347 3.401-.039 6.84-1.119 10.357l6.482 3.748v-11.013z"/><path fill="#fff8bb" d="m.04 86.1 18.79 1.043 62.237 36.248v-1.43L18.83 86.1z"/><path fill="#fffde1" d="M81.067 132.975v-11.014l-1.968 7.652L.039 86.1z"/><path fill="url(#ag)" d="m133.078 102.716-17.401-.425-34.61 19.67v11.013z"/><path fill="#fffde1" d="m130.84 102.639-15.164-.386-4.514 2.551c6.521-1.044 13.157-1.623 19.678-2.165"/><path fill="#fffde1" d="m100.589 110.832-13.157 7.458c2.006 2.589 3.51 5.333 4.552 8.309l21.917-12.753c-4.361-1.236-8.759-2.318-13.312-3.014" opacity=".6"/><path fill="#ffce00" d="m115.677 102.291-34.61 19.67v11.013l52.011-30.258-49.272 26.162v-6.917z"/><path fill="#a06335" d="m122.97 151.563 8.913-40.5-50.816 21.912-.116 43.05z"/><path fill="#592a0a" d="M98.314 163.581c-4.861 3.362-11.19 8.772-17.363 8.772v3.633l42.019-24.462 8.913-40.538-4.245 1.817c.656 14.414-4.553 26.819-13.195 36.287-4.746 5.255-10.38 10.549-16.129 14.491" opacity=".28"/><path fill="#592a0a" d="M85.273 173.513c0-.116 0-.27.038-.386 1.273-6.686 1.66-13.642 4.399-19.941 2.546-5.835 6.907-10.434 11.845-14.337 8.296-6.531 17.518-11.902 27.55-15.187l2.778-12.559-50.816 21.911-.116 43.05z" opacity=".41"/><path fill="url(#ah)" d="m133.039 115.353.039-12.637-52.012 30.258-.039 13.062z"/><path fill="#824216" d="m88.744 128.492-7.678 4.483-.039 13.062 9.724-5.72c-.85-3.941-1.775-7.845-2.007-11.825m29.825-17.351c-.695 5.217-2.277 10.202-4.051 15.148l18.559-10.936.038-12.675z" opacity=".24"/><path fill="#592a0a" d="M110.507 119.758c7.408-3.362 14.816-6.647 22.572-8.695l.038-8.347-39.24 22.839c.077.115.116.231.154.347 5.48-2.318 10.958-4.328 16.476-6.144m-25.428 10.859-4.013 2.358-.039 13.061 1.197-.695c.655-4.985 1.543-9.893 2.855-14.724" opacity=".28"/><path fill="url(#ai)" d="m133.039 115.353.039-12.637-1.196 12.018-50.855 31.302z"/><path fill="#db854b" d="m11.035 135.603 69.916 40.422.115-43.05L1.273 94.292z"/><path fill="#c9753d" d="m1.273 94.292 9.762 41.311 69.916 40.422.038-12.251c-6.174-.116-12.733-1.7-16.823-2.821-8.373-2.318-30.906-14.955-31.716-15.303-7.177-3.323-16.244-7.961-20.257-15.226-4.669-8.463-7.91-23.341-1.428-31.533z"/><path fill="#c9753d" d="M4.244 106.851c12.926 4.212 33.337 18.433 37.813 22.027 11.42 9.082 18.636 17.004 24.887 26.897 2.932 4.637 4.321 8.772 7.717 16.655l6.25 3.633.116-43.05L1.234 94.33z"/><path fill="url(#aj)" d="m0 99.2 81.028 46.837.038-13.062L.04 86.1z"/><path fill="url(#ak)" d="M73.89 140.394c-1.544-4.83-3.396-9.583-4.901-14.414l-4.746-2.744c-1.157 4.019-3.125 7.188-5.749 9.739l15.936 9.197c-.194-.58-.348-1.198-.54-1.778" opacity=".65"/><path fill="url(#al)" d="m8.45 104.107 14.468 8.347c-4.012-5.564-7.1-11.709-7.832-17.621L9.723 91.74c-.425 4.135-.927 8.27-1.274 12.366" opacity=".67"/><path fill="url(#am)" d="M33.067 116.281C24.038 111.18 5.132 102.176 0 95.026v4.213l81.028 46.798.038-6.918c-6.714-2.009-33.105-14.453-48-22.838" opacity=".51"/><path fill="url(#an)" d="m0 99.2 81.028 46.837-.194-1.121L0 98.659z"/><path fill="url(#ao)" d="m78.983 133.323 2.044 12.714.04-13.062L.038 86.1 0 99.2l.965-11.748z"/><path fill="#93561b" d="m4.168 106.503.309 1.353 32.256 19.979 44.257 25.35-.039-1.352-46.841-27.476zm3.626 15.458 55.948 33.041 17.247 8.192-.039-1.043-73.387-41.272z"/><path fill="#602609" d="m128.796 124.976.27-1.16-48.115 28.017.039 1.353zm-36.231 31.61 33.8-20.481.193-.966-45.607 27.012.039 1.043z"/><path fill="url(#ap)" d="m19.176 144.297 3.704-1.893-2.16-1.237-1.698.773z"/><path fill="url(#aq)" d="m13.658 141.168 5.518 3.13-.155-2.358-5.517-3.246z"/><path fill="url(#ar)" d="m13.698 138.771 5.325 3.169-1.582-17.312-6.058-3.362z"/><path fill="url(#as)" d="m12.424 129.149 1.273 9.623 5.363 3.13-.501-5.488c-2.393-2.164-4.515-4.598-6.135-7.265"/><path fill="url(#at)" d="m19.022 141.94 1.697-.773-1.196-17.273-2.084.734z"/><path fill="url(#au)" d="m17.44 124.628 2.084-.734-6.135-3.324-2.006.696z"/><path fill="#93561b" d="M13.658 123.855c-1.196.386-1.697 2.202-1.119 4.019.58 1.816 2.045 2.937 3.28 2.55 1.196-.386 1.698-2.203 1.119-3.98-.617-1.817-2.084-2.976-3.28-2.589"/><path fill="url(#av)" d="M13.504 124.242c-1.004.347-1.39 1.932-.85 3.593.54 1.624 1.776 2.706 2.817 2.396 1.004-.347 1.39-1.932.85-3.593-.58-1.662-1.814-2.706-2.817-2.396"/><path fill="#93561b" d="M3.549 92.012c-1.196.386-1.698 2.203-1.119 3.98.579 1.816 2.045 2.937 3.28 2.55 1.196-.386 1.697-2.202 1.119-3.98-.618-1.777-2.084-2.937-3.28-2.55"/><path fill="url(#aw)" d="M3.396 92.398c-1.003.348-1.389 1.932-.849 3.594s1.814 2.705 2.817 2.396c1.003-.348 1.39-1.932.849-3.594s-1.814-2.705-2.817-2.396"/><path fill="#93561b" d="M22.11 102.794c-1.197.386-1.698 2.203-1.12 4.019.58 1.816 2.046 2.937 3.28 2.55 1.196-.386 1.698-2.202 1.12-3.98-.618-1.855-2.084-3.014-3.28-2.589"/><path fill="url(#ax)" d="M21.955 103.18c-1.003.348-1.39 1.933-.85 3.594.541 1.623 1.814 2.705 2.818 2.396 1.003-.348 1.389-1.932.849-3.594-.58-1.661-1.814-2.743-2.817-2.396"/><path fill="#93561b" d="M56.912 122.966c-1.196.386-1.697 2.203-1.119 3.98.58 1.817 2.045 2.937 3.28 2.551 1.196-.387 1.698-2.203 1.119-3.981-.617-1.816-2.084-2.975-3.28-2.55"/><path fill="url(#ay)" d="M56.76 123.352c-1.004.348-1.39 1.932-.85 3.594s1.776 2.705 2.817 2.396c1.003-.348 1.39-1.932.85-3.594-.541-1.662-1.814-2.744-2.817-2.396"/><path fill="#93561b" d="M75.47 133.709c-1.195.386-1.697 2.202-1.118 4.019.579 1.816 2.045 2.937 3.28 2.55 1.196-.386 1.697-2.202 1.119-3.98-.618-1.855-2.084-2.976-3.28-2.589"/><path fill="url(#az)" d="M75.318 134.095c-1.003.348-1.389 1.932-.849 3.594.54 1.623 1.814 2.705 2.817 2.396 1.003-.348 1.389-1.932.849-3.594-.579-1.661-1.814-2.743-2.817-2.396"/><path fill="#93561b" d="M84.075 136.26c-.58 1.816-.078 3.594 1.119 3.98 1.196.386 2.662-.734 3.28-2.551.578-1.816.076-3.593-1.12-4.018-1.234-.348-2.7.772-3.28 2.589"/><path fill="url(#aA)" d="M84.692 136.491c-.54 1.623-.154 3.246.849 3.594s2.238-.734 2.816-2.396c.54-1.662.155-3.246-.849-3.594-1.041-.347-2.276.735-2.816 2.396"/><path fill="#93561b" d="M110.467 124.01c.579-1.817.077-3.594-1.119-3.981-1.196-.386-2.662.735-3.279 2.551-.579 1.816-.077 3.594 1.119 3.98s2.662-.734 3.279-2.55"/><path fill="url(#aB)" d="M110.313 123.971c.54-1.662.154-3.247-.849-3.594-1.004-.348-2.277.734-2.817 2.357-.54 1.662-.154 3.246.849 3.594 1.042.348 2.276-.734 2.817-2.357"/><path fill="#93561b" d="M130.493 112.339c.578-1.817.077-3.594-1.119-3.981-1.196-.386-2.663.735-3.28 2.551-.579 1.816-.077 3.594 1.119 3.98 1.235.425 2.701-.734 3.28-2.55"/><path fill="url(#aC)" d="M130.377 112.3c.54-1.662.154-3.247-.849-3.594-1.003-.348-2.276.734-2.817 2.396-.54 1.661-.154 3.246.849 3.594 1.003.309 2.277-.735 2.817-2.396"/><path fill="#845203" d="M39.705 123.005c7.64 4.057 9.993.579 9.993.579v-6.994l-16.862-9.738-.154 7.497c0-.039-.193 4.83 7.023 8.656"/><path fill="url(#aD)" d="M38.778 122.58c7.64 4.057 9.183 2.087 9.183 2.087v-6.995L31.1 107.934l-.155 7.496c0-.038.656 3.324 7.833 7.15"/><path fill="#fff7ab" d="M43.563 115.121c1.813 3.014 3.202 6.415 3.82 9.893.462-.155.617-.348.617-.348v-6.994z" opacity=".32"/><path fill="#fff7ab" d="M38.238 116.628c-1.042-2.782-2.547-5.217-4.399-7.149l-2.74-1.584-.154 7.496s.656 3.363 7.833 7.188c.116.039.193.078.309.155 0-2.203-.193-4.367-.85-6.106" opacity=".22"/><path fill="#fff7ab" d="M38.739 116.28c-1.042-2.782-2.122-4.869-4.862-6.762l-1.89-1.082c1.851 2.318 3.51 4.714 4.32 7.69.31 1.236.387 3.207.155 5.101.695.425 1.466.889 2.315 1.352.116.039.193.078.309.155.502-2.048.309-4.753-.347-6.454" opacity=".32"/><path fill="#fff8d4" d="M40.013 113.807c2.353 1.391 5.787 2.435 7.254 4.328.154.232.578 1.314.694 1.585v-2.087L31.1 107.895l-.155 7.496s.116.58.772 1.585c-.463-1.971-.54-5.797.27-7.226.733-1.16 5.75 2.705 8.026 4.057"/><path fill="url(#aE)" d="m47.961 117.672 1.736-1.083-16.861-9.777-1.736 1.083z"/><path fill="url(#aF)" d="M33.994 115.199c.695-.464 2.084-.657 1.736-1.662-.192-.541-1.196-1.507-3.048-1.275-2.083.425-3.588 1.623-3.974 3.362-.463 2.048 1.968 3.98 3.28 4.83 3.588 2.28 7.33 3.131 10.688 2.358 1.659-.387 3.781-1.43 3.588-2.821s-3.048-2.126-4.476-1.43c-1.62.773-3.704 1.005-5.44.348-1.428-.619-4.476-2.319-2.354-3.71"/><path fill="#f49c1c" d="M35.19 120.879c-2.508-.966-5.324-2.667-5.826-4.754-.54-2.086 2.315-3.362 4.399-3.903a5 5 0 0 0-1.08 0c-2.084.425-3.59 1.624-3.975 3.363-.463 2.048 1.968 3.98 3.28 4.83 3.588 2.28 7.33 3.13 10.688 2.357 1.466-.348 3.28-1.198 3.55-2.357-.348-.889-.965-.618-1.197-.386-2.122 1.932-8.18 1.468-9.839.85"/><path fill="#f49c1c" d="M38.74 122.038c-5.673-.27-9.26-3.826-9.994-5.41.347 1.662 2.2 3.091 3.28 3.787 3.588 2.28 7.33 3.13 10.688 2.357 1.659-.386 3.78-1.43 3.588-2.821-.116-.927-1.466-1.584-2.74-1.7.155.116.194.348.425.464 2.2.927 1.042 3.632-5.248 3.323"/><path fill="#f49c1c" d="M33.183 114.812c-2.624 1.893 2.315 4.637 3.781 4.946 1.544.309 2.856.387 4.322-.232 1.042-.425 2.43-.85 3.742-.888-1.003-.464-2.392-.541-3.24-.155-1.621.773-3.705 1.005-5.441.348-1.428-.541-4.476-2.242-2.392-3.633.694-.464 2.083-.657 1.736-1.662-.116-.27-.424-.657-.965-.966 0 .039-.038.116 0 .155.695.773-.617 1.391-1.543 2.087"/><path fill="#fff8d4" d="M32.18 114.271c.308-.27 2.237-1.661.887-1.623v.078c-1.891.231-4.206 2.589-3.01 4.444.54.85 1.66 1.623 2.47 2.125.848.541 2.122 1.314 3.163 1.121-.463-.657-1.543-1.198-2.237-1.739-.656-.58-1.428-1.16-1.891-1.932-.656-1.082-.27-1.778.617-2.474"/><path fill="#845203" d="M36.424 121.806c-5.132-1.082-7.408-4.366-7.717-5.178.347 1.662 2.2 3.091 3.28 3.787 3.588 2.28 7.33 3.13 10.688 2.357 1.659-.386 3.78-1.43 3.588-2.821-.116-.927-1.466-1.584-2.74-1.7.039.039 2.701.618 1.814 2.164-1.042 1.855-4.978 2.241-8.913 1.391"/><path fill="url(#aG)" d="m69.876 171.31 5.324 3.13-.733-16.926-5.324-2.86z"/><path fill="url(#aH)" d="m69.53 163.658.347 7.613 5.324 3.169-.154-3.787c-1.93-2.241-3.897-4.56-5.518-6.995"/><path fill="url(#aI)" d="m75.2 174.44 1.736-.735-.656-16.849-1.813.658z"/><path fill="url(#aJ)" d="m69.143 154.655 5.247 2.898 1.89-.696-5.131-2.898z"/><path fill="#93561b" d="M70.84 157.05c-1.196.386-1.698 2.203-1.119 3.98.579 1.816 2.045 2.937 3.28 2.551 1.196-.387 1.697-2.203 1.119-3.981-.58-1.816-2.045-2.975-3.28-2.55"/><path fill="url(#aK)" d="M70.724 157.436c-1.003.309-1.389 1.932-.849 3.594s1.814 2.705 2.817 2.396c1.003-.348 1.39-1.932.849-3.594-.579-1.662-1.813-2.744-2.817-2.396"/><path fill="url(#aL)" d="m75.317 176.797 3.743-1.855-2.161-1.275-1.698.773z"/><path fill="url(#aM)" d="m69.838 173.667 5.479 3.13-.116-2.357-5.517-3.247z"/><path fill="#fff" d="M86.711 109.632a3.365 3.365 0 0 1-2.855 3.826 3.36 3.36 0 0 1-3.82-2.86 3.366 3.366 0 0 1 2.855-3.826c1.852-.231 3.55 1.044 3.82 2.86" opacity=".077"/><path fill="#fff" d="M86.557 109.67c.27 1.739-.964 3.362-2.7 3.633s-3.358-.928-3.628-2.705c-.27-1.739.926-3.362 2.701-3.633a3.24 3.24 0 0 1 3.627 2.705" opacity=".154"/><path fill="#fff" d="M86.364 109.71a3.04 3.04 0 0 1-2.546 3.439c-1.66.232-3.164-.889-3.434-2.55a3.04 3.04 0 0 1 2.546-3.44c1.66-.232 3.203.889 3.434 2.551" opacity=".231"/><path fill="#fff" d="M86.173 109.748c.231 1.546-.85 2.976-2.392 3.208-1.544.232-2.971-.85-3.203-2.396s.849-2.976 2.392-3.208a2.8 2.8 0 0 1 3.203 2.396" opacity=".308"/><path fill="#fff" d="M86.019 109.748a2.61 2.61 0 0 1-2.238 3.014 2.61 2.61 0 0 1-3.01-2.242 2.61 2.61 0 0 1 2.239-3.014c1.427-.193 2.777.812 3.009 2.242" opacity=".385"/><path fill="#fff" d="M85.824 109.787c.193 1.353-.733 2.628-2.083 2.821s-2.624-.734-2.817-2.087c-.193-1.352.733-2.628 2.083-2.821s2.624.735 2.817 2.087" opacity=".462"/><path fill="#fff" d="M85.67 109.826a2.314 2.314 0 0 1-1.93 2.628 2.31 2.31 0 0 1-2.624-1.933 2.313 2.313 0 0 1 1.93-2.627 2.28 2.28 0 0 1 2.623 1.932" opacity=".538"/><path fill="#fff" d="M85.478 109.826c.154 1.159-.618 2.241-1.775 2.396s-2.238-.619-2.392-1.778c-.155-1.159.617-2.242 1.774-2.396 1.158-.155 2.238.618 2.393 1.778" opacity=".615"/><path fill="#fff" d="M85.323 109.864c.154 1.043-.579 2.048-1.62 2.203s-2.046-.58-2.2-1.623.579-2.049 1.62-2.203c1.042-.193 2.007.541 2.2 1.623" opacity=".692"/><path fill="#fff" d="M85.13 109.902a1.75 1.75 0 0 1-1.465 2.01 1.75 1.75 0 0 1-2.007-1.469c-.154-.966.54-1.855 1.466-2.009.965-.193 1.853.502 2.007 1.468" opacity=".769"/><path fill="#fff" d="M84.937 109.903c.116.85-.463 1.661-1.312 1.777a1.627 1.627 0 0 1-1.813-1.314 1.63 1.63 0 0 1 1.35-1.816 1.596 1.596 0 0 1 1.775 1.353" opacity=".846"/><path fill="#fff" d="M84.782 109.941a1.4 1.4 0 0 1-1.157 1.585c-.772.116-1.466-.425-1.582-1.198s.424-1.469 1.196-1.585c.695-.116 1.428.425 1.543 1.198" opacity=".923"/><path fill="#fff" d="M84.591 109.98c.116.657-.347 1.275-1.042 1.391-.656.116-1.273-.348-1.389-1.043-.115-.657.348-1.275 1.042-1.391a1.196 1.196 0 0 1 1.39 1.043"/><path fill="#fff" d="M82.97 109.208c.155.579-1.929 1.777-1.929 1.777s1.852-.734 2.43-.734c.541 0 2.547 3.748 2.547 3.748s-1.504-3.4-1.774-4.135c-.116-.309 3.202-2.318 3.202-2.318l-3.704 1.314c-.116.038-1.813-2.86-1.813-2.86s.887 2.628 1.041 3.208"/><path fill="#fff" d="M53.11 90.493c0 2.82-2.277 5.1-5.056 5.1-2.816 0-5.054-2.28-5.054-5.1a5.05 5.05 0 0 1 5.054-5.063c2.779-.039 5.055 2.241 5.055 5.063" opacity=".077"/><path fill="#fff" d="M52.838 90.492c0 2.667-2.16 4.83-4.823 4.83-2.662 0-4.785-2.163-4.785-4.83a4.787 4.787 0 0 1 4.785-4.792c2.624 0 4.823 2.126 4.823 4.792" opacity=".154"/><path fill="#fff" d="M52.567 90.492a4.565 4.565 0 0 1-4.553 4.56c-2.508 0-4.514-2.049-4.514-4.56a4.524 4.524 0 0 1 4.514-4.522c2.508-.038 4.553 2.01 4.553 4.522" opacity=".231"/><path fill="#fff" d="M52.298 90.492c0 2.357-1.929 4.29-4.283 4.29a4.277 4.277 0 0 1-4.283-4.29c0-2.358 1.891-4.251 4.283-4.251 2.393-.039 4.283 1.893 4.283 4.25" opacity=".308"/><path fill="#fff" d="M52.028 90.493a4.013 4.013 0 1 1-8.026 0 4.013 4.013 0 0 1 4.013-4.02 3.99 3.99 0 0 1 4.013 4.02" opacity=".385"/><path fill="#fff" d="M51.757 90.493a3.75 3.75 0 0 1-3.743 3.748 3.75 3.75 0 0 1 0-7.497 3.725 3.725 0 0 1 3.743 3.749" opacity=".462"/><path fill="#fff" d="M51.488 90.492c0 1.893-1.543 3.478-3.472 3.478a3.485 3.485 0 0 1-3.473-3.478c0-1.894 1.543-3.478 3.473-3.478a3.46 3.46 0 0 1 3.472 3.478" opacity=".538"/><path fill="#fff" d="M51.218 90.492a3.197 3.197 0 0 1-3.203 3.207 3.197 3.197 0 0 1-3.203-3.207 3.197 3.197 0 0 1 3.203-3.208 3.197 3.197 0 0 1 3.203 3.208" opacity=".615"/><path fill="#fff" d="M50.949 90.492a2.934 2.934 0 1 1-5.865 0 2.933 2.933 0 1 1 5.865 0" opacity=".692"/><path fill="#fff" d="M50.678 90.493a2.67 2.67 0 0 1-2.662 2.666 2.67 2.67 0 0 1-2.663-2.666 2.67 2.67 0 0 1 2.663-2.667 2.645 2.645 0 0 1 2.662 2.667" opacity=".769"/><path fill="#fff" d="M50.408 90.492a2.406 2.406 0 0 1-2.393 2.395 2.406 2.406 0 0 1-2.392-2.395 2.406 2.406 0 0 1 2.392-2.396 2.38 2.38 0 0 1 2.392 2.396" opacity=".846"/><path fill="#fff" d="M50.137 90.492a2.117 2.117 0 0 1-2.122 2.125 2.12 2.12 0 0 1-2.122-2.125c0-1.16.926-2.126 2.122-2.126s2.122.928 2.122 2.126" opacity=".923"/><path fill="#fff" d="M49.866 90.492c0 1.004-.81 1.855-1.852 1.855a1.854 1.854 0 0 1 0-3.71 1.83 1.83 0 0 1 1.852 1.855"/><path fill="#fff" d="M47.59 88.985c.077.89-3.28 2.203-3.28 2.203s2.894-.657 3.782-.541c.81.116 2.932 6.144 2.932 6.144s-1.466-5.371-1.736-6.53c-.116-.464 5.248-2.706 5.248-2.706s-3.936.735-5.827 1.121c-.193.039-2.045-4.676-2.045-4.676s.85 4.058.926 4.985"/></g><defs><linearGradient id="b" x1="52.051" x2="133.088" y1="79.269" y2="79.269" gradientUnits="userSpaceOnUse"><stop stop-color="#fae848"/><stop offset=".654" stop-color="#facc3d"/></linearGradient><linearGradient id="c" x1="51.48" x2="6.011" y1="55.157" y2="93.251" gradientUnits="userSpaceOnUse"><stop stop-color="#fae848"/><stop offset=".654" stop-color="#facc3d"/></linearGradient><linearGradient id="d" x1="66.538" x2="80.748" y1="65.414" y2="65.414" gradientUnits="userSpaceOnUse"><stop stop-color="#ffd612"/><stop offset=".654" stop-color="#fa0"/></linearGradient><linearGradient id="e" x1="68.609" x2="78.676" y1="64.338" y2="64.338" gradientUnits="userSpaceOnUse"><stop stop-color="#fff654"/><stop offset=".654" stop-color="#ffd947"/></linearGradient><linearGradient id="f" x1="107.74" x2="121.95" y1="88.996" y2="88.996" gradientUnits="userSpaceOnUse"><stop stop-color="#ffd612"/><stop offset=".654" stop-color="#fa0"/></linearGradient><linearGradient id="g" x1="109.812" x2="119.881" y1="87.918" y2="87.918" gradientUnits="userSpaceOnUse"><stop stop-color="#fff654"/><stop offset=".654" stop-color="#ffd947"/></linearGradient><linearGradient id="h" x1="109.679" x2="131.97" y1="19.508" y2="19.508" gradientUnits="userSpaceOnUse"><stop stop-color="#fff654"/><stop offset=".654" stop-color="#ffd947"/></linearGradient><linearGradient id="i" x1="134.712" x2="166.345" y1="73.837" y2="73.837" gradientUnits="userSpaceOnUse"><stop stop-color="#c67602"/><stop offset=".654" stop-color="#dd9300"/></linearGradient><linearGradient id="j" x1="53.332" x2="156.8" y1="49.578" y2="49.578" gradientUnits="userSpaceOnUse"><stop stop-color="#a1d7de"/><stop offset=".654" stop-color="#77b4bd"/></linearGradient><linearGradient id="k" x1="110.461" x2="81.715" y1="61.819" y2="85.903" gradientUnits="userSpaceOnUse"><stop stop-color="#fff654"/><stop offset=".654" stop-color="#ffd947"/></linearGradient><linearGradient id="l" x1="156.8" x2="129.913" y1="73.139" y2="73.139" gradientUnits="userSpaceOnUse"><stop stop-color="#fff654"/><stop offset=".654" stop-color="#ffd947"/></linearGradient><linearGradient id="m" x1="53.332" x2="79.751" y1="26.018" y2="26.018" gradientUnits="userSpaceOnUse"><stop stop-color="#fff654"/><stop offset=".654" stop-color="#ffd947"/></linearGradient><linearGradient id="n" x1="75.302" x2="156.799" y1="26.018" y2="26.018" gradientUnits="userSpaceOnUse"><stop stop-color="#fff654"/><stop offset=".654" stop-color="#ffd947"/></linearGradient><linearGradient id="o" x1="153.559" x2="143.608" y1="77.263" y2="71.98" gradientUnits="userSpaceOnUse"><stop stop-color="#ce7b02"/><stop offset=".654" stop-color="#e69900"/></linearGradient><linearGradient id="p" x1="107.689" x2="131.35" y1="23.582" y2="23.582" gradientUnits="userSpaceOnUse"><stop stop-color="#f59d0f"/><stop offset=".654" stop-color="#f57f00"/></linearGradient><linearGradient id="q" x1="79.751" x2="144.499" y1="35.059" y2="35.059" gradientUnits="userSpaceOnUse"><stop stop-color="#ce7b02"/><stop offset=".654" stop-color="#e69900"/></linearGradient><linearGradient id="r" x1="65.135" x2="81.358" y1="32.165" y2="32.165" gradientUnits="userSpaceOnUse"><stop stop-color="#ce7b02"/><stop offset=".654" stop-color="#e69900"/></linearGradient><linearGradient id="s" x1="147.553" x2="160.427" y1="76.802" y2="76.802" gradientUnits="userSpaceOnUse"><stop offset=".248" stop-color="#9f5c03"/><stop offset=".737" stop-color="#98540a"/><stop offset="1" stop-color="#934d0f"/></linearGradient><linearGradient id="t" x1="84.506" x2="87.612" y1="98.543" y2="114.482" gradientUnits="userSpaceOnUse"><stop stop-color="#4776ea"/><stop offset=".576" stop-color="#063dc9"/></linearGradient><linearGradient id="u" x1="82.131" x2="90.439" y1="106.12" y2="113.328" gradientUnits="userSpaceOnUse"><stop stop-color="#0435b1"/><stop offset=".946" stop-color="#022ea1"/></linearGradient><linearGradient id="v" x1="85.438" x2="86.076" y1="98.362" y2="101.635" gradientUnits="userSpaceOnUse"><stop stop-color="#3869e1"/><stop offset=".576" stop-color="#053ac1"/></linearGradient><linearGradient id="w" x1="91.407" x2="95.452" y1="104.349" y2="107.072" gradientUnits="userSpaceOnUse"><stop stop-color="#0734a5"/><stop offset=".576" stop-color="#053ac1"/></linearGradient><linearGradient id="x" x1="76.743" x2="80.484" y1="105.382" y2="108.628" gradientUnits="userSpaceOnUse"><stop stop-color="#0734a5"/><stop offset=".946" stop-color="#032b93"/></linearGradient><linearGradient id="y" x1="84.685" x2="88.501" y1="112.25" y2="115.561" gradientUnits="userSpaceOnUse"><stop stop-color="#002587"/><stop offset=".946" stop-color="#032b93"/></linearGradient><linearGradient id="z" x1="87.791" x2="84.108" y1="102.321" y2="110.586" gradientUnits="userSpaceOnUse"><stop stop-color="#c7d6f9"/><stop offset=".946" stop-color="#84a4f4"/></linearGradient><linearGradient id="A" x1="83.33" x2="88.626" y1="104.88" y2="107.931" gradientUnits="userSpaceOnUse"><stop stop-color="#0d46d1"/><stop offset=".946" stop-color="#84a4f4"/></linearGradient><linearGradient id="B" x1="56.822" x2="64.49" y1="93.903" y2="92.302" gradientUnits="userSpaceOnUse"><stop stop-color="#b13802"/><stop offset=".946" stop-color="#a13301"/></linearGradient><linearGradient id="C" x1="50.581" x2="57.743" y1="99.807" y2="98.311" gradientUnits="userSpaceOnUse"><stop stop-color="#b13802"/><stop offset=".946" stop-color="#a13301"/></linearGradient><linearGradient id="D" x1="72.751" x2="79.098" y1="101.86" y2="106.455" gradientUnits="userSpaceOnUse"><stop stop-color="#b13802"/><stop offset=".946" stop-color="#a13301"/></linearGradient><linearGradient id="E" x1="64.195" x2="70.122" y1="101.202" y2="105.493" gradientUnits="userSpaceOnUse"><stop stop-color="#b13802"/><stop offset=".946" stop-color="#a13301"/></linearGradient><linearGradient id="F" x1="37.206" x2="44.396" y1="97.632" y2="93.868" gradientUnits="userSpaceOnUse"><stop stop-color="#0435b1"/><stop offset=".946" stop-color="#022ea1"/></linearGradient><linearGradient id="G" x1="32.663" x2="39.37" y1="105.279" y2="101.766" gradientUnits="userSpaceOnUse"><stop stop-color="#0435b1"/><stop offset=".946" stop-color="#022ea1"/></linearGradient><linearGradient id="H" x1="53.775" x2="62.974" y1="106.119" y2="105.179" gradientUnits="userSpaceOnUse"><stop stop-color="#04b163"/><stop offset=".946" stop-color="#02a15e"/></linearGradient><linearGradient id="I" x1="45.732" x2="54.315" y1="112.278" y2="111.401" gradientUnits="userSpaceOnUse"><stop stop-color="#04b163"/><stop offset=".946" stop-color="#02a15e"/></linearGradient><linearGradient id="J" x1="81.17" x2="88.247" y1="107.739" y2="119.767" gradientUnits="userSpaceOnUse"><stop stop-color="#47ea94"/><stop offset=".576" stop-color="#06c973"/></linearGradient><linearGradient id="K" x1="81.406" x2="90.2" y1="114.564" y2="118.035" gradientUnits="userSpaceOnUse"><stop stop-color="#04b163"/><stop offset=".946" stop-color="#02a15e"/></linearGradient><linearGradient id="L" x1="81.873" x2="83.326" y1="107.325" y2="109.796" gradientUnits="userSpaceOnUse"><stop stop-color="#38e188"/><stop offset=".576" stop-color="#05c16e"/></linearGradient><linearGradient id="M" x1="88.424" x2="92.483" y1="110.47" y2="111.523" gradientUnits="userSpaceOnUse"><stop stop-color="#07a55d"/><stop offset=".576" stop-color="#05c16e"/></linearGradient><linearGradient id="N" x1="76.824" x2="80.78" y1="115.51" y2="117.071" gradientUnits="userSpaceOnUse"><stop stop-color="#07a55d"/><stop offset=".946" stop-color="#039356"/></linearGradient><linearGradient id="O" x1="85.227" x2="89.263" y1="118.802" y2="120.395" gradientUnits="userSpaceOnUse"><stop stop-color="#008751"/><stop offset=".946" stop-color="#039356"/></linearGradient><linearGradient id="P" x1="84.909" x2="84.287" y1="109.861" y2="117.622" gradientUnits="userSpaceOnUse"><stop stop-color="#c7f9dc"/><stop offset=".946" stop-color="#84f4bd"/></linearGradient><linearGradient id="Q" x1="82.022" x2="87.19" y1="113.214" y2="114.176" gradientUnits="userSpaceOnUse"><stop stop-color="#0dd168"/><stop offset=".946" stop-color="#84f4bd"/></linearGradient><linearGradient id="R" x1="63.839" x2="69.872" y1="115.097" y2="111.326" gradientUnits="userSpaceOnUse"><stop stop-color="#04b163"/><stop offset=".946" stop-color="#02a15e"/></linearGradient><linearGradient id="S" x1="60.369" x2="66.007" y1="122.092" y2="118.568" gradientUnits="userSpaceOnUse"><stop stop-color="#04b163"/><stop offset=".946" stop-color="#02a15e"/></linearGradient><linearGradient id="T" x1="45.948" x2="53.952" y1="121.033" y2="124.348" gradientUnits="userSpaceOnUse"><stop stop-color="#b13802"/><stop offset=".946" stop-color="#a13301"/></linearGradient><linearGradient id="U" x1="36.574" x2="44.047" y1="122.522" y2="125.617" gradientUnits="userSpaceOnUse"><stop stop-color="#b13802"/><stop offset=".946" stop-color="#a13301"/></linearGradient><linearGradient id="V" x1="49.915" x2="53.021" y1="117.548" y2="133.483" gradientUnits="userSpaceOnUse"><stop stop-color="#4776ea"/><stop offset=".576" stop-color="#063dc9"/></linearGradient><linearGradient id="W" x1="47.542" x2="55.851" y1="125.122" y2="132.331" gradientUnits="userSpaceOnUse"><stop stop-color="#0435b1"/><stop offset=".946" stop-color="#022ea1"/></linearGradient><linearGradient id="X" x1="50.849" x2="51.486" y1="117.366" y2="120.638" gradientUnits="userSpaceOnUse"><stop stop-color="#3869e1"/><stop offset=".576" stop-color="#053ac1"/></linearGradient><linearGradient id="Y" x1="56.818" x2="60.865" y1="123.35" y2="126.075" gradientUnits="userSpaceOnUse"><stop stop-color="#0734a5"/><stop offset=".576" stop-color="#053ac1"/></linearGradient><linearGradient id="Z" x1="42.15" x2="45.89" y1="124.385" y2="127.63" gradientUnits="userSpaceOnUse"><stop stop-color="#0734a5"/><stop offset=".946" stop-color="#032b93"/></linearGradient><linearGradient id="aa" x1="50.096" x2="53.911" y1="131.253" y2="134.563" gradientUnits="userSpaceOnUse"><stop stop-color="#002587"/><stop offset=".946" stop-color="#032b93"/></linearGradient><linearGradient id="ab" x1="53.2" x2="49.516" y1="121.323" y2="129.589" gradientUnits="userSpaceOnUse"><stop stop-color="#c7d6f9"/><stop offset=".946" stop-color="#84a4f4"/></linearGradient><linearGradient id="ac" x1="48.737" x2="54.033" y1="123.884" y2="126.936" gradientUnits="userSpaceOnUse"><stop stop-color="#0d46d1"/><stop offset=".946" stop-color="#84a4f4"/></linearGradient><linearGradient id="ad" x1="105.385" x2="110.01" y1="129.747" y2="136.419" gradientUnits="userSpaceOnUse"><stop stop-color="#0435b1"/><stop offset=".946" stop-color="#022ea1"/></linearGradient><linearGradient id="ae" x1="97.251" x2="101.57" y1="126.162" y2="132.392" gradientUnits="userSpaceOnUse"><stop stop-color="#0435b1"/><stop offset=".946" stop-color="#022ea1"/></linearGradient><linearGradient id="af" x1=".034" x2="81.065" y1="109.547" y2="109.547" gradientUnits="userSpaceOnUse"><stop stop-color="#fff654"/><stop offset=".654" stop-color="#ffd947"/></linearGradient><linearGradient id="ag" x1="81.065" x2="133.088" y1="117.624" y2="117.624" gradientUnits="userSpaceOnUse"><stop stop-color="#fff654"/><stop offset=".654" stop-color="#ffd947"/></linearGradient><linearGradient id="ah" x1="81.027" x2="133.088" y1="124.358" y2="124.358" gradientUnits="userSpaceOnUse"><stop stop-color="#ce7b02"/><stop offset=".654" stop-color="#e69900"/></linearGradient><linearGradient id="ai" x1="81.027" x2="133.088" y1="124.358" y2="124.358" gradientUnits="userSpaceOnUse"><stop stop-color="#fff654"/><stop offset=".654" stop-color="#ffd947"/></linearGradient><linearGradient id="aj" x1="-.008" x2="81.064" y1="116.068" y2="116.068" gradientUnits="userSpaceOnUse"><stop stop-color="#ffd612"/><stop offset=".654" stop-color="#fa0"/></linearGradient><linearGradient id="ak" x1="-.01" x2="81.064" y1="132.717" y2="132.717" gradientUnits="userSpaceOnUse"><stop stop-color="#fff654"/><stop offset=".654" stop-color="#ffd947"/></linearGradient><linearGradient id="al" x1="-.01" x2="81.071" y1="102.1" y2="102.1" gradientUnits="userSpaceOnUse"><stop stop-color="#fff654"/><stop offset=".654" stop-color="#ffd947"/></linearGradient><linearGradient id="am" x1="-.008" x2="81.047" y1="120.517" y2="120.517" gradientUnits="userSpaceOnUse"><stop stop-color="#fff654"/><stop offset=".654" stop-color="#ffd947"/></linearGradient><linearGradient id="an" x1="-.008" x2="81.027" y1="122.336" y2="122.336" gradientUnits="userSpaceOnUse"><stop stop-color="#fff654"/><stop offset=".654" stop-color="#ffd947"/></linearGradient><linearGradient id="ao" x1="-.008" x2="81.064" y1="116.068" y2="116.068" gradientUnits="userSpaceOnUse"><stop stop-color="#f59d0f"/><stop offset=".654" stop-color="#f57f00"/></linearGradient><linearGradient id="ap" x1="19.031" x2="22.887" y1="142.742" y2="142.742" gradientUnits="userSpaceOnUse"><stop stop-color="#b5601a"/><stop offset=".654" stop-color="#e27e00"/></linearGradient><linearGradient id="aq" x1="17.072" x2="15.576" y1="140.505" y2="142.56" gradientUnits="userSpaceOnUse"><stop stop-color="#ffd612"/><stop offset=".654" stop-color="#fa0"/></linearGradient><linearGradient id="ar" x1="11.381" x2="19.032" y1="131.606" y2="131.606" gradientUnits="userSpaceOnUse"><stop stop-color="#f9aa0b"/><stop offset=".654" stop-color="#fa0"/></linearGradient><linearGradient id="as" x1="11.382" x2="19.031" y1="135.535" y2="135.535" gradientUnits="userSpaceOnUse"><stop stop-color="#fff654"/><stop offset=".654" stop-color="#ffd947"/></linearGradient><linearGradient id="at" x1="17.446" x2="20.73" y1="132.907" y2="132.907" gradientUnits="userSpaceOnUse"><stop stop-color="#b5601a"/><stop offset=".654" stop-color="#e27e00"/></linearGradient><linearGradient id="au" x1="11.381" x2="19.505" y1="122.595" y2="122.595" gradientUnits="userSpaceOnUse"><stop stop-color="#fff654"/><stop offset=".654" stop-color="#ffd947"/></linearGradient><linearGradient id="aD" x1="30.958" x2="47.97" y1="116.525" y2="116.525" gradientUnits="userSpaceOnUse"><stop stop-color="#ffdd12"/><stop offset=".654" stop-color="#ffb000"/></linearGradient><linearGradient id="aE" x1="31.103" x2="49.688" y1="112.244" y2="112.244" gradientUnits="userSpaceOnUse"><stop stop-color="#f59d0f"/><stop offset=".654" stop-color="#f57f00"/></linearGradient><linearGradient id="aF" x1="28.653" x2="46.287" y1="117.629" y2="117.629" gradientUnits="userSpaceOnUse"><stop stop-color="#fff654"/><stop offset=".654" stop-color="#ffd947"/></linearGradient><linearGradient id="aG" x1="69.13" x2="75.217" y1="164.558" y2="164.558" gradientUnits="userSpaceOnUse"><stop stop-color="#f9aa0b"/><stop offset=".654" stop-color="#fa0"/></linearGradient><linearGradient id="aH" x1="69.132" x2="75.218" y1="169.065" y2="169.065" gradientUnits="userSpaceOnUse"><stop stop-color="#fff654"/><stop offset=".654" stop-color="#ffd947"/></linearGradient><linearGradient id="aI" x1="74.454" x2="76.92" y1="165.66" y2="165.66" gradientUnits="userSpaceOnUse"><stop stop-color="#b5601a"/><stop offset=".654" stop-color="#e27e00"/></linearGradient><linearGradient id="aJ" x1="69.13" x2="76.295" y1="155.766" y2="155.766" gradientUnits="userSpaceOnUse"><stop stop-color="#fff654"/><stop offset=".654" stop-color="#ffd947"/></linearGradient><linearGradient id="aL" x1="75.186" x2="79.047" y1="175.244" y2="175.244" gradientUnits="userSpaceOnUse"><stop stop-color="#b5601a"/><stop offset=".654" stop-color="#e27e00"/></linearGradient><linearGradient id="aM" x1="73.227" x2="71.734" y1="173.01" y2="175.062" gradientUnits="userSpaceOnUse"><stop stop-color="#ffd612"/><stop offset=".654" stop-color="#fa0"/></linearGradient><radialGradient id="av" cx="0" cy="0" r="1" gradientTransform="matrix(2.5948 0 0 2.59883 14.471 127.233)" gradientUnits="userSpaceOnUse"><stop stop-color="#fcfce6"/><stop offset=".267" stop-color="#fff654"/><stop offset=".697" stop-color="#ffd947"/></radialGradient><radialGradient id="aw" cx="0" cy="0" r="1" gradientTransform="matrix(2.59558 0 0 2.5996 4.382 95.386)" gradientUnits="userSpaceOnUse"><stop stop-color="#fcfce6"/><stop offset=".267" stop-color="#fff654"/><stop offset=".697" stop-color="#ffd947"/></radialGradient><radialGradient id="ax" cx="0" cy="0" r="1" gradientTransform="matrix(2.59637 0 0 2.60037 22.928 106.142)" gradientUnits="userSpaceOnUse"><stop stop-color="#fcfce6"/><stop offset=".267" stop-color="#fff654"/><stop offset=".697" stop-color="#ffd947"/></radialGradient><radialGradient id="ay" cx="0" cy="0" r="1" gradientTransform="matrix(2.59596 0 0 2.59997 57.744 126.318)" gradientUnits="userSpaceOnUse"><stop stop-color="#fcfce6"/><stop offset=".267" stop-color="#fff654"/><stop offset=".697" stop-color="#ffd947"/></radialGradient><radialGradient id="az" cx="0" cy="0" r="1" gradientTransform="matrix(2.59637 0 0 2.60037 76.292 137.074)" gradientUnits="userSpaceOnUse"><stop stop-color="#fcfce6"/><stop offset=".267" stop-color="#fff654"/><stop offset=".697" stop-color="#ffd947"/></radialGradient><radialGradient id="aA" cx="0" cy="0" r="1" gradientTransform="matrix(2.59635 0 0 2.60037 86.496 137.074)" gradientUnits="userSpaceOnUse"><stop stop-color="#fcfce6"/><stop offset=".267" stop-color="#fff654"/><stop offset=".697" stop-color="#ffd947"/></radialGradient><radialGradient id="aB" cx="0" cy="0" r="1" gradientTransform="matrix(2.59519 0 0 2.59921 108.507 123.368)" gradientUnits="userSpaceOnUse"><stop stop-color="#fcfce6"/><stop offset=".267" stop-color="#fff654"/><stop offset=".697" stop-color="#ffd947"/></radialGradient><radialGradient id="aC" cx="0" cy="0" r="1" gradientTransform="matrix(2.59556 0 0 2.5996 128.545 111.712)" gradientUnits="userSpaceOnUse"><stop stop-color="#fcfce6"/><stop offset=".267" stop-color="#fff654"/><stop offset=".697" stop-color="#ffd947"/></radialGradient><radialGradient id="aK" cx="0" cy="0" r="1" gradientTransform="matrix(2.59673 0 0 2.60076 71.686 160.399)" gradientUnits="userSpaceOnUse"><stop stop-color="#fcfce6"/><stop offset=".267" stop-color="#fff654"/><stop offset=".697" stop-color="#ffd947"/></radialGradient><clipPath id="a"><path fill="#fff" d="M0 0h168v179H0z"/></clipPath></defs></svg>