<svg xmlns="http://www.w3.org/2000/svg" width="94" height="100" fill="none" viewBox="0 0 94 100"><path fill="url(#a)" d="m29.34 37.22 35.384 19.926 9.736.237-45.337-26.187z"/><path fill="#ffb206" d="m64.724 57.146 9.736.237-8.635-1.23L29.34 37.219z"/><path fill="url(#b)" d="M10.535 48.1 29.34 37.22l-.215-6.024L.021 48.1z"/><path fill="#eda507" d="M.021 48.1h10.514L29.34 37.22 9.76 47.106l-7.104.194 3.951-3.022z"/><path fill="#b96a42" d="m10.536 48.1 34.823 20.035 19.365-10.989L29.34 37.219z"/><path fill="#a06335" d="m29.059 55.246.28-18.027L10.537 48.1l15.479 8.917z"/><path fill="#db854b" d="m29.059 55.246 19.343 11.162 16.322-9.262-35.385-19.927z"/><path fill="#592a0a" d="m30.83 59.78 2.914-1.814S29.426 39.313 29.34 37.22L10.536 48.122z" opacity=".41"/><path fill="#93561b" d="M29.253 42.293 47.28 53.454l11.938 6.822.778-.453-14.184-8.312-16.537-9.974zm-.086 6.412 24.719 14.572 1.122-.626-25.841-14.55z"/><path fill="#602609" d="m29.253 42.293.021-.756-14.896 8.787.626.345zm-.086 6.412V48.1l-9.219 5.419.626.324z"/><path fill="url(#c)" d="m37.22 36.032 6.346 3.649 1.62-2.483-6.585-3.8z"/><path fill="#934f21" d="M44.085 38.04c-.562.324-1.339.108-1.879-.13-.69-.324-1.338-.777-2.029-1.144-.605-.302-1.187-.626-1.662-1.123a1.96 1.96 0 0 1-.497-1.122l-.799 1.532 6.347 3.67 1.62-2.504-.648-.367c.13.41 0 .907-.453 1.188" opacity=".41"/><path fill="url(#d)" d="m38.385 34.93 3.325 1.922 2.31.626-5.333-3.065z"/><path fill="url(#e)" d="m68.243 50.367-6.585-3.8-1.381 2.634 6.347 3.67z"/><path fill="#934f21" d="M67.142 51.209c-.561.324-1.339.108-1.878-.13-.713-.323-1.339-.777-2.03-1.144-.604-.302-1.187-.626-1.662-1.122a1.96 1.96 0 0 1-.497-1.123l-.798 1.533 6.347 3.67 1.619-2.504-.648-.367c.13.41 0 .906-.453 1.187" opacity=".41"/><path fill="url(#f)" d="m61.723 47.582-.28.518 3.324 1.922 2.31.626z"/><path fill="url(#g)" d="M70.704 15.782c.302.194.604.388.928.54.151.086.324.15.475.237.173-.216.41-.454.583-.82 1.878-4.189 1.381-6.564-.993-8.399-1.447-1.1-3.951-2.375-6.067-2.072-2.504.345-3.454 2.828-4.21 4.857v.043c.475.41 1.447.972 2.138 1.36 0 0 .798-3.734 2.634-3.864 1.576-.108 5.03 1.252 5.18 3.476.109 1.533-.798 3.195-1.23 4.123.065.044.108.087.173.13.043.043.345.28.216.194.021.087.108.151.173.195"/><path fill="#f49c1c" d="M70.704 15.782c.302.194.604.388.928.54.151.086.324.15.475.237.173-.216.41-.454.583-.82 1.878-4.189 1.381-6.564-.993-8.399-1.447-1.1-3.951-2.375-6.067-2.072-2.504.345-3.454 2.828-4.21 4.857v.043c.151.13.367.281.605.432.021-.043.021-.108.043-.15a8 8 0 0 1 .345-1.534c.432-1.727 1.469-2.655 2.72-3 .26-.087.54-.152.843-.173.323-.022.69 0 1.08.064 1.208.152 2.439.67 3.453 1.404.993.669 1.814 1.533 2.138 2.44.777 2.223.215 5.245-2.505 5.59 0 0-.021.022-.021.044.064.043.108.086.172.13.044.043.346.28.216.194.043.065.13.13.195.173" opacity=".5"/><path fill="#f49c1c" d="M71.352 9.326c-.67-1.014-2.397-1.943-3.54-2.202-3.218-.755-2.807 1.317-4.794 1.922-.496.15-.82-.065-1.014-.41-.216.496-.41 1.014-.605 1.49v.042c.475.41 1.447.972 2.137 1.36 0 0 .8-3.734 2.634-3.864 1.576-.108 5.03 1.252 5.182 3.476.108 1.533-.799 3.195-1.23 4.123.064.044.107.087.172.13.043.043.345.28.216.194.065.043.15.108.216.151.302.195.604.389.928.54.151.086.324.151.475.238.173-.216.41-.454.583-.82.216-.476.388-.908.54-1.34l-.26.065c-.928.044-1.468-.453-1.424-1.295.021-.95.798-2.224-.216-3.8" opacity=".5"/><path fill="#602609" d="M73.316 16.472 60.773 9.175l-.648 1.274 12.543 7.254z"/><path fill="url(#h)" d="M91.494 45.79c2.397-6.736 1.986-12.932-.67-16.71-.82-1.165-2.352-2.202-3.13-2.785L75.368 55.333c4.728 2.029 12.37 1.057 16.127-9.543"/><path fill="#93561b" d="M87.695 26.295 75.367 55.333a10.8 10.8 0 0 0 3.994.841L90.825 29.06c-.842-1.145-2.483-1.36-3.13-2.764"/><path fill="url(#i)" d="m29.836 29.059 45.596 26.338L87.738 26.34 42.142 0z"/><path fill="url(#j)" d="m29.836 29.059 45.596 26.338-2.742-7.88-36.248-20.639z"/><path fill="#fff" d="M73.424 51.943c.67 1.101 1.381 2.159 1.964 3.303l-2.698-7.729-1.511-.863c.734 1.77 1.23 3.648 2.245 5.289"/><path fill="#fffde1" d="M71.978 47.107 36.442 26.9l-6.606 2.18 12.435 7.19c10.212 2.85 20.272 6.11 29.707 10.837" opacity=".48"/><path fill="#fffde1" d="m41.257 29.62-4.815-2.742-6.606 2.18.993.584c.54.021 7.686.064 10.428-.022" opacity=".75"/><path fill="#fff" d="m37.478 27.461-1.036-.583-6.606 2.18z" opacity=".75"/><path fill="url(#k)" d="m80.85 29.059-8.16 18.458 2.742 7.88L87.738 26.34z"/><path fill="#fff" d="M86.097 26.986 80.85 29.08l-8.16 18.437 1.748 5.03c1.468-9.542 4.685-18.652 11.658-25.56" opacity=".45"/><path fill="url(#l)" d="m29.836 29.059 6.606-2.18 8.182-18.891L42.143 0z"/><path fill="#fff8d4" d="M36.075 14.314 30.83 26.706c2.461-2.267 5.203-4.016 8.074-5.549l4.037-9.348c-2.267.713-4.663 1.468-6.865 2.505" opacity=".64"/><path fill="url(#m)" d="m44.624 7.988 36.226 21.07 6.887-2.72L42.142 0z"/><path fill="#fff" d="m42.142 0 2.482 7.966.907.518C45.013 6.174 42.141 0 42.141 0m37.803 28.54.907.54 6.886-2.741-.518-.303c-1.49.41-6.325 2.094-7.275 2.505"/><path fill="#fff8d4" d="M68.631 15.307c-6.217-1.598-12.586-3.908-18.933-4.361l16.537 9.628c3.346-.734 6.822-.928 10.32-.69z" opacity=".64"/><path fill="#db854b" d="m72.69 47.517 8.16-18.458L44.626 7.988l-8.183 18.89z"/><path fill="#e89054" d="M77.008 37.759c-2.526-1.101-5.074-2.137-7.772-2.72-4.34-.95-9.5-1.706-13.86-.432-1.145.324-2.289.734-3.433 1.101l20.747 11.81z"/><path fill="#6b340e" d="M44.625 31.542c2.59-6.93 8.074-9.349 16.278-7.794 5.613 1.08 13.342 6.088 18.393 8.851l1.555-3.519L44.625 7.988 36.442 26.9z" opacity=".25"/><path fill="#592a0a" d="M42.466 13.04c3.583.367 7.08 1.921 10.276 3.454 4.318 2.073 8.614 4.21 12.76 6.541 3.67 2.073 7.296 4.275 10.772 6.693 1.144.648 2.267 1.295 3.368 2.008l1.187-2.677L44.603 7.966l-2.18 5.052c.021 0 .043.022.043.022" opacity=".25"/><path fill="#592a0a" d="M47.798 22.992c2.094-5.375 0-9.823-2.245-12.025L38.342 27.98c3.562.713 7.815-.755 9.456-4.987" opacity=".41"/><path fill="#592a0a" d="M38.493 27.98c1.209-2.44 4.016-8.29 5.591-10.493 1.317-1.857 2.829-2.958 4.47-.345-.346-2.699-1.641-4.858-3.001-6.196l-7.211 17.012a.4.4 0 0 0 .151.021" opacity=".41"/><path fill="url(#n)" d="M87.738 26.339 75.432 55.397l3.368 1.145L90.652 28.54z"/><path fill="url(#o)" d="M73.489 16.213 60.903 8.895l-.648 1.273 12.586 7.276z"/><path fill="url(#p)" d="m79.9 31.196.95-2.137L44.626 7.988l.906 2.98z"/><path fill="url(#q)" d="m38.342 27.958 7.19-16.99-.907-2.98-8.183 18.89z"/><path fill="#fff8d4" d="M64.638 7.06c1.144-.886 3.13-.41 3.82-.087.735.324 2.246 1.339 2.462 1.058.237-.302-2.353-1.835-3.757-2.03-1.187-.15-3.065-.15-3.864 1.469-.561 1.122.367.324 1.339-.41"/><path fill="url(#r)" d="m89.249 34.78-6.693 16.235s3.54-.346 5.894-6.477c2.375-6.11.799-9.758.799-9.758"/><path fill="#7a4315" d="M87.133 47.258c.454-.755.907-1.64 1.317-2.698 2.353-6.11.799-9.759.799-9.759l-1.058 2.57c.777.496.583 2.633.561 3.26-.13 2.31-.777 4.123-1.619 6.627"/><path fill="url(#s)" d="m46.33 41.926-2.375 2.72.26 3.605 2.72 2.354 3.584-.238 2.374-2.72-.259-3.606-2.72-2.353z"/><path fill="url(#t)" d="m44.214 48.251 2.72 2.353 3.584-.237 2.375-2.72-1.835-1.36-4.231-.691z"/><path fill="url(#u)" d="m47.799 43.48.712-.065 1.403-1.727-3.584.238z"/><path fill="url(#v)" d="m51.058 46.287 1.835 1.36-.259-3.606-1.64 1.533z"/><path fill="url(#w)" d="m44.215 48.251 1.597-1.49-.065-.906-1.792-1.21z"/><path fill="url(#x)" d="m46.935 50.605 3.583-.238-1.511-1.727-.863.151z"/><path fill="url(#y)" d="m47.798 43.48-2.05 2.375.064.907 2.332 2.029.863-.151 2.051-2.353-.064-.713-2.483-2.159z"/><path fill="url(#z)" d="m47.97 44.214-1.446 1.684.044.648 1.662 1.446.604-.108 1.447-1.684-.022-.496-1.77-1.533z"/><path fill="#1a4096" d="M52.656 44.214c-.151.972-.713 1.706-1.9 1.835-1.403.173-2.914-.453-4.296-.086a.464.464 0 0 1-.518-.691c.496-.864.475-2.116.237-3.152l-2.202 2.526.26 3.584 2.72 2.353 3.583-.26 2.353-2.72z" opacity=".52"/><path fill="#f24c01" d="m28.476 41.86-1.684-1.51-3.325-.929 1.965 1.749z"/><path fill="url(#A)" d="m32.47 41.04.69-1.92 2.807-2.85-.842 2.115z"/><path fill="#dd4603" d="m28.476 41.86-1.684-1.51 6.563-1.382-.885 2.072z"/><path fill="url(#B)" d="m29.923 42.681-1.447-.82 3.994-.82-1.209 1.36z"/><path fill="#c64208" d="m35.126 38.385-2.634 2.656-1.21 1.36s1.75-1.23 1.793-1.274a438 438 0 0 1 2.05-2.742"/><path fill="#db4705" d="m29.922 42.681-1.446-.82-3.044-.691 2.612 1.123z"/><path fill="#ff9466" d="m31.606 36.55-4.102.95-3.108-.95 2.44-2.03 4.101-.95 2.785.692z"/><path fill="#fce2d9" d="m31.606 36.55-4.102.95-3.108-.95 3.087.626 3.994-.885 2.245-2.03z"/><path fill="#f2743d" d="m31.196 35.47-3.67.778-2.137-.346 1.64-1.446 3.735-.842 2.008.561z"/><path fill="#e86b35" d="m30.765 33.614-.842.194c-.151.842-1.058 1.533-1.727 1.943-.26.151-.583.324-.929.475l.238.043 3.67-.777 1.576-1.317z"/><path fill="#fc8049" d="m24.396 36.55-.928 2.893 3.324.907.713-2.85z"/><path fill="#ff9e78" d="M24.46 36.572c.8 1.209 1.533 2.374 1.987 3.691l.323.087.713-2.85z"/><path fill="#e25518" d="m31.607 36.55 1.748 2.418 2.613-2.699-2.246-2.007z"/><path fill="#f7743b" d="m33.917 34.434-.195-.172-2.094 2.31 1.749 2.418.216-.216c-.216-1.447-.043-2.872.324-4.34"/><path fill="#ff6d33" d="m27.505 37.5-.713 2.85 6.563-1.382-1.748-2.418z"/><path fill="#f45610" d="M31.715 36.701c.56 1.749-3.217 3.195-4.577 3.411-.13.022-.216-.021-.281-.108l-.086.324 6.563-1.36z"/><path fill="#771904" d="M35.342 35.708c-.324 1.166-.95 2.245-2.181 2.677-.561.194-1.144.26-1.749.26-.259.02-.54.02-.799 0-2.223-.282-4.857 1.143-6.908.064l-.237.734h-.022l1.964 1.749 2.591 1.122 1.878.389 1.36-.28s1.75-1.231 1.792-1.275c.044-.043 2.073-2.741 2.073-2.741l.842-2.094z" opacity=".37"/><path fill="#f24c01" d="m36.507 42.746.022-2.267-1.576-3.087.043 2.634z"/><path fill="url(#C)" d="m39.832 45.142 1.878-.798 3.973.172-2.116.8z"/><path fill="#dd4603" d="m36.507 42.746.022-2.267 5.419 3.93-2.116.733z"/><path fill="url(#D)" d="m36.896 44.365-.389-1.619 3.325 2.396-1.813.022z"/><path fill="#c64208" d="m43.567 45.315-3.735-.172-1.813.021s2.072.475 2.137.475 3.41-.324 3.41-.324"/><path fill="#db4705" d="m36.896 44.365-.389-1.619-1.51-2.72.928 2.677z"/><path fill="#ff9466" d="m42.552 41.494-3.432-2.396-1.403-2.958 3.151.453 3.433 2.397 1.382 2.526z"/><path fill="#fce2d9" d="m42.552 41.494-3.432-2.396-1.403-2.958 1.619 2.72 3.346 2.353 3 .303z"/><path fill="#f2743d" d="m43.07 40.458-3.022-2.202-1.187-1.792 2.159.237 3.152 2.18.95 1.879z"/><path fill="#e86b35" d="m44.172 38.882-.713-.497c-.712.454-1.857.26-2.59.022a7 7 0 0 1-.972-.367l.13.216 3.044 2.202 2.029.302z"/><path fill="#fc8049" d="m37.716 36.14-2.763 1.274 1.576 3.065 2.59-1.381z"/><path fill="#ff9e78" d="M37.76 36.226c-.368 1.404-.735 2.72-1.382 3.951l.15.302 2.592-1.381z"/><path fill="#e25518" d="m42.552 41.494-.604 2.914 3.735.108v-3z"/><path fill="#f7743b" d="M45.683 41.775v-.26h-3.11l-.625 2.915h.302c.95-1.101 2.094-1.943 3.433-2.655"/><path fill="#ff6d33" d="m39.12 39.098-2.591 1.381 5.419 3.93.604-2.915z"/><path fill="#f45610" d="M42.53 41.688c-.906 1.598-4.533-.216-5.59-1.08-.087-.064-.109-.172-.109-.258l-.302.15 5.419 3.93z"/><path fill="#771904" d="M45.683 43.113c-.54 0-1.21-.151-1.792-.345-.82-.303-1.835-.389-2.57-.82-.755-.432-1.165-1.21-2.007-1.577-1.036-.453-2.072-.799-3.066-1.295a9.5 9.5 0 0 1-1.273-.561l.021 1.49.929 2.676.971 1.663 1.123.82s2.072.475 2.137.475 3.433-.324 3.433-.324l2.115-.799z" opacity=".37"/><path fill="#9cea20" d="m34.564 39.011-4.318 3.087.518 5.268 4.815 2.18 4.318-3.065-.519-5.268z"/><path fill="#7bc614" d="m30.764 47.366 4.815 2.18-.518-5.267z"/><path fill="#5ba504" d="m35.579 49.547 4.318-3.066-4.836-2.202z"/><path fill="#85d621" d="m35.06 44.279 4.837 2.202-.519-5.268z"/><path fill="#d8f456" d="m35.06 44.279 4.318-3.066-4.814-2.202z"/><path fill="#b7ed5a" d="m30.246 42.098 4.815 2.18-.497-5.267z"/><path fill="#f9ffca" d="m38.645 45.747-.324-3.368c.216-.345.496-.712 1.058-1.166-.41.173-.648.454-.886.54-.15.065-.324.13-.496.151l-3.066-1.403c-.043-.194-.15-.389-.194-.605-.043-.237-.151-.54-.173-.777-.021.238-.065.497-.021.756.021.194.043.367.021.561L31.65 42.53c-.497 0-.993-.367-1.274-.453.302.28.777.475 1.08.712l.345 3.584c-.194.345-.605.67-.907.907.216-.13.453-.281.67-.432a1.4 1.4 0 0 1 .366-.173l3.39 1.533c.216.345.345.799.324 1.187.064-.41.021-.842.064-1.252l2.893-2.072c.108.065.281.086.41.108.303.064.583.172.886.237-.173-.151-.518-.28-.67-.367-.237-.065-.453-.151-.582-.302"/><path fill="#f9ff85" d="m38.645 45.747-.26-2.677a6.95 6.95 0 0 1-2.655 1.576c-1.187.367-2.85.712-4.102.237l.151 1.512c-.194.345-.604.669-.907.906.216-.13.454-.28.67-.431.13-.087.237-.13.367-.173l3.39 1.533c.215.345.345.799.323 1.187.065-.41.022-.842.065-1.252l2.893-2.073c.108.065.28.087.41.108.302.065.583.173.885.238-.173-.151-.518-.28-.67-.367-.215-.087-.431-.173-.56-.324"/><path fill="#afed45" d="m34.694 40.89-2.807 2.029.324 3.432 3.174 1.447 2.806-2.008-.324-3.454z"/><path fill="#cbff71" d="m33.506 46.956 1.857.842 2.828-2.008-.043-.324c-1.749.065-3.239.648-4.642 1.49m1.188-6.066-2.829 2.007.022.13c1.813-1.08 3.95-.993 6.002-.41l-.022-.303zm.043 3.389c-.756.173-1.878.259-2.483.82-.043.043-.108.087-.15.13l.064.604c1.101-.69 2.461-1.144 3.519-1.36a9 9 0 0 1 2.375-.173l-.022-.194c-1.1-.043-2.224-.065-3.303.173"/><path fill="#cbff71" d="m31.93 43.394.151 1.576c1.62-1.36 3.67-1.965 5.916-1.296l-.022-.302c-1.964-.648-3.994-.799-6.045.022"/><path fill="#fcff8a" d="m31.887 42.919.043.54c1.576.323 3.411-.454 4.188-1.814l.065-.065-1.468-.669z" opacity=".42"/><path fill="#a2cc09" d="M37.543 42.185c-.086 1.964-1.576 3.39-3.303 3.95-.712.238-1.49.238-2.03.065l.022.151 3.152 1.425 2.828-2.008-.345-3.454z" opacity=".42"/><path fill="#fff" d="M34.996 40.674c-.324-.108-.497-.044-.799.129-.259.151-1.749 1.274-2.224 1.727l-.021.043c0 .022-.022.044-.022.044.238 0 .346-.195.518-.324.195-.151.41-.303.627-.432.366-.238.733-.497 1.079-.756.237-.172.496-.302.777-.237.302.065.626.259.928.345.303.108.605.28.907.41s.583.346.907.389c-.389-.28-.842-.496-1.274-.756a6.5 6.5 0 0 0-1.403-.583"/><path fill="#1b4c03" d="M36.615 43.502c-.54-.065-1.101-.842-1.446-1.21-.54-.582-1.015-1.23-1.447-1.878-.173-.15-.345-.28-.518-.431l-2.958 2.115.518 5.268 4.815 2.202 4.318-3.087-.432-4.512c-.777.863-1.684 1.662-2.85 1.533" opacity=".44"/><path fill="#0347f2" d="m18.286 44.97-2.094-1.058-3.584.022 2.461 1.187z"/><path fill="url(#E)" d="m22.043 42.984.13-2.095 1.986-3.626-.238 2.331z"/><path fill="#0541dd" d="m18.286 44.97-2.094-1.058 6.153-3.217-.303 2.289z"/><path fill="url(#F)" d="m19.948 45.358-1.662-.388 3.756-1.986-.82 1.705z"/><path fill="#0e43c6" d="m23.92 39.594-1.877 3.39-.82 1.705s1.38-1.706 1.424-1.77c.043-.065 1.274-3.325 1.274-3.325"/><path fill="#0943db" d="m19.948 45.358-1.662-.388-3.217.15 2.915.368z"/><path fill="#bbcfff" d="m19.927 38.774-3.821 2.094-3.368-.065 1.835-2.698 3.821-2.095 2.98-.108z"/><path fill="#e9f0ff" d="m19.927 38.774-3.821 2.094-3.368-.065 3.238-.237 3.735-2.03 1.663-2.634z"/><path fill="#7097f2" d="m19.193 37.824-3.433 1.813-2.224.26 1.231-1.9 3.476-1.922h2.159z"/><path fill="#628ae8" d="m18.243 36.075-.777.432c.086.885-.626 1.835-1.166 2.418a9 9 0 0 1-.777.734l.259-.022 3.433-1.813 1.209-1.749z"/><path fill="#86a8fc" d="m12.738 40.803-.108 3.152 3.562-.043-.086-3.044z"/><path fill="#aec6ff" d="M12.803 40.803c1.122.972 2.202 1.922 3.022 3.109h.367l-.086-3.044z"/><path fill="#2b60e2" d="m19.927 38.774 2.418 1.921 1.813-3.432-2.785-1.36z"/><path fill="#6d95f7" d="m21.61 36.01-.237-.13-1.446 2.894 2.418 1.921.15-.28c-.604-1.382-.841-2.829-.884-4.405"/><path fill="#326bfc" d="m16.106 40.868.086 3.044 6.153-3.217-2.418-1.921z"/><path fill="#1e5af4" d="M20.078 38.903c1.058 1.576-2.289 4.102-3.584 4.707a.37.37 0 0 1-.302-.022v.345l6.131-3.216z"/><path fill="#1a4096" d="M24.007 37.198c-.173 1.9-1.058 3.735-2.98 4.49-1.791.734-3.67-.475-5.353.713-.907.626-1.706 1.295-2.677 1.705l2.072.993 2.915.367 1.986-.13 1.274-.669s1.381-1.705 1.425-1.77c.043-.065 1.273-3.325 1.273-3.325l.238-2.331z" opacity=".52"/><path fill="#5bea20" d="m16.948 42.25-4.361 3.8 1.122 5.677 5.484 1.857 4.36-3.8-1.143-5.678z"/><path fill="#40c614" d="m13.71 51.727 5.483 1.857-1.123-5.657z"/><path fill="#24a504" d="m19.193 53.584 4.361-3.8-5.484-1.857z"/><path fill="#48d621" d="m18.07 47.927 5.484 1.857-1.144-5.678z"/><path fill="#aff456" d="m18.07 47.927 4.34-3.82-5.462-1.858z"/><path fill="#89ed5a" d="m12.587 46.05 5.483 1.877-1.122-5.678z"/><path fill="#ecffca" d="m22.108 49.136-.713-3.627c.194-.41.475-.842 1.015-1.403-.432.216-.648.561-.907.691a2.2 2.2 0 0 1-.518.216l-3.476-1.187c-.065-.195-.216-.41-.28-.627-.087-.259-.238-.56-.26-.82 0 .26-.021.54.044.82.043.216.086.41.086.605l-2.958 2.59c-.561.065-1.1-.302-1.446-.366.367.28.906.431 1.23.669l.777 3.864c-.172.41-.582.799-.906 1.08.237-.173.475-.346.69-.54.13-.108.238-.151.368-.216l3.843 1.317c.28.345.453.82.475 1.252.021-.453-.065-.928-.065-1.382l2.936-2.569c.13.065.324.065.453.065.346.022.648.108.993.173-.194-.151-.583-.26-.777-.324-.194-.065-.432-.151-.604-.28"/><path fill="#deff85" d="m22.108 49.136-.562-2.87a7.6 7.6 0 0 1-2.72 2.007c-1.252.54-3.022 1.08-4.426.69l.324 1.62c-.172.41-.583.799-.907 1.08.238-.173.475-.346.691-.54.13-.108.238-.151.367-.216l3.843 1.317c.28.345.454.82.475 1.252.022-.454-.065-.928-.065-1.382l2.936-2.569c.13.065.324.065.454.065.345.021.648.108.993.172-.194-.15-.583-.259-.777-.323-.216-.087-.454-.173-.626-.303"/><path fill="#7aed45" d="m17.315 44.279-2.85 2.483.734 3.713 3.584 1.23 2.85-2.504-.734-3.713z"/><path fill="#9eff71" d="m16.667 50.972 2.115.712 2.85-2.504-.065-.367c-1.92.323-3.475 1.122-4.9 2.158m.648-6.692-2.85 2.504.022.151c1.856-1.36 4.188-1.51 6.477-1.1l-.065-.325zm.389 3.67c-.8.26-2.008.497-2.613 1.166a1 1 0 0 1-.15.172l.129.67c1.122-.885 2.547-1.511 3.67-1.857a10.7 10.7 0 0 1 2.569-.432l-.043-.194c-1.188 0-2.418.086-3.562.475"/><path fill="#9eff71" d="m14.551 47.301.345 1.684c1.62-1.64 3.779-2.526 6.283-2.05l-.065-.325c-2.18-.496-4.404-.453-6.563.691"/><path fill="#e3ff8a" d="m14.465 46.762.108.582c1.749.195 3.649-.842 4.361-2.418A.3.3 0 0 1 19 44.84l-1.684-.561z" opacity=".42"/><path fill="#6dcc09" d="M20.531 45.358c.108 2.138-1.338 3.865-3.173 4.642-.734.324-1.598.41-2.202.302l.043.173 3.584 1.23 2.85-2.504-.735-3.713z" opacity=".42"/><path fill="#fff" d="M17.595 43.998c-.367-.065-.561 0-.842.238-.259.194-1.77 1.576-2.223 2.115l-.022.044c0 .021-.022.043-.022.064.26-.021.367-.237.518-.41.195-.194.41-.367.627-.54.367-.302.733-.626 1.079-.95.237-.215.496-.388.82-.345.346.043.691.194 1.037.28.345.087.669.238 1.014.346.346.108.67.302 1.015.324-.453-.28-.971-.453-1.468-.67-.475-.237-.993-.388-1.533-.496"/><path fill="#1b4c03" d="m22.41 44.106-2.03-.69c-.043.863-.388 1.791-.842 2.655-.345 1.1-.95 2.072-1.9 2.979-1.575 1.511-3 1.08-4.468.086l.518 2.613 5.483 1.856 4.361-3.82z" opacity=".44"/><path fill="#03f27c" d="m25.8 48.726-1.771-1.986-3.8-1.49 2.094 2.289z"/><path fill="url(#G)" d="m30.614 48.23 1.036-2.16 3.627-2.978-1.252 2.353z"/><path fill="#05dd82" d="m25.8 48.726-1.771-1.986 7.858-.799-1.273 2.289z"/><path fill="url(#H)" d="m27.397 49.849-1.598-1.123 4.815-.496-1.598 1.468z"/><path fill="#0ec66b" d="m34.025 45.445-3.433 2.785-1.576 1.446s2.18-1.209 2.245-1.274c.065-.021 2.764-2.957 2.764-2.957"/><path fill="#09db8a" d="m27.397 49.849-1.598-1.123-3.476-1.187 2.915 1.619z"/><path fill="#bbffd6" d="m30.139 42.876-4.923.604-3.54-1.49 3.108-2.094 4.923-.604 3.195 1.144z"/><path fill="#e9fff1" d="m30.139 42.876-4.923.604-3.54-1.49 3.54 1.102 4.814-.54 2.872-2.116z"/><path fill="#70f2a3" d="m29.793 41.559-4.425.453-2.44-.67 2.094-1.467 4.49-.562 2.289.907z"/><path fill="#62e897" d="m29.513 39.313-.994.13c-.28.971-1.424 1.684-2.266 2.05-.346.152-.734.325-1.145.454l.281.087 4.404-.454 2.03-1.338z"/><path fill="#86fcbd" d="m21.676 41.99-1.425 3.26 3.778 1.49 1.187-3.26z"/><path fill="#aeffd1" d="M21.762 42.012c.777 1.511 1.511 2.958 1.9 4.577l.389.151 1.187-3.26z"/><path fill="#2be281" d="m30.139 42.876 1.749 3.065 3.389-2.85-2.375-2.655z"/><path fill="#6df7b0" d="m33.097 40.674-.216-.238-2.742 2.44 1.749 3.044.28-.238c-.043-1.684.324-3.325.928-5.009"/><path fill="#32fc9f" d="m25.216 43.48-1.187 3.26 7.858-.799-1.748-3.065z"/><path fill="#1ef49a" d="M30.247 43.07c.453 2.116-4.145 3.368-5.786 3.454a.35.35 0 0 1-.302-.151l-.13.367 7.858-.799z"/><path fill="#02683c" d="M31.974 47.258c-2.375.907-4.08-.216-6.11-.863-.561.021-1.144.021-1.706 0-1.079-.044-2.353-.065-3.367-.54l1.532 1.684 2.915 1.619 2.159.69 1.619-.172s2.18-1.209 2.245-1.274c.022-.021.713-.755 1.382-1.49a2.8 2.8 0 0 1-.67.346" opacity=".39"/><path fill="#206eea" d="m39.789 42.185-3.498 2.979.842 4.534 4.318 1.532 3.497-3-.842-4.512z"/><path fill="#1458c6" d="m37.133 49.698 4.318 1.532-.842-4.533z"/><path fill="#0441a5" d="m41.45 51.23 3.498-3-4.34-1.533z"/><path fill="#2166d6" d="m40.609 46.697 4.34 1.533-.843-4.512z"/><path fill="#69adff" d="m40.61 46.697 3.497-2.98-4.318-1.532z"/><path fill="#9dc9fc" d="m36.291 45.164 4.318 1.533-.82-4.512z"/><path fill="#cae0ff" d="m43.826 47.712-.54-2.893c.151-.324.367-.67.82-1.101-.345.172-.518.431-.712.54a2.4 2.4 0 0 1-.41.172l-2.764-.971c-.064-.173-.172-.324-.215-.497-.065-.194-.173-.453-.195-.648 0 .195-.021.432.022.648.043.173.065.324.065.475l-2.375 2.03c-.432.042-.885-.238-1.144-.303.28.237.712.345.971.54l.561 3.087c-.15.324-.475.626-.734.842.173-.13.367-.28.54-.41.108-.087.194-.13.302-.173l3.044 1.08c.216.28.367.669.367.993.022-.367-.043-.734-.043-1.08l2.353-2.008c.108.044.26.044.367.065.26.022.518.108.778.151-.151-.13-.475-.216-.605-.259-.151-.108-.324-.172-.453-.28"/><path fill="#85b8ff" d="m43.826 47.712-.432-2.289c-.605.67-1.36 1.23-2.18 1.554-.994.41-2.419.843-3.541.497l.237 1.295c-.151.324-.475.627-.734.842.173-.13.367-.28.54-.41.108-.086.194-.13.302-.173l3.044 1.08c.216.28.367.67.367.993.022-.367-.043-.734-.043-1.08l2.353-2.007c.108.043.26.043.367.064.26.022.518.108.777.152-.15-.13-.475-.216-.604-.26-.151-.086-.324-.15-.454-.258"/><path fill="#4586ed" d="m40.048 43.804-2.289 1.943.561 2.958 2.828 1.014 2.289-1.964-.561-2.958z"/><path fill="#71a8ff" d="m39.465 49.136 1.684.583 2.288-1.964-.043-.28c-1.533.215-2.785.82-3.93 1.661m.584-5.332-2.289 1.943.022.108c1.49-1.058 3.346-1.166 5.138-.82l-.043-.26zm.281 2.914c-.648.195-1.598.367-2.073.886-.043.043-.086.086-.108.13l.086.517c.907-.69 2.051-1.187 2.936-1.446a8.5 8.5 0 0 1 2.03-.324l-.022-.173c-.971.065-1.943.13-2.85.41"/><path fill="#71a8ff" d="m37.846 46.179.259 1.338c1.295-1.295 3.022-1.964 5.008-1.554l-.043-.26c-1.749-.431-3.519-.41-5.224.476"/><path fill="#8abbff" d="m37.759 45.747.086.475c1.382.173 2.915-.648 3.476-1.878.022-.022.022-.044.043-.065l-1.316-.475z" opacity=".42"/><path fill="#0957cc" d="M42.595 44.71c.065 1.706-1.101 3.045-2.57 3.67-.582.26-1.273.325-1.748.217l.022.13 2.828.992 2.288-1.964-.54-2.958z" opacity=".42"/><path fill="#fff" d="M40.285 43.588c-.302-.065-.432 0-.67.173-.194.15-1.424 1.23-1.791 1.662l-.022.022c0 .021-.021.021-.021.043.194-.022.302-.194.41-.324.15-.151.345-.28.496-.432.303-.237.583-.475.864-.734.194-.172.41-.302.648-.259.28.043.56.173.82.238.28.064.54.194.799.28s.518.26.799.26c-.367-.217-.778-.368-1.166-.562a5.7 5.7 0 0 0-1.166-.367"/><path fill="#1a4096" d="M41.516 48.165c-2.116.022-3.195-1.663-5.095-2.267l.712 3.8 4.34 1.532 3.497-2.979-.237-1.295c-.842.799-2.073 1.187-3.217 1.209" opacity=".52"/><path fill="#fc531f" d="m48.122 48.51.086 4.923 4.297 2.396 4.23-2.526-.085-4.944-4.297-2.375z"/><path fill="#c6400b" d="m52.505 55.829 4.231-2.526-4.296-2.396z"/><path fill="#a52f02" d="m56.736 53.303-.086-4.944-4.21 2.548z"/><path fill="#ea4918" d="m52.44 50.907 4.21-2.548-4.297-2.375z"/><path fill="#fc7044" d="m52.44 50.907-.087-4.923-4.231 2.526z"/><path fill="#ff9e78" d="m48.208 53.433 4.232-2.526-4.318-2.397z"/><path fill="#ffe6de" d="M55.44 48.942 52.7 47.41c-.173-.345-.302-.755-.346-1.425-.086.389 0 .713-.043.972a1.1 1.1 0 0 1-.15.453l-2.678 1.62c-.172-.065-.388-.087-.561-.152-.216-.086-.497-.172-.67-.28.173.13.346.302.562.41.173.086.302.173.432.28l.065 3.347c-.26.388-.8.561-1.037.734.389-.087.777-.346 1.123-.432l2.936 1.62c.151.345.194.82.216 1.187.021-.238.021-.497.043-.734 0-.13.043-.238.065-.367l2.958-1.77c.367 0 .798.15 1.057.388-.28-.26-.626-.475-.928-.712l-.065-3.325c.108-.065.216-.173.303-.26.194-.194.431-.366.647-.539-.216.043-.496.237-.626.324-.194.043-.367.15-.561.194"/><path fill="#ffcbbd" d="m55.44 48.942-2.18-1.209c.151.95.087 1.965-.194 2.871-.345 1.102-.95 2.57-1.986 3.26l1.23.691c.152.346.195.82.216 1.188.022-.238.022-.497.043-.734 0-.13.044-.238.065-.367l2.958-1.77c.367 0 .799.15 1.058.388-.28-.26-.626-.475-.928-.713l-.065-3.324c.108-.065.216-.173.302-.26.194-.194.432-.366.648-.539-.216.043-.497.237-.626.324-.173.043-.346.15-.54.194"/><path fill="#ed5d26" d="m49.655 49.396.043 3.216 2.828 1.555 2.763-1.641-.064-3.239-2.807-1.554z"/><path fill="#ff733e" d="m53.649 53.497 1.64-.971-.043-3.217-.28-.151c-.864 1.382-1.21 2.828-1.317 4.34m-3.994-4.102.043 3.216.108.065c.13-1.943 1.317-3.562 2.85-4.814l-.238-.13zm2.591 1.748c-.26.67-.778 1.576-.67 2.332 0 .065.022.13.022.194l.496.28c.044-1.208.432-2.504.82-3.41a8.7 8.7 0 0 1 1.123-1.9l-.15-.087c-.648.8-1.253 1.641-1.642 2.591"/><path fill="#ff733e" d="m50.108 52.828 1.274.712c-.173-1.964.431-3.842 2.137-5.202l-.237-.13c-1.555 1.144-2.742 2.612-3.174 4.62"/><path fill="#ff7b4c" d="m49.698 52.612.453.238c1.08-1.037 1.468-2.85.82-4.167-.021-.022-.021-.065-.021-.086l-1.295.777z" opacity=".42"/><path fill="#cc3b05" d="M52.138 47.906c1.446 1.1 1.77 3 1.273 4.62-.194.67-.604 1.252-1.014 1.576l.13.065 2.763-1.663-.043-3.216-2.829-1.576z" opacity=".42"/><path fill="#fff" d="M49.633 49.05c-.259.194-.302.367-.324.67 0 .28.044 2.029.152 2.611l.021.022c.022.022.022.022.022.043.108-.172.043-.367.021-.561-.021-.238 0-.475 0-.712 0-.41 0-.82-.021-1.231-.022-.28.021-.54.216-.712.215-.195.518-.346.755-.519.238-.172.518-.302.777-.474.26-.152.562-.26.778-.475-.432.15-.842.388-1.252.582-.41.216-.8.475-1.145.756"/><path fill="#771904" d="M52.785 50.928c-1.166-.82-1.554-2.612-2.159-3.907l-2.504 1.51.086 4.923 4.318 2.397 4.231-2.526-.021-1.145c-1.382-.28-2.785-.453-3.95-1.252" opacity=".37"/><path fill="url(#I)" d="m44.754 47.388-1.122 2.871 1.23 2.85 2.872 1.144 2.85-1.252 1.122-2.871-1.23-2.85-2.872-1.123z"/><path fill="url(#J)" d="m44.863 53.109 2.871 1.144 2.85-1.252 1.122-2.871-1.878-.583-3.627.647z"/><path fill="url(#K)" d="m46.395 48.208.562-.259.647-1.792-2.85 1.23z"/><path fill="url(#L)" d="m49.828 49.547 1.878.583-1.23-2.85-.886 1.705z"/><path fill="url(#M)" d="m44.863 53.109.863-1.684-.324-.713-1.77-.453z"/><path fill="url(#N)" d="m47.734 54.253 2.85-1.252-1.728-.95-.647.367z"/><path fill="url(#O)" d="m46.395 48.208-.993 2.504.324.713 2.483.993.648-.367.971-2.504-.237-.562-2.634-1.036z"/><path fill="url(#P)" d="m46.763 48.77-.713 1.77.216.496 1.77.713.454-.281.712-1.749-.173-.41-1.878-.734z"/><path fill="#02683c" d="M47.28 50.756c-.647-.778-.95-1.857-1.878-2.418a6.4 6.4 0 0 0-.864-.432l-.928 2.331 1.23 2.85 2.872 1.144 2.85-1.23.475-1.21c-1.404.325-2.72.238-3.757-1.035" opacity=".39"/><path fill="#03f27c" d="m33.787 54.426-1.9-.756-3.13.26 2.223.863z"/><path fill="url(#Q)" d="m36.939 52.461-.022-1.857 1.511-3.281-.064 2.05z"/><path fill="#05dd82" d="m33.787 54.426-1.9-.756 5.16-3.238-.108 2.03z"/><path fill="url(#R)" d="m35.276 54.663-1.49-.237 3.152-1.965-.582 1.533z"/><path fill="#0ec66b" d="m38.364 49.374-1.425 3.087-.605 1.533s1.101-1.598 1.123-1.64c.043-.044.907-2.98.907-2.98"/><path fill="#09db8a" d="m35.277 54.663-1.49-.237-2.807.367 2.57.13z"/><path fill="#bbffd6" d="m34.802 48.92-3.196 2.095-2.957.15 1.446-2.482 3.195-2.094 2.591-.28z"/><path fill="#e9fff1" d="m34.802 48.92-3.196 2.095-2.957.15 2.828-.431 3.13-2.008 1.274-2.418z"/><path fill="#70f2a3" d="m34.11 48.122-2.892 1.813-1.922.389.95-1.749 2.915-1.9 1.878-.15z"/><path fill="#62e897" d="m33.16 46.675-.647.432c.13.756-.41 1.64-.863 2.202a5 5 0 0 1-.648.691l.216-.043 2.893-1.814.928-1.619z"/><path fill="#86fcbd" d="m28.649 51.166.13 2.763 3.108-.259-.28-2.655z"/><path fill="#aeffd1" d="M28.713 51.166c1.058.777 2.051 1.533 2.85 2.526l.324-.022-.28-2.655z"/><path fill="#2be281" d="m34.802 48.92 2.245 1.512 1.382-3.11-2.548-1.014z"/><path fill="#6df7b0" d="m36.097 46.395-.216-.087-1.08 2.612 2.246 1.512.108-.26c-.605-1.165-.907-2.417-1.058-3.777"/><path fill="#32fc9f" d="m31.607 51.015.28 2.655 5.16-3.238-2.245-1.512z"/><path fill="#1ef49a" d="M34.953 49.007c1.036 1.317-1.728 3.735-2.829 4.34-.086.042-.194.042-.259 0l.044.301 5.16-3.216z"/><path fill="#02683c" d="M35.406 53.13c-2.98 1.576-4.469-1.813-5.527-4.102l-1.23 2.138.13 2.742h-.023l2.224.863 2.57.13 1.726-.26 1.058-.669s1.101-1.597 1.123-1.64c.021-.044.885-3.001.885-3.001v-.303c-.496 1.77-1.533 3.368-2.936 4.102" opacity=".39"/><path fill="#f24c01" d="m20.963 54.534-.561-2.418-2.461-2.936.69 2.828z"/><path fill="url(#S)" d="m25.152 56.26 1.813-1.316 4.34-.842-2.073 1.403z"/><path fill="#dd4603" d="m20.963 54.534-.561-2.418 6.843 2.828-2.094 1.317z"/><path fill="url(#T)" d="m21.783 56.174-.82-1.64 4.188 1.727-1.943.496z"/><path fill="#c64208" d="m29.232 55.505-4.08.777-1.944.497s2.354-.022 2.418-.043z"/><path fill="#db4705" d="m21.784 56.174-.82-1.64-2.332-2.526 1.684 2.634z"/><path fill="#ff9466" d="m27.16 51.662-4.319-1.705-2.267-2.828 3.498-.324 4.318 1.705 2.116 2.354z"/><path fill="#fce2d9" d="m27.16 51.662-4.319-1.705-2.267-2.828 2.44 2.504 4.188 1.684 3.303-.453z"/><path fill="#f2743d" d="m27.44 50.41-3.821-1.597-1.727-1.641 2.396-.28 3.93 1.532 1.489 1.77z"/><path fill="#e86b35" d="m28.217 48.424-.885-.345c-.67.669-1.921.755-2.785.69a8 8 0 0 1-1.144-.15l.194.194 3.843 1.597 2.267-.216z"/><path fill="#fc8049" d="M20.575 47.129 17.94 49.2l2.46 2.915 2.44-2.16z"/><path fill="#ff9e78" d="M20.64 47.193c-.022 1.598-.087 3.11-.476 4.62l.238.303 2.44-2.16z"/><path fill="#e25518" d="m27.16 51.662.086 3.282 4.058-.842-.798-3.238z"/><path fill="#f7743b" d="m30.592 51.144-.065-.28-3.346.798.086 3.282.346-.065c.69-1.425 1.727-2.612 2.979-3.735"/><path fill="#ff6d33" d="m22.841 49.957-2.44 2.159 6.844 2.828-.086-3.282z"/><path fill="#f45610" d="M27.159 51.857c-.583 1.943-4.922.928-6.304.259-.13-.065-.173-.151-.173-.26l-.28.238 6.843 2.828z"/><path fill="#771904" d="M29.556 51.749c-.303.043-.605.086-.929.108-.82.086-1.619.215-2.396.518-.087.065-.195.108-.28.172-.454.324-1.361 1.274-2.16 1.512a1.35 1.35 0 0 1-.777.13c-.885-.152-1.662-.54-2.375-1.037a8.9 8.9 0 0 1-2.288-2.116l.259 1.015 1.684 2.634 1.468 1.533 1.425.582s2.353-.021 2.418-.043l3.605-1.23 2.073-1.382-.626-2.548c-.346.044-.713.108-1.102.152" opacity=".37"/><path fill="url(#U)" d="m26.965 52.547-2.353 2.72.259 3.606 2.699 2.353 3.605-.259 2.353-2.72-.237-3.584-2.72-2.353z"/><path fill="url(#V)" d="m24.871 58.873 2.699 2.353 3.605-.259 2.353-2.72-1.835-1.36-4.231-.691z"/><path fill="url(#W)" d="m28.433 54.102.713-.086 1.424-1.706-3.605.237z"/><path fill="url(#X)" d="m31.693 56.887 1.835 1.36-.237-3.584-1.641 1.533z"/><path fill="url(#Y)" d="m24.87 58.873 1.577-1.511-.065-.907-1.77-1.187z"/><path fill="url(#Z)" d="m27.57 61.226 3.605-.259-1.533-1.727-.842.173z"/><path fill="url(#aa)" d="m28.433 54.102-2.05 2.353.064.907 2.353 2.05.842-.172 2.051-2.353-.043-.691-2.504-2.18z"/><path fill="url(#ab)" d="M28.627 54.836 27.16 56.52l.065.647 1.662 1.425.605-.108 1.446-1.662-.043-.497-1.77-1.532z"/><path fill="#1a4096" d="m24.828 55.009-.216.259.259 3.583 2.72 2.354 3.605-.26 1.274-1.468c-2.958-.129-5.635-2.417-7.642-4.468" opacity=".52"/><path fill="#0347f2" d="m55.16 56.8.777-2.202-.475-3.562-.863 2.59z"/><path fill="url(#ac)" d="m57.557 60.298 2.115-.13 3.822 1.533-2.332.043z"/><path fill="#0541dd" d="m55.16 56.8.777-2.202 3.95 5.7h-2.33z"/><path fill="url(#ad)" d="m54.966 58.506.194-1.706 2.396 3.498-1.77-.605z"/><path fill="#0e43c6" d="m61.162 61.744-3.606-1.446-1.791-.605s1.856 1.166 1.921 1.188z"/><path fill="#0943db" d="m54.966 58.506.194-1.706-.561-3.173-.022 2.936z"/><path fill="#bbcfff" d="m61.486 57.664-2.548-3.54-.345-3.347 2.914 1.511 2.548 3.52.475 2.935z"/><path fill="#e9f0ff" d="m61.486 57.664-2.548-3.54-.345-3.347.647 3.195 2.462 3.454 2.828 1.317z"/><path fill="#7097f2" d="m62.35 56.844-2.224-3.217-.519-2.159 2.03.993 2.331 3.217.26 2.137z"/><path fill="#628ae8" d="m63.968 55.678-.518-.713c-.863.195-1.9-.388-2.547-.863a8 8 0 0 1-.82-.691l.064.237 2.202 3.196 1.9.993z"/><path fill="#86a8fc" d="m58.592 50.777-3.13.28.475 3.541 3-.475z"/><path fill="#aec6ff" d="M58.614 50.864c-.842 1.252-1.64 2.418-2.72 3.389l.043.367 3.001-.475z"/><path fill="#2b60e2" d="m61.485 57.664-1.597 2.634 3.605 1.403 1.036-2.958z"/><path fill="#6d95f7" d="m64.443 59.003.087-.26-3.045-1.079-1.597 2.634.302.108c1.274-.734 2.699-1.166 4.253-1.404"/><path fill="#326bfc" d="m58.938 54.123-3 .475 3.95 5.7 1.598-2.634z"/><path fill="#1e5af4" d="M61.399 57.837c-1.447 1.23-4.34-1.77-5.095-2.98-.065-.108-.065-.215 0-.302l-.346.065 3.951 5.7z"/><path fill="#1a4096" d="M60.579 57.146c-.432-.432-.605-1.21-.799-1.77-.367-1.058-1.036-1.641-1.986-2.18-.928-.54-1.814-1.059-2.397-1.9l-.798 2.33-.022 2.937.389 1.943.82 1.187s1.857 1.166 1.921 1.188c.065.021 3.455.863 3.455.863l2.331-.043.929-2.699.086-.259-.324-1.986c-1.015.993-2.504 1.49-3.605.389" opacity=".52"/><path fill="#9cea20" d="m39.249 48.489-2.893 5.008 2.893 5.009h5.786l2.893-5.009-2.893-5.008z"/><path fill="#7bc614" d="M39.25 58.506h5.785l-2.893-5.009z"/><path fill="#5ba504" d="m45.035 58.506 2.893-5.009h-5.786z"/><path fill="#85d621" d="M42.142 53.497h5.786l-2.893-5.008z"/><path fill="#d8f456" d="m42.142 53.497 2.893-5.008h-5.786z"/><path fill="#b7ed5a" d="M36.356 53.497h5.786l-2.893-5.008z"/><path fill="#f9ffca" d="m46.352 53.346-1.857-3.195c.043-.453.173-.95.518-1.64-.323.345-.431.733-.626.95a1.5 1.5 0 0 1-.431.366h-3.67c-.13-.172-.346-.324-.476-.496-.15-.216-.388-.454-.518-.691.087.237.151.518.302.755.108.195.195.346.281.54l-1.964 3.411c-.497.238-1.145.087-1.49.108.432.151.993.108 1.382.238l1.964 3.41c-.043.433-.28.95-.496 1.318.172-.238.323-.475.475-.713.086-.13.172-.237.28-.324h4.059c.367.238.712.627.842 1.037-.13-.432-.345-.842-.518-1.274l1.943-3.368c.151 0 .324-.043.453-.086.324-.087.648-.087.993-.151-.237-.087-.647-.044-.842-.065-.15-.065-.388-.065-.604-.13"/><path fill="#f9ff85" d="M46.352 53.346 44.884 50.8c-.432 1.058-1.101 2.03-1.922 2.763-1.014.907-2.504 2.008-3.972 2.073l.82 1.425c-.043.431-.28.95-.496 1.316.172-.237.324-.474.475-.712a1.4 1.4 0 0 1 .28-.324h4.059c.367.238.712.626.842 1.036-.13-.431-.345-.841-.518-1.273l1.943-3.368c.151 0 .324-.043.453-.087.324-.086.648-.086.993-.15-.237-.087-.647-.044-.842-.065s-.431-.022-.647-.087"/><path fill="#afed45" d="m40.242 50.28-1.9 3.282 1.9 3.282h3.8l1.878-3.282-1.878-3.281z"/><path fill="#cbff71" d="M41.797 56.844h2.245l1.9-3.282-.173-.324c-1.727.886-2.958 2.16-3.972 3.606m-1.555-6.564-1.9 3.282.065.13c1.317-1.879 3.476-2.785 5.764-3.13l-.173-.281zm1.555 3.369c-.67.518-1.75 1.122-2.095 1.943-.021.064-.064.129-.086.194l.346.583c.777-1.188 1.942-2.246 2.87-2.936.735-.519 1.49-.929 2.29-1.231l-.109-.173c-1.122.41-2.245.885-3.216 1.62"/><path fill="#cbff71" d="m38.623 54.037.864 1.49c.993-2.073 2.763-3.606 5.289-3.951l-.173-.28c-2.224.215-4.318.97-5.98 2.741"/><path fill="#fcff8a" d="m38.342 53.562.302.518c1.706-.388 3.174-1.986 3.325-3.691 0-.044.022-.065.022-.087h-1.77z" opacity=".42"/><path fill="#a2cc09" d="M43.653 50.28c.799 1.987-.043 4.08-1.511 5.42-.605.54-1.36.906-1.986.971l.086.151h3.778l1.9-3.281-1.9-3.282h-.367z" opacity=".42"/><path fill="#fff" d="M40.436 49.935c-.367.043-.518.173-.734.497-.173.28-1.166 2.072-1.425 2.72v.108c.238-.108.26-.346.367-.561.108-.238.281-.475.432-.713q.39-.615.712-1.23c.152-.281.346-.519.67-.583.345-.065.734-.044 1.08-.065.366-.022.712 0 1.079 0 .345 0 .734.065 1.08-.022-.519-.108-1.08-.13-1.62-.172a7 7 0 0 0-1.64.021"/><path fill="#1b4c03" d="M47.885 53.433c-.519.604-1.166 1.079-1.943 1.187-.842.13-1.62-.756-2.18-1.274-.692-.367-1.404-.712-2.138-.82-1.663-.238-3.282.086-4.9.324l-.368.626 2.893 5.008h5.786l2.893-5.008z" opacity=".44"/><path fill="#bbcfff" d="m55.009 55.592-4.642.064-3.152-1.727 3.087-1.64 4.642-.087 2.871 1.36z"/><path fill="#86a9fc" d="M50.67 54.231v-.086c.043-.67-.13-1.274-.044-1.857h-.323l-3.088 1.641 3.152 1.727c.108-.475.26-.95.303-1.425"/><path fill="#7aa1fc" d="M54.944 52.202h-.26c.022.626.044 1.252-.129 1.878.022.044.044.065.065.108.108.454.324.907.453 1.36l2.742-1.964z"/><path fill="#e9f0ff" d="m55.009 55.592-4.642.064-3.152-1.727 3.152 1.49 4.642-.065 2.807-1.792z"/><path fill="#3368e5" d="m54.815 54.49-4.253.087-2.138-1.123 2.095-1.187 4.253-.065 2.137 1.101z"/><path fill="#406cd3" d="M54.772 52.202h-.13c-.065.734-.82 1.468-1.403 1.77-.497.26-1.08.454-1.684.583l3.26-.065 2.094-1.187z"/><path fill="#86a8fc" d="m47.215 53.93-1.662 2.914 3.39 1.748 1.424-2.936z"/><path fill="#7c99dd" d="m55.009 55.592 1.338 3 3.433-2.331-1.965-2.699z"/><path fill="#1e5af4" d="m50.367 55.656-1.424 2.936h7.404l-1.338-3z"/><path fill="#e9f0ff" d="m50.238 55.527-1.295 3.065 1.64-2.936zm4.9-.13 1.21 3.217-1.598-3.087z"/><path fill="#3b6be0" d="M48.942 58.592v3.088l-2.59-1.555-.8-3.281z"/><path fill="#295ad6" d="M48.942 58.592v3.088l-.323-2.893-3.066-1.943z"/><path fill="#053cce" d="M56.348 58.592h-7.405v3.088h7.404z"/><path fill="#0235bc" d="M56.348 58.592v3.088l-.54-2.57-6.52-.15-.345 2.72v-3.088z"/><path fill="#305fd6" d="m59.78 56.26-.82 3.541-2.613 1.879v-3.088z"/><path fill="#1144c9" d="m59.78 56.26-3.066 2.7-.367 2.72v-3.088z"/><path fill="#174fdd" d="m46.352 60.125 1.598 2.008 4.727 3.13-3.734-3.605z"/><path fill="#1144c9" d="m58.96 59.801-2.613 1.879-3.67 3.583 4.707-3.216z"/><path fill="#0235bc" d="m48.943 61.658 7.404.022-3.67 3.583z"/><path fill="#0433b2" d="m55.052 61.68-.021.021c-.238.54-.583 1.015-.95 1.468l-1.425 1.879-.022.194.043.043 3.67-3.584zm-6.109-.022h3.713l-2.677.367.928 1.533z"/><path fill="#1a4096" d="M55.808 60.233c-1.21.173-2.44.151-3.368-.777-.67-.67-1.295-1.662-2.137-2.116-.583-.324-1.188-.604-1.792-.907-.864-.064-1.75-.064-2.613-.215l-.345.626.799 3.281 1.597 2.008 4.707 3.13 4.728-3.216 1.554-2.224.194-.799a8.9 8.9 0 0 1-3.324 1.21" opacity=".52"/><path fill="#ff8e66" d="m40.48 55.959-4.513 1.079-3.454-1.036 2.677-2.267 4.512-1.058 3.087.734z"/><path fill="#fc7849" d="M35.967 55.548v-.021c0-.022-.021-.022-.021-.043-.108-.648-.41-1.21-.432-1.814l-.324.086-2.677 2.267 3.433 1.037c.021-.519.065-1.015.021-1.512"/><path fill="#fc7342" d="m39.702 52.677-.259.065c.151.604.302 1.209.28 1.856.022.022.066.044.087.087.194.432.497.82.734 1.23l2.267-2.504z"/><path fill="#fce2d9" d="m40.48 55.959-4.513 1.079-3.454-1.036 3.39.777 4.533-1.036 2.353-2.332z"/><path fill="#f75c28" d="m40.048 54.944-4.124.971-2.331-.626 1.813-1.619 4.124-.95 2.331.626z"/><path fill="#d35223" d="m39.53 52.72-.13.022c.086.734-.496 1.597-.993 2.008-.432.367-.972.669-1.533.928l3.174-.756 1.813-1.597z"/><path fill="#fc9a7c" d="M32.513 56.002 31.5 59.197l3.691.993.777-3.152z"/><path fill="#f27951" d="m40.48 55.959 1.942 2.677 2.85-3.001-2.483-2.224z"/><path fill="#f44d10" d="m35.967 57.038-.777 3.152 7.232-1.554-1.943-2.678z"/><path fill="#fce2d9" d="m35.795 56.93-.605 3.26.993-3.217zm4.771-1.166 1.857 2.893-2.224-2.677z"/><path fill="#f96735" d="m35.19 60.19.648 3.022-2.85-.971-1.49-3.044z"/><path fill="#d64916" d="m35.19 60.19.648 3.022-.928-2.763-3.411-1.252z"/><path fill="#dd420e" d="m42.41 58.625-7.238 1.564.652 3.017 7.238-1.564z"/><path fill="#bc3301" d="m42.422 58.636.648 3-1.058-2.374-6.412 1.23.238 2.72-.648-3.022z"/><path fill="#ef5a26" d="m45.272 55.635-.043 3.627-2.159 2.374-.647-3z"/><path fill="#c93c09" d="m45.272 55.635-2.396 3.281.194 2.72-.647-3z"/><path fill="#dd440d" d="m32.988 62.24 1.986 1.62 5.268 2.073-4.404-2.742z"/><path fill="#c93c09" d="m45.23 59.262-2.16 2.374-2.828 4.297 3.93-4.146z"/><path fill="#bc3301" d="m35.838 63.19 7.232-1.554-2.828 4.297z"/><path fill="#b23102" d="m41.796 61.917-.021.022c-.108.561-.367 1.1-.626 1.64-.346.713-.67 1.425-1.015 2.138l.022.194.043.022 2.85-4.275zm-5.958 1.273 3.605-.776-2.526.906 1.23 1.296z"/><path fill="#771904" d="M37.738 60.47c-1.555 1.9-4.038.584-5.873-.54l1.123 2.31 1.986 1.62 5.268 2.051 3.95-4.145 1.059-2.504.043-2.699c-3.044.26-5.311 1.187-7.556 3.908" opacity=".37"/><path fill="#bbffd6" d="m47.669 60.298-4.642.086-3.152-1.727 3.087-1.662 4.642-.087 2.871 1.382z"/><path fill="#86fcb0" d="M43.33 58.938v-.022c0-.021-.022-.043 0-.043.021-.67-.13-1.274-.044-1.857h-.324l-3.087 1.641 3.152 1.727c.108-.475.26-.95.303-1.446"/><path fill="#7afcaa" d="M47.604 56.908h-.26c.023.627.044 1.253-.129 1.879.022.043.043.064.065.108.108.453.324.906.453 1.36l2.742-1.965z"/><path fill="#e9fff1" d="m47.669 60.298-4.642.086-3.152-1.727 3.152 1.49 4.642-.065 2.807-1.792z"/><path fill="#33e579" d="m47.475 59.218-4.253.065-2.138-1.1 2.095-1.188 4.253-.065 2.137 1.101z"/><path fill="#40d37a" d="M47.432 56.93h-.13c-.065.734-.82 1.468-1.403 1.77-.497.26-1.08.454-1.684.583l3.26-.065 2.094-1.187z"/><path fill="#86fcbd" d="m39.875 58.657-1.662 2.915 3.39 1.748 1.424-2.936z"/><path fill="#7cdda2" d="m47.669 60.298 1.338 3.022 3.433-2.331-1.965-2.699z"/><path fill="#1ef49a" d="m43.027 60.384-1.425 2.936h7.406l-1.339-3.022z"/><path fill="#e9fff1" d="m42.898 60.255-1.296 3.065 1.641-2.936zm4.9-.13 1.21 3.217-1.62-3.087z"/><path fill="#3be089" d="M41.602 63.32v3.087l-2.59-1.554-.8-3.281z"/><path fill="#29d687" d="M41.602 63.32v3.087l-.323-2.892-3.066-1.943z"/><path fill="#05ce84" d="M49.008 63.32h-7.406v3.087h7.406z"/><path fill="#02bc78" d="M49.008 63.32v3.087l-.54-2.568-6.52-.152-.346 2.72V63.32z"/><path fill="#30d68a" d="m52.44 60.989-.82 3.54-2.613 1.879V63.32z"/><path fill="#11c97f" d="m52.44 60.989-3.066 2.698-.367 2.72V63.32z"/><path fill="#17dd82" d="m39.012 64.853 1.597 2.008 4.707 3.13-3.713-3.605z"/><path fill="#11c97f" d="m51.62 64.53-2.612 1.877-3.692 3.584 4.728-3.238z"/><path fill="#02bc7c" d="m41.603 66.386 7.404.022-3.691 3.583z"/><path fill="#04b280" d="m47.712 66.386-.022.022c-.237.54-.582 1.014-.95 1.468a54 54 0 0 0-1.424 1.878l-.022.194.043.043 3.67-3.583zm-6.109 0h3.691l-2.655.345.928 1.533z"/><path fill="#02683c" d="M47.064 66.537c-3.087.864-5.872-1.166-8.355-2.958l.303 1.274 1.597 2.008 4.707 3.109 4.728-3.217 1.554-2.224.151-.69c-1.382 1.252-3.087 2.245-4.685 2.698" opacity=".39"/><path fill="#542708" d="m64.378 90.587 1.9-1.23.582-3.714-2.482.82z"/><path fill="#703208" d="m62.046 89.357 2.332 1.23v-4.123l-2.634.755z"/><path fill="#542708" d="m48.445 100 1.9-1.23.583-3.736-2.483.842z"/><path fill="#703208" d="m46.114 98.77 2.331 1.23v-4.124l-2.633.756z"/><path fill="url(#ae)" d="m.022 48.1 45.336 26.188v-6.153L10.535 48.1z"/><path fill="#fffde1" d="M12.37 49.158 10.558 48.1H.022l4.857 2.807c2.31-1.339 4.88-1.814 7.492-1.749"/><path fill="#fff7ab" d="M27.936 62.111a8.7 8.7 0 0 1 2.224-2.698l-10.795-6.196c-2.806.626-5.678.842-8.527 1.187l16.472 9.5c.151-.627.324-1.231.626-1.793"/><path fill="#fffde1" d="M42.358 66.408c.194 1.9-.022 3.82-.626 5.785l3.627 2.095v-6.153z"/><path fill="#fff8bb" d="m.022 48.1 10.513.583 34.823 20.25v-.798L10.535 48.1z"/><path fill="#fffde1" d="M45.358 74.288v-6.153l-1.1 4.274L.021 48.1z"/><path fill="url(#af)" d="m74.46 57.383-9.736-.237-19.366 10.989v6.153z"/><path fill="#fffde1" d="m73.208 57.34-8.484-.216-2.526 1.425c3.648-.583 7.362-.907 11.01-1.209"/><path fill="#fffde1" d="m56.282 61.917-7.362 4.167a16.3 16.3 0 0 1 2.548 4.641l12.262-7.124c-2.44-.69-4.9-1.295-7.448-1.684" opacity=".6"/><path fill="#ffce00" d="M64.724 57.146 45.358 68.135v6.153L74.46 57.383 46.891 72v-3.864z"/><path fill="#a06335" d="m68.804 84.672 4.987-22.625-28.433 12.24-.064 24.05z"/><path fill="#592a0a" d="M55.009 91.386c-2.72 1.878-6.261 4.9-9.715 4.9v2.03l23.51-13.666 4.987-22.647-2.375 1.015c.367 8.053-2.547 14.983-7.383 20.272-2.656 2.936-5.808 5.894-9.024 8.096" opacity=".28"/><path fill="#592a0a" d="M47.712 96.934c0-.064 0-.15.021-.215.713-3.735.928-7.621 2.461-11.14 1.425-3.26 3.865-5.83 6.628-8.01 4.642-3.648 9.801-6.65 15.415-8.484l1.554-7.017L45.358 74.31l-.064 24.05z" opacity=".41"/><path fill="url(#ag)" d="m74.439 64.443.021-7.06-29.102 16.905-.021 7.297z"/><path fill="#824216" d="m49.655 71.783-4.297 2.505-.021 7.297 5.44-3.195c-.475-2.203-.993-4.383-1.122-6.607m16.688-9.693c-.389 2.914-1.274 5.7-2.267 8.463l10.384-6.11.022-7.081z" opacity=".24"/><path fill="#592a0a" d="M61.831 66.904c4.145-1.878 8.29-3.713 12.63-4.857l.021-4.664-21.956 12.76a.7.7 0 0 1 .086.194 119 119 0 0 1 9.219-3.433M47.604 72.97l-2.245 1.318-.022 7.297.67-.389c.366-2.785.863-5.527 1.597-8.225" opacity=".28"/><path fill="url(#ah)" d="m74.439 64.443.021-7.06-.669 6.715-28.454 17.487z"/><path fill="#db854b" d="m6.175 75.756 39.119 22.582.065-24.05L.713 52.677z"/><path fill="#c9753d" d="m.713 52.677 5.462 23.079 39.119 22.582.021-6.844c-3.454-.065-7.124-.95-9.412-1.576-4.685-1.295-17.293-8.355-17.746-8.55-4.016-1.856-9.09-4.447-11.335-8.505-2.612-4.728-4.425-13.04-.799-17.617z"/><path fill="#c9753d" d="M2.375 59.694c7.232 2.353 18.653 10.297 21.157 12.305 6.39 5.074 10.428 9.5 13.925 15.026 1.64 2.59 2.418 4.9 4.318 9.305l3.497 2.03.065-24.05L.69 52.698z"/><path fill="url(#ai)" d="m0 55.419 45.337 26.166.021-7.297L.022 48.1z"/><path fill="url(#aj)" d="M41.343 78.433c-.864-2.699-1.9-5.354-2.742-8.053l-2.656-1.533c-.647 2.245-1.748 4.016-3.216 5.44l8.916 5.139c-.108-.324-.194-.67-.302-.993" opacity=".65"/><path fill="url(#ak)" d="m4.728 58.16 8.096 4.664c-2.245-3.109-3.973-6.542-4.383-9.845l-3-1.727c-.238 2.31-.519 4.62-.713 6.909" opacity=".67"/><path fill="url(#al)" d="M18.502 64.961C13.45 62.111 2.872 57.081 0 53.087v2.353l45.337 26.145.021-3.865c-3.756-1.122-18.523-8.074-26.856-12.759" opacity=".51"/><path fill="url(#am)" d="m0 55.419 45.337 26.166-.108-.626L0 55.117z"/><path fill="url(#an)" d="m44.193 74.482 1.144 7.103.021-7.297L.022 48.1 0 55.42l.54-6.563z"/><path fill="#93561b" d="m2.332 59.5.172.755 18.049 11.161L45.315 85.58l-.021-.756-26.21-15.35zm2.028 8.635 31.305 18.458 9.65 4.577-.021-.583L4.23 67.53z"/><path fill="#602609" d="m72.064 69.819.151-.648-26.921 15.652.021.756zM51.792 87.478l18.912-11.442.108-.54-25.518 15.091.021.583z"/><path fill="url(#ao)" d="m10.73 80.613 2.072-1.058-1.209-.69-.95.431z"/><path fill="url(#ap)" d="m7.642 78.865 3.088 1.748-.087-1.317-3.087-1.813z"/><path fill="url(#aq)" d="m7.664 77.526 2.98 1.77-.886-9.672-3.39-1.878z"/><path fill="url(#ar)" d="m6.952 72.15.712 5.376 3 1.749-.28-3.066C9.046 75 7.858 73.639 6.952 72.15"/><path fill="url(#as)" d="m10.643 79.296.95-.432-.669-9.65-1.166.41z"/><path fill="url(#at)" d="m9.758 69.624 1.166-.41-3.433-1.856-1.122.388z"/><path fill="#93561b" d="M7.642 69.193c-.67.216-.95 1.23-.626 2.245s1.144 1.64 1.835 1.425c.67-.216.95-1.23.626-2.224-.345-1.015-1.166-1.662-1.835-1.446"/><path fill="url(#au)" d="M7.556 69.409c-.561.194-.777 1.079-.475 2.007.302.907.993 1.512 1.576 1.339.561-.194.777-1.08.475-2.008-.324-.928-1.015-1.511-1.576-1.338"/><path fill="#93561b" d="M1.986 51.403c-.67.216-.95 1.23-.626 2.224.324 1.015 1.144 1.64 1.835 1.425.67-.216.95-1.23.626-2.224-.345-.993-1.166-1.64-1.835-1.425"/><path fill="url(#av)" d="M1.9 51.62c-.561.194-.777 1.079-.475 2.007s1.015 1.511 1.576 1.338c.561-.194.777-1.079.475-2.007S2.461 51.447 1.9 51.619"/><path fill="#93561b" d="M12.37 57.427c-.669.215-.95 1.23-.626 2.245s1.145 1.64 1.835 1.425c.67-.216.95-1.23.627-2.224-.346-1.036-1.166-1.684-1.835-1.446"/><path fill="url(#aw)" d="M12.284 57.643c-.56.194-.777 1.079-.475 2.007.303.907 1.015 1.511 1.576 1.339.562-.194.778-1.08.475-2.008-.323-.928-1.014-1.533-1.576-1.339"/><path fill="#93561b" d="M31.844 68.696c-.67.216-.95 1.23-.626 2.224.324 1.014 1.144 1.64 1.835 1.425.669-.216.95-1.231.626-2.224-.346-1.015-1.166-1.662-1.835-1.425"/><path fill="url(#ax)" d="M31.758 68.912c-.561.194-.777 1.08-.475 2.008s.993 1.51 1.576 1.338c.561-.194.777-1.08.475-2.008s-1.015-1.532-1.576-1.338"/><path fill="#93561b" d="M42.228 74.698c-.669.216-.95 1.23-.626 2.245s1.144 1.64 1.835 1.425c.67-.216.95-1.23.626-2.224-.345-1.036-1.166-1.662-1.835-1.446"/><path fill="url(#ay)" d="M42.142 74.914c-.561.194-.777 1.08-.475 2.007.302.907 1.015 1.512 1.576 1.339.561-.194.777-1.08.475-2.008-.324-.928-1.015-1.533-1.576-1.338"/><path fill="#93561b" d="M47.042 76.123c-.324 1.014-.043 2.007.626 2.223.67.216 1.49-.41 1.835-1.425.324-1.014.043-2.007-.626-2.245-.69-.194-1.511.432-1.835 1.447"/><path fill="url(#az)" d="M47.388 76.252c-.303.907-.087 1.814.474 2.008.562.194 1.253-.41 1.576-1.339.303-.928.087-1.813-.475-2.007-.583-.195-1.273.41-1.575 1.338"/><path fill="#93561b" d="M61.81 69.279c.323-1.015.042-2.008-.627-2.224s-1.49.41-1.835 1.425c-.324 1.015-.043 2.008.626 2.224.67.216 1.49-.41 1.835-1.425"/><path fill="url(#aA)" d="M61.723 69.257c.302-.928.086-1.813-.475-2.008-.561-.194-1.274.41-1.576 1.318-.302.928-.086 1.813.475 2.007.583.195 1.274-.41 1.576-1.317"/><path fill="#93561b" d="M73.014 62.76c.324-1.016.043-2.009-.626-2.225-.67-.215-1.49.41-1.835 1.425-.324 1.015-.043 2.008.626 2.224.69.237 1.511-.41 1.835-1.425"/><path fill="url(#aB)" d="M72.949 62.738c.302-.929.086-1.814-.475-2.008-.561-.195-1.274.41-1.576 1.338s-.086 1.814.475 2.008c.561.173 1.274-.41 1.576-1.338"/><path fill="#845203" d="M22.215 68.718c4.275 2.266 5.592.323 5.592.323v-3.907l-9.434-5.44-.087 4.188c0-.022-.108 2.698 3.93 4.836"/><path fill="url(#aC)" d="M21.697 68.48c4.275 2.267 5.138 1.166 5.138 1.166v-3.908l-9.434-5.44-.087 4.188c0-.021.367 1.857 4.383 3.994"/><path fill="#fff7ab" d="M24.374 64.314c1.015 1.683 1.792 3.583 2.137 5.526.26-.086.346-.194.346-.194v-3.908z" opacity=".32"/><path fill="#fff7ab" d="M21.395 65.156c-.583-1.555-1.425-2.915-2.461-3.995l-1.533-.885-.087 4.189s.367 1.878 4.383 4.015a.7.7 0 0 1 .173.087c0-1.231-.108-2.44-.475-3.411" opacity=".22"/><path fill="#fff7ab" d="M21.676 64.961c-.583-1.554-1.188-2.72-2.72-3.778l-1.059-.604c1.037 1.295 1.965 2.633 2.418 4.296.173.69.216 1.792.087 2.85.388.237.82.496 1.295.755a.6.6 0 0 1 .173.087c.28-1.145.172-2.656-.195-3.606" opacity=".32"/><path fill="#fff8d4" d="M22.388 63.58c1.317.777 3.238 1.36 4.059 2.418.086.129.323.733.388.885v-1.166l-9.434-5.44-.087 4.188s.065.323.432.885c-.259-1.101-.302-3.239.151-4.037.41-.648 3.217 1.51 4.49 2.267"/><path fill="url(#aD)" d="m26.835 65.738.972-.604-9.435-5.462-.971.604z"/><path fill="url(#aE)" d="M19.02 64.357c.389-.26 1.166-.367.971-.929-.107-.302-.669-.842-1.705-.712-1.166.237-2.008.907-2.224 1.878-.259 1.144 1.101 2.224 1.835 2.699 2.008 1.274 4.102 1.748 5.98 1.317.929-.216 2.116-.799 2.008-1.576-.108-.778-1.705-1.188-2.504-.799-.907.432-2.073.561-3.044.194-.799-.345-2.504-1.295-1.317-2.072"/><path fill="#f49c1c" d="M19.69 67.53c-1.404-.54-2.98-1.49-3.26-2.655-.303-1.166 1.295-1.878 2.46-2.18a2.8 2.8 0 0 0-.604 0c-1.166.237-2.008.906-2.224 1.878-.259 1.144 1.101 2.223 1.835 2.698 2.008 1.274 4.102 1.749 5.98 1.317.82-.194 1.836-.67 1.987-1.317-.195-.496-.54-.345-.67-.216-1.187 1.08-4.576.82-5.505.475"/><path fill="#f49c1c" d="M21.675 68.178c-3.173-.151-5.181-2.137-5.591-3.022.194.928 1.23 1.727 1.835 2.115 2.008 1.274 4.102 1.749 5.98 1.317.928-.216 2.116-.799 2.008-1.576-.065-.518-.82-.885-1.533-.95.086.065.108.195.237.26 1.231.517.583 2.029-2.936 1.856"/><path fill="#f49c1c" d="M18.567 64.14c-1.468 1.059 1.295 2.591 2.115 2.764.864.173 1.598.216 2.418-.13.583-.237 1.36-.474 2.095-.496-.562-.259-1.339-.302-1.814-.086-.907.432-2.073.561-3.044.194-.799-.302-2.504-1.252-1.338-2.03.388-.258 1.165-.366.971-.928-.065-.15-.237-.367-.54-.54 0 .022-.021.065 0 .087.389.432-.345.777-.863 1.166"/><path fill="#fff8d4" d="M18.005 63.839c.173-.152 1.252-.929.497-.907v.043c-1.058.13-2.353 1.446-1.684 2.483.302.475.928.907 1.382 1.187.474.302 1.187.734 1.77.626-.26-.367-.864-.67-1.252-.971-.367-.324-.8-.648-1.058-1.08-.367-.604-.151-.993.345-1.381"/><path fill="#845203" d="M20.38 68.048c-2.871-.604-4.145-2.44-4.318-2.892.194.928 1.23 1.727 1.835 2.115 2.008 1.274 4.102 1.749 5.98 1.317.929-.216 2.116-.799 2.008-1.576-.065-.518-.82-.885-1.533-.95.022.022 1.512.346 1.015 1.21-.583 1.035-2.785 1.251-4.987.776"/><path fill="url(#aF)" d="m39.097 95.704 2.98 1.749-.41-9.457-2.98-1.597z"/><path fill="url(#aG)" d="m38.903 91.43.195 4.252 2.979 1.77-.087-2.115c-1.079-1.252-2.18-2.548-3.087-3.908"/><path fill="url(#aH)" d="m42.076 97.453.972-.41-.367-9.414-1.015.368z"/><path fill="url(#aI)" d="m38.687 86.399 2.936 1.62 1.058-.39-2.871-1.619z"/><path fill="#93561b" d="M39.637 87.738c-.67.215-.95 1.23-.626 2.223.324 1.015 1.144 1.64 1.835 1.425.67-.216.95-1.23.626-2.224-.324-1.014-1.144-1.662-1.835-1.425"/><path fill="url(#aJ)" d="M39.572 87.953c-.561.173-.777 1.08-.475 2.008s1.015 1.511 1.576 1.339c.561-.195.777-1.08.475-2.008-.324-.928-1.015-1.533-1.576-1.339"/><path fill="url(#aK)" d="m42.142 98.77 2.094-1.037-1.21-.712-.95.431z"/><path fill="url(#aL)" d="m39.076 97.02 3.065 1.75-.065-1.317-3.087-1.814z"/><path fill="#fff" d="M25.432 50.302a2.824 2.824 0 0 1-2.828 2.828 2.824 2.824 0 0 1-2.828-2.828 2.824 2.824 0 0 1 2.828-2.828 2.84 2.84 0 0 1 2.828 2.828" opacity=".077"/><path fill="#fff" d="M25.28 50.302c0 1.49-1.208 2.699-2.676 2.699a2.7 2.7 0 0 1-2.699-2.699 2.68 2.68 0 0 1 2.699-2.677 2.677 2.677 0 0 1 2.677 2.677" opacity=".154"/><path fill="#fff" d="M25.13 50.302c0 1.404-1.145 2.548-2.526 2.548a2.55 2.55 0 0 1-2.548-2.548 2.534 2.534 0 0 1 2.548-2.526 2.53 2.53 0 0 1 2.526 2.526" opacity=".231"/><path fill="#fff" d="M24.979 50.302a2.39 2.39 0 0 1-2.397 2.397 2.405 2.405 0 0 1-2.396-2.397 2.373 2.373 0 0 1 2.396-2.374c1.317 0 2.397 1.057 2.397 2.374" opacity=".308"/><path fill="#fff" d="M24.828 50.302c0 1.23-.993 2.246-2.245 2.246a2.244 2.244 0 0 1-2.246-2.246c0-1.23.993-2.245 2.246-2.245 1.252.022 2.245 1.015 2.245 2.245" opacity=".385"/><path fill="#fff" d="M24.676 50.302a2.096 2.096 0 0 1-2.094 2.094 2.096 2.096 0 0 1-2.094-2.094c0-1.166.928-2.094 2.094-2.094 1.166.022 2.094.95 2.094 2.094" opacity=".462"/><path fill="#fff" d="M24.525 50.302a1.95 1.95 0 0 1-1.943 1.943 1.95 1.95 0 0 1-1.943-1.943c0-1.058.864-1.943 1.943-1.943 1.08.022 1.943.885 1.943 1.943" opacity=".538"/><path fill="#fff" d="M24.374 50.302c0 .993-.798 1.792-1.792 1.792a1.787 1.787 0 0 1-1.791-1.792c0-.993.798-1.792 1.791-1.792.994.022 1.792.82 1.792 1.792" opacity=".615"/><path fill="#fff" d="M24.223 50.302a1.64 1.64 0 1 1-1.64-1.64c.906.021 1.64.733 1.64 1.64" opacity=".692"/><path fill="#fff" d="M24.072 50.302c0 .82-.67 1.49-1.49 1.49s-1.49-.67-1.49-1.49.67-1.49 1.49-1.49c.82.022 1.49.67 1.49 1.49" opacity=".769"/><path fill="#fff" d="M23.92 50.302c0 .734-.604 1.339-1.338 1.339a1.345 1.345 0 0 1-1.338-1.339c0-.734.604-1.338 1.338-1.338.734.021 1.339.604 1.339 1.338" opacity=".846"/><path fill="#fff" d="M23.77 50.302c0 .648-.54 1.188-1.187 1.188a1.184 1.184 0 0 1-1.188-1.188c0-.647.518-1.187 1.188-1.187.647.021 1.187.54 1.187 1.187" opacity=".923"/><path fill="#fff" d="M23.618 50.302a1.036 1.036 0 1 1-1.036-1.036c.583.022 1.036.475 1.036 1.036"/><path fill="#fff" d="M22.345 49.46c.043.497-1.835 1.23-1.835 1.23s1.619-.366 2.115-.301c.454.064 1.641 3.432 1.641 3.432s-.82-3-.971-3.648c-.065-.26 2.936-1.512 2.936-1.512s-2.202.41-3.26.627c-.108.021-1.145-2.591-1.145-2.591s.476 2.267.519 2.763"/><path fill="#fff" d="M42.682 43.35c0 1.577-1.274 2.85-2.828 2.85a2.83 2.83 0 0 1-2.828-2.85 2.824 2.824 0 0 1 2.828-2.828c1.554-.021 2.828 1.253 2.828 2.829" opacity=".077"/><path fill="#fff" d="M42.53 43.35a2.7 2.7 0 0 1-2.698 2.7 2.68 2.68 0 0 1-2.677-2.7 2.677 2.677 0 0 1 2.677-2.676c1.468 0 2.698 1.187 2.698 2.677" opacity=".154"/><path fill="#fff" d="M42.38 43.35a2.55 2.55 0 0 1-2.548 2.548 2.534 2.534 0 0 1-2.526-2.547 2.53 2.53 0 0 1 2.526-2.526c1.403-.022 2.547 1.122 2.547 2.526" opacity=".231"/><path fill="#fff" d="M42.228 43.35a2.405 2.405 0 0 1-2.396 2.397 2.39 2.39 0 0 1-2.396-2.396 2.373 2.373 0 0 1 2.396-2.375 2.36 2.36 0 0 1 2.396 2.375" opacity=".308"/><path fill="#fff" d="M42.077 43.35a2.244 2.244 0 0 1-2.245 2.246 2.244 2.244 0 0 1-2.245-2.245c0-1.231.993-2.246 2.245-2.246a2.23 2.23 0 0 1 2.245 2.246" opacity=".385"/><path fill="#fff" d="M41.926 43.35a2.096 2.096 0 0 1-2.094 2.095 2.096 2.096 0 0 1-2.094-2.094c0-1.145.928-2.094 2.094-2.094s2.094.928 2.094 2.094" opacity=".462"/><path fill="#fff" d="M41.775 43.35a1.95 1.95 0 0 1-1.943 1.944 1.95 1.95 0 0 1-1.943-1.943c0-1.058.863-1.943 1.943-1.943s1.943.863 1.943 1.943" opacity=".538"/><path fill="#fff" d="M41.624 43.35c0 .994-.799 1.792-1.792 1.792a1.787 1.787 0 0 1-1.792-1.791c0-.993.799-1.792 1.792-1.792s1.792.799 1.792 1.792" opacity=".615"/><path fill="#fff" d="M41.473 43.35a1.64 1.64 0 1 1-3.28.002 1.64 1.64 0 0 1 3.28-.001" opacity=".692"/><path fill="#fff" d="M41.322 43.35c0 .821-.67 1.49-1.49 1.49s-1.49-.669-1.49-1.49c0-.82.67-1.489 1.49-1.489.842 0 1.49.67 1.49 1.49" opacity=".769"/><path fill="#fff" d="M41.17 43.35c0 .735-.604 1.34-1.338 1.34a1.345 1.345 0 0 1-1.339-1.34c0-.733.605-1.338 1.339-1.338.756 0 1.338.605 1.338 1.339" opacity=".846"/><path fill="#fff" d="M41.02 43.35c0 .648-.519 1.188-1.188 1.188a1.184 1.184 0 0 1-1.187-1.187c0-.648.518-1.188 1.187-1.188.67 0 1.188.518 1.188 1.188" opacity=".923"/><path fill="#fff" d="M40.868 43.35a1.036 1.036 0 1 1-1.036-1.036c.583 0 1.036.454 1.036 1.037"/><path fill="#fff" d="M39.594 42.509c.043.496-1.835 1.23-1.835 1.23s1.62-.367 2.116-.302c.453.065 1.64 3.433 1.64 3.433s-.82-3.001-.97-3.649c-.066-.259 2.935-1.511 2.935-1.511s-2.202.41-3.26.626c-.108.022-1.144-2.612-1.144-2.612s.475 2.267.518 2.785"/><path fill="#fff" d="M29.448 41.343a2.854 2.854 0 0 1-4.016.065 2.854 2.854 0 0 1-.064-4.016 2.854 2.854 0 0 1 4.015-.065c1.123 1.101 1.166 2.893.065 4.016" opacity=".077"/><path fill="#fff" d="M29.34 41.235a2.71 2.71 0 0 1-3.8.065c-1.058-1.037-1.1-2.742-.065-3.8a2.71 2.71 0 0 1 3.8-.065 2.67 2.67 0 0 1 .065 3.8" opacity=".154"/><path fill="#fff" d="M29.232 41.127a2.51 2.51 0 0 1-3.584.043 2.51 2.51 0 0 1-.043-3.584 2.51 2.51 0 0 1 3.584-.043c.993.993 1.014 2.59.043 3.584" opacity=".231"/><path fill="#fff" d="M29.124 41.04a2.365 2.365 0 0 1-3.368.044 2.365 2.365 0 0 1-.043-3.368 2.365 2.365 0 0 1 3.368-.043c.95.906.971 2.418.043 3.368" opacity=".308"/><path fill="#fff" d="M29.016 40.933a2.22 2.22 0 0 1-3.152.043 2.22 2.22 0 0 1-.043-3.152 2.22 2.22 0 0 1 3.152-.043c.885.842.906 2.267.043 3.152" opacity=".385"/><path fill="#fff" d="M28.908 40.825a2.08 2.08 0 0 1-2.936.043 2.105 2.105 0 0 1-.043-2.958 2.104 2.104 0 0 1 2.957-.043c.8.82.82 2.137.022 2.958" opacity=".462"/><path fill="#fff" d="M28.8 40.717c-.734.755-1.965.777-2.742.043-.755-.734-.777-1.965-.043-2.742.734-.755 1.965-.777 2.742-.043.777.756.777 1.986.043 2.742" opacity=".538"/><path fill="#fff" d="M28.692 40.609c-.69.712-1.814.712-2.526.043a1.78 1.78 0 0 1-.043-2.526 1.78 1.78 0 0 1 2.526-.043 1.78 1.78 0 0 1 .043 2.526" opacity=".615"/><path fill="#fff" d="M28.584 40.5a1.636 1.636 0 0 1-2.31.044 1.636 1.636 0 0 1-.043-2.31 1.636 1.636 0 0 1 2.31-.043c.648.626.67 1.662.043 2.31" opacity=".692"/><path fill="#fff" d="M28.476 40.393a1.47 1.47 0 0 1-2.094.021 1.47 1.47 0 0 1-.021-2.094 1.473 1.473 0 0 1 2.094-.021c.583.583.583 1.511.021 2.094" opacity=".769"/><path fill="#fff" d="M28.369 40.307c-.519.518-1.36.54-1.879.021-.518-.518-.54-1.36-.021-1.878.518-.518 1.36-.54 1.878-.022.518.497.54 1.339.021 1.879" opacity=".846"/><path fill="#fff" d="M28.26 40.199a1.166 1.166 0 0 1-1.662.021 1.166 1.166 0 0 1-.022-1.662 1.167 1.167 0 0 1 1.663-.022c.453.432.474 1.188.021 1.663" opacity=".923"/><path fill="#fff" d="M28.152 40.09c-.388.41-1.036.41-1.446.022s-.41-1.036-.022-1.446a1.023 1.023 0 0 1 1.468 1.425"/><path fill="#fff" d="M27.829 38.601c-.324.389-2.181-.389-2.181-.389s1.425.864 1.727 1.253c.28.367-1.209 3.605-1.209 3.605s1.49-2.72 1.835-3.303c.13-.238 3.174.95 3.174.95s-1.878-1.23-2.785-1.814c-.108-.064.993-2.677.993-2.677s-1.252 1.986-1.555 2.375"/><path fill="#fff" d="M39.638 39.054a1.7 1.7 0 0 1-2.397.044 1.7 1.7 0 0 1-.043-2.397 1.7 1.7 0 0 1 2.396-.043c.67.67.691 1.727.044 2.396" opacity=".077"/><path fill="#fff" d="M39.573 39.011a1.623 1.623 0 0 1-2.267.043 1.623 1.623 0 0 1-.043-2.266 1.623 1.623 0 0 1 2.266-.044c.648.605.67 1.62.043 2.267" opacity=".154"/><path fill="#fff" d="M39.508 38.946a1.505 1.505 0 0 1-2.137.022 1.505 1.505 0 0 1-.022-2.137 1.505 1.505 0 0 1 2.137-.022c.583.583.605 1.533.022 2.137" opacity=".231"/><path fill="#fff" d="M39.443 38.882a1.407 1.407 0 0 1-2.008.021 1.407 1.407 0 0 1-.022-2.008 1.407 1.407 0 0 1 2.008-.021c.562.54.562 1.446.022 2.008" opacity=".308"/><path fill="#fff" d="M39.378 38.817c-.518.518-1.36.54-1.878.022-.518-.519-.54-1.36-.021-1.879.518-.518 1.36-.54 1.878-.021.518.496.54 1.338.021 1.878" opacity=".385"/><path fill="#fff" d="M39.314 38.752a1.23 1.23 0 0 1-1.75.022 1.23 1.23 0 0 1-.02-1.749 1.23 1.23 0 0 1 1.748-.021 1.23 1.23 0 0 1 .021 1.748" opacity=".462"/><path fill="#fff" d="M39.248 38.687c-.453.454-1.165.475-1.619.022s-.475-1.166-.021-1.62a1.134 1.134 0 0 1 1.619-.02c.453.431.475 1.165.021 1.618" opacity=".538"/><path fill="#fff" d="M39.184 38.623c-.41.41-1.08.431-1.511.021-.41-.41-.432-1.08-.022-1.49s1.08-.431 1.49-.021c.453.41.453 1.08.043 1.49" opacity=".615"/><path fill="#fff" d="M39.12 38.558c-.368.389-.994.388-1.383.021-.388-.367-.388-.993-.021-1.381.367-.389.993-.389 1.381-.022a.984.984 0 0 1 .022 1.382" opacity=".692"/><path fill="#fff" d="M39.055 38.493c-.346.346-.907.367-1.253.022-.345-.346-.367-.907-.021-1.252.345-.346.907-.367 1.252-.022s.367.907.022 1.252" opacity=".769"/><path fill="#fff" d="M38.99 38.428a.79.79 0 0 1-1.123.022.81.81 0 0 1-.021-1.123c.302-.324.798-.324 1.122-.021.324.324.324.82.022 1.122" opacity=".846"/><path fill="#fff" d="M38.925 38.385a.71.71 0 0 1-.993.022.71.71 0 0 1-.022-.993c.26-.281.713-.281.993-.022a.69.69 0 0 1 .022.993" opacity=".923"/><path fill="#fff" d="M38.86 38.32c-.237.238-.626.26-.863.022-.238-.237-.26-.626-.022-.864.238-.237.626-.259.864-.021.259.216.259.604.021.863"/><path fill="#fff" d="M38.666 37.435c-.194.238-1.295-.237-1.295-.237s.841.518 1.036.755c.173.216-.713 2.16-.713 2.16s.886-1.62 1.101-1.965c.087-.13 1.879.561 1.879.561s-1.123-.734-1.663-1.08c-.064-.043.583-1.597.583-1.597s-.734 1.166-.928 1.403"/><path fill="#fff" d="M37.047 58.55c-.777.798-2.03.82-2.828.042a2.007 2.007 0 0 1-.043-2.828c.755-.799 2.03-.799 2.828-.043.799.777.82 2.03.043 2.828" opacity=".077"/><path fill="#fff" d="M36.983 58.463a1.903 1.903 0 0 1-2.677.043 1.903 1.903 0 0 1-.043-2.677 1.903 1.903 0 0 1 2.677-.043c.755.755.755 1.943.043 2.677" opacity=".154"/><path fill="#fff" d="M36.896 58.398a1.78 1.78 0 0 1-2.526.043c-.712-.69-.712-1.813-.043-2.526.691-.712 1.814-.712 2.526-.043a1.78 1.78 0 0 1 .043 2.526" opacity=".231"/><path fill="#fff" d="M36.831 58.333a1.675 1.675 0 0 1-2.375.044c-.669-.648-.669-1.706-.043-2.375.648-.67 1.706-.67 2.375-.044.67.648.691 1.706.043 2.375" opacity=".308"/><path fill="#fff" d="M36.745 58.247a1.57 1.57 0 0 1-2.223.043 1.57 1.57 0 0 1-.022-2.224c.604-.626 1.597-.626 2.224-.043a1.59 1.59 0 0 1 .021 2.224" opacity=".385"/><path fill="#fff" d="M36.68 58.182a1.447 1.447 0 0 1-2.072.022c-.583-.562-.583-1.49-.022-2.073s1.49-.583 2.073-.021c.56.56.583 1.49.021 2.072" opacity=".462"/><path fill="#fff" d="M36.594 58.096a1.34 1.34 0 0 1-1.921.021 1.34 1.34 0 0 1-.022-1.921c.518-.54 1.382-.54 1.921-.022.54.54.54 1.382.022 1.922" opacity=".538"/><path fill="#fff" d="M36.53 58.031a1.24 1.24 0 0 1-1.771.022 1.24 1.24 0 0 1-.022-1.77c.475-.497 1.274-.497 1.77-.022.476.475.497 1.273.022 1.77" opacity=".615"/><path fill="#fff" d="M36.443 57.966a1.134 1.134 0 0 1-1.62.022 1.134 1.134 0 0 1-.021-1.62c.432-.453 1.166-.453 1.619-.02.453.43.475 1.165.022 1.618" opacity=".692"/><path fill="#fff" d="M36.378 57.88c-.41.41-1.058.432-1.468.021-.41-.41-.432-1.057-.021-1.468a1.03 1.03 0 0 1 1.468-.021c.41.41.41 1.058.021 1.468" opacity=".769"/><path fill="#fff" d="M36.292 57.815c-.367.367-.95.389-1.317.022s-.389-.95-.022-1.317.95-.389 1.317-.022c.367.346.389.95.022 1.317" opacity=".846"/><path fill="#fff" d="M36.227 57.729c-.324.324-.842.345-1.166.021s-.345-.842-.022-1.165c.324-.324.842-.346 1.166-.022a.84.84 0 0 1 .022 1.166" opacity=".923"/><path fill="#fff" d="M36.14 57.664c-.28.28-.734.302-1.014.022-.281-.281-.303-.734-.022-1.015s.734-.302 1.015-.022c.302.26.302.734.021 1.015"/><path fill="#fff" d="M35.903 56.606c-.216.28-1.533-.28-1.533-.28s.993.604 1.21.885c.193.259-.864 2.547-.864 2.547s1.057-1.921 1.295-2.31c.108-.173 2.223.67 2.223.67s-1.316-.864-1.964-1.274c-.065-.044.69-1.879.69-1.879s-.82 1.382-1.057 1.641"/><path fill="#fff" d="M33.96 51.598a2.854 2.854 0 0 1-4.016.064 2.854 2.854 0 0 1-.065-4.015c1.08-1.123 2.893-1.144 4.016-.065a2.854 2.854 0 0 1 .065 4.016" opacity=".077"/><path fill="#fff" d="M33.852 51.49a2.71 2.71 0 0 1-3.8.064 2.71 2.71 0 0 1-.065-3.8c1.037-1.057 2.742-1.1 3.8-.064s1.101 2.742.065 3.8" opacity=".154"/><path fill="#fff" d="M33.744 51.382a2.51 2.51 0 0 1-3.584.043 2.51 2.51 0 0 1-.044-3.584 2.51 2.51 0 0 1 3.584-.043 2.55 2.55 0 0 1 .043 3.584" opacity=".231"/><path fill="#fff" d="M33.636 51.274c-.929.95-2.44.971-3.368.043a2.365 2.365 0 0 1-.044-3.368 2.365 2.365 0 0 1 3.368-.043c.929.928.95 2.44.044 3.368" opacity=".308"/><path fill="#fff" d="M33.528 51.166a2.22 2.22 0 0 1-3.152.043 2.22 2.22 0 0 1-.044-3.152 2.22 2.22 0 0 1 3.152-.043c.886.863.907 2.267.044 3.152" opacity=".385"/><path fill="#fff" d="M33.42 51.08a2.104 2.104 0 0 1-2.958.043 2.08 2.08 0 0 1-.043-2.936 2.08 2.08 0 0 1 2.936-.044c.842.777.864 2.094.065 2.936" opacity=".462"/><path fill="#fff" d="M33.312 50.972c-.734.755-1.965.777-2.742.043s-.777-1.965-.043-2.742c.734-.756 1.965-.777 2.742-.043.755.755.777 1.964.043 2.742" opacity=".538"/><path fill="#fff" d="M33.204 50.864c-.69.712-1.814.712-2.526.043-.712-.691-.712-1.814-.043-2.526.69-.713 1.813-.713 2.526-.043a1.78 1.78 0 0 1 .043 2.526" opacity=".615"/><path fill="#fff" d="M33.096 50.756a1.636 1.636 0 0 1-2.31.043 1.636 1.636 0 0 1-.043-2.31 1.636 1.636 0 0 1 2.31-.043c.647.626.669 1.662.043 2.31" opacity=".692"/><path fill="#fff" d="M32.988 50.648a1.473 1.473 0 0 1-2.094.021 1.47 1.47 0 0 1-.021-2.094 1.473 1.473 0 0 1 2.094-.022c.561.583.583 1.512.021 2.095" opacity=".769"/><path fill="#fff" d="M32.88 50.54c-.518.518-1.36.54-1.878.021-.518-.518-.54-1.36-.021-1.878.518-.518 1.36-.54 1.878-.022a1.35 1.35 0 0 1 .021 1.879" opacity=".846"/><path fill="#fff" d="M32.772 50.432a1.167 1.167 0 0 1-1.662.021 1.167 1.167 0 0 1-.022-1.662 1.167 1.167 0 0 1 1.662-.022c.454.454.475 1.21.022 1.663" opacity=".923"/><path fill="#fff" d="M32.664 50.345a1.023 1.023 0 1 1-.022-1.446c.41.367.41 1.036.022 1.446"/><path fill="#fff" d="M32.34 48.856c-.324.388-2.18-.389-2.18-.389s1.425.864 1.727 1.252c.28.367-1.21 3.606-1.21 3.606s1.49-2.72 1.836-3.303c.151-.238 3.174.95 3.174.95s-1.879-1.231-2.785-1.814c-.108-.065.993-2.677.993-2.677s-1.253 1.965-1.555 2.375"/><path fill="#fff" d="M57.276 56.714a2.84 2.84 0 0 1-3.454 2.03 2.84 2.84 0 0 1-2.03-3.455 2.84 2.84 0 0 1 3.455-2.029 2.84 2.84 0 0 1 2.029 3.454" opacity=".077"/><path fill="#fff" d="M57.125 56.693c-.367 1.425-1.835 2.288-3.282 1.921-1.425-.367-2.288-1.835-1.921-3.281s1.835-2.289 3.281-1.922a2.663 2.663 0 0 1 1.922 3.282" opacity=".154"/><path fill="#fff" d="M56.996 56.65c-.346 1.36-1.75 2.158-3.088 1.813-1.36-.346-2.159-1.727-1.813-3.087s1.727-2.16 3.087-1.814a2.54 2.54 0 0 1 1.813 3.087" opacity=".231"/><path fill="#fff" d="M56.844 56.606c-.324 1.274-1.64 2.03-2.914 1.706s-2.03-1.641-1.706-2.915a2.377 2.377 0 0 1 2.915-1.705 2.404 2.404 0 0 1 1.705 2.914" opacity=".308"/><path fill="#fff" d="M56.693 56.563c-.302 1.187-1.533 1.921-2.72 1.598-1.187-.303-1.9-1.533-1.598-2.72.303-1.188 1.533-1.922 2.72-1.598 1.188.302 1.9 1.533 1.598 2.72" opacity=".385"/><path fill="#fff" d="M56.542 56.542a2.064 2.064 0 0 1-2.547 1.49 2.064 2.064 0 0 1-1.49-2.548 2.064 2.064 0 0 1 2.548-1.49 2.064 2.064 0 0 1 1.49 2.547" opacity=".462"/><path fill="#fff" d="M56.413 56.498a1.91 1.91 0 0 1-2.354 1.382 1.91 1.91 0 0 1-1.381-2.353 1.91 1.91 0 0 1 2.353-1.382c1.015.26 1.64 1.317 1.382 2.353" opacity=".538"/><path fill="#fff" d="M56.261 56.455c-.259.95-1.23 1.533-2.18 1.274a1.78 1.78 0 0 1-1.274-2.18 1.77 1.77 0 0 1 2.18-1.274 1.804 1.804 0 0 1 1.274 2.18" opacity=".615"/><path fill="#fff" d="M56.11 56.412c-.237.864-1.122 1.403-1.986 1.166s-1.403-1.123-1.166-1.986a1.624 1.624 0 0 1 1.986-1.166c.864.237 1.404 1.122 1.166 1.986" opacity=".692"/><path fill="#fff" d="M55.959 56.369a1.475 1.475 0 0 1-1.814 1.058 1.475 1.475 0 0 1-1.058-1.814 1.475 1.475 0 0 1 1.814-1.058c.799.216 1.274 1.037 1.058 1.814" opacity=".769"/><path fill="#fff" d="M55.808 56.347c-.194.713-.907 1.144-1.619.95s-1.144-.907-.95-1.62a1.31 1.31 0 0 1 1.62-.949c.712.173 1.143.907.95 1.62" opacity=".846"/><path fill="#fff" d="M55.679 56.304a1.18 1.18 0 0 1-1.447.842 1.18 1.18 0 0 1-.842-1.447c.173-.626.799-1.014 1.425-.841.648.172 1.015.82.864 1.446" opacity=".923"/><path fill="#fff" d="M55.527 56.26c-.15.54-.712.886-1.252.735s-.885-.713-.734-1.252c.151-.54.713-.885 1.252-.734.54.15.886.712.734 1.252"/><path fill="#fff" d="M54.512 55.138c-.086.497-2.072.734-2.072.734s1.662.043 2.116.238c.431.172.733 3.735.733 3.735s-.043-3.11-.021-3.779c0-.28 3.238-.733 3.238-.733s-2.245-.152-3.324-.216c-.108 0-.454-2.807-.454-2.807s-.13 2.332-.216 2.828"/><path fill="#fff" d="M49.375 62.586a2.854 2.854 0 0 1-4.016.065 2.854 2.854 0 0 1-.065-4.016 2.854 2.854 0 0 1 4.016-.064c1.122 1.1 1.165 2.893.064 4.015" opacity=".077"/><path fill="#fff" d="M49.267 62.478a2.71 2.71 0 0 1-3.8.065 2.71 2.71 0 0 1-.065-3.8c1.036-1.057 2.742-1.1 3.8-.064a2.67 2.67 0 0 1 .065 3.8" opacity=".154"/><path fill="#fff" d="M49.159 62.37a2.51 2.51 0 0 1-3.584.044 2.51 2.51 0 0 1-.043-3.584 2.51 2.51 0 0 1 3.584-.043c.993.993 1.014 2.59.043 3.583" opacity=".231"/><path fill="#fff" d="M49.05 62.284a2.365 2.365 0 0 1-3.367.043 2.365 2.365 0 0 1-.044-3.368 2.365 2.365 0 0 1 3.368-.043c.95.907.972 2.418.043 3.368" opacity=".308"/><path fill="#fff" d="M48.943 62.176a2.22 2.22 0 0 1-3.152.043 2.22 2.22 0 0 1-.044-3.152 2.22 2.22 0 0 1 3.152-.043c.885.842.907 2.267.044 3.152" opacity=".385"/><path fill="#fff" d="M48.835 62.068a2.104 2.104 0 0 1-2.958.043 2.08 2.08 0 0 1-.043-2.936 2.104 2.104 0 0 1 2.957-.043c.82.777.842 2.116.044 2.936" opacity=".462"/><path fill="#fff" d="M48.727 61.96c-.734.756-1.965.777-2.742.043s-.777-1.964-.043-2.741c.755-.778 1.964-.778 2.742-.044.777.756.777 1.965.043 2.742" opacity=".538"/><path fill="#fff" d="M48.619 61.852c-.691.713-1.814.713-2.526.044a1.797 1.797 0 0 1-.043-2.526c.69-.713 1.813-.713 2.526-.044a1.78 1.78 0 0 1 .043 2.526" opacity=".615"/><path fill="#fff" d="M48.51 61.744a1.636 1.636 0 0 1-2.31.044 1.636 1.636 0 0 1-.043-2.31 1.636 1.636 0 0 1 2.31-.044c.648.626.67 1.663.044 2.31" opacity=".692"/><path fill="#fff" d="M48.403 61.636a1.47 1.47 0 0 1-2.094.022 1.47 1.47 0 0 1-.022-2.094 1.47 1.47 0 0 1 2.095-.022c.582.583.582 1.511.021 2.094" opacity=".769"/><path fill="#fff" d="M48.295 61.55c-.518.518-1.36.54-1.878.022-.518-.519-.54-1.36-.022-1.879s1.36-.54 1.879-.021c.518.496.54 1.338.021 1.878" opacity=".846"/><path fill="#fff" d="M48.187 61.442a1.166 1.166 0 0 1-1.662.022 1.166 1.166 0 0 1-.022-1.663 1.167 1.167 0 0 1 1.662-.021c.454.432.475 1.187.022 1.662" opacity=".923"/><path fill="#fff" d="M48.079 61.334a1.023 1.023 0 1 1-1.468-1.425 1.023 1.023 0 0 1 1.468 1.425"/><path fill="#fff" d="M47.755 59.845c-.324.388-2.18-.389-2.18-.389s1.424.863 1.727 1.252c.28.367-1.21 3.606-1.21 3.606s1.49-2.72 1.836-3.304c.15-.237 3.173.95 3.173.95s-1.878-1.23-2.785-1.813c-.108-.065.993-2.677.993-2.677s-1.252 1.986-1.554 2.375"/><path fill="#fff" d="M49.439 53.67a1.88 1.88 0 0 1-1.598 2.137 1.88 1.88 0 0 1-2.137-1.597 1.88 1.88 0 0 1 1.597-2.137c1.037-.13 1.986.583 2.138 1.597" opacity=".077"/><path fill="#fff" d="M49.352 53.692c.152.971-.54 1.878-1.51 2.03a1.78 1.78 0 0 1-2.03-1.512 1.78 1.78 0 0 1 1.511-2.03 1.814 1.814 0 0 1 2.03 1.512" opacity=".154"/><path fill="#fff" d="M49.244 53.713a1.7 1.7 0 0 1-1.425 1.922 1.7 1.7 0 0 1-1.92-1.425 1.7 1.7 0 0 1 1.424-1.922c.928-.13 1.792.497 1.921 1.425" opacity=".231"/><path fill="#fff" d="M49.137 53.735a1.582 1.582 0 1 1-1.792-1.339 1.566 1.566 0 0 1 1.792 1.339" opacity=".308"/><path fill="#fff" d="M49.05 53.735c.13.82-.431 1.576-1.252 1.684a1.46 1.46 0 0 1-1.684-1.252 1.46 1.46 0 0 1 1.253-1.684 1.514 1.514 0 0 1 1.683 1.252" opacity=".385"/><path fill="#fff" d="M48.942 53.757a1.39 1.39 0 0 1-1.165 1.576 1.39 1.39 0 0 1-1.576-1.166 1.39 1.39 0 0 1 1.165-1.576 1.39 1.39 0 0 1 1.576 1.166" opacity=".462"/><path fill="#fff" d="M48.856 53.778a1.293 1.293 0 0 1-1.08 1.468 1.293 1.293 0 0 1-1.468-1.08 1.293 1.293 0 0 1 1.08-1.467 1.277 1.277 0 0 1 1.468 1.08" opacity=".538"/><path fill="#fff" d="M48.748 53.778c.086.648-.346 1.252-.993 1.339-.648.086-1.253-.346-1.339-.993-.086-.648.346-1.253.993-1.339.648-.086 1.252.346 1.339.993" opacity=".615"/><path fill="#fff" d="M48.661 53.8a1.09 1.09 0 0 1-.906 1.23 1.09 1.09 0 0 1-1.23-.906 1.09 1.09 0 0 1 .906-1.231c.583-.108 1.122.302 1.23.907" opacity=".692"/><path fill="#fff" d="M48.554 53.821a.98.98 0 0 1-.82 1.123.98.98 0 0 1-1.123-.82c-.087-.54.302-1.037.82-1.123.54-.108 1.036.28 1.123.82" opacity=".769"/><path fill="#fff" d="M48.446 53.821c.064.475-.26.929-.734.993a.91.91 0 0 1-1.015-.734.91.91 0 0 1 .755-1.014.893.893 0 0 1 .994.755" opacity=".846"/><path fill="#fff" d="M48.36 53.843a.78.78 0 0 1-.648.885.78.78 0 0 1-.886-.67.78.78 0 0 1 .67-.884c.388-.065.799.237.863.669" opacity=".923"/><path fill="#fff" d="M48.252 53.865c.064.366-.195.712-.583.777-.367.064-.713-.195-.777-.583-.065-.367.194-.713.582-.777a.67.67 0 0 1 .778.583"/><path fill="#fff" d="M47.345 53.433c.086.324-1.08.993-1.08.993s1.037-.41 1.36-.41c.303 0 1.425 2.094 1.425 2.094s-.841-1.9-.993-2.31c-.064-.173 1.792-1.296 1.792-1.296l-2.072.734c-.065.022-1.015-1.597-1.015-1.597s.497 1.468.583 1.792"/><path fill="#fff" d="M30.095 53.13a1.88 1.88 0 0 1-1.597 2.138 1.88 1.88 0 0 1-2.138-1.598 1.88 1.88 0 0 1 1.598-2.137 1.89 1.89 0 0 1 2.137 1.597" opacity=".077"/><path fill="#fff" d="M29.987 53.13c.152.972-.54 1.879-1.51 2.03a1.78 1.78 0 0 1-2.03-1.511c-.151-.972.54-1.879 1.511-2.03.993-.13 1.9.54 2.03 1.511" opacity=".154"/><path fill="#fff" d="M29.901 53.152a1.7 1.7 0 0 1-1.425 1.921 1.7 1.7 0 0 1-1.921-1.425 1.7 1.7 0 0 1 1.425-1.92 1.7 1.7 0 0 1 1.921 1.424" opacity=".231"/><path fill="#fff" d="M29.793 53.174A1.582 1.582 0 1 1 28 51.835a1.566 1.566 0 0 1 1.792 1.339" opacity=".308"/><path fill="#fff" d="M29.707 53.174a1.46 1.46 0 0 1-1.253 1.684 1.46 1.46 0 0 1-1.684-1.253 1.46 1.46 0 0 1 1.253-1.684 1.514 1.514 0 0 1 1.683 1.253" opacity=".385"/><path fill="#fff" d="M29.599 53.195a1.39 1.39 0 0 1-1.166 1.576 1.39 1.39 0 0 1-1.576-1.166 1.39 1.39 0 0 1 1.166-1.576 1.39 1.39 0 0 1 1.576 1.166" opacity=".462"/><path fill="#fff" d="M29.49 53.217a1.293 1.293 0 0 1-1.079 1.468 1.293 1.293 0 0 1-1.468-1.08 1.293 1.293 0 0 1 1.08-1.468c.712-.108 1.381.367 1.468 1.08" opacity=".538"/><path fill="#fff" d="M29.404 53.217c.087.648-.345 1.252-.993 1.338s-1.252-.345-1.338-.993.345-1.252.993-1.338a1.2 1.2 0 0 1 1.338.993" opacity=".615"/><path fill="#fff" d="M29.296 53.238a1.09 1.09 0 0 1-.906 1.23 1.09 1.09 0 0 1-1.23-.906 1.09 1.09 0 0 1 .906-1.23c.604-.087 1.144.302 1.23.906" opacity=".692"/><path fill="#fff" d="M29.21 53.26a.98.98 0 0 1-.82 1.123c-.54.086-1.036-.303-1.123-.82a.995.995 0 0 1 .82-1.123.98.98 0 0 1 1.123.82" opacity=".769"/><path fill="#fff" d="M29.102 53.26a.91.91 0 0 1-.734 1.015.91.91 0 0 1-1.014-.734.91.91 0 0 1 .733-1.015c.497-.065.95.259 1.015.734" opacity=".846"/><path fill="#fff" d="M28.994 53.282a.78.78 0 0 1-.669.885.78.78 0 0 1-.885-.67.78.78 0 0 1 .67-.885.78.78 0 0 1 .884.67" opacity=".923"/><path fill="#fff" d="M28.908 53.303c.064.367-.195.713-.583.777-.367.065-.713-.194-.777-.583-.065-.367.194-.712.583-.777.366-.065.712.194.777.583"/><path fill="#fff" d="M27.98 52.871c.086.324-1.08.993-1.08.993s1.036-.41 1.36-.41c.302 0 1.425 2.094 1.425 2.094s-.842-1.9-.993-2.31c-.065-.172 1.792-1.295 1.792-1.295s-1.404.497-2.094.734c-.065.022-1.015-1.598-1.015-1.598s.54 1.468.604 1.792"/><path fill="#fff" d="M53.152 49.115a1.903 1.903 0 0 1-2.677.043 1.903 1.903 0 0 1-.043-2.677 1.903 1.903 0 0 1 2.677-.043c.734.734.755 1.921.043 2.677" opacity=".077"/><path fill="#fff" d="M53.066 49.029c-.691.712-1.814.712-2.526.043a1.78 1.78 0 0 1-.043-2.526 1.78 1.78 0 0 1 2.526-.043c.712.69.734 1.835.043 2.526" opacity=".154"/><path fill="#fff" d="M53.001 48.964a1.676 1.676 0 0 1-2.375.043 1.675 1.675 0 0 1-.043-2.375 1.675 1.675 0 0 1 2.375-.043c.67.648.69 1.706.043 2.375" opacity=".231"/><path fill="#fff" d="M52.936 48.899a1.597 1.597 0 0 1-2.245.043 1.597 1.597 0 0 1-.043-2.245 1.597 1.597 0 0 1 2.245-.043c.626.604.648 1.619.043 2.245" opacity=".308"/><path fill="#fff" d="M52.85 48.834a1.47 1.47 0 0 1-2.094.022c-.583-.583-.605-1.512-.043-2.094.583-.583 1.511-.605 2.094-.044a1.48 1.48 0 0 1 .043 2.116" opacity=".385"/><path fill="#fff" d="M52.785 48.77c-.54.54-1.403.56-1.964.021a1.394 1.394 0 0 1-.022-1.964 1.394 1.394 0 0 1 1.965-.022c.54.518.561 1.403.021 1.965" opacity=".462"/><path fill="#fff" d="M52.72 48.683a1.27 1.27 0 0 1-1.813.022 1.27 1.27 0 0 1-.021-1.814 1.27 1.27 0 0 1 1.813-.021c.497.496.518 1.317.022 1.813" opacity=".538"/><path fill="#fff" d="M52.634 48.618c-.453.475-1.209.475-1.684.022s-.475-1.21-.022-1.684c.454-.475 1.21-.475 1.685-.022.474.475.474 1.21.021 1.684" opacity=".615"/><path fill="#fff" d="M52.57 48.554c-.411.431-1.102.431-1.534.021s-.431-1.1-.021-1.533c.41-.431 1.1-.431 1.532-.021s.432 1.1.022 1.533" opacity=".692"/><path fill="#fff" d="M52.505 48.489a.984.984 0 0 1-1.382.021c-.389-.388-.41-.993-.022-1.381a.99.99 0 0 1 1.404-.022c.367.367.367.993 0 1.382" opacity=".769"/><path fill="#fff" d="M52.418 48.402c-.345.346-.907.367-1.252.022s-.367-.907-.022-1.252c.346-.346.907-.367 1.253-.022a.867.867 0 0 1 .021 1.252" opacity=".846"/><path fill="#fff" d="M52.353 48.338c-.302.302-.799.323-1.1.021-.303-.302-.325-.799-.022-1.1.302-.303.798-.325 1.1-.022a.763.763 0 0 1 .022 1.1" opacity=".923"/><path fill="#fff" d="M52.289 48.273a.685.685 0 0 1-.972.021.684.684 0 0 1-.021-.971c.259-.28.69-.28.971-.022.28.26.28.691.022.972"/><path fill="#fff" d="M52.073 47.28c-.216.259-1.447-.26-1.447-.26s.95.584 1.145.843c.194.237-.8 2.396-.8 2.396s.994-1.813 1.232-2.18c.086-.152 2.115.626 2.115.626s-1.252-.82-1.856-1.21c-.065-.042.647-1.77.647-1.77s-.842 1.296-1.036 1.555"/><path fill="#fff" d="M18.826 43.092a1.827 1.827 0 0 1-2.03 1.619 1.827 1.827 0 0 1-1.618-2.03 1.827 1.827 0 0 1 2.029-1.619 1.813 1.813 0 0 1 1.62 2.03" opacity=".077"/><path fill="#fff" d="M18.74 43.07a1.743 1.743 0 0 1-1.922 1.533 1.743 1.743 0 0 1-1.533-1.922c.108-.95.972-1.64 1.922-1.532s1.64.971 1.533 1.921" opacity=".154"/><path fill="#fff" d="M18.653 43.07a1.63 1.63 0 0 1-1.813 1.446 1.646 1.646 0 0 1-1.447-1.813 1.63 1.63 0 0 1 1.814-1.447 1.66 1.66 0 0 1 1.446 1.814" opacity=".231"/><path fill="#fff" d="M18.545 43.048c-.086.842-.863 1.447-1.705 1.36s-1.447-.863-1.36-1.705.842-1.447 1.705-1.36a1.56 1.56 0 0 1 1.36 1.705" opacity=".308"/><path fill="#fff" d="M18.459 43.048a1.44 1.44 0 0 1-1.598 1.274 1.44 1.44 0 0 1-1.273-1.598 1.44 1.44 0 0 1 1.597-1.273c.777.086 1.36.799 1.274 1.597" opacity=".385"/><path fill="#fff" d="M18.351 43.027a1.353 1.353 0 0 1-1.49 1.187 1.353 1.353 0 0 1-1.187-1.49 1.353 1.353 0 0 1 1.49-1.187 1.353 1.353 0 0 1 1.187 1.49" opacity=".462"/><path fill="#fff" d="M18.265 43.027c-.087.69-.691 1.187-1.382 1.1-.69-.064-1.166-.69-1.101-1.38.086-.692.69-1.188 1.382-1.102.669.065 1.165.69 1.1 1.382" opacity=".538"/><path fill="#fff" d="M18.157 43.005c-.065.626-.648 1.08-1.274 1.015s-1.08-.648-1.015-1.274a1.15 1.15 0 0 1 1.274-1.015c.626.087 1.08.648 1.015 1.274" opacity=".615"/><path fill="#fff" d="M18.07 43.005a1.05 1.05 0 0 1-1.166.929 1.05 1.05 0 0 1-.928-1.166 1.05 1.05 0 0 1 1.166-.929c.561.065.993.583.928 1.166" opacity=".692"/><path fill="#fff" d="M17.962 42.984c-.064.518-.54.906-1.058.842s-.906-.54-.841-1.058c.064-.518.54-.907 1.057-.842.518.064.907.54.842 1.058" opacity=".769"/><path fill="#fff" d="M17.876 42.984a.84.84 0 0 1-.95.755c-.475-.043-.799-.475-.755-.95a.84.84 0 0 1 .95-.755c.453.043.798.475.755.95" opacity=".846"/><path fill="#fff" d="M17.768 42.962a.77.77 0 0 1-.842.67.77.77 0 0 1-.669-.843.77.77 0 0 1 .842-.669.77.77 0 0 1 .67.842" opacity=".923"/><path fill="#fff" d="M17.682 42.962a.66.66 0 0 1-.734.583.66.66 0 0 1-.583-.734.66.66 0 0 1 .734-.583.674.674 0 0 1 .583.734"/><path fill="#fff" d="M16.926 42.314c0 .324-1.252.67-1.252.67s1.058-.13 1.381-.044c.281.065.8 2.31.8 2.31s-.325-1.986-.368-2.396c-.021-.173 1.986-.755 1.986-.755s-1.446.107-2.137.172c-.086 0-.561-1.748-.561-1.748s.15 1.467.15 1.791"/><defs><linearGradient id="a" x1="29.123" x2="74.466" y1="44.284" y2="44.284" gradientUnits="userSpaceOnUse"><stop stop-color="#fae848"/><stop offset=".654" stop-color="#facc3d"/></linearGradient><linearGradient id="b" x1="28.804" x2="3.396" y1="30.814" y2="52.134" gradientUnits="userSpaceOnUse"><stop stop-color="#fae848"/><stop offset=".654" stop-color="#facc3d"/></linearGradient><linearGradient id="c" x1="37.23" x2="45.18" y1="36.544" y2="36.544" gradientUnits="userSpaceOnUse"><stop stop-color="#ffd612"/><stop offset=".654" stop-color="#fa0"/></linearGradient><linearGradient id="d" x1="38.388" x2="44.021" y1="35.943" y2="35.943" gradientUnits="userSpaceOnUse"><stop stop-color="#fff654"/><stop offset=".654" stop-color="#ffd947"/></linearGradient><linearGradient id="e" x1="60.283" x2="68.234" y1="49.718" y2="49.718" gradientUnits="userSpaceOnUse"><stop stop-color="#ffd612"/><stop offset=".654" stop-color="#fa0"/></linearGradient><linearGradient id="f" x1="61.442" x2="67.076" y1="49.116" y2="49.116" gradientUnits="userSpaceOnUse"><stop stop-color="#fff654"/><stop offset=".654" stop-color="#ffd947"/></linearGradient><linearGradient id="g" x1="61.368" x2="73.841" y1="10.898" y2="10.898" gradientUnits="userSpaceOnUse"><stop stop-color="#fff654"/><stop offset=".654" stop-color="#ffd947"/></linearGradient><linearGradient id="h" x1="75.375" x2="93.074" y1="41.25" y2="41.25" gradientUnits="userSpaceOnUse"><stop stop-color="#c67602"/><stop offset=".654" stop-color="#dd9300"/></linearGradient><linearGradient id="i" x1="29.841" x2="87.733" y1="27.697" y2="27.697" gradientUnits="userSpaceOnUse"><stop stop-color="#a1d7de"/><stop offset=".654" stop-color="#77b4bd"/></linearGradient><linearGradient id="j" x1="61.806" x2="45.742" y1="34.536" y2="48.015" gradientUnits="userSpaceOnUse"><stop stop-color="#fff654"/><stop offset=".654" stop-color="#ffd947"/></linearGradient><linearGradient id="k" x1="87.733" x2="72.69" y1="40.86" y2="40.86" gradientUnits="userSpaceOnUse"><stop stop-color="#fff654"/><stop offset=".654" stop-color="#ffd947"/></linearGradient><linearGradient id="l" x1="29.841" x2="44.623" y1="14.535" y2="14.535" gradientUnits="userSpaceOnUse"><stop stop-color="#fff654"/><stop offset=".654" stop-color="#ffd947"/></linearGradient><linearGradient id="m" x1="42.134" x2="87.733" y1="14.535" y2="14.535" gradientUnits="userSpaceOnUse"><stop stop-color="#fff654"/><stop offset=".654" stop-color="#ffd947"/></linearGradient><linearGradient id="n" x1="85.92" x2="80.356" y1="43.164" y2="40.206" gradientUnits="userSpaceOnUse"><stop stop-color="#ce7b02"/><stop offset=".654" stop-color="#e69900"/></linearGradient><linearGradient id="o" x1="60.255" x2="73.494" y1="13.174" y2="13.174" gradientUnits="userSpaceOnUse"><stop stop-color="#f59d0f"/><stop offset=".654" stop-color="#f57f00"/></linearGradient><linearGradient id="p" x1="44.623" x2="80.851" y1="19.586" y2="19.586" gradientUnits="userSpaceOnUse"><stop stop-color="#ce7b02"/><stop offset=".654" stop-color="#e69900"/></linearGradient><linearGradient id="q" x1="36.445" x2="45.522" y1="17.969" y2="17.969" gradientUnits="userSpaceOnUse"><stop stop-color="#ce7b02"/><stop offset=".654" stop-color="#e69900"/></linearGradient><linearGradient id="r" x1="82.559" x2="89.763" y1="42.906" y2="42.906" gradientUnits="userSpaceOnUse"><stop offset=".248" stop-color="#9f5c03"/><stop offset=".737" stop-color="#98540a"/><stop offset="1" stop-color="#934d0f"/></linearGradient><linearGradient id="s" x1="47.56" x2="49.293" y1="41.696" y2="50.601" gradientUnits="userSpaceOnUse"><stop stop-color="#4776ea"/><stop offset=".576" stop-color="#063dc9"/></linearGradient><linearGradient id="t" x1="46.232" x2="50.874" y1="45.929" y2="49.963" gradientUnits="userSpaceOnUse"><stop stop-color="#0435b1"/><stop offset=".946" stop-color="#022ea1"/></linearGradient><linearGradient id="u" x1="48.083" x2="48.438" y1="41.594" y2="43.423" gradientUnits="userSpaceOnUse"><stop stop-color="#3869e1"/><stop offset=".576" stop-color="#053ac1"/></linearGradient><linearGradient id="v" x1="51.422" x2="53.683" y1="44.939" y2="46.464" gradientUnits="userSpaceOnUse"><stop stop-color="#0734a5"/><stop offset=".576" stop-color="#053ac1"/></linearGradient><linearGradient id="w" x1="43.217" x2="45.307" y1="45.516" y2="47.333" gradientUnits="userSpaceOnUse"><stop stop-color="#0734a5"/><stop offset=".946" stop-color="#032b93"/></linearGradient><linearGradient id="x" x1="47.661" x2="49.794" y1="49.353" y2="51.206" gradientUnits="userSpaceOnUse"><stop stop-color="#002587"/><stop offset=".946" stop-color="#032b93"/></linearGradient><linearGradient id="y" x1="49.399" x2="47.343" y1="43.806" y2="48.426" gradientUnits="userSpaceOnUse"><stop stop-color="#c7d6f9"/><stop offset=".946" stop-color="#84a4f4"/></linearGradient><linearGradient id="z" x1="46.903" x2="49.863" y1="45.236" y2="46.944" gradientUnits="userSpaceOnUse"><stop stop-color="#0d46d1"/><stop offset=".946" stop-color="#84a4f4"/></linearGradient><linearGradient id="A" x1="32.071" x2="36.361" y1="39.104" y2="38.206" gradientUnits="userSpaceOnUse"><stop stop-color="#b13802"/><stop offset=".946" stop-color="#a13301"/></linearGradient><linearGradient id="B" x1="28.578" x2="32.585" y1="42.401" y2="41.563" gradientUnits="userSpaceOnUse"><stop stop-color="#b13802"/><stop offset=".946" stop-color="#a13301"/></linearGradient><linearGradient id="C" x1="40.983" x2="44.531" y1="43.548" y2="46.12" gradientUnits="userSpaceOnUse"><stop stop-color="#b13802"/><stop offset=".946" stop-color="#a13301"/></linearGradient><linearGradient id="D" x1="36.196" x2="39.508" y1="43.181" y2="45.583" gradientUnits="userSpaceOnUse"><stop stop-color="#b13802"/><stop offset=".946" stop-color="#a13301"/></linearGradient><linearGradient id="E" x1="21.095" x2="25.115" y1="41.187" y2="39.078" gradientUnits="userSpaceOnUse"><stop stop-color="#0435b1"/><stop offset=".946" stop-color="#022ea1"/></linearGradient><linearGradient id="F" x1="18.553" x2="22.303" y1="45.459" y2="43.491" gradientUnits="userSpaceOnUse"><stop stop-color="#0435b1"/><stop offset=".946" stop-color="#022ea1"/></linearGradient><linearGradient id="G" x1="30.366" x2="35.514" y1="45.928" y2="45.401" gradientUnits="userSpaceOnUse"><stop stop-color="#04b163"/><stop offset=".946" stop-color="#02a15e"/></linearGradient><linearGradient id="H" x1="25.866" x2="30.668" y1="49.369" y2="48.877" gradientUnits="userSpaceOnUse"><stop stop-color="#04b163"/><stop offset=".946" stop-color="#02a15e"/></linearGradient><linearGradient id="I" x1="45.694" x2="49.645" y1="46.833" y2="53.558" gradientUnits="userSpaceOnUse"><stop stop-color="#47ea94"/><stop offset=".576" stop-color="#06c973"/></linearGradient><linearGradient id="J" x1="45.827" x2="50.745" y1="50.646" y2="52.59" gradientUnits="userSpaceOnUse"><stop stop-color="#04b163"/><stop offset=".946" stop-color="#02a15e"/></linearGradient><linearGradient id="K" x1="46.088" x2="46.899" y1="46.602" y2="47.983" gradientUnits="userSpaceOnUse"><stop stop-color="#38e188"/><stop offset=".576" stop-color="#05c16e"/></linearGradient><linearGradient id="L" x1="49.754" x2="52.024" y1="48.358" y2="48.949" gradientUnits="userSpaceOnUse"><stop stop-color="#07a55d"/><stop offset=".576" stop-color="#05c16e"/></linearGradient><linearGradient id="M" x1="43.262" x2="45.475" y1="51.174" y2="52.049" gradientUnits="userSpaceOnUse"><stop stop-color="#07a55d"/><stop offset=".946" stop-color="#039356"/></linearGradient><linearGradient id="N" x1="47.964" x2="50.222" y1="53.014" y2="53.906" gradientUnits="userSpaceOnUse"><stop stop-color="#008751"/><stop offset=".946" stop-color="#039356"/></linearGradient><linearGradient id="O" x1="47.786" x2="47.44" y1="48.018" y2="52.354" gradientUnits="userSpaceOnUse"><stop stop-color="#c7f9dc"/><stop offset=".946" stop-color="#84f4bd"/></linearGradient><linearGradient id="P" x1="46.17" x2="49.062" y1="49.892" y2="50.431" gradientUnits="userSpaceOnUse"><stop stop-color="#0dd168"/><stop offset=".946" stop-color="#84f4bd"/></linearGradient><linearGradient id="Q" x1="35.996" x2="39.369" y1="50.944" y2="48.832" gradientUnits="userSpaceOnUse"><stop stop-color="#04b163"/><stop offset=".946" stop-color="#02a15e"/></linearGradient><linearGradient id="R" x1="34.055" x2="37.207" y1="54.851" y2="52.878" gradientUnits="userSpaceOnUse"><stop stop-color="#04b163"/><stop offset=".946" stop-color="#02a15e"/></linearGradient><linearGradient id="S" x1="25.987" x2="30.463" y1="54.259" y2="56.116" gradientUnits="userSpaceOnUse"><stop stop-color="#b13802"/><stop offset=".946" stop-color="#a13301"/></linearGradient><linearGradient id="T" x1="20.742" x2="24.922" y1="55.091" y2="56.825" gradientUnits="userSpaceOnUse"><stop stop-color="#b13802"/><stop offset=".946" stop-color="#a13301"/></linearGradient><linearGradient id="U" x1="28.207" x2="29.939" y1="52.313" y2="61.216" gradientUnits="userSpaceOnUse"><stop stop-color="#4776ea"/><stop offset=".576" stop-color="#063dc9"/></linearGradient><linearGradient id="V" x1="26.878" x2="31.521" y1="56.544" y2="60.578" gradientUnits="userSpaceOnUse"><stop stop-color="#0435b1"/><stop offset=".946" stop-color="#022ea1"/></linearGradient><linearGradient id="W" x1="28.728" x2="29.084" y1="52.211" y2="54.039" gradientUnits="userSpaceOnUse"><stop stop-color="#3869e1"/><stop offset=".576" stop-color="#053ac1"/></linearGradient><linearGradient id="X" x1="32.069" x2="34.331" y1="55.555" y2="57.08" gradientUnits="userSpaceOnUse"><stop stop-color="#0734a5"/><stop offset=".576" stop-color="#053ac1"/></linearGradient><linearGradient id="Y" x1="23.862" x2="25.952" y1="56.133" y2="57.949" gradientUnits="userSpaceOnUse"><stop stop-color="#0734a5"/><stop offset=".946" stop-color="#032b93"/></linearGradient><linearGradient id="Z" x1="28.307" x2="30.439" y1="59.969" y2="61.822" gradientUnits="userSpaceOnUse"><stop stop-color="#002587"/><stop offset=".946" stop-color="#032b93"/></linearGradient><linearGradient id="aa" x1="30.045" x2="27.989" y1="54.422" y2="59.042" gradientUnits="userSpaceOnUse"><stop stop-color="#c7d6f9"/><stop offset=".946" stop-color="#84a4f4"/></linearGradient><linearGradient id="ab" x1="27.548" x2="30.508" y1="55.852" y2="57.561" gradientUnits="userSpaceOnUse"><stop stop-color="#0d46d1"/><stop offset=".946" stop-color="#84a4f4"/></linearGradient><linearGradient id="ac" x1="59.243" x2="61.826" y1="59.128" y2="62.859" gradientUnits="userSpaceOnUse"><stop stop-color="#0435b1"/><stop offset=".946" stop-color="#022ea1"/></linearGradient><linearGradient id="ad" x1="54.691" x2="57.103" y1="57.125" y2="60.609" gradientUnits="userSpaceOnUse"><stop stop-color="#0435b1"/><stop offset=".946" stop-color="#022ea1"/></linearGradient><linearGradient id="ae" x1=".019" x2="45.358" y1="61.199" y2="61.199" gradientUnits="userSpaceOnUse"><stop stop-color="#fff654"/><stop offset=".654" stop-color="#ffd947"/></linearGradient><linearGradient id="af" x1="45.358" x2="74.466" y1="65.712" y2="65.712" gradientUnits="userSpaceOnUse"><stop stop-color="#fff654"/><stop offset=".654" stop-color="#ffd947"/></linearGradient><linearGradient id="ag" x1="45.336" x2="74.466" y1="69.474" y2="69.474" gradientUnits="userSpaceOnUse"><stop stop-color="#ce7b02"/><stop offset=".654" stop-color="#e69900"/></linearGradient><linearGradient id="ah" x1="45.336" x2="74.466" y1="69.474" y2="69.474" gradientUnits="userSpaceOnUse"><stop stop-color="#fff654"/><stop offset=".654" stop-color="#ffd947"/></linearGradient><linearGradient id="ai" x1="-.005" x2="45.358" y1="64.842" y2="64.842" gradientUnits="userSpaceOnUse"><stop stop-color="#ffd612"/><stop offset=".654" stop-color="#fa0"/></linearGradient><linearGradient id="aj" x1="-.006" x2="45.357" y1="74.144" y2="74.144" gradientUnits="userSpaceOnUse"><stop stop-color="#fff654"/><stop offset=".654" stop-color="#ffd947"/></linearGradient><linearGradient id="ak" x1="-.005" x2="45.361" y1="57.039" y2="57.039" gradientUnits="userSpaceOnUse"><stop stop-color="#fff654"/><stop offset=".654" stop-color="#ffd947"/></linearGradient><linearGradient id="al" x1="-.005" x2="45.348" y1="67.328" y2="67.328" gradientUnits="userSpaceOnUse"><stop stop-color="#fff654"/><stop offset=".654" stop-color="#ffd947"/></linearGradient><linearGradient id="am" x1="-.005" x2="45.336" y1="68.344" y2="68.344" gradientUnits="userSpaceOnUse"><stop stop-color="#fff654"/><stop offset=".654" stop-color="#ffd947"/></linearGradient><linearGradient id="an" x1="-.005" x2="45.358" y1="64.842" y2="64.842" gradientUnits="userSpaceOnUse"><stop stop-color="#f59d0f"/><stop offset=".654" stop-color="#f57f00"/></linearGradient><linearGradient id="ao" x1="10.648" x2="12.806" y1="79.744" y2="79.744" gradientUnits="userSpaceOnUse"><stop stop-color="#b5601a"/><stop offset=".654" stop-color="#e27e00"/></linearGradient><linearGradient id="ap" x1="9.552" x2="8.717" y1="78.494" y2="79.644" gradientUnits="userSpaceOnUse"><stop stop-color="#ffd612"/><stop offset=".654" stop-color="#fa0"/></linearGradient><linearGradient id="aq" x1="6.368" x2="10.648" y1="73.523" y2="73.523" gradientUnits="userSpaceOnUse"><stop stop-color="#f9aa0b"/><stop offset=".654" stop-color="#fa0"/></linearGradient><linearGradient id="ar" x1="6.369" x2="10.649" y1="75.718" y2="75.718" gradientUnits="userSpaceOnUse"><stop stop-color="#fff654"/><stop offset=".654" stop-color="#ffd947"/></linearGradient><linearGradient id="as" x1="9.762" x2="11.6" y1="74.25" y2="74.25" gradientUnits="userSpaceOnUse"><stop stop-color="#b5601a"/><stop offset=".654" stop-color="#e27e00"/></linearGradient><linearGradient id="at" x1="6.368" x2="10.913" y1="68.489" y2="68.489" gradientUnits="userSpaceOnUse"><stop stop-color="#fff654"/><stop offset=".654" stop-color="#ffd947"/></linearGradient><linearGradient id="aC" x1="17.321" x2="26.84" y1="65.097" y2="65.097" gradientUnits="userSpaceOnUse"><stop stop-color="#ffdd12"/><stop offset=".654" stop-color="#ffb000"/></linearGradient><linearGradient id="aD" x1="17.403" x2="27.802" y1="62.706" y2="62.706" gradientUnits="userSpaceOnUse"><stop stop-color="#f59d0f"/><stop offset=".654" stop-color="#f57f00"/></linearGradient><linearGradient id="aE" x1="16.031" x2="25.898" y1="65.714" y2="65.714" gradientUnits="userSpaceOnUse"><stop stop-color="#fff654"/><stop offset=".654" stop-color="#ffd947"/></linearGradient><linearGradient id="aF" x1="38.68" x2="42.086" y1="91.932" y2="91.932" gradientUnits="userSpaceOnUse"><stop stop-color="#f9aa0b"/><stop offset=".654" stop-color="#fa0"/></linearGradient><linearGradient id="aG" x1="38.681" x2="42.086" y1="94.45" y2="94.45" gradientUnits="userSpaceOnUse"><stop stop-color="#fff654"/><stop offset=".654" stop-color="#ffd947"/></linearGradient><linearGradient id="aH" x1="41.659" x2="43.039" y1="92.548" y2="92.548" gradientUnits="userSpaceOnUse"><stop stop-color="#b5601a"/><stop offset=".654" stop-color="#e27e00"/></linearGradient><linearGradient id="aI" x1="38.68" x2="42.689" y1="87.02" y2="87.02" gradientUnits="userSpaceOnUse"><stop stop-color="#fff654"/><stop offset=".654" stop-color="#ffd947"/></linearGradient><linearGradient id="aK" x1="42.068" x2="44.228" y1="97.902" y2="97.902" gradientUnits="userSpaceOnUse"><stop stop-color="#b5601a"/><stop offset=".654" stop-color="#e27e00"/></linearGradient><linearGradient id="aL" x1="40.972" x2="40.138" y1="96.654" y2="97.801" gradientUnits="userSpaceOnUse"><stop stop-color="#ffd612"/><stop offset=".654" stop-color="#fa0"/></linearGradient><radialGradient id="au" cx="0" cy="0" r="1" gradientTransform="matrix(1.45185 0 0 1.45186 8.097 71.08)" gradientUnits="userSpaceOnUse"><stop stop-color="#fcfce6"/><stop offset=".267" stop-color="#fff654"/><stop offset=".697" stop-color="#ffd947"/></radialGradient><radialGradient id="av" cx="0" cy="0" r="1" gradientTransform="translate(2.451 53.289)scale(1.45229)" gradientUnits="userSpaceOnUse"><stop stop-color="#fcfce6"/><stop offset=".267" stop-color="#fff654"/><stop offset=".697" stop-color="#ffd947"/></radialGradient><radialGradient id="aw" cx="0" cy="0" r="1" gradientTransform="matrix(1.45273 0 0 1.45272 12.829 59.297)" gradientUnits="userSpaceOnUse"><stop stop-color="#fcfce6"/><stop offset=".267" stop-color="#fff654"/><stop offset=".697" stop-color="#ffd947"/></radialGradient><radialGradient id="ax" cx="0" cy="0" r="1" gradientTransform="translate(32.309 70.569)scale(1.4525)" gradientUnits="userSpaceOnUse"><stop stop-color="#fcfce6"/><stop offset=".267" stop-color="#fff654"/><stop offset=".697" stop-color="#ffd947"/></radialGradient><radialGradient id="ay" cx="0" cy="0" r="1" gradientTransform="matrix(1.45273 0 0 1.45272 42.687 76.578)" gradientUnits="userSpaceOnUse"><stop stop-color="#fcfce6"/><stop offset=".267" stop-color="#fff654"/><stop offset=".697" stop-color="#ffd947"/></radialGradient><radialGradient id="az" cx="0" cy="0" r="1" gradientTransform="translate(48.397 76.578)scale(1.45272)" gradientUnits="userSpaceOnUse"><stop stop-color="#fcfce6"/><stop offset=".267" stop-color="#fff654"/><stop offset=".697" stop-color="#ffd947"/></radialGradient><radialGradient id="aA" cx="0" cy="0" r="1" gradientTransform="translate(60.713 68.92)scale(1.45207)" gradientUnits="userSpaceOnUse"><stop stop-color="#fcfce6"/><stop offset=".267" stop-color="#fff654"/><stop offset=".697" stop-color="#ffd947"/></radialGradient><radialGradient id="aB" cx="0" cy="0" r="1" gradientTransform="matrix(1.45228 0 0 1.45229 71.924 62.41)" gradientUnits="userSpaceOnUse"><stop stop-color="#fcfce6"/><stop offset=".267" stop-color="#fff654"/><stop offset=".697" stop-color="#ffd947"/></radialGradient><radialGradient id="aJ" cx="0" cy="0" r="1" gradientTransform="matrix(1.45293 0 0 1.45294 40.11 89.608)" gradientUnits="userSpaceOnUse"><stop stop-color="#fcfce6"/><stop offset=".267" stop-color="#fff654"/><stop offset=".697" stop-color="#ffd947"/></radialGradient></defs></svg>