<svg width="260" height="260" viewBox="0 0 260 260" fill="none" xmlns="http://www.w3.org/2000/svg">
<path d="M151.822 70.3256L73.4475 103.467L8.06055 95.4058L49.2633 46.1413L128.086 13L185.859 17.0309L151.822 70.3256Z" fill="#BBFFFF"/>
<path d="M68.969 76.5937V76.1461C68.969 75.6983 68.5211 75.6981 68.5211 75.2502C64.4904 64.0538 57.7726 54.6489 55.0854 43.9004L49.2633 46.1395L8.06055 95.404L73.4475 103.465C72.104 94.5083 71.6562 85.5508 68.969 76.5937Z" fill="#86FCF6"/>
<path d="M128.088 13L123.609 14.7915C128.088 25.54 133.014 35.8409 134.358 47.4851C134.806 47.933 135.702 48.3808 136.149 48.8286C141.076 55.9943 147.794 61.8162 153.168 68.5341L186.309 16.5829L128.088 13Z" fill="#7AFCF8"/>
<path d="M151.822 70.324L73.4475 103.466L8.06055 95.4042L71.6561 99.4347L150.479 66.741L185.859 17.0293L151.822 70.324Z" fill="#E9FFFE"/>
<path d="M141.076 53.3084L69.4192 83.3147L25.5293 79.2841L53.2963 44.799L124.953 14.3447L168.843 18.8232L141.076 53.3084Z" fill="#33E5E5"/>
<path d="M124.951 14.3447L122.712 15.2406C126.743 28.2285 118.681 45.6947 111.068 54.6519C104.35 62.7133 95.8405 69.8791 86.4355 76.1491L141.522 52.8604L169.289 18.3756L124.951 14.3447Z" fill="#40D3D3"/>
<path d="M8.06143 95.4043L0 156.312L69.4177 162.583L73.4484 103.466L8.06143 95.4043Z" fill="#86F1FC"/>
<path d="M151.824 70.324L195.266 112.423L237.813 49.7226L185.861 17.0293L151.824 70.324Z" fill="#7CDDDD"/>
<path d="M73.4487 103.469L69.418 162.586L195.266 112.426L151.824 70.3271L73.4487 103.469Z" fill="#32D6FC"/>
<path d="M70.3137 102.121L69.418 162.582L77.4794 101.674L70.3137 102.121Z" fill="#E9FFFE"/>
<path d="M152.718 66.293L195.264 112.87L147.344 71.2194L152.718 66.293Z" fill="#E9FFFE"/>
<path d="M69.4177 162.582L90.467 215.429L35.8285 206.472L0 156.312L69.4177 162.582Z" fill="#86FCF6"/>
<path d="M69.4177 162.582L90.467 215.429L64.9392 168.404L0 156.312L69.4177 162.582Z" fill="#29B5D6"/>
<path d="M194.939 112.69L68.9414 163.075L89.8939 215.47L215.892 165.085L194.939 112.69Z" fill="#1EC1F4"/>
<path d="M195.266 112.423L216.315 164.822L189.891 124.963L77.9272 167.061L90.4673 215.43L69.418 162.583L195.266 112.423Z" fill="#22ACDD"/>
<path d="M237.812 49.7217L247.665 115.557L216.315 164.821L195.266 112.422L237.812 49.7217Z" fill="#30B7D6"/>
<path d="M237.812 49.7217L204.223 116.452L216.315 164.821L195.266 112.422L237.812 49.7217Z" fill="#1199C9"/>
<path d="M35.8281 206.473L76.5831 229.761L177.799 250.81L90.0187 214.982L35.8281 206.473Z" fill="#86F1FC"/>
<path d="M247.664 115.561L216.314 164.825L177.799 250.813L236.468 163.929L247.664 115.561Z" fill="#1199C9"/>
<path d="M90.0195 214.984L216.315 164.824L177.8 250.813L90.0195 214.984Z" fill="#12A2DB"/>
<path d="M193.922 173.782V174.229C193.474 184.978 190.787 195.279 187.652 205.579C183.621 219.463 179.591 233.346 176.008 247.23L176.904 250.365L177.799 250.813L215.867 164.824L193.922 173.782Z" fill="#0F87BC"/>
<path d="M90.0195 214.982L153.167 189.901L110.173 214.086L136.149 233.791L90.0195 214.982Z" fill="#0F87BC"/>
</svg>
