<svg xmlns="http://www.w3.org/2000/svg" width="80" height="80" fill="none" viewBox="0 0 80 80"><path fill="url(#a)" d="M39.942 76.543c20.804 0 37.669-16.865 37.669-37.669S60.746 1.205 39.94 1.205c-20.804 0-37.669 16.865-37.669 37.67 0 20.803 16.866 37.668 37.67 37.668"/><path fill="#fcffac" d="m19.108 41.864-8.805-26.24A37.6 37.6 0 0 0 4.23 26.852l20.485 46.487a37.3 37.3 0 0 0 8.052 2.521z" opacity=".7"/><path fill="#fcffac" d="m29.37 19.033 1.6-1.883-5.21-13.185q-1.488.606-2.91 1.33z"/><path fill="#fcffac" d="m56.875 24.587 15.614 33.26a38 38 0 0 0 2.406-4.906L49.835 2.517a37.5 37.5 0 0 0-5.306-1.036z" opacity=".7"/><path fill="#fcffac" d="M60.5 60.14c10.969-10.968 10.969-28.75 0-39.719-10.967-10.968-28.75-10.968-39.718 0s-10.969 28.752 0 39.72 28.75 10.968 39.719 0"/><path fill="#fbaa12" d="M59.907 58.843c11.028-11.029 11.028-28.91 0-39.938s-28.91-11.029-39.938 0-11.029 28.91 0 39.938 28.91 11.028 39.938 0"/><path fill="#ea831c" d="M63.056 22.645a28.1 28.1 0 0 1 3.016 12.713c0 15.596-12.644 28.24-28.24 28.24-9.557 0-18.004-4.745-23.114-12.01 4.65 9.21 14.2 15.527 25.224 15.527 15.596 0 28.24-12.644 28.24-28.24a28.1 28.1 0 0 0-5.126-16.23" opacity=".3"/><path fill="#ffffeb" d="M3.435 29.55c3.53 11.583 14.299 20.01 27.036 20.01 15.608 0 28.26-12.653 28.26-28.26a28.15 28.15 0 0 0-6.513-18.05A37.6 37.6 0 0 0 39.94 1.205c-17.585 0-32.357 12.051-36.505 28.345" opacity=".25"/><path fill="#cf7310" d="M12.405 39.929c0-15.596 12.644-28.24 28.24-28.24 9.583 0 18.052 4.773 23.158 12.072-5.01-7.89-13.824-13.127-23.861-13.127-15.596 0-28.24 12.645-28.24 28.24a28.1 28.1 0 0 0 5.083 16.169 28.1 28.1 0 0 1-4.38-15.114"/><path fill="#db8412" d="M39.551 57.333c-5.333-.5-9.167-2.5-11.833-5.167l4-5.5c1.833 2 4.667 3.667 8 4.334v-7.834c-5.167-1.333-10.834-3.166-10.834-10 0-5 4-9.333 10.834-10.166v-4.667h4.666v4.833c4 .5 7.5 2 10.334 4.5l-4 5.334c-1.833-1.667-4-2.667-6.334-3.334v7c5.167 1.334 11 3.334 11 10.167 0 5.5-3.666 9.833-11 10.667V62h-4.666v-4.667zm0-22v-6c-2.167.334-3.5 1.5-3.5 3.167.167 1.333 1.5 2.167 3.5 2.833m4.833 8.834v6.666c2.5-.5 3.834-2 3.834-3.5-.167-1.666-1.667-2.5-3.834-3.166"/><path fill="#fce13c" d="M37.318 57.333c-5.334-.5-9.167-2.5-11.834-5.167l4-5.5c1.834 2 4.667 3.667 8 4.334v-7.834c-5.166-1.333-10.833-3.166-10.833-10 0-5 4-9.333 10.833-10.166v-4.667h4.667v4.833c4 .5 7.5 2 10.334 4.5l-4 5.334c-1.834-1.667-4-2.667-6.334-3.334v7c5.167 1.334 11 3.334 11 10.167 0 5.5-3.666 9.833-11 10.667V62h-4.667v-4.667zm0-22v-6c-2.167.334-3.5 1.5-3.5 3.167.166 1.333 1.5 2.167 3.5 2.833m4.833 8.834v6.666c2.5-.5 3.833-2 3.833-3.5-.166-1.666-1.666-2.5-3.833-3.166"/><defs><linearGradient id="a" x1="13.305" x2="66.576" y1="65.509" y2="12.238" gradientUnits="userSpaceOnUse"><stop stop-color="#fbc01e"/><stop offset=".461" stop-color="#fdc822"/><stop offset="1" stop-color="#fce13c"/></linearGradient></defs></svg>