<svg xmlns="http://www.w3.org/2000/svg" width="140" height="169" fill="none" viewBox="0 0 140 169"><path fill="url(#a)" d="m55.732 72.983 9.456 5.537 2.462-3.724-9.845-5.732z"/><path fill="#934f21" d="M65.966 76.06c-.842.485-2.008.161-2.817-.228-1.037-.518-2.008-1.198-3.044-1.716-.907-.453-1.782-.939-2.494-1.716-.453-.486-.68-1.101-.745-1.684l-1.198 2.267 9.488 5.537 2.43-3.724-.972-.55c.259.68.064 1.392-.648 1.813" opacity=".41"/><path fill="url(#b)" d="m57.482 71.33 4.955 2.948 3.465.939-7.999-4.663z"/><path fill="url(#c)" d="m102.105 94.777-9.845-5.764-2.073 3.918 9.489 5.57z"/><path fill="#934f21" d="M100.454 96.007c-.842.486-2.008.162-2.817-.226-1.037-.519-2.008-1.199-3.044-1.717-.907-.453-1.781-.939-2.494-1.716-.453-.486-.68-1.101-.745-1.684l-1.198 2.267 9.489 5.538 2.428-3.725-.971-.55c.227.68.032 1.425-.648 1.813" opacity=".41"/><path fill="url(#d)" d="m92.389 90.535-.453.777 4.954 2.915 3.465.939z"/><path fill="url(#e)" d="m55.861 73.048 9.521 5.472 2.396-3.724-9.844-5.7z"/><path fill="#934f21" d="M66.16 76.059c-.843.486-2.008.162-2.818-.194-1.069-.486-2.008-1.166-3.044-1.717-.907-.453-1.781-.939-2.494-1.716-.453-.486-.68-1.069-.745-1.684l-1.198 2.3 9.521 5.504 2.429-3.756-.972-.55c.195.647 0 1.392-.68 1.813" opacity=".41"/><path fill="url(#f)" d="m57.61 71.396 4.986 2.882 3.465.94-8.03-4.599z"/><path fill="url(#g)" d="m102.362 94.551-9.844-5.7-2.073 3.951 9.521 5.505z"/><path fill="#934f21" d="M100.712 95.814c-.842.485-2.008.194-2.817-.195-1.069-.485-2.008-1.165-3.044-1.716-.907-.453-1.781-.94-2.494-1.684-.453-.486-.68-1.1-.745-1.684l-1.198 2.3 9.52 5.472 2.43-3.756-.972-.55c.227.647.032 1.392-.68 1.813" opacity=".41"/><path fill="url(#h)" d="m92.616 90.373-.42.777 4.986 2.882 3.465.94z"/><path fill="url(#i)" d="M106.088 42.672c.453.292.907.55 1.36.81.227.13.486.227.713.356.259-.324.615-.68.874-1.23 2.817-6.283 2.073-9.845-1.49-12.565-2.137-1.652-5.926-3.562-9.1-3.11-3.756.52-5.18 4.243-6.314 7.287v.065c.712.615 2.17 1.425 3.206 2.04 0 0 1.198-5.602 3.95-5.797 2.365-.162 7.546 1.879 7.773 5.214.162 2.3-1.199 4.793-1.846 6.185.097.065.162.13.259.195.065.065.518.42.324.291a.76.76 0 0 0 .291.26"/><path fill="#f49c1c" d="M106.088 42.672c.453.292.907.55 1.36.81.227.13.486.227.713.356.259-.324.615-.68.874-1.23 2.817-6.283 2.073-9.845-1.49-12.565-2.137-1.652-5.926-3.562-9.1-3.11-3.756.52-5.18 4.243-6.314 7.287v.065c.227.194.55.42.907.648.032-.065.032-.162.064-.227.065-.745.26-1.522.519-2.3.647-2.59 2.202-3.982 4.08-4.5a5 5 0 0 1 1.263-.26c.486-.032 1.036 0 1.619.098 1.813.226 3.659 1.003 5.181 2.104 1.49 1.004 2.72 2.3 3.206 3.66 1.166 3.368.324 7.869-3.756 8.387 0 0-.033.032-.033.065.098.065.162.13.259.194.065.065.519.421.324.292.097.064.195.162.324.226" opacity=".5"/><path fill="#f49c1c" d="M107.06 32.99c-1.004-1.522-3.595-2.914-5.311-3.303-4.825-1.101-4.21 1.976-7.19 2.882-.744.227-1.23-.097-1.521-.615-.324.745-.616 1.522-.907 2.267v.065c.712.615 2.17 1.424 3.206 2.04 0 0 1.198-5.603 3.95-5.797 2.365-.162 7.546 1.878 7.773 5.214.162 2.299-1.199 4.792-1.846 6.185.097.065.162.13.259.194.065.065.518.421.324.292.129.064.226.162.356.226.453.292.907.55 1.36.81.227.13.486.227.712.356.259-.324.616-.68.875-1.23.324-.713.583-1.36.809-2.008a1.6 1.6 0 0 1-.388.065c-1.393.064-2.202-.68-2.138-1.943 0-1.425 1.166-3.336-.323-5.7" opacity=".5"/><path fill="#602609" d="M110.006 43.708 91.159 32.763l-.972 1.91 18.848 10.881z"/><path fill="url(#j)" d="M137.274 87.685c3.595-10.104 2.98-19.398-1.004-25.065-1.23-1.749-3.529-3.303-4.695-4.178l-18.491 43.556c7.092 3.044 18.523 1.587 24.19-14.313"/><path fill="#93561b" d="m131.575 58.442-18.491 43.556a16.2 16.2 0 0 0 5.991 1.263l17.195-40.673c-1.262-1.75-3.756-2.04-4.695-4.146"/><path fill="url(#k)" d="m44.785 62.588 68.394 39.508 18.426-43.588L63.211 19z"/><path fill="url(#l)" d="m44.785 62.588 68.394 39.508-4.113-11.853-54.372-30.926z"/><path fill="#fff" d="M110.135 96.914c1.004 1.652 2.073 3.239 2.947 4.955l-4.048-11.593-2.266-1.295c1.133 2.655 1.878 5.472 3.367 7.933"/><path fill="#fffde1" d="M107.966 89.66 54.663 59.318l-9.91 3.271 18.654 10.784c15.35 4.307 30.44 9.197 44.559 16.289" opacity=".48"/><path fill="#fffde1" d="m61.885 63.43-7.222-4.113-9.91 3.271 1.49.874c.843.033 11.561.098 15.642-.032" opacity=".75"/><path fill="#fff" d="m56.249 60.192-1.555-.875-9.909 3.271z" opacity=".75"/><path fill="url(#m)" d="m121.307 62.588-12.241 27.655 4.113 11.853 18.426-43.588z"/><path fill="#fff" d="m129.176 59.48-7.869 3.14-12.241 27.656 2.623 7.546c2.17-14.314 7.028-27.98 17.487-38.342" opacity=".45"/><path fill="url(#n)" d="m44.785 62.588 9.91-3.27L66.968 30.95 63.21 19z"/><path fill="#fff8d4" d="m54.145 40.47-7.87 18.588c3.692-3.4 7.805-6.023 12.112-8.322l6.055-14.022c-3.4 1.069-6.994 2.202-10.297 3.756" opacity=".64"/><path fill="url(#o)" d="m66.97 30.95 54.339 31.638 10.298-4.08L63.213 19z"/><path fill="#fff" d="m63.213 19 3.724 11.95 1.36.777C67.552 28.262 63.213 19 63.213 19m56.736 42.811 1.36.778 10.331-4.113-.778-.453c-2.234.647-9.488 3.173-10.913 3.788"/><path fill="#fff8d4" d="M102.947 41.96c-9.326-2.396-18.88-5.861-28.4-6.541l24.806 14.443c5.019-1.101 10.233-1.393 15.479-1.036z" opacity=".64"/><path fill="#db854b" d="m109.067 90.243 12.241-27.655-54.34-31.639-12.273 28.368z"/><path fill="#e89054" d="M115.544 75.639c-3.788-1.651-7.61-3.206-11.658-4.08-6.509-1.393-14.248-2.559-20.79-.648-1.716.518-3.432 1.101-5.149 1.652l31.121 17.713z"/><path fill="#6b340e" d="M66.969 66.312c3.886-10.395 12.111-14.022 24.417-11.69 8.387 1.619 20.013 9.132 27.59 13.277l2.332-5.311-54.34-31.639-12.273 28.368z" opacity=".25"/><path fill="#592a0a" d="M63.729 38.56c5.376.55 10.622 2.881 15.414 5.18 6.477 3.11 12.921 6.315 19.139 9.813 5.505 3.109 10.945 6.412 16.159 10.039 1.717.971 3.4 1.943 5.052 3.011l1.781-4.015-54.34-31.639-3.27 7.578c.032 0 .065.032.065.032" opacity=".25"/><path fill="#592a0a" d="M71.73 53.489c3.142-8.064 0-14.735-3.367-18.038L57.547 60.937c5.343 1.101 11.69-1.101 14.184-7.448" opacity=".41"/><path fill="#592a0a" d="M57.738 60.97c1.814-3.66 6.024-12.436 8.388-15.739 1.975-2.785 4.242-4.436 6.703-.518-.518-4.048-2.461-7.286-4.501-9.294L57.512 60.905a.35.35 0 0 0 .226.064" opacity=".41"/><path fill="url(#p)" d="m131.606 58.508-18.426 43.588 5.051 1.716 17.779-42.001z"/><path fill="url(#q)" d="m110.265 43.32-18.88-10.978-.97 1.91 18.879 10.914z"/><path fill="url(#r)" d="m119.883 65.794 1.425-3.206-54.34-31.639 1.328 4.501z"/><path fill="url(#s)" d="m57.545 60.936 10.751-25.485-1.327-4.502-12.274 28.368z"/><path fill="#fff8d4" d="M96.989 29.59c1.716-1.328 4.695-.616 5.732-.13 1.101.486 3.367 2.008 3.691 1.587.357-.454-3.529-2.753-5.634-3.044-1.782-.227-4.599-.227-5.797 2.202-.842 1.684.518.518 2.008-.615"/><path fill="url(#t)" d="m133.906 71.17-10.039 24.352s5.311-.518 8.841-9.715c3.53-9.164 1.198-14.637 1.198-14.637"/><path fill="#7a4315" d="M130.73 89.855a26 26 0 0 0 1.976-4.048c3.53-9.164 1.198-14.637 1.198-14.637l-1.587 3.886c1.166.745.875 3.95.842 4.89-.194 3.465-1.166 6.153-2.429 9.91"/><path fill="url(#u)" d="m133.776 71.559-10.169 24.287s5.311-.486 8.906-9.683c3.562-9.132 1.263-14.604 1.263-14.604"/><path fill="#7a4315" d="M130.473 90.244a23.6 23.6 0 0 0 2.007-4.048c3.595-9.165 1.263-14.605 1.263-14.605l-1.619 3.854c1.166.744.875 3.95.81 4.89-.162 3.464-1.166 6.152-2.461 9.909"/><path fill="url(#v)" d="m133.873 71.17-10.039 24.352s5.311-.518 8.841-9.715c3.529-9.164 1.198-14.637 1.198-14.637"/><path fill="#7a4315" d="M130.699 89.855a26.3 26.3 0 0 0 1.976-4.048c3.529-9.164 1.198-14.637 1.198-14.637l-1.587 3.854c1.166.744.874 3.95.842 4.89-.194 3.497-1.166 6.185-2.429 9.941"/><path fill="url(#w)" d="m44.04 74.829 53.077 29.89 14.605.356-68.005-39.281z"/><path fill="#ffb206" d="m97.117 104.719 14.605.356-12.985-1.846-54.696-28.4z"/><path fill="url(#x)" d="m15.835 91.15 28.206-16.32-.324-9.035L.064 91.15z"/><path fill="#eda507" d="M.064 91.15h15.771l28.206-16.32L14.67 89.66l-10.686.292 5.926-4.534z"/><path fill="#b96a42" d="m15.836 91.15 52.234 30.052 29.048-16.483-53.076-29.89z"/><path fill="#a06335" d="m43.62 101.869.422-27.04L15.836 91.15l23.219 13.375z"/><path fill="#db854b" d="m43.621 101.869 28.983 16.742 24.514-13.892-53.076-29.89z"/><path fill="#592a0a" d="m46.276 108.67 4.372-2.72s-6.477-27.98-6.606-31.12L15.836 91.182z" opacity=".41"/><path fill="#93561b" d="M43.879 82.44 70.95 99.18l17.876 10.233 1.198-.68L68.75 96.267 43.944 81.306zm-.096 9.617 37.08 21.859 1.683-.939L43.783 91.15z"/><path fill="#602609" d="m43.88 82.44.064-1.134L21.6 94.486l.939.518zm-.097 9.617v-.907l-13.828 8.13.94.453z"/><g fill="#fff" opacity=".9"><path d="M21.858 99.763c-7.124 17.455 4.275 38.634 25.454 47.248 21.178 8.646 44.106 1.489 51.23-15.965S94.267 92.412 73.09 83.798c-21.179-8.646-44.106-1.522-51.23 15.965" opacity=".048"/><path d="M23.154 100.282c-6.865 16.872 4.113 37.306 24.58 45.661s42.616 1.425 49.481-15.447-4.112-37.306-24.579-45.66c-20.434-8.323-42.616-1.425-49.482 15.446" opacity=".095"/><path d="M24.45 100.8c-6.639 16.289 3.983 36.01 23.705 44.041 19.754 8.064 41.127 1.393 47.765-14.896 6.639-16.289-3.983-36.01-23.704-44.041-19.754-8.031-41.127-1.36-47.766 14.896" opacity=".143"/><path d="M25.745 101.35c-6.412 15.674 3.82 34.683 22.862 42.455 19.01 7.772 39.638 1.328 46.017-14.346 6.412-15.673-3.821-34.682-22.862-42.454-19.01-7.772-39.605-1.36-46.017 14.345" opacity=".191"/><path d="M27.04 101.869c-6.153 15.091 3.691 33.387 21.988 40.868s38.148 1.295 44.3-13.828c6.153-15.09-3.691-33.387-21.988-40.867-18.297-7.449-38.148-1.263-44.3 13.827" opacity=".238"/><path d="M28.334 102.419c-5.926 14.507 3.53 32.092 21.147 39.248 17.584 7.157 36.625 1.231 42.551-13.277s-3.53-32.092-21.146-39.248c-17.584-7.19-36.626-1.231-42.552 13.277" opacity=".286"/><path d="M29.631 102.937c-5.667 13.925 3.4 30.765 20.272 37.662 16.872 6.866 35.136 1.166 40.836-12.726 5.667-13.925-3.4-30.765-20.273-37.662-16.871-6.898-35.168-1.198-40.835 12.726" opacity=".333"/><path d="M30.927 103.455c-5.44 13.31 3.27 29.469 19.397 36.043s33.647 1.133 39.087-12.176-3.27-29.47-19.398-36.043c-16.127-6.606-33.646-1.133-39.086 12.176" opacity=".381"/><path d="M32.22 104.006c-5.18 12.727 3.11 28.142 18.556 34.456 15.447 6.283 32.157 1.069 37.338-11.658s-3.109-28.14-18.555-34.455c-15.415-6.315-32.125-1.102-37.338 11.657" opacity=".429"/><path d="M33.548 104.524c-4.955 12.144 2.979 26.846 17.68 32.837 14.735 5.991 30.668 1.036 35.623-11.107 4.954-12.144-2.98-26.846-17.682-32.837-14.734-6.023-30.7-1.037-35.621 11.107" opacity=".476"/><path d="M34.846 105.043c-4.728 11.561 2.817 25.55 16.84 31.25 13.99 5.699 29.177.971 33.872-10.557 4.696-11.561-2.817-25.551-16.839-31.25s-29.177-.972-33.873 10.557" opacity=".524"/><path d="M36.139 105.594c-4.469 10.946 2.688 24.223 15.965 29.663 13.277 5.408 27.688.939 32.157-10.039 4.469-10.945-2.688-24.223-15.965-29.663-13.31-5.408-27.688-.939-32.157 10.039" opacity=".571"/><path d="M37.434 106.111c-4.242 10.362 2.526 22.927 15.09 28.044 12.565 5.116 26.199.874 30.409-9.489 4.242-10.362-2.526-22.927-15.091-28.044-12.565-5.116-26.198-.874-30.408 9.489" opacity=".619"/><path d="M38.729 106.628c-3.984 9.78 2.396 21.6 14.248 26.458 11.853 4.825 24.676.809 28.692-8.938 3.983-9.78-2.396-21.6-14.249-26.457-11.852-4.826-24.708-.842-28.692 8.937" opacity=".667"/><path d="M40.025 107.18c-3.756 9.197 2.235 20.304 13.375 24.838s23.186.777 26.943-8.387c3.756-9.165-2.235-20.305-13.375-24.838-11.14-4.566-23.186-.81-26.943 8.387" opacity=".714"/><path d="M41.32 107.698c-3.497 8.581 2.105 19.009 12.532 23.251 10.428 4.242 21.697.712 25.195-7.869 3.497-8.582-2.105-19.009-12.533-23.251-10.395-4.243-21.697-.713-25.194 7.869" opacity=".762"/><path d="M42.615 108.216c-3.27 7.999 1.943 17.681 11.658 21.664 9.715 3.951 20.207.681 23.478-7.318 3.27-7.999-1.943-17.682-11.658-21.632s-20.207-.713-23.478 7.286" opacity=".809"/><path d="M43.912 108.767c-3.012 7.416 1.813 16.386 10.784 20.045s18.717.615 21.729-6.768c3.011-7.416-1.814-16.386-10.784-20.045-8.97-3.692-18.685-.648-21.73 6.768" opacity=".857"/><path d="M45.207 109.285c-2.785 6.832 1.651 15.09 9.941 18.458 8.258 3.368 17.228.583 20.013-6.25 2.785-6.8-1.651-15.091-9.942-18.458-8.257-3.368-17.228-.583-20.012 6.25" opacity=".905"/><path d="M46.535 109.802c-2.526 6.218 1.522 13.763 9.067 16.84s15.738.518 18.264-5.7c2.526-6.217-1.522-13.763-9.067-16.839-7.578-3.076-15.739-.518-18.265 5.699" opacity=".952"/><path d="M47.83 110.353c-2.299 5.635 1.393 12.468 8.193 15.253 6.833 2.785 14.249.486 16.516-5.149 2.299-5.635-1.393-12.468-8.193-15.253-6.833-2.785-14.217-.485-16.516 5.149"/></g><g fill="#fff" opacity=".54"><path d="M47.959 51.092c0 .518.097 1.004.26 1.457l12.499 70.855 7.06.065 14.248-70.596a5 5 0 0 0 .356-1.813c0-4.858-5.148-15.35-17.227-15.35-13.278.032-17.196 10.525-17.196 15.382" opacity=".048"/><path d="M48.477 51.642c0 .485.097.971.259 1.457l12.143 70.369 6.833.065 13.828-70.11a4.9 4.9 0 0 0 .356-1.781c0-4.825-5.052-14.961-16.71-14.961-12.856.032-16.71 10.136-16.71 14.96" opacity=".095"/><path d="M48.963 52.225c0 .486.097.971.259 1.457l11.788 69.883 6.638.065 13.407-69.592a4.9 4.9 0 0 0 .356-1.78c0-4.794-4.955-14.573-16.192-14.573-12.402-.033-16.256 9.747-16.256 14.54" opacity=".143"/><path d="M49.48 52.775c0 .486.098.971.227 1.425l11.4 69.365 6.443.065 12.986-69.107a4.7 4.7 0 0 0 .324-1.748c0-4.76-4.858-14.184-15.706-14.184-11.885 0-15.673 9.423-15.673 14.184" opacity=".191"/><path d="M49.967 53.325c0 .486.097.972.227 1.425l11.042 68.88 6.218.065 12.565-68.62c.194-.551.323-1.167.323-1.75 0-4.728-4.76-13.763-15.187-13.763-11.4 0-15.188 9.035-15.188 13.763" opacity=".238"/><path d="M50.486 53.876c0 .486.098.94.227 1.425L61.4 123.663l6.023.064 12.144-68.102c.194-.55.323-1.133.323-1.749 0-4.695-4.663-13.406-14.702-13.406-10.978.032-14.702 8.743-14.702 13.406" opacity=".286"/><path d="M50.97 54.46c0 .485.098.939.227 1.392l10.298 67.876 5.797.064 11.755-67.616c.194-.55.292-1.134.292-1.717 0-4.663-4.567-13.018-14.184-13.018-10.46 0-14.184 8.355-14.184 13.018" opacity=".333"/><path d="M51.49 55.01c0 .486.097.94.194 1.393l9.942 67.357 5.603.065 11.334-67.098c.194-.55.291-1.134.291-1.717 0-4.63-4.469-12.63-13.698-12.63-10.006 0-13.666 8-13.666 12.63" opacity=".381"/><path d="M52.008 55.56c0 .486.065.94.194 1.393l9.586 66.871 5.408.065 10.913-66.613a5.1 5.1 0 0 0 .291-1.684c0-4.598-4.372-12.24-13.18-12.24-9.618 0-13.212 7.642-13.212 12.208" opacity=".429"/><path d="M52.492 56.143q0 .73.195 1.36l9.196 66.386 5.182.065 10.492-66.127c.162-.55.259-1.1.259-1.684 0-4.566-4.275-11.852-12.662-11.852-9.067 0-12.662 7.286-12.662 11.852" opacity=".476"/><path d="M53.012 56.694q0 .68.194 1.36l8.84 65.868 4.988.065 10.071-65.609a5.9 5.9 0 0 0 .259-1.684c0-4.501-4.177-11.431-12.176-11.431-8.647-.033-12.176 6.898-12.176 11.431" opacity=".524"/><path d="M53.498 57.245c0 .453.065.907.162 1.36l8.484 65.382 4.793.065 9.65-65.123c.162-.518.26-1.101.26-1.652 0-4.469-4.08-11.043-11.659-11.043-8.16-.032-11.69 6.542-11.69 11.01" opacity=".571"/><path d="M54.016 57.795c0 .453.064.907.162 1.36l8.095 64.864 4.566.065 9.23-64.638a5.5 5.5 0 0 0 .226-1.651c0-4.437-3.983-10.654-11.172-10.654-7.642 0-11.107 6.217-11.107 10.654" opacity=".619"/><path d="M54.502 58.378c0 .454.065.907.162 1.328l7.74 64.378 4.371.065 8.808-64.12c.13-.517.227-1.068.227-1.618 0-4.404-3.886-10.266-10.654-10.266-7.189-.065-10.654 5.797-10.654 10.233" opacity=".667"/><path d="M55.02 58.928c0 .453.064.907.161 1.328l7.384 63.86 4.145.064 8.387-63.633c.13-.518.227-1.069.227-1.62 0-4.37-3.789-9.876-10.136-9.876-6.768-.032-10.169 5.505-10.169 9.877" opacity=".714"/><path d="M55.537 59.479c0 .453.065.874.13 1.327l6.994 63.375 3.951.064 7.999-63.147c.13-.518.194-1.069.194-1.62 0-4.339-3.692-9.488-9.65-9.488-6.25 0-9.618 5.15-9.618 9.488" opacity=".762"/><path d="M56.023 60.03c0 .453.065.874.13 1.295l6.639 62.856 3.756.065 7.578-62.63c.13-.518.194-1.069.194-1.587 0-4.307-3.594-9.1-9.132-9.1-5.83 0-9.165 4.793-9.165 9.1" opacity=".809"/><path d="M56.541 60.613c0 .453.065.874.13 1.295l6.282 62.37 3.53.065L73.639 62.2a6.5 6.5 0 0 0 .195-1.587c0-4.275-3.498-8.711-8.647-8.711-5.343-.033-8.646 4.436-8.646 8.71" opacity=".857"/><path d="M57.027 61.163c0 .454.033.875.13 1.296l5.894 61.884 3.335.065 6.736-61.658a8.5 8.5 0 0 0 .162-1.587c0-4.242-3.4-8.322-8.128-8.322-4.858 0-8.129 4.08-8.129 8.322" opacity=".905"/><path d="M57.545 61.713c0 .421.032.842.13 1.263l5.537 61.367 3.141.064 6.315-61.14a8.5 8.5 0 0 0 .162-1.554c0-4.21-3.303-7.934-7.643-7.934-4.404 0-7.642 3.724-7.642 7.934" opacity=".952"/><path d="M58.031 62.263q0 .631.097 1.263l5.182 60.881 2.914.065 5.894-60.654a8 8 0 0 0 .162-1.555c0-4.177-3.206-7.545-7.124-7.545-3.919 0-7.125 3.4-7.125 7.545"/></g><g fill="#fff" opacity=".54"><path d="m85.234 116.927 20.563-43.588c.227-.357.421-.713.519-1.102.777-3.14-.875-10.783-8.711-12.726-8.647-2.137-12.857 4.048-13.634 7.189-.097.324-.097.648-.065 1.004l-3.238 48.057z" opacity=".048"/><path d="m85.168 116.926 20.239-43.329a3.5 3.5 0 0 0 .519-1.101c.777-3.141-.875-10.525-8.452-12.403-8.323-2.04-12.468 3.918-13.245 7.027a3.4 3.4 0 0 0-.065 1.004l-3.4 47.669z" opacity=".095"/><path d="m85.103 116.959 19.883-43.07c.227-.356.421-.712.518-1.1.777-3.11-.874-10.266-8.193-12.047-8.03-1.976-12.079 3.756-12.856 6.865a3.3 3.3 0 0 0-.065.972l-3.562 47.279z" opacity=".143"/><path d="m85.039 116.992 19.527-42.81c.227-.325.389-.713.486-1.102.745-3.076-.875-9.974-7.934-11.723-7.74-1.91-11.723 3.595-12.468 6.704a3.3 3.3 0 0 0-.065.971l-3.724 46.891z" opacity=".191"/><path d="m84.975 116.991 19.17-42.552q.34-.485.486-1.068c.777-3.077-.874-9.715-7.675-11.4-7.415-1.813-11.334 3.466-12.079 6.51a3.3 3.3 0 0 0-.064.971l-3.854 46.503z" opacity=".238"/><path d="m84.942 117.024 18.815-42.293a3.2 3.2 0 0 0 .485-1.069c.745-3.044-.874-9.456-7.416-11.043-7.124-1.748-10.945 3.304-11.69 6.348a5 5 0 0 0-.097.971l-4.016 46.114z" opacity=".286"/><path d="m84.878 117.056 18.458-42.033q.34-.486.486-1.07c.745-3.01-.875-9.164-7.124-10.718-6.801-1.684-10.557 3.141-11.302 6.185a5 5 0 0 0-.097.94l-4.178 45.757z" opacity=".333"/><path d="m84.813 117.056 18.134-41.775c.194-.324.356-.68.454-1.069.744-3.011-.875-8.905-6.866-10.395-6.509-1.586-10.168 3.012-10.913 5.991a4.6 4.6 0 0 0-.097.94l-4.34 45.369z" opacity=".381"/><path d="m84.747 117.088 17.779-41.547a4 4 0 0 0 .453-1.07c.745-2.978-.874-8.645-6.606-10.07-6.218-1.522-9.78 2.85-10.525 5.829a4.6 4.6 0 0 0-.097.939l-4.501 44.98z" opacity=".429"/><path d="M84.716 117.089 102.138 75.8c.194-.324.356-.68.453-1.069.713-2.947-.874-8.355-6.347-9.715-5.894-1.457-9.391 2.72-10.136 5.667a4.4 4.4 0 0 0-.097.94l-4.663 44.592z" opacity=".476"/><path d="m84.65 117.12 17.066-41.03c.194-.323.356-.68.421-1.036.712-2.947-.875-8.095-6.088-9.39-5.603-1.393-9.035 2.558-9.748 5.472a4.3 4.3 0 0 0-.097.907l-4.825 44.203z" opacity=".524"/><path d="m84.585 117.154 16.71-40.771a4 4 0 0 0 .421-1.036c.713-2.915-.874-7.837-5.796-9.068-5.279-1.295-8.647 2.397-9.36 5.311a4.3 4.3 0 0 0-.096.907l-4.987 43.847z" opacity=".571"/><path d="m84.52 117.153 16.354-40.512c.194-.323.324-.68.421-1.036.712-2.882-.874-7.577-5.538-8.71-4.987-1.231-8.257 2.266-8.97 5.148a4.3 4.3 0 0 0-.097.907l-5.149 43.458z" opacity=".619"/><path d="m84.49 117.186 15.997-40.253c.162-.324.323-.648.421-1.036.712-2.85-.875-7.286-5.279-8.387-4.696-1.166-7.869 2.105-8.582 4.987a4 4 0 0 0-.097.906l-5.278 43.07z" opacity=".667"/><path d="m84.424 117.186 15.674-39.994c.162-.323.324-.647.388-1.036.713-2.85-.874-7.027-5.02-8.063-4.37-1.069-7.48 1.943-8.192 4.792a4 4 0 0 0-.097.875l-5.44 42.681z" opacity=".714"/><path d="m84.358 117.218 15.318-39.734c.162-.324.291-.648.388-1.004.68-2.817-.874-6.768-4.76-7.707-4.08-1.004-7.092 1.813-7.805 4.63-.064.292-.097.584-.13.875l-5.601 42.293z" opacity=".762"/><path d="m84.294 117.25 14.961-39.475c.162-.324.292-.648.389-1.004.68-2.785-.875-6.477-4.47-7.384-3.788-.939-6.703 1.652-7.415 4.47-.065.29-.097.582-.13.874l-5.764 41.904z" opacity=".809"/><path d="m84.23 117.251 14.605-39.216c.162-.324.291-.648.388-1.004.68-2.785-.874-6.218-4.21-7.06-3.465-.842-6.347 1.49-6.994 4.275a8 8 0 0 0-.13.874l-5.926 41.548z" opacity=".857"/><path d="m84.197 117.283 14.249-38.957c.162-.324.291-.648.356-1.004.68-2.753-.874-5.959-3.95-6.736-3.174-.777-5.96 1.36-6.607 4.113-.065.291-.097.583-.13.842L82.027 116.7z" opacity=".905"/><path d="m84.132 117.283 13.892-38.73c.162-.324.26-.648.357-.972.68-2.72-.875-5.7-3.692-6.38-2.85-.712-5.57 1.199-6.218 3.952-.064.29-.097.55-.13.841l-6.25 40.771z" opacity=".952"/><path d="M88.698 75.605a8 8 0 0 0-.13.842l-6.412 40.382 1.878.518 13.57-38.471c.129-.324.258-.648.355-.972.68-2.72-.874-5.408-3.432-6.055-2.526-.648-5.15 1.036-5.83 3.756"/></g><g fill="#fff" opacity=".54"><path d="M29.37 61.229c-7.836 1.943-9.487 9.553-8.71 12.726.097.389.291.778.518 1.101l20.563 43.588 4.566-1.165-3.238-48.057c.032-.324 0-.68-.065-1.004-.777-3.141-4.987-9.327-13.633-7.19" opacity=".048"/><path d="M29.533 61.843c-7.578 1.878-9.23 9.262-8.452 12.403.097.389.259.777.518 1.101l20.207 43.329 4.436-1.133-3.4-47.669c.032-.324 0-.68-.065-1.004-.777-3.14-4.89-9.1-13.245-7.027" opacity=".095"/><path d="M29.696 62.459c-7.319 1.813-8.938 8.937-8.193 12.046.097.389.259.777.518 1.101l19.883 43.07 4.307-1.101-3.562-47.28c.032-.323 0-.68-.065-.971-.81-3.109-4.857-8.84-12.888-6.865" opacity=".143"/><path d="M29.857 63.074c-7.06 1.749-8.678 8.647-7.934 11.723.098.389.26.745.486 1.1l19.527 42.812 4.178-1.069-3.724-46.891a3.3 3.3 0 0 0-.065-.971c-.777-3.11-4.76-8.615-12.468-6.704" opacity=".191"/><path d="M29.988 63.69c-6.8 1.684-8.42 8.322-7.675 11.399a3.2 3.2 0 0 0 .486 1.068l19.17 42.552 4.048-1.036-3.853-46.503c.032-.324 0-.648-.065-.971-.777-3.044-4.696-8.323-12.111-6.51" opacity=".238"/><path d="M30.148 64.305c-6.509 1.62-8.128 7.999-7.383 11.043a3.2 3.2 0 0 0 .486 1.069l18.814 42.292 3.886-1.004-4.015-46.114c0-.323 0-.647-.097-.971-.745-3.012-4.566-8.064-11.69-6.315" opacity=".286"/><path d="M30.312 64.92c-6.25 1.555-7.87 7.708-7.125 10.72q.147.582.486 1.068l18.459 42.034 3.756-.972-4.21-45.725c0-.324 0-.648-.097-.94-.712-3.043-4.469-7.868-11.27-6.184" opacity=".333"/><path d="M30.44 65.535c-5.99 1.49-7.61 7.383-6.865 10.395.097.389.26.745.454 1.069l18.102 41.807 3.627-.939-4.34-45.37c0-.323 0-.647-.097-.939-.712-3.011-4.372-7.61-10.88-6.023" opacity=".381"/><path d="M30.601 66.15c-5.731 1.425-7.318 7.06-6.606 10.04.097.388.26.744.454 1.068l17.778 41.548 3.498-.907-4.502-44.98c0-.324 0-.615-.097-.94-.745-2.979-4.307-7.35-10.525-5.828" opacity=".429"/><path d="M30.765 66.765c-5.473 1.36-7.06 6.769-6.347 9.715.097.389.259.745.453 1.07l17.423 41.288 3.367-.874-4.663-44.592c0-.324-.032-.616-.097-.94-.745-2.946-4.242-7.124-10.136-5.667" opacity=".476"/><path d="M30.894 67.38c-5.214 1.296-6.801 6.445-6.088 9.392.097.388.226.712.42 1.036l17.066 41.03 3.239-.842-4.825-44.203c0-.292-.033-.616-.097-.907-.68-2.947-4.113-6.865-9.716-5.505" opacity=".524"/><path d="M31.055 67.996c-4.922 1.23-6.541 6.153-5.797 9.035.098.356.227.713.421 1.036l16.71 40.771 3.109-.809-4.987-43.847c0-.292-.032-.616-.097-.907-.713-2.882-4.048-6.574-9.359-5.279" opacity=".571"/><path d="M31.218 68.612c-4.663 1.166-6.25 5.829-5.538 8.711.098.356.227.713.421 1.036l16.354 40.512 2.947-.777-5.117-43.459c0-.291-.032-.615-.097-.906-.745-2.85-3.983-6.348-8.97-5.117" opacity=".619"/><path d="M31.347 69.227c-4.405 1.101-5.992 5.538-5.279 8.387.097.357.227.713.421 1.037l15.997 40.252 2.818-.745-5.279-43.07a4.6 4.6 0 0 0-.097-.906c-.712-2.85-3.886-6.088-8.581-4.955" opacity=".667"/><path d="M31.507 69.842c-4.145 1.036-5.7 5.214-5.019 8.063.097.357.227.713.389 1.004l15.673 39.994 2.688-.713-5.44-42.68q0-.438-.098-.875c-.712-2.818-3.82-5.862-8.193-4.793" opacity=".714"/><path d="M31.671 70.458c-3.886.939-5.44 4.89-4.76 7.707.097.356.226.712.388 1.004l15.318 39.734 2.558-.68-5.602-42.293q0-.437-.098-.874c-.712-2.785-3.724-5.602-7.804-4.599" opacity=".762"/><path d="M31.833 71.073c-3.627.874-5.181 4.598-4.469 7.383.097.356.227.68.389 1.004l14.96 39.475 2.43-.647-5.765-41.904c0-.292-.032-.583-.13-.875-.712-2.785-3.659-5.343-7.415-4.436" opacity=".809"/><path d="M31.962 71.689c-3.335.81-4.89 4.274-4.21 7.06.098.355.227.68.39 1.003l14.604 39.216 2.3-.615-5.927-41.516c0-.291-.065-.582-.13-.874-.68-2.752-3.562-5.116-7.027-4.274" opacity=".857"/><path d="M32.124 72.304c-3.076.777-4.63 3.95-3.95 6.703.097.356.226.68.356 1.004l14.248 38.99 2.17-.583-6.088-41.16c0-.29-.065-.582-.13-.841-.68-2.753-3.432-4.89-6.606-4.113" opacity=".905"/><path d="M32.286 72.919c-2.817.68-4.372 3.659-3.692 6.38.098.355.195.68.357.97L42.843 119l2.008-.55-6.25-40.771a8 8 0 0 0-.13-.842c-.647-2.688-3.335-4.599-6.185-3.918" opacity=".952"/><path d="M32.416 73.534c-2.559.615-4.08 3.335-3.433 6.056.097.356.194.68.356.971l13.569 38.472 1.878-.518-6.412-40.383a8 8 0 0 0-.13-.842c-.647-2.687-3.27-4.371-5.828-3.756"/></g><path fill="#542708" d="m96.762 154.881 2.85-1.846.874-5.57-3.724 1.23z"/><path fill="#703208" d="m93.232 153.034 3.53 1.846v-6.186l-3.951 1.134z"/><path fill="#542708" d="m72.863 169 2.85-1.846.874-5.602-3.724 1.263z"/><path fill="#703208" d="m69.333 167.154 3.53 1.846v-6.186l-3.95 1.134z"/><path fill="#542708" d="m96.6 154.881 2.85-1.846.874-5.57-3.724 1.23z"/><path fill="#703208" d="m93.07 153.034 3.53 1.846v-6.186l-3.952 1.134z"/><path fill="#542708" d="m72.701 169 2.85-1.846.874-5.602-3.724 1.263z"/><path fill="#703208" d="m69.171 167.154 3.53 1.846v-6.186l-3.951 1.134z"/><path fill="url(#y)" d="m.064 91.15 68.006 39.281v-9.229L15.835 91.15z"/><path fill="#fffde1" d="m18.555 92.737-2.72-1.587H.065l7.286 4.21c3.465-2.007 7.318-2.72 11.204-2.623"/><path fill="#fff7ab" d="M41.937 112.136a13 13 0 0 1 3.335-4.048l-16.191-9.294c-4.21.94-8.517 1.263-12.792 1.749l24.709 14.248c.226-.874.485-1.781.939-2.655"/><path fill="#fffde1" d="M63.568 118.611c.291 2.85-.032 5.732-.94 8.679l5.441 3.141v-9.229z"/><path fill="#fff8bb" d="m.064 91.15 15.771.875L68.07 122.4v-1.198L15.835 91.15z"/><path fill="#fffde1" d="M68.07 130.431v-9.229l-1.684 6.412L.064 91.15z"/><path fill="url(#z)" d="m111.723 105.075-14.605-.356-29.048 16.483v9.229z"/><path fill="#fffde1" d="m109.844 105.01-12.727-.323-3.789 2.137c5.473-.875 11.043-1.36 16.516-1.814"/><path fill="#fffde1" d="m84.455 111.875-11.043 6.25c1.684 2.17 2.947 4.469 3.821 6.962l18.394-10.686c-3.66-1.036-7.35-1.943-11.172-2.526" opacity=".6"/><path fill="#ffce00" d="M97.118 104.719 68.07 121.202v9.229l43.653-25.356-41.353 21.924v-5.797z"/><path fill="#a06335" d="m103.208 146.008 7.48-33.938-42.616 18.362-.097 36.075z"/><path fill="#592a0a" d="M82.547 156.079c-4.08 2.817-9.391 7.351-14.572 7.351v3.044l35.265-20.499 7.481-33.97-3.562 1.522c.55 12.079-3.822 22.506-11.076 30.408-3.983 4.404-8.71 8.841-13.536 12.144" opacity=".28"/><path fill="#592a0a" d="M71.602 164.369c0-.097 0-.226.032-.323 1.069-5.603 1.392-11.432 3.692-16.71 2.137-4.89 5.796-8.744 9.941-12.014 6.93-5.473 14.702-9.974 23.122-12.727l2.332-10.525-42.65 18.362-.096 36.075z" opacity=".41"/><path fill="url(#A)" d="m111.69 115.665.032-10.59-43.652 25.356-.033 10.946z"/><path fill="#824216" d="m74.514 126.675-6.444 3.756-.033 10.946 8.16-4.825c-.712-3.271-1.489-6.542-1.683-9.877m25-14.54c-.583 4.372-1.911 8.549-3.4 12.694l15.576-9.164.032-10.622z" opacity=".24"/><path fill="#592a0a" d="M92.778 119.356c6.217-2.817 12.435-5.57 18.944-7.286l.032-6.995-32.934 19.139c.065.097.098.194.13.291 4.566-1.943 9.197-3.627 13.828-5.149m-21.341 9.1-3.367 1.975-.033 10.946 1.004-.583c.55-4.177 1.263-8.29 2.396-12.338" opacity=".28"/><path fill="url(#B)" d="m111.69 115.665.032-10.59-1.036 10.071-42.649 26.231z"/><path fill="#db854b" d="m9.293 132.634 58.678 33.873.097-36.075L1.1 98.017z"/><path fill="#c9753d" d="m1.1 98.017 8.193 34.617 58.678 33.873.033-10.265c-5.182-.097-10.687-1.425-14.12-2.364-7.027-1.943-25.939-12.532-26.619-12.824-6.023-2.785-13.633-6.671-17-12.759-3.92-7.092-6.64-19.56-1.2-26.392z"/><path fill="#c9753d" d="M3.593 108.541c10.849 3.53 27.98 15.447 31.768 18.459 9.586 7.577 15.641 14.248 20.888 22.539 2.46 3.918 3.626 7.383 6.476 13.957l5.246 3.044.097-36.075L1.1 98.017z"/><path fill="url(#C)" d="m0 102.128 68.038 39.249.032-10.946L.065 91.151z"/><path fill="url(#D)" d="M62.015 136.65c-1.296-4.048-2.882-8.031-4.113-12.079l-3.983-2.3c-.972 3.368-2.623 6.024-4.825 8.161l13.374 7.707a26 26 0 0 0-.453-1.489" opacity=".65"/><path fill="url(#E)" d="m7.125 106.241 12.144 6.995c-3.368-4.664-5.959-9.845-6.574-14.767l-4.501-2.623c-.357 3.497-.778 6.962-1.069 10.395" opacity=".67"/><path fill="url(#F)" d="M27.784 116.442C20.206 112.167 4.306 104.622.03 98.631v3.53l68.005 39.216.033-5.797c-5.667-1.684-27.785-12.111-40.285-19.138" opacity=".51"/><path fill="url(#G)" d="m0 102.128 68.038 39.249-.162-.939L0 101.675z"/><path fill="url(#H)" d="m66.321 130.723 1.716 10.654.033-10.946L.065 91.151 0 102.127l.842-9.844z"/><path fill="#93561b" d="m3.53 108.249.258 1.133 27.073 16.743 37.144 21.243-.033-1.133-39.346-23.025zm3.045 12.954 46.956 27.687 14.475 6.866-.032-.875-61.593-34.585z"/><path fill="#602609" d="m108.13 123.728.227-.971-40.382 23.478.032 1.133zm-30.44 26.49 28.4-17.163.162-.81-38.277 22.636.032.874z"/><path fill="url(#I)" d="m16.128 139.92 3.108-1.587-1.813-1.036-1.425.648z"/><path fill="url(#J)" d="m11.497 137.296 4.63 2.623-.129-1.975-4.63-2.72z"/><path fill="url(#K)" d="m11.497 135.289 4.5 2.655-1.327-14.508-5.084-2.817z"/><path fill="url(#L)" d="m10.46 127.226 1.07 8.095 4.5 2.624-.42-4.599c-2.008-1.846-3.789-3.886-5.15-6.12"/><path fill="url(#M)" d="m15.998 137.944 1.425-.647-1.037-14.476-1.716.616z"/><path fill="url(#N)" d="m14.67 123.436 1.716-.615-5.116-2.785-1.684.583z"/><path fill="#93561b" d="M11.463 122.789c-1.004.324-1.425 1.846-.939 3.368s1.717 2.461 2.753 2.137c1.004-.324 1.425-1.846.939-3.368-.518-1.489-1.716-2.461-2.753-2.137"/><path fill="url(#O)" d="M11.334 123.113c-.842.291-1.166 1.619-.713 2.979.454 1.393 1.49 2.267 2.332 2.008.842-.292 1.166-1.619.712-3.012-.42-1.36-1.49-2.234-2.331-1.975"/><path fill="#93561b" d="M3.012 96.105c-1.004.324-1.425 1.846-.939 3.368s1.716 2.461 2.753 2.137c1.003-.323 1.424-1.845.939-3.335-.518-1.522-1.749-2.494-2.753-2.17"/><path fill="url(#P)" d="M2.883 96.43c-.842.258-1.166 1.618-.713 2.978.454 1.361 1.522 2.267 2.364 2.008.842-.291 1.166-1.619.713-3.011-.486-1.36-1.522-2.235-2.364-1.976"/><path fill="#93561b" d="M18.555 105.141c-1.004.324-1.425 1.846-.94 3.368.487 1.522 1.717 2.461 2.754 2.137 1.003-.324 1.424-1.846.939-3.335-.486-1.555-1.717-2.526-2.753-2.17"/><path fill="url(#Q)" d="M18.459 105.465c-.842.259-1.166 1.619-.713 2.979.454 1.36 1.522 2.267 2.364 2.008.842-.292 1.166-1.619.713-3.012-.486-1.36-1.522-2.267-2.364-1.975"/><path fill="#93561b" d="M47.797 122.044c-1.004.324-1.425 1.846-.939 3.336.486 1.522 1.717 2.461 2.753 2.137 1.004-.324 1.425-1.846.939-3.368-.518-1.489-1.749-2.461-2.753-2.105"/><path fill="url(#R)" d="M47.668 122.369c-.842.291-1.166 1.619-.713 3.012.454 1.392 1.49 2.266 2.364 2.007.842-.291 1.166-1.619.713-3.011-.486-1.393-1.522-2.299-2.364-2.008"/><path fill="#93561b" d="M63.342 131.047c-1.004.324-1.425 1.846-.939 3.368s1.716 2.461 2.753 2.137c1.003-.324 1.424-1.846.939-3.335-.486-1.555-1.717-2.494-2.753-2.17"/><path fill="url(#S)" d="M63.246 131.371c-.842.291-1.166 1.619-.713 3.012.454 1.36 1.522 2.266 2.364 2.007.842-.291 1.166-1.619.713-3.011-.486-1.393-1.522-2.3-2.364-2.008"/><path fill="#93561b" d="M70.563 133.184c-.486 1.523-.065 3.012.94 3.336 1.003.324 2.234-.615 2.752-2.137.486-1.522.065-3.012-.94-3.368-1.003-.292-2.234.647-2.752 2.169"/><path fill="url(#T)" d="M71.082 133.379c-.453 1.392-.13 2.72.713 3.011.842.292 1.91-.615 2.364-2.007s.13-2.721-.713-3.012c-.842-.292-1.91.615-2.364 2.008"/><path fill="#93561b" d="M92.714 122.919c.486-1.522.065-3.012-.94-3.336-1.003-.324-2.234.616-2.752 2.138-.486 1.522-.065 3.011.94 3.368 1.036.291 2.266-.681 2.752-2.17"/><path fill="url(#U)" d="M92.618 122.886c.453-1.392.13-2.72-.713-3.011-.842-.292-1.91.615-2.364 2.008-.453 1.392-.13 2.72.713 3.011.874.259 1.91-.647 2.364-2.008"/><path fill="#93561b" d="M109.552 113.139c.486-1.522.065-3.012-.939-3.368-1.004-.324-2.235.615-2.753 2.137-.486 1.522-.065 3.012.939 3.368s2.235-.615 2.753-2.137"/><path fill="url(#V)" d="M109.422 113.106c.454-1.392.13-2.72-.712-3.011-.842-.292-1.911.615-2.364 1.975s-.13 2.72.712 3.012c.875.291 1.911-.583 2.364-1.976"/><path fill="#845203" d="M33.355 122.077c6.412 3.401 8.387.486 8.387.486v-5.861l-14.151-8.161-.13 6.282c0-.032-.162 4.048 5.894 7.254"/><path fill="url(#W)" d="M32.578 121.722c6.412 3.4 7.707 1.748 7.707 1.748v-5.861l-14.152-8.161-.13 6.283c0-.033.551 2.785 6.575 5.991"/><path fill="#fff7ab" d="M36.56 115.471c1.523 2.526 2.688 5.375 3.206 8.29.39-.13.519-.292.519-.292v-5.861z" opacity=".32"/><path fill="#fff7ab" d="M32.124 116.735c-.874-2.332-2.137-4.372-3.691-5.959l-2.3-1.328-.13 6.283s.551 2.817 6.575 5.991c.097.032.162.097.226.129.033-1.846-.13-3.659-.68-5.116" opacity=".22"/><path fill="#fff7ab" d="M32.513 116.443c-.875-2.332-1.781-4.08-4.08-5.667l-1.587-.907c1.554 1.943 2.947 3.951 3.627 6.444.259 1.037.324 2.688.13 4.275.582.356 1.23.745 1.975 1.133.097.033.161.098.226.13.421-1.716.26-3.983-.291-5.408" opacity=".32"/><path fill="#fff8d4" d="M33.614 114.371c1.975 1.166 4.858 2.04 6.088 3.627.13.162.486 1.101.583 1.327v-1.748l-14.152-8.161-.13 6.282s.098.486.649 1.328c-.389-1.651-.454-4.857.226-6.023.616-1.004 4.825 2.234 6.736 3.368"/><path fill="url(#X)" d="m40.286 117.609 1.425-.907-14.151-8.193-1.425.907z"/><path fill="url(#Y)" d="M28.53 115.536c.583-.389 1.749-.551 1.457-1.393-.162-.453-1.004-1.263-2.558-1.069-1.749.357-3.012 1.361-3.336 2.818-.388 1.716 1.652 3.335 2.753 4.048 3.012 1.91 6.153 2.623 8.97 1.975 1.393-.324 3.174-1.198 3.012-2.364s-2.558-1.781-3.757-1.198c-1.36.648-3.108.842-4.566.291-1.165-.518-3.724-1.943-1.975-3.108"/><path fill="#f49c1c" d="M29.565 120.297c-2.105-.81-4.469-2.235-4.89-3.983-.453-1.749 1.943-2.818 3.692-3.271a4 4 0 0 0-.907 0c-1.748.356-3.012 1.36-3.335 2.817-.389 1.717 1.651 3.336 2.752 4.048 3.012 1.911 6.153 2.623 8.97 1.975 1.231-.291 2.753-1.003 2.98-1.975-.292-.777-.81-.518-1.004-.356-1.781 1.651-6.865 1.263-8.258.745"/><path fill="#f49c1c" d="M32.512 121.268c-4.76-.227-7.772-3.206-8.387-4.534.291 1.393 1.846 2.591 2.753 3.174 3.011 1.911 6.152 2.623 8.97 1.975 1.392-.324 3.173-1.198 3.011-2.364-.097-.777-1.23-1.327-2.299-1.392.13.097.162.291.356.388 1.879.745.907 3.012-4.404 2.753"/><path fill="#f49c1c" d="M27.849 115.212c-2.202 1.587 1.943 3.886 3.173 4.145 1.296.292 2.397.324 3.627-.194.875-.356 2.04-.712 3.141-.745-.842-.388-2.007-.453-2.72-.129-1.36.647-3.109.842-4.566.291-1.198-.453-3.756-1.878-2.008-3.044.583-.389 1.75-.55 1.458-1.392-.098-.227-.357-.551-.81-.81 0 .032-.032.097 0 .129.615.648-.486 1.166-1.295 1.749"/><path fill="#fff8d4" d="M27.041 114.759c.26-.226 1.878-1.392.745-1.36v.065c-1.587.194-3.53 2.17-2.526 3.724.453.712 1.393 1.36 2.073 1.781.712.453 1.78 1.101 2.655.939-.389-.518-1.295-1.004-1.878-1.457-.55-.486-1.198-.972-1.587-1.619-.583-.907-.227-1.49.518-2.073"/><path fill="#845203" d="M30.602 121.074c-4.307-.907-6.218-3.66-6.477-4.34.291 1.393 1.846 2.591 2.753 3.174 3.011 1.911 6.152 2.623 8.97 1.975 1.392-.324 3.173-1.198 3.011-2.364-.097-.777-1.23-1.327-2.299-1.392.033.032 2.267.518 1.522 1.813-.907 1.522-4.177 1.814-7.48 1.134"/><path fill="url(#Z)" d="m58.679 162.556 4.469 2.623-.648-14.184-4.469-2.396z"/><path fill="url(#aa)" d="m58.387 156.144.291 6.379 4.502 2.655-.13-3.173c-1.652-1.878-3.303-3.821-4.663-5.861"/><path fill="url(#ab)" d="m63.148 165.179 1.425-.616-.519-14.119-1.554.551z"/><path fill="url(#ac)" d="m58.031 148.599 4.437 2.428 1.587-.583-4.307-2.428z"/><path fill="#93561b" d="M59.489 150.607c-1.004.324-1.425 1.846-.94 3.335.486 1.522 1.717 2.462 2.753 2.138 1.004-.324 1.425-1.846.94-3.336-.519-1.522-1.75-2.493-2.753-2.137"/><path fill="url(#ad)" d="M59.36 150.931c-.843.259-1.167 1.619-.713 2.979.453 1.393 1.522 2.267 2.364 2.008.842-.291 1.165-1.619.712-3.012-.453-1.392-1.522-2.266-2.364-1.975"/><path fill="url(#ae)" d="m63.245 167.154 3.109-1.586-1.814-1.037-1.425.648z"/><path fill="url(#af)" d="m58.614 164.532 4.63 2.623-.129-1.976-4.63-2.72z"/><path fill="#fff" d="M26.879 106.565a4.3 4.3 0 0 1-5.926 1.165c-1.943-1.295-2.461-3.95-1.166-5.893 1.328-1.944 3.95-2.462 5.894-1.166 2.008 1.327 2.526 3.951 1.198 5.894" opacity=".077"/><path fill="#fff" d="M26.685 106.468c-1.23 1.846-3.756 2.332-5.602 1.101s-2.332-3.756-1.101-5.602 3.756-2.332 5.602-1.101 2.364 3.756 1.101 5.602" opacity=".154"/><path fill="#fff" d="M26.492 106.338c-1.166 1.749-3.53 2.202-5.279 1.036s-2.202-3.529-1.036-5.278 3.53-2.202 5.278-1.036c1.749 1.165 2.235 3.529 1.037 5.278" opacity=".231"/><path fill="#fff" d="M26.33 106.209a3.56 3.56 0 0 1-4.956.972 3.56 3.56 0 0 1-.971-4.955 3.56 3.56 0 0 1 4.955-.971 3.58 3.58 0 0 1 .971 4.954" opacity=".308"/><path fill="#fff" d="M26.136 106.079c-1.036 1.555-3.109 1.943-4.663.907a3.37 3.37 0 0 1-.907-4.663c1.036-1.554 3.109-1.943 4.663-.907 1.522 1.037 1.943 3.141.907 4.663" opacity=".385"/><path fill="#fff" d="M25.94 105.949c-.971 1.425-2.914 1.813-4.34.842-1.424-.972-1.813-2.915-.841-4.34.971-1.424 2.914-1.813 4.34-.842 1.424.972 1.813 2.915.841 4.34" opacity=".462"/><path fill="#fff" d="M25.747 105.821c-.907 1.328-2.688 1.684-4.016.777s-1.684-2.688-.777-4.015c.906-1.328 2.688-1.684 4.015-.778 1.328.875 1.684 2.688.777 4.016" opacity=".538"/><path fill="#fff" d="M25.583 105.69c-.81 1.231-2.493 1.555-3.724.713-1.23-.81-1.554-2.494-.712-3.724.81-1.231 2.493-1.555 3.724-.713a2.727 2.727 0 0 1 .712 3.724" opacity=".615"/><path fill="#fff" d="M25.39 105.56c-.745 1.134-2.267 1.425-3.4.648-1.134-.745-1.425-2.267-.648-3.4.745-1.134 2.267-1.425 3.4-.68 1.101.809 1.392 2.331.648 3.432" opacity=".692"/><path fill="#fff" d="M25.196 105.432c-.68 1.004-2.073 1.295-3.077.615s-1.295-2.073-.615-3.076 2.072-1.296 3.076-.616a2.207 2.207 0 0 1 .616 3.077" opacity=".769"/><path fill="#fff" d="M25 105.334a2.02 2.02 0 0 1-2.784.551 2.02 2.02 0 0 1-.55-2.785 2.02 2.02 0 0 1 2.784-.551c.94.616 1.166 1.846.55 2.785" opacity=".846"/><path fill="#fff" d="M24.807 105.205c-.55.81-1.651 1.037-2.46.486-.81-.551-1.037-1.652-.487-2.461.55-.81 1.652-1.036 2.462-.486a1.747 1.747 0 0 1 .485 2.461" opacity=".923"/><path fill="#fff" d="M24.645 105.075c-.486.713-1.425.907-2.137.421-.713-.485-.907-1.425-.421-2.137.485-.712 1.424-.907 2.137-.421.68.453.874 1.425.42 2.137"/><path fill="#fff" d="M23.77 102.938c-.356.647-3.303 0-3.303 0s2.331.906 2.882 1.392c.518.453-.842 5.667-.842 5.667s1.49-4.436 1.846-5.343c.162-.389 4.922.583 4.922.583s-3.076-1.328-4.598-1.943c-.162-.065.745-4.21.745-4.21s-1.296 3.206-1.652 3.854"/><path fill="#fff" d="M64.607 135.612c-.648 3.011-3.627 4.922-6.606 4.242-3.012-.648-4.89-3.627-4.242-6.606.647-3.012 3.626-4.89 6.606-4.242s4.89 3.627 4.242 6.606" opacity=".077"/><path fill="#fff" d="M64.316 135.547c-.615 2.85-3.433 4.631-6.283 4.016s-4.63-3.433-4.015-6.25c.615-2.85 3.433-4.631 6.25-4.016 2.85.616 4.663 3.433 4.048 6.25" opacity=".154"/><path fill="#fff" d="M64.026 135.483c-.583 2.688-3.239 4.372-5.927 3.789s-4.371-3.239-3.788-5.926 3.238-4.372 5.926-3.789c2.655.615 4.372 3.27 3.789 5.926" opacity=".231"/><path fill="#fff" d="M63.733 135.45a4.67 4.67 0 0 1-5.57 3.563 4.67 4.67 0 0 1-3.562-5.57 4.67 4.67 0 0 1 5.57-3.562c2.494.55 4.113 3.044 3.562 5.569" opacity=".308"/><path fill="#fff" d="M63.443 135.385a4.37 4.37 0 0 1-5.214 3.335 4.37 4.37 0 0 1-3.335-5.213 4.373 4.373 0 0 1 5.214-3.336 4.373 4.373 0 0 1 3.335 5.214" opacity=".385"/><path fill="#fff" d="M63.15 135.32a4.074 4.074 0 0 1-4.857 3.109 4.074 4.074 0 0 1-3.108-4.857 4.074 4.074 0 0 1 4.857-3.109c2.202.453 3.595 2.655 3.109 4.857" opacity=".462"/><path fill="#fff" d="M62.859 135.255c-.454 2.04-2.462 3.335-4.502 2.882s-3.335-2.461-2.882-4.501c.454-2.04 2.461-3.336 4.502-2.882 2.04.421 3.335 2.461 2.882 4.501" opacity=".538"/><path fill="#fff" d="M62.566 135.191a3.524 3.524 0 0 1-4.145 2.688c-1.878-.421-3.076-2.267-2.655-4.145.42-1.878 2.267-3.077 4.145-2.656 1.878.357 3.076 2.235 2.655 4.113" opacity=".615"/><path fill="#fff" d="M62.276 135.126c-.388 1.716-2.072 2.817-3.789 2.428-1.716-.388-2.817-2.072-2.428-3.788.388-1.717 2.072-2.818 3.788-2.429 1.717.356 2.818 2.072 2.43 3.789" opacity=".692"/><path fill="#fff" d="M61.983 135.061c-.356 1.555-1.878 2.559-3.465 2.202-1.554-.323-2.558-1.878-2.202-3.465.324-1.554 1.878-2.558 3.465-2.202 1.555.357 2.558 1.911 2.202 3.465" opacity=".769"/><path fill="#fff" d="M61.726 134.997c-.292 1.392-1.684 2.299-3.109 2.007-1.392-.291-2.3-1.684-2.008-3.108a2.584 2.584 0 0 1 3.109-1.976 2.6 2.6 0 0 1 2.008 3.077" opacity=".846"/><path fill="#fff" d="M61.435 134.932a2.286 2.286 0 0 1-2.753 1.749c-1.263-.259-2.04-1.49-1.78-2.753a2.286 2.286 0 0 1 2.752-1.748c1.263.259 2.04 1.522 1.78 2.752" opacity=".923"/><path fill="#fff" d="M61.143 134.867c-.227 1.101-1.296 1.781-2.397 1.554s-1.78-1.328-1.554-2.396c.227-1.069 1.328-1.781 2.396-1.522 1.101.194 1.781 1.263 1.555 2.364"/><path fill="#fff" d="M59.039 132.73c-.13.971-4.016 1.619-4.016 1.619s3.239-.032 4.178.291c.842.292 1.716 7.254 1.716 7.254s-.324-6.088-.356-7.383c0-.518 6.25-1.684 6.25-1.684s-4.404-.13-6.51-.162c-.226 0-1.133-5.44-1.133-5.44s0 4.533-.129 5.505"/><path fill="#fff" d="M82.807 42.932c-1.782 2.493-5.247 3.076-7.773 1.295-2.493-1.78-3.076-5.246-1.295-7.772a5.55 5.55 0 0 1 7.74-1.295c2.526 1.814 3.109 5.279 1.328 7.772" opacity=".077"/><path fill="#fff" d="M82.58 42.77c-1.683 2.364-4.986 2.914-7.35 1.23-2.364-1.683-2.915-4.986-1.231-7.35s4.987-2.915 7.351-1.231 2.915 4.987 1.23 7.351" opacity=".154"/><path fill="#fff" d="M82.322 42.608c-1.587 2.234-4.696 2.753-6.93 1.166s-2.753-4.696-1.166-6.93 4.695-2.753 6.93-1.166 2.752 4.696 1.166 6.93" opacity=".231"/><path fill="#fff" d="M82.094 42.414c-1.49 2.105-4.437 2.59-6.51 1.101-2.104-1.49-2.59-4.404-1.1-6.509a4.63 4.63 0 0 1 6.509-1.068c2.105 1.457 2.59 4.371 1.1 6.476" opacity=".308"/><path fill="#fff" d="M81.835 42.252c-1.393 1.976-4.146 2.43-6.12 1.037-1.976-1.393-2.43-4.145-1.005-6.12 1.393-1.976 4.145-2.43 6.12-1.005a4.326 4.326 0 0 1 1.005 6.088" opacity=".385"/><path fill="#fff" d="M81.609 42.09c-1.296 1.846-3.854 2.267-5.7.94-1.846-1.296-2.267-3.854-.939-5.7 1.295-1.846 3.854-2.267 5.7-.939 1.813 1.295 2.234 3.854.939 5.7" opacity=".462"/><path fill="#fff" d="M81.35 41.896c-1.23 1.716-3.595 2.105-5.279.874a3.755 3.755 0 0 1-.874-5.278c1.23-1.684 3.594-2.105 5.278-.875 1.717 1.231 2.105 3.595.875 5.279" opacity=".538"/><path fill="#fff" d="M81.123 41.734c-1.134 1.587-3.303 1.943-4.858.81s-1.943-3.304-.81-4.858 3.304-1.943 4.858-.81c1.554 1.101 1.943 3.303.81 4.858" opacity=".615"/><path fill="#fff" d="M80.896 41.572a3.21 3.21 0 0 1-4.469.745 3.21 3.21 0 0 1-.745-4.47c1.037-1.424 3.012-1.78 4.47-.744 1.424 1.036 1.748 3.012.744 4.469" opacity=".692"/><path fill="#fff" d="M80.637 41.378c-.94 1.295-2.753 1.619-4.048.68-1.295-.94-1.62-2.753-.68-4.048.939-1.295 2.752-1.62 4.048-.68a2.88 2.88 0 0 1 .68 4.048" opacity=".769"/><path fill="#fff" d="M80.41 41.216c-.843 1.166-2.462 1.457-3.628.615-1.166-.841-1.457-2.46-.615-3.626a2.63 2.63 0 0 1 3.627-.616c1.166.842 1.457 2.461.615 3.627" opacity=".846"/><path fill="#fff" d="M80.15 41.053a2.326 2.326 0 0 1-3.238.55c-1.036-.744-1.263-2.169-.55-3.237.745-1.037 2.17-1.263 3.238-.551a2.303 2.303 0 0 1 .55 3.238" opacity=".923"/><path fill="#fff" d="M79.926 40.892c-.648.907-1.911 1.101-2.818.453s-1.1-1.91-.453-2.817 1.91-1.1 2.817-.453c.875.647 1.101 1.91.454 2.817"/><path fill="#fff" d="M78.855 38.074c-.486.842-4.34-.097-4.34-.097s3.012 1.263 3.725 1.91c.647.616-1.296 7.351-1.296 7.351s2.105-5.731 2.591-6.93c.194-.485 6.412.94 6.412.94s-3.983-1.846-5.926-2.72c-.227-.098 1.133-5.441 1.133-5.441s-1.813 4.145-2.299 4.987"/><path fill="#fff" d="M86.53 123.696c-.939 2.914-4.048 4.533-6.995 3.627-2.914-.939-4.566-4.048-3.627-6.995.94-2.915 4.048-4.534 6.963-3.627a5.595 5.595 0 0 1 3.66 6.995" opacity=".077"/><path fill="#fff" d="M86.24 123.599c-.874 2.785-3.853 4.307-6.606 3.433a5.25 5.25 0 0 1-3.432-6.607 5.275 5.275 0 0 1 6.606-3.432c2.785.874 4.307 3.853 3.433 6.606" opacity=".154"/><path fill="#fff" d="M85.948 123.501c-.842 2.623-3.627 4.048-6.25 3.239s-4.08-3.627-3.239-6.25 3.627-4.081 6.25-3.239 4.08 3.66 3.239 6.25" opacity=".231"/><path fill="#fff" d="M85.689 123.436a4.67 4.67 0 0 1-5.862 3.045 4.67 4.67 0 0 1-3.044-5.862 4.67 4.67 0 0 1 5.861-3.044c2.43.745 3.822 3.4 3.044 5.861" opacity=".308"/><path fill="#fff" d="M85.398 123.339c-.745 2.299-3.206 3.595-5.505 2.85a4.36 4.36 0 0 1-2.85-5.505c.745-2.3 3.173-3.595 5.505-2.85a4.415 4.415 0 0 1 2.85 5.505" opacity=".385"/><path fill="#fff" d="M85.105 123.243c-.68 2.137-2.979 3.335-5.116 2.655-2.138-.68-3.336-2.979-2.656-5.116.68-2.138 2.98-3.336 5.117-2.656s3.335 2.979 2.655 5.117" opacity=".462"/><path fill="#fff" d="M84.847 123.145c-.648 2.008-2.753 3.109-4.76 2.461-2.008-.615-3.11-2.752-2.462-4.76.615-2.008 2.753-3.109 4.76-2.461 1.976.648 3.077 2.785 2.462 4.76" opacity=".538"/><path fill="#fff" d="M84.554 123.08a3.48 3.48 0 0 1-4.372 2.267 3.48 3.48 0 0 1-2.267-4.372 3.48 3.48 0 0 1 4.372-2.266c1.814.55 2.85 2.525 2.267 4.371" opacity=".615"/><path fill="#fff" d="M84.263 122.983c-.55 1.684-2.331 2.623-4.015 2.072a3.173 3.173 0 0 1-2.073-4.015 3.174 3.174 0 0 1 4.016-2.073 3.174 3.174 0 0 1 2.072 4.016" opacity=".692"/><path fill="#fff" d="M83.972 122.886a2.906 2.906 0 0 1-3.66 1.878 2.885 2.885 0 0 1-1.878-3.627 2.885 2.885 0 0 1 3.627-1.878c1.555.485 2.397 2.105 1.911 3.627" opacity=".769"/><path fill="#fff" d="M83.711 122.789c-.42 1.36-1.91 2.137-3.27 1.684a2.58 2.58 0 0 1-1.684-3.271c.42-1.36 1.91-2.137 3.27-1.716 1.36.485 2.105 1.943 1.684 3.303" opacity=".846"/><path fill="#fff" d="M83.42 122.725c-.388 1.23-1.683 1.878-2.914 1.489a2.277 2.277 0 0 1-1.49-2.882 2.323 2.323 0 0 1 2.883-1.522 2.317 2.317 0 0 1 1.522 2.915" opacity=".923"/><path fill="#fff" d="M83.129 122.626a1.97 1.97 0 0 1-2.526 1.295 1.97 1.97 0 0 1-1.295-2.525c.324-1.069 1.457-1.652 2.526-1.328 1.036.356 1.651 1.489 1.295 2.558"/><path fill="#fff" d="M81.253 120.295c-.227.972-4.146 1.231-4.146 1.231s3.239.259 4.145.68c.81.388 1.037 7.383 1.037 7.383s.226-6.088.324-7.383c.032-.551 6.38-1.101 6.38-1.101s-4.373-.519-6.478-.745c-.226-.033-.615-5.538-.615-5.538s-.42 4.502-.648 5.473"/><g clip-path="url(#ag)"><g filter="url(#ah)"><path fill="url(#ai)" d="M58.618 84.927c18.698 3.28 36.515-9.218 39.795-27.917 3.281-18.698-9.218-36.515-27.916-39.795-18.699-3.28-36.515 9.218-39.796 27.916-3.28 18.699 9.219 36.516 27.917 39.796"/></g><path fill="url(#aj)" d="M57.206 82.368C75.904 85.648 93.72 73.15 97 54.452s-9.218-36.515-27.916-39.796c-18.699-3.28-36.516 9.219-39.796 27.917s9.218 36.515 27.917 39.795"/><path fill="#fcffac" d="m43.95 47.914-3.777-24.972a34.3 34.3 0 0 0-7.227 9.134l11.082 45.011a34 34 0 0 0 6.84 3.535z" opacity=".7"/><path fill="#fcffac" d="m56.772 29.012 1.736-1.439-2.604-12.672q-1.433.31-2.825.737z"/><path fill="#fcffac" d="m80.617 38.34 8.79 32.355a34 34 0 0 0 2.935-4.03L77.77 17.395a34 34 0 0 0-4.606-1.768z" opacity=".7"/><path fill="#fcffac" d="M78.27 70.868c11.588-8.129 14.392-24.112 6.263-35.7-8.128-11.586-24.111-14.39-35.698-6.262s-14.391 24.112-6.263 35.699 24.111 14.391 35.699 6.263"/><path fill="#fbaa12" d="M77.94 69.607c11.652-8.173 14.471-24.244 6.298-35.895-8.173-11.65-24.244-14.47-35.895-6.297S33.873 51.66 42.046 63.31 66.29 77.78 77.94 69.607"/><path fill="#ea831c" d="M86.478 37.57a25.7 25.7 0 0 1 .707 11.901C84.725 63.49 71.368 72.86 57.35 70.401c-8.589-1.507-15.433-7.105-18.88-14.44 2.728 9.012 10.315 16.195 20.222 17.933 14.018 2.46 27.376-6.912 29.835-20.929.953-5.43.13-10.76-2.049-15.395" opacity=".3"/><path fill="#ffffeb" d="M31.804 34.376C33.15 45.342 41.5 54.615 52.949 56.623c14.028 2.46 27.395-6.916 29.856-20.944a25.68 25.68 0 0 0-3.009-17.249 34.3 34.3 0 0 0-10.713-3.776c-15.805-2.77-30.981 5.731-37.28 19.722" opacity=".25"/><path fill="#cf7310" d="M38.23 45.118C40.69 31.101 54.047 21.73 68.065 24.19c8.613 1.511 15.472 7.137 18.91 14.502-3.258-7.882-10.355-13.978-19.376-15.56-14.018-2.46-27.376 6.911-29.835 20.929a25.65 25.65 0 0 0 2.02 15.333 25.65 25.65 0 0 1-1.554-14.275"/><path fill="#db8412" d="M59.885 65.041c-4.715-1.29-7.845-3.692-9.821-6.51l4.462-4.312c1.332 2.087 3.616 4.031 6.507 5.156l1.235-7.04c-4.433-2.013-9.237-4.554-8.16-10.696.789-4.494 5.067-7.758 11.34-7.43l.736-4.194 4.194.736-.762 4.344c3.516 1.08 6.426 2.98 8.578 5.674l-4.436 4.163c-1.385-1.788-3.175-3.028-5.167-3.995l-1.104 6.291c4.434 2.014 9.361 4.73 8.284 10.872-.868 4.944-4.846 8.26-11.568 7.853l-.71 4.044-4.194-.735.736-4.195zm3.468-19.773.946-5.392c-2-.042-3.382.796-3.645 2.294-.06 1.224 1.007 2.184 2.7 3.098m2.952 8.701-1.052 5.992c2.326-.055 3.761-1.193 3.998-2.54.113-1.525-1.104-2.51-2.946-3.452"/><path fill="#fce13c" d="M57.877 64.689c-4.715-1.29-7.845-3.693-9.821-6.51l4.462-4.312c1.333 2.086 3.617 4.03 6.507 5.156l1.235-7.04c-4.433-2.014-9.237-4.555-8.16-10.697.789-4.493 5.067-7.757 11.34-7.43l.736-4.193 4.194.735-.762 4.344c3.516 1.08 6.426 2.98 8.578 5.674L71.75 44.58c-1.385-1.787-3.175-3.028-5.167-3.995l-1.103 6.292c4.433 2.013 9.36 4.73 8.283 10.872-.867 4.943-4.846 8.26-11.568 7.852l-.71 4.045-4.194-.736.736-4.194zm3.468-19.773.947-5.393c-2-.042-3.383.796-3.645 2.294-.06 1.225 1.006 2.184 2.699 3.099m2.952 8.7-1.051 5.993c2.325-.055 3.76-1.193 3.997-2.541.113-1.525-1.104-2.51-2.946-3.451"/></g><defs><linearGradient id="a" x1="55.713" x2="67.64" y1="73.763" y2="73.831" gradientUnits="userSpaceOnUse"><stop stop-color="#ffd612"/><stop offset=".654" stop-color="#fa0"/></linearGradient><linearGradient id="b" x1="57.462" x2="65.908" y1="72.869" y2="72.917" gradientUnits="userSpaceOnUse"><stop stop-color="#fff654"/><stop offset=".654" stop-color="#ffd947"/></linearGradient><linearGradient id="c" x1="90.184" x2="102.107" y1="93.719" y2="93.787" gradientUnits="userSpaceOnUse"><stop stop-color="#ffd612"/><stop offset=".654" stop-color="#fa0"/></linearGradient><linearGradient id="d" x1="91.925" x2="100.375" y1="92.826" y2="92.874" gradientUnits="userSpaceOnUse"><stop stop-color="#fff654"/><stop offset=".654" stop-color="#ffd947"/></linearGradient><linearGradient id="e" x1="55.867" x2="67.794" y1="73.816" y2="73.816" gradientUnits="userSpaceOnUse"><stop stop-color="#ffd612"/><stop offset=".654" stop-color="#fa0"/></linearGradient><linearGradient id="f" x1="57.605" x2="66.055" y1="72.914" y2="72.914" gradientUnits="userSpaceOnUse"><stop stop-color="#fff654"/><stop offset=".654" stop-color="#ffd947"/></linearGradient><linearGradient id="g" x1="90.448" x2="102.372" y1="93.576" y2="93.576" gradientUnits="userSpaceOnUse"><stop stop-color="#ffd612"/><stop offset=".654" stop-color="#fa0"/></linearGradient><linearGradient id="h" x1="92.186" x2="100.637" y1="92.674" y2="92.674" gradientUnits="userSpaceOnUse"><stop stop-color="#fff654"/><stop offset=".654" stop-color="#ffd947"/></linearGradient><linearGradient id="i" x1="92.076" x2="110.784" y1="35.346" y2="35.346" gradientUnits="userSpaceOnUse"><stop stop-color="#fff654"/><stop offset=".654" stop-color="#ffd947"/></linearGradient><linearGradient id="j" x1="113.084" x2="139.633" y1="80.872" y2="80.872" gradientUnits="userSpaceOnUse"><stop stop-color="#c67602"/><stop offset=".654" stop-color="#dd9300"/></linearGradient><linearGradient id="k" x1="44.781" x2="131.62" y1="60.544" y2="60.544" gradientUnits="userSpaceOnUse"><stop stop-color="#a1d7de"/><stop offset=".654" stop-color="#77b4bd"/></linearGradient><linearGradient id="l" x1="92.729" x2="68.633" y1="70.802" y2="91.02" gradientUnits="userSpaceOnUse"><stop stop-color="#fff654"/><stop offset=".654" stop-color="#ffd947"/></linearGradient><linearGradient id="m" x1="131.62" x2="109.056" y1="80.288" y2="80.288" gradientUnits="userSpaceOnUse"><stop stop-color="#fff654"/><stop offset=".654" stop-color="#ffd947"/></linearGradient><linearGradient id="n" x1="44.781" x2="66.955" y1="40.801" y2="40.801" gradientUnits="userSpaceOnUse"><stop stop-color="#fff654"/><stop offset=".654" stop-color="#ffd947"/></linearGradient><linearGradient id="o" x1="63.224" x2="131.622" y1="40.801" y2="40.801" gradientUnits="userSpaceOnUse"><stop stop-color="#fff654"/><stop offset=".654" stop-color="#ffd947"/></linearGradient><linearGradient id="p" x1="128.902" x2="120.556" y1="83.745" y2="79.307" gradientUnits="userSpaceOnUse"><stop stop-color="#ce7b02"/><stop offset=".654" stop-color="#e69900"/></linearGradient><linearGradient id="q" x1="90.403" x2="110.263" y1="38.759" y2="38.759" gradientUnits="userSpaceOnUse"><stop stop-color="#f59d0f"/><stop offset=".654" stop-color="#f57f00"/></linearGradient><linearGradient id="r" x1="66.956" x2="121.297" y1="48.379" y2="48.379" gradientUnits="userSpaceOnUse"><stop stop-color="#ce7b02"/><stop offset=".654" stop-color="#e69900"/></linearGradient><linearGradient id="s" x1="54.69" x2="68.306" y1="45.95" y2="45.95" gradientUnits="userSpaceOnUse"><stop stop-color="#ce7b02"/><stop offset=".654" stop-color="#e69900"/></linearGradient><linearGradient id="t" x1="123.863" x2="134.667" y1="83.358" y2="83.358" gradientUnits="userSpaceOnUse"><stop offset=".248" stop-color="#9f5c03"/><stop offset=".737" stop-color="#98540a"/><stop offset="1" stop-color="#934d0f"/></linearGradient><linearGradient id="u" x1="123.652" x2="134.459" y1="83.692" y2="83.753" gradientUnits="userSpaceOnUse"><stop offset=".248" stop-color="#9f5c03"/><stop offset=".737" stop-color="#98540a"/><stop offset="1" stop-color="#934d0f"/></linearGradient><linearGradient id="v" x1="123.823" x2="134.628" y1="83.356" y2="83.356" gradientUnits="userSpaceOnUse"><stop offset=".248" stop-color="#9f5c03"/><stop offset=".737" stop-color="#98540a"/><stop offset="1" stop-color="#934d0f"/></linearGradient><linearGradient id="w" x1="43.708" x2="111.721" y1="85.427" y2="85.427" gradientUnits="userSpaceOnUse"><stop stop-color="#fae848"/><stop offset=".654" stop-color="#facc3d"/></linearGradient><linearGradient id="x" x1="43.227" x2="5.115" y1="65.221" y2="97.201" gradientUnits="userSpaceOnUse"><stop stop-color="#fae848"/><stop offset=".654" stop-color="#facc3d"/></linearGradient><linearGradient id="y" x1=".049" x2="68.058" y1="110.798" y2="110.798" gradientUnits="userSpaceOnUse"><stop stop-color="#fff654"/><stop offset=".654" stop-color="#ffd947"/></linearGradient><linearGradient id="z" x1="68.058" x2="111.722" y1="117.567" y2="117.567" gradientUnits="userSpaceOnUse"><stop stop-color="#fff654"/><stop offset=".654" stop-color="#ffd947"/></linearGradient><linearGradient id="A" x1="68.027" x2="111.721" y1="123.211" y2="123.211" gradientUnits="userSpaceOnUse"><stop stop-color="#ce7b02"/><stop offset=".654" stop-color="#e69900"/></linearGradient><linearGradient id="B" x1="68.027" x2="111.721" y1="123.211" y2="123.211" gradientUnits="userSpaceOnUse"><stop stop-color="#fff654"/><stop offset=".654" stop-color="#ffd947"/></linearGradient><linearGradient id="C" x1=".015" x2="68.058" y1="116.263" y2="116.263" gradientUnits="userSpaceOnUse"><stop stop-color="#ffd612"/><stop offset=".654" stop-color="#fa0"/></linearGradient><linearGradient id="D" x1=".014" x2="68.058" y1="130.215" y2="130.215" gradientUnits="userSpaceOnUse"><stop stop-color="#fff654"/><stop offset=".654" stop-color="#ffd947"/></linearGradient><linearGradient id="E" x1=".016" x2="68.066" y1="104.558" y2="104.558" gradientUnits="userSpaceOnUse"><stop stop-color="#fff654"/><stop offset=".654" stop-color="#ffd947"/></linearGradient><linearGradient id="F" x1=".014" x2="68.044" y1="119.99" y2="119.99" gradientUnits="userSpaceOnUse"><stop stop-color="#fff654"/><stop offset=".654" stop-color="#ffd947"/></linearGradient><linearGradient id="G" x1=".015" x2="68.028" y1="121.516" y2="121.516" gradientUnits="userSpaceOnUse"><stop stop-color="#fff654"/><stop offset=".654" stop-color="#ffd947"/></linearGradient><linearGradient id="H" x1=".015" x2="68.058" y1="116.263" y2="116.263" gradientUnits="userSpaceOnUse"><stop stop-color="#f59d0f"/><stop offset=".654" stop-color="#f57f00"/></linearGradient><linearGradient id="I" x1="15.997" x2="19.233" y1="138.612" y2="138.612" gradientUnits="userSpaceOnUse"><stop stop-color="#b5601a"/><stop offset=".654" stop-color="#e27e00"/></linearGradient><linearGradient id="J" x1="14.352" x2="13.101" y1="136.739" y2="138.461" gradientUnits="userSpaceOnUse"><stop stop-color="#ffd612"/><stop offset=".654" stop-color="#fa0"/></linearGradient><linearGradient id="K" x1="9.575" x2="15.997" y1="129.283" y2="129.283" gradientUnits="userSpaceOnUse"><stop stop-color="#f9aa0b"/><stop offset=".654" stop-color="#fa0"/></linearGradient><linearGradient id="L" x1="9.578" x2="15.997" y1="132.575" y2="132.575" gradientUnits="userSpaceOnUse"><stop stop-color="#fff654"/><stop offset=".654" stop-color="#ffd947"/></linearGradient><linearGradient id="M" x1="14.667" x2="17.423" y1="130.372" y2="130.372" gradientUnits="userSpaceOnUse"><stop stop-color="#b5601a"/><stop offset=".654" stop-color="#e27e00"/></linearGradient><linearGradient id="N" x1="9.575" x2="16.39" y1="121.732" y2="121.732" gradientUnits="userSpaceOnUse"><stop stop-color="#fff654"/><stop offset=".654" stop-color="#ffd947"/></linearGradient><linearGradient id="W" x1="26.005" x2="40.284" y1="116.647" y2="116.647" gradientUnits="userSpaceOnUse"><stop stop-color="#ffdd12"/><stop offset=".654" stop-color="#ffb000"/></linearGradient><linearGradient id="X" x1="26.128" x2="41.726" y1="113.057" y2="113.057" gradientUnits="userSpaceOnUse"><stop stop-color="#f59d0f"/><stop offset=".654" stop-color="#f57f00"/></linearGradient><linearGradient id="Y" x1="24.069" x2="38.87" y1="117.57" y2="117.57" gradientUnits="userSpaceOnUse"><stop stop-color="#fff654"/><stop offset=".654" stop-color="#ffd947"/></linearGradient><linearGradient id="Z" x1="58.044" x2="63.153" y1="156.896" y2="156.896" gradientUnits="userSpaceOnUse"><stop stop-color="#f9aa0b"/><stop offset=".654" stop-color="#fa0"/></linearGradient><linearGradient id="aa" x1="58.044" x2="63.152" y1="160.675" y2="160.675" gradientUnits="userSpaceOnUse"><stop stop-color="#fff654"/><stop offset=".654" stop-color="#ffd947"/></linearGradient><linearGradient id="ab" x1="62.513" x2="64.581" y1="157.821" y2="157.821" gradientUnits="userSpaceOnUse"><stop stop-color="#b5601a"/><stop offset=".654" stop-color="#e27e00"/></linearGradient><linearGradient id="ac" x1="58.044" x2="64.058" y1="149.529" y2="149.529" gradientUnits="userSpaceOnUse"><stop stop-color="#fff654"/><stop offset=".654" stop-color="#ffd947"/></linearGradient><linearGradient id="ae" x1="63.127" x2="66.366" y1="165.853" y2="165.853" gradientUnits="userSpaceOnUse"><stop stop-color="#b5601a"/><stop offset=".654" stop-color="#e27e00"/></linearGradient><linearGradient id="af" x1="61.482" x2="60.23" y1="163.98" y2="165.703" gradientUnits="userSpaceOnUse"><stop stop-color="#ffd612"/><stop offset=".654" stop-color="#fa0"/></linearGradient><linearGradient id="ai" x1="36.418" x2="92.696" y1="70.81" y2="31.331" gradientUnits="userSpaceOnUse"><stop stop-color="#aa7e02"/><stop offset=".461" stop-color="#846811"/><stop offset="1" stop-color="#ffe59d"/></linearGradient><linearGradient id="aj" x1="35.005" x2="91.284" y1="68.251" y2="28.772" gradientUnits="userSpaceOnUse"><stop stop-color="#fbc01e"/><stop offset=".461" stop-color="#fdc822"/><stop offset="1" stop-color="#fce13c"/></linearGradient><radialGradient id="O" cx="0" cy="0" r="1" gradientTransform="matrix(2.17811 0 0 2.1781 12.169 125.62)" gradientUnits="userSpaceOnUse"><stop stop-color="#fcfce6"/><stop offset=".267" stop-color="#fff654"/><stop offset=".697" stop-color="#ffd947"/></radialGradient><radialGradient id="P" cx="0" cy="0" r="1" gradientTransform="matrix(2.17843 0 0 2.17844 3.7 98.934)" gradientUnits="userSpaceOnUse"><stop stop-color="#fcfce6"/><stop offset=".267" stop-color="#fff654"/><stop offset=".697" stop-color="#ffd947"/></radialGradient><radialGradient id="Q" cx="0" cy="0" r="1" gradientTransform="matrix(2.17778 0 0 2.17777 19.266 107.947)" gradientUnits="userSpaceOnUse"><stop stop-color="#fcfce6"/><stop offset=".267" stop-color="#fff654"/><stop offset=".697" stop-color="#ffd947"/></radialGradient><radialGradient id="R" cx="0" cy="0" r="1" gradientTransform="matrix(2.17972 0 0 2.17973 48.484 124.854)" gradientUnits="userSpaceOnUse"><stop stop-color="#fcfce6"/><stop offset=".267" stop-color="#fff654"/><stop offset=".697" stop-color="#ffd947"/></radialGradient><radialGradient id="S" cx="0" cy="0" r="1" gradientTransform="matrix(2.17908 0 0 2.17906 64.054 133.866)" gradientUnits="userSpaceOnUse"><stop stop-color="#fcfce6"/><stop offset=".267" stop-color="#fff654"/><stop offset=".697" stop-color="#ffd947"/></radialGradient><radialGradient id="T" cx="0" cy="0" r="1" gradientTransform="matrix(2.1794 0 0 2.17939 72.62 133.866)" gradientUnits="userSpaceOnUse"><stop stop-color="#fcfce6"/><stop offset=".267" stop-color="#fff654"/><stop offset=".697" stop-color="#ffd947"/></radialGradient><radialGradient id="U" cx="0" cy="0" r="1" gradientTransform="matrix(2.17972 0 0 2.17973 91.093 122.38)" gradientUnits="userSpaceOnUse"><stop stop-color="#fcfce6"/><stop offset=".267" stop-color="#fff654"/><stop offset=".697" stop-color="#ffd947"/></radialGradient><radialGradient id="V" cx="0" cy="0" r="1" gradientTransform="matrix(2.17778 0 0 2.17777 107.908 112.613)" gradientUnits="userSpaceOnUse"><stop stop-color="#fcfce6"/><stop offset=".267" stop-color="#fff654"/><stop offset=".697" stop-color="#ffd947"/></radialGradient><radialGradient id="ad" cx="0" cy="0" r="1" gradientTransform="translate(60.189 153.413)scale(2.1781)" gradientUnits="userSpaceOnUse"><stop stop-color="#fcfce6"/><stop offset=".267" stop-color="#fff654"/><stop offset=".697" stop-color="#ffd947"/></radialGradient><clipPath id="ag"><path fill="#fff" d="m28.09 0 89.457 15.694-16.115 91.856-89.457-15.694z"/></clipPath><filter id="ah" width="87.158" height="87.158" x="20.978" y="11.492" color-interpolation-filters="sRGB" filterUnits="userSpaceOnUse"><feFlood flood-opacity="0" result="BackgroundImageFix"/><feColorMatrix in="SourceAlpha" result="hardAlpha" values="0 0 0 0 0 0 0 0 0 0 0 0 0 0 0 0 0 0 127 0"/><feOffset dy="4"/><feGaussianBlur stdDeviation="4.6"/><feComposite in2="hardAlpha" operator="out"/><feColorMatrix values="0 0 0 0 1 0 0 0 0 1 0 0 0 0 1 0 0 0 1 0"/><feBlend in2="BackgroundImageFix" result="effect1_dropShadow_1149_11865"/><feBlend in="SourceGraphic" in2="effect1_dropShadow_1149_11865" result="shape"/></filter></defs></svg>