<svg xmlns="http://www.w3.org/2000/svg" width="153" height="150" fill="none" viewBox="0 0 153 150"><path fill="url(#a)" d="M116.971 81.272c10.402 0 18.835-8.433 18.835-18.835s-8.433-18.834-18.835-18.834-18.834 8.432-18.834 18.834 8.432 18.835 18.834 18.835"/><path fill="#fcffac" d="m106.553 63.932-4.402-13.12a18.8 18.8 0 0 0-3.036 5.613l10.243 23.244c1.273.564 2.622.99 4.026 1.26z" opacity=".7"/><path fill="#fcffac" d="m111.683 52.516.801-.941-2.605-6.593q-.745.304-1.455.666z"/><path fill="#fcffac" d="m125.436 55.293 7.807 16.63q.688-1.177 1.204-2.453l-12.53-25.212a19 19 0 0 0-2.653-.518z" opacity=".7"/><path fill="#fcffac" d="M127.25 73.07c5.484-5.484 5.484-14.375 0-19.86-5.484-5.483-14.375-5.483-19.859 0-5.484 5.485-5.484 14.376 0 19.86 5.484 5.485 14.375 5.485 19.859 0"/><path fill="#fbaa12" d="M126.953 72.421c5.515-5.514 5.515-14.455 0-19.969s-14.454-5.514-19.969 0c-5.514 5.514-5.514 14.455 0 19.969s14.455 5.514 19.969 0"/><path fill="#ea831c" d="M128.528 54.322a14.06 14.06 0 0 1 1.509 6.357c0 7.798-6.323 14.12-14.121 14.12a14.1 14.1 0 0 1-11.557-6.006c2.326 4.606 7.101 7.764 12.612 7.764 7.799 0 14.121-6.322 14.121-14.12 0-3.02-.949-5.82-2.564-8.115" opacity=".3"/><path fill="#ffffeb" d="M98.717 57.775c1.765 5.791 7.149 10.005 13.518 10.005 7.804 0 14.13-6.327 14.13-14.13 0-3.432-1.223-6.577-3.256-9.025a18.8 18.8 0 0 0-6.14-1.023c-8.792 0-16.178 6.026-18.252 14.173" opacity=".25"/><path fill="#cf7310" d="M103.201 62.964c0-7.798 6.323-14.12 14.121-14.12 4.791 0 9.026 2.387 11.578 6.036-2.504-3.945-6.911-6.564-11.93-6.564-7.798 0-14.12 6.323-14.12 14.12 0 3.007.939 5.795 2.541 8.085a14.05 14.05 0 0 1-2.19-7.557"/><path fill="#db8412" d="M116.776 71.666c-2.667-.25-4.583-1.25-5.917-2.583l2-2.75c.917 1 2.334 1.833 4 2.166v-3.916c-2.583-.667-5.416-1.584-5.416-5 0-2.5 2-4.667 5.416-5.084v-2.333h2.334v2.417c2 .25 3.75 1 5.166 2.25l-2 2.666c-.916-.833-2-1.333-3.166-1.666v3.5c2.583.666 5.5 1.666 5.5 5.083 0 2.75-1.834 4.917-5.5 5.333V74h-2.334v-2.333zm0-11v-3c-1.083.167-1.75.75-1.75 1.584.083.666.75 1.083 1.75 1.416m2.417 4.417v3.333c1.25-.25 1.916-1 1.916-1.75-.083-.833-.833-1.25-1.916-1.583"/><path fill="#fce13c" d="M115.659 71.666c-2.667-.25-4.584-1.25-5.917-2.583l2-2.75c.917 1 2.334 1.833 4 2.166v-3.916c-2.583-.667-5.416-1.584-5.416-5 0-2.5 2-4.667 5.416-5.084v-2.333h2.334v2.417c2 .25 3.75 1 5.166 2.25l-2 2.666c-.916-.833-2-1.333-3.166-1.666v3.5c2.583.666 5.499 1.666 5.499 5.083 0 2.75-1.833 4.917-5.499 5.333V74h-2.334v-2.333zm0-11v-3c-1.084.167-1.75.75-1.75 1.584.083.666.75 1.083 1.75 1.416m2.416 4.417v3.333c1.25-.25 1.917-1 1.917-1.75-.083-.833-.833-1.25-1.917-1.583"/><path fill="url(#b)" d="M79.971 38.272c10.402 0 18.835-8.433 18.835-18.835S90.373.603 79.97.603 61.137 9.035 61.137 19.437s8.432 18.835 18.834 18.835"/><path fill="#fcffac" d="m69.553 20.932-4.402-13.12a18.8 18.8 0 0 0-3.036 5.613L72.358 36.67a18.7 18.7 0 0 0 4.026 1.26z" opacity=".7"/><path fill="#fcffac" d="m74.683 9.516.8-.941-2.604-6.593q-.745.303-1.455.666z"/><path fill="#fcffac" d="m88.436 12.293 7.807 16.63q.688-1.176 1.204-2.453L84.917 1.258A19 19 0 0 0 82.264.74z" opacity=".7"/><path fill="#fcffac" d="M90.25 30.07c5.484-5.484 5.484-14.375 0-19.86-5.484-5.483-14.375-5.483-19.86 0-5.483 5.485-5.483 14.376 0 19.86 5.485 5.484 14.376 5.484 19.86 0"/><path fill="#fbaa12" d="M89.953 29.421c5.515-5.514 5.515-14.455 0-19.969s-14.454-5.514-19.969 0c-5.514 5.514-5.514 14.455 0 19.969s14.455 5.514 19.97 0"/><path fill="#ea831c" d="M91.529 11.322a14.1 14.1 0 0 1 1.508 6.357c0 7.798-6.323 14.12-14.12 14.12a14.1 14.1 0 0 1-11.558-6.005c2.326 4.605 7.1 7.763 12.613 7.763 7.797 0 14.12-6.322 14.12-14.12 0-3.02-.949-5.82-2.564-8.115" opacity=".3"/><path fill="#ffffeb" d="M61.717 14.775c1.765 5.791 7.15 10.005 13.518 10.005 7.804 0 14.13-6.327 14.13-14.13 0-3.432-1.223-6.577-3.256-9.025a18.8 18.8 0 0 0-6.14-1.023c-8.792 0-16.178 6.026-18.252 14.173" opacity=".25"/><path fill="#cf7310" d="M66.201 19.964c0-7.798 6.323-14.12 14.12-14.12 4.792 0 9.027 2.387 11.58 6.036-2.505-3.945-6.912-6.564-11.931-6.564-7.798 0-14.12 6.323-14.12 14.12 0 3.007.94 5.795 2.541 8.085a14.06 14.06 0 0 1-2.19-7.557"/><path fill="#db8412" d="M79.776 28.666c-2.667-.25-4.583-1.25-5.917-2.583l2-2.75c.917 1 2.334 1.833 4 2.166v-3.916c-2.583-.667-5.416-1.584-5.416-5 0-2.5 2-4.667 5.416-5.084V9.166h2.334v2.417c2 .25 3.75 1 5.166 2.25l-2 2.666c-.916-.833-2-1.333-3.166-1.666v3.5c2.583.666 5.5 1.666 5.5 5.083 0 2.75-1.834 4.917-5.5 5.333V31h-2.334v-2.333zm0-11v-3c-1.083.167-1.75.75-1.75 1.584.083.666.75 1.083 1.75 1.416m2.417 4.417v3.333c1.25-.25 1.916-1 1.916-1.75-.083-.833-.833-1.25-1.916-1.583"/><path fill="#fce13c" d="M78.659 28.666c-2.667-.25-4.584-1.25-5.917-2.583l2-2.75c.917 1 2.334 1.833 4 2.166v-3.916c-2.583-.667-5.416-1.584-5.416-5 0-2.5 2-4.667 5.416-5.084V9.166h2.334v2.417c2 .25 3.75 1 5.166 2.25l-2 2.666c-.916-.833-2-1.333-3.166-1.666v3.5c2.583.666 5.5 1.666 5.5 5.083 0 2.75-1.834 4.917-5.5 5.333V31h-2.334v-2.333zm0-11v-3c-1.084.167-1.75.75-1.75 1.584.083.666.75 1.083 1.75 1.416m2.416 4.417v3.333c1.25-.25 1.917-1 1.917-1.75-.083-.833-.833-1.25-1.916-1.583"/><path fill="url(#c)" d="M19.971 133.272c10.402 0 18.835-8.433 18.835-18.835S30.373 95.603 19.97 95.603s-18.834 8.432-18.834 18.834 8.432 18.835 18.834 18.835"/><path fill="#fcffac" d="m9.553 115.932-4.402-13.12a18.8 18.8 0 0 0-3.036 5.613l10.243 23.244c1.274.564 2.622.99 4.026 1.261z" opacity=".7"/><path fill="#fcffac" d="m14.683 104.516.8-.941-2.604-6.593a19 19 0 0 0-1.455.666z"/><path fill="#fcffac" d="m28.436 107.293 7.807 16.63q.688-1.177 1.204-2.453l-12.53-25.212a19 19 0 0 0-2.653-.518z" opacity=".7"/><path fill="#fcffac" d="M30.25 125.07c5.484-5.484 5.484-14.375 0-19.859s-14.375-5.484-19.86 0c-5.483 5.484-5.483 14.375 0 19.859 5.485 5.485 14.376 5.485 19.86 0"/><path fill="#fbaa12" d="M29.953 124.421c5.515-5.514 5.515-14.455 0-19.969s-14.454-5.514-19.969 0c-5.514 5.514-5.514 14.455 0 19.969s14.455 5.514 19.97 0"/><path fill="#ea831c" d="M31.529 106.322a14.1 14.1 0 0 1 1.508 6.357c0 7.798-6.323 14.12-14.12 14.12a14.1 14.1 0 0 1-11.558-6.006c2.326 4.606 7.1 7.764 12.612 7.764 7.799 0 14.12-6.322 14.12-14.12 0-3.021-.948-5.819-2.562-8.115" opacity=".3"/><path fill="#ffffeb" d="M1.717 109.775c1.765 5.791 7.15 10.005 13.518 10.005 7.804 0 14.13-6.327 14.13-14.131 0-3.431-1.223-6.576-3.256-9.024a18.8 18.8 0 0 0-6.14-1.023c-8.792 0-16.178 6.026-18.252 14.173" opacity=".25"/><path fill="#cf7310" d="M6.201 114.964c0-7.798 6.323-14.12 14.12-14.12 4.792 0 9.027 2.387 11.58 6.036-2.505-3.945-6.913-6.564-11.931-6.564-7.798 0-14.12 6.323-14.12 14.121 0 3.006.94 5.794 2.541 8.084a14.06 14.06 0 0 1-2.19-7.557"/><path fill="#db8412" d="M19.776 123.666c-2.667-.25-4.583-1.25-5.917-2.583l2-2.75c.917 1 2.334 1.833 4 2.166v-3.916c-2.583-.667-5.416-1.584-5.416-5 0-2.5 2-4.667 5.416-5.084v-2.333h2.334v2.417c2 .25 3.75 1 5.166 2.25l-2 2.666c-.916-.833-2-1.333-3.166-1.666v3.5c2.583.666 5.5 1.666 5.5 5.083 0 2.75-1.834 4.917-5.5 5.333v2.25h-2.334v-2.333zm0-11v-3c-1.083.167-1.75.75-1.75 1.583.083.667.75 1.084 1.75 1.417m2.417 4.417v3.333c1.25-.25 1.916-1 1.916-1.75-.083-.833-.833-1.25-1.916-1.583"/><path fill="#fce13c" d="M18.659 123.666c-2.667-.25-4.583-1.25-5.917-2.583l2-2.75c.917 1 2.334 1.833 4 2.166v-3.916c-2.583-.667-5.416-1.584-5.416-5 0-2.5 2-4.667 5.416-5.084v-2.333h2.334v2.417c2 .25 3.75 1 5.166 2.25l-2 2.666c-.916-.833-2-1.333-3.166-1.666v3.5c2.583.666 5.5 1.666 5.5 5.083 0 2.75-1.834 4.917-5.5 5.333v2.25h-2.334v-2.333zm0-11v-3c-1.083.167-1.75.75-1.75 1.583.083.667.75 1.084 1.75 1.417m2.417 4.417v3.333c1.25-.25 1.916-1 1.916-1.75-.083-.833-.833-1.25-1.916-1.583"/><path fill="url(#d)" d="M132.971 126.272c10.402 0 18.835-8.433 18.835-18.835s-8.433-18.834-18.835-18.834-18.834 8.432-18.834 18.834 8.432 18.835 18.834 18.835"/><path fill="#fcffac" d="m122.553 108.932-4.402-13.12a18.8 18.8 0 0 0-3.036 5.613l10.243 23.244c1.273.564 2.622.99 4.026 1.261z" opacity=".7"/><path fill="#fcffac" d="m127.683 97.516.801-.941-2.605-6.593q-.745.304-1.455.666z"/><path fill="#fcffac" d="m141.436 100.293 7.807 16.63q.688-1.177 1.204-2.453l-12.53-25.212a19 19 0 0 0-2.653-.518z" opacity=".7"/><path fill="#fcffac" d="M143.25 118.07c5.484-5.484 5.484-14.375 0-19.86-5.484-5.483-14.375-5.483-19.859 0-5.484 5.485-5.484 14.376 0 19.86 5.484 5.485 14.375 5.485 19.859 0"/><path fill="#fbaa12" d="M142.953 117.421c5.515-5.514 5.515-14.455 0-19.969s-14.454-5.514-19.969 0c-5.514 5.514-5.514 14.455 0 19.969s14.455 5.514 19.969 0"/><path fill="#ea831c" d="M144.528 99.322a14.06 14.06 0 0 1 1.509 6.357c0 7.798-6.323 14.12-14.121 14.12a14.1 14.1 0 0 1-11.557-6.006c2.326 4.606 7.101 7.764 12.612 7.764 7.799 0 14.121-6.322 14.121-14.12 0-3.021-.949-5.819-2.564-8.115" opacity=".3"/><path fill="#ffffeb" d="M114.717 102.775c1.765 5.791 7.149 10.005 13.518 10.005 7.804 0 14.13-6.327 14.13-14.13 0-3.432-1.223-6.577-3.256-9.025a18.8 18.8 0 0 0-6.14-1.023c-8.792 0-16.178 6.026-18.252 14.173" opacity=".25"/><path fill="#cf7310" d="M119.201 107.964c0-7.798 6.323-14.12 14.121-14.12 4.791 0 9.026 2.387 11.578 6.036-2.504-3.945-6.911-6.564-11.93-6.564-7.798 0-14.12 6.323-14.12 14.121 0 3.006.939 5.794 2.541 8.084a14.06 14.06 0 0 1-2.19-7.557"/><path fill="#db8412" d="M132.776 116.666c-2.667-.25-4.583-1.25-5.917-2.583l2-2.75c.917 1 2.334 1.833 4 2.166v-3.916c-2.583-.667-5.416-1.584-5.416-5 0-2.5 2-4.667 5.416-5.084v-2.333h2.334v2.417c2 .25 3.75 1 5.166 2.25l-2 2.666c-.916-.833-2-1.333-3.166-1.666v3.5c2.583.666 5.5 1.666 5.5 5.083 0 2.75-1.834 4.917-5.5 5.333v2.25h-2.334v-2.333zm0-11v-3c-1.083.167-1.75.75-1.75 1.583.083.667.75 1.084 1.75 1.417m2.417 4.417v3.333c1.25-.25 1.916-1 1.916-1.75-.083-.833-.833-1.25-1.916-1.583"/><path fill="#fce13c" d="M131.659 116.666c-2.667-.25-4.584-1.25-5.917-2.583l2-2.75c.917 1 2.334 1.833 4 2.166v-3.916c-2.583-.667-5.416-1.584-5.416-5 0-2.5 2-4.667 5.416-5.084v-2.333h2.334v2.417c2 .25 3.75 1 5.166 2.25l-2 2.666c-.916-.833-2-1.333-3.166-1.666v3.5c2.583.666 5.499 1.666 5.499 5.083 0 2.75-1.833 4.917-5.499 5.333v2.25h-2.334v-2.333zm0-11v-3c-1.084.167-1.75.75-1.75 1.583.083.667.75 1.084 1.75 1.417m2.416 4.417v3.333c1.25-.25 1.917-1 1.917-1.75-.083-.833-.833-1.25-1.917-1.583"/><path fill="url(#e)" d="M68.971 148.272c10.402 0 18.835-8.433 18.835-18.835s-8.433-18.834-18.835-18.834-18.834 8.432-18.834 18.834 8.432 18.835 18.834 18.835"/><path fill="#fcffac" d="m58.553 130.932-4.402-13.12a18.8 18.8 0 0 0-3.036 5.613l10.243 23.244c1.274.564 2.622.99 4.026 1.261z" opacity=".7"/><path fill="#fcffac" d="m63.683 119.516.8-.941-2.604-6.593q-.744.303-1.455.666z"/><path fill="#fcffac" d="m77.436 122.293 7.807 16.63q.688-1.177 1.204-2.453l-12.53-25.212a19 19 0 0 0-2.653-.518z" opacity=".7"/><path fill="#fcffac" d="M79.25 140.07c5.484-5.484 5.484-14.375 0-19.859s-14.375-5.484-19.86 0c-5.483 5.484-5.483 14.375 0 19.859 5.485 5.485 14.376 5.485 19.86 0"/><path fill="#fbaa12" d="M78.953 139.421c5.515-5.514 5.515-14.455 0-19.969s-14.454-5.514-19.969 0c-5.514 5.514-5.514 14.455 0 19.969s14.455 5.514 19.97 0"/><path fill="#ea831c" d="M80.529 121.322a14.1 14.1 0 0 1 1.508 6.357c0 7.798-6.323 14.12-14.12 14.12a14.1 14.1 0 0 1-11.558-6.006c2.326 4.606 7.1 7.764 12.613 7.764 7.797 0 14.12-6.322 14.12-14.12 0-3.021-.949-5.819-2.564-8.115" opacity=".3"/><path fill="#ffffeb" d="M50.717 124.775c1.765 5.791 7.15 10.005 13.518 10.005 7.804 0 14.13-6.327 14.13-14.131 0-3.431-1.223-6.576-3.256-9.024a18.8 18.8 0 0 0-6.14-1.023c-8.792 0-16.178 6.026-18.252 14.173" opacity=".25"/><path fill="#cf7310" d="M55.201 129.964c0-7.798 6.323-14.12 14.12-14.12 4.792 0 9.027 2.387 11.58 6.036-2.505-3.945-6.912-6.564-11.931-6.564-7.798 0-14.12 6.323-14.12 14.121 0 3.006.94 5.794 2.541 8.084a14.06 14.06 0 0 1-2.19-7.557"/><path fill="#db8412" d="M68.776 138.666c-2.667-.25-4.583-1.25-5.917-2.583l2-2.75c.917 1 2.334 1.833 4 2.166v-3.916c-2.583-.667-5.416-1.584-5.416-5 0-2.5 2-4.667 5.416-5.084v-2.333h2.334v2.417c2 .25 3.75 1 5.166 2.25l-2 2.666c-.916-.833-2-1.333-3.166-1.666v3.5c2.583.666 5.5 1.666 5.5 5.083 0 2.75-1.834 4.917-5.5 5.333v2.25h-2.334v-2.333zm0-11v-3c-1.083.167-1.75.75-1.75 1.583.083.667.75 1.084 1.75 1.417m2.417 4.417v3.333c1.25-.25 1.916-1 1.916-1.75-.083-.833-.833-1.25-1.916-1.583"/><path fill="#fce13c" d="M67.659 138.666c-2.667-.25-4.584-1.25-5.917-2.583l2-2.75c.917 1 2.334 1.833 4 2.166v-3.916c-2.583-.667-5.416-1.584-5.416-5 0-2.5 2-4.667 5.416-5.084v-2.333h2.334v2.417c2 .25 3.75 1 5.166 2.25l-2 2.666c-.916-.833-2-1.333-3.166-1.666v3.5c2.583.666 5.5 1.666 5.5 5.083 0 2.75-1.834 4.917-5.5 5.333v2.25h-2.334v-2.333zm0-11v-3c-1.084.167-1.75.75-1.75 1.583.083.667.75 1.084 1.75 1.417m2.416 4.417v3.333c1.25-.25 1.917-1 1.917-1.75-.083-.833-.833-1.25-1.916-1.583"/><path fill="url(#f)" d="M32.971 78.272c10.402 0 18.835-8.433 18.835-18.835S43.373 40.603 32.97 40.603s-18.834 8.432-18.834 18.834 8.432 18.835 18.834 18.835"/><path fill="#fcffac" d="m22.553 60.932-4.402-13.12a18.8 18.8 0 0 0-3.036 5.613L25.358 76.67a18.7 18.7 0 0 0 4.026 1.26z" opacity=".7"/><path fill="#fcffac" d="m27.683 49.516.8-.941-2.604-6.593a19 19 0 0 0-1.455.666z"/><path fill="#fcffac" d="m41.436 52.293 7.807 16.63q.688-1.177 1.204-2.453l-12.53-25.212a19 19 0 0 0-2.653-.518z" opacity=".7"/><path fill="#fcffac" d="M43.25 70.07c5.484-5.484 5.484-14.375 0-19.86-5.484-5.483-14.375-5.483-19.86 0-5.483 5.485-5.483 14.376 0 19.86 5.485 5.485 14.376 5.485 19.86 0"/><path fill="#fbaa12" d="M42.953 69.421c5.515-5.514 5.515-14.455 0-19.969s-14.454-5.514-19.969 0c-5.514 5.514-5.514 14.455 0 19.969s14.455 5.514 19.97 0"/><path fill="#ea831c" d="M44.529 51.322a14.1 14.1 0 0 1 1.508 6.357c0 7.798-6.323 14.12-14.12 14.12a14.1 14.1 0 0 1-11.558-6.006c2.326 4.606 7.1 7.764 12.612 7.764 7.799 0 14.12-6.322 14.12-14.12 0-3.02-.948-5.82-2.562-8.115" opacity=".3"/><path fill="#ffffeb" d="M14.717 54.775c1.765 5.791 7.15 10.005 13.518 10.005 7.804 0 14.13-6.327 14.13-14.13 0-3.432-1.223-6.577-3.256-9.025a18.8 18.8 0 0 0-6.14-1.023c-8.792 0-16.178 6.026-18.252 14.173" opacity=".25"/><path fill="#cf7310" d="M19.201 59.964c0-7.798 6.323-14.12 14.12-14.12 4.792 0 9.027 2.387 11.58 6.036-2.505-3.945-6.913-6.564-11.931-6.564-7.798 0-14.12 6.323-14.12 14.12 0 3.007.94 5.795 2.541 8.085a14.06 14.06 0 0 1-2.19-7.557"/><path fill="#db8412" d="M32.776 68.666c-2.667-.25-4.583-1.25-5.917-2.583l2-2.75c.917 1 2.334 1.833 4 2.166v-3.916c-2.583-.667-5.416-1.584-5.416-5 0-2.5 2-4.667 5.416-5.084v-2.333h2.334v2.417c2 .25 3.75 1 5.166 2.25l-2 2.666c-.916-.833-2-1.333-3.166-1.666v3.5c2.583.666 5.5 1.666 5.5 5.083 0 2.75-1.834 4.917-5.5 5.333V71h-2.334v-2.333zm0-11v-3c-1.083.167-1.75.75-1.75 1.584.083.666.75 1.083 1.75 1.416m2.417 4.417v3.333c1.25-.25 1.916-1 1.916-1.75-.083-.833-.833-1.25-1.916-1.583"/><path fill="#fce13c" d="M31.659 68.666c-2.667-.25-4.583-1.25-5.917-2.583l2-2.75c.917 1 2.334 1.833 4 2.166v-3.916c-2.583-.667-5.416-1.584-5.416-5 0-2.5 2-4.667 5.416-5.084v-2.333h2.334v2.417c2 .25 3.75 1 5.166 2.25l-2 2.666c-.916-.833-2-1.333-3.166-1.666v3.5c2.583.666 5.5 1.666 5.5 5.083 0 2.75-1.834 4.917-5.5 5.333V71h-2.334v-2.333zm0-11v-3c-1.083.167-1.75.75-1.75 1.584.083.666.75 1.083 1.75 1.416m2.416 4.417v3.333c1.25-.25 1.917-1 1.917-1.75-.083-.833-.833-1.25-1.916-1.583"/><path fill="url(#g)" d="M48.94 136.543c20.805 0 37.67-16.865 37.67-37.669S69.745 61.205 48.94 61.205c-20.803 0-37.668 16.865-37.668 37.67 0 20.803 16.865 37.668 37.669 37.668"/><path fill="#fcffac" d="m28.107 101.864-8.805-26.24a37.6 37.6 0 0 0-6.071 11.228l20.484 46.487a37.3 37.3 0 0 0 8.052 2.521z" opacity=".7"/><path fill="#fcffac" d="m38.368 79.033 1.601-1.882-5.21-13.185q-1.488.606-2.91 1.33z"/><path fill="#fcffac" d="m65.875 84.587 15.614 33.259a38 38 0 0 0 2.406-4.905l-25.06-50.424a37.5 37.5 0 0 0-5.306-1.036z" opacity=".7"/><path fill="#fcffac" d="M69.5 120.141c10.969-10.968 10.969-28.751 0-39.72-10.967-10.968-28.75-10.968-39.718 0s-10.969 28.752 0 39.72 28.75 10.968 39.719 0"/><path fill="#fbaa12" d="M68.907 118.843c11.028-11.029 11.028-28.91 0-39.938s-28.91-11.029-39.938 0-11.029 28.909 0 39.938 28.91 11.029 39.938 0"/><path fill="#ea831c" d="M72.055 82.645a28.1 28.1 0 0 1 3.016 12.712c0 15.596-12.644 28.241-28.24 28.241-9.557 0-18.004-4.746-23.114-12.011 4.65 9.211 14.2 15.528 25.224 15.528 15.596 0 28.24-12.645 28.24-28.24a28.1 28.1 0 0 0-5.126-16.23" opacity=".3"/><path fill="#ffffeb" d="M12.436 89.55c3.53 11.582 14.299 20.01 27.036 20.01 15.608 0 28.26-12.653 28.26-28.261A28.15 28.15 0 0 0 61.22 63.25a37.6 37.6 0 0 0-12.278-2.047c-17.585.002-32.357 12.053-36.506 28.347" opacity=".25"/><path fill="#cf7310" d="M21.405 99.929c0-15.596 12.644-28.241 28.24-28.241 9.583 0 18.052 4.774 23.157 12.072-5.008-7.89-13.823-13.126-23.86-13.126-15.596 0-28.24 12.644-28.24 28.24a28.1 28.1 0 0 0 5.083 16.169 28.1 28.1 0 0 1-4.38-15.114"/><path fill="#db8412" d="M48.55 117.333c-5.333-.5-9.167-2.5-11.833-5.167l4-5.5c1.833 2.001 4.666 3.667 8 4.334v-7.834c-5.167-1.333-10.833-3.166-10.833-10 0-5 4-9.333 10.833-10.166v-4.667h4.666v4.833c4 .5 7.5 2 10.334 4.5l-4 5.334c-1.833-1.667-4-2.667-6.334-3.334v7c5.167 1.334 11 3.334 11 10.167 0 5.5-3.666 9.833-11 10.667v4.5h-4.666v-4.667zm0-22v-6c-2.167.334-3.5 1.5-3.5 3.167.167 1.333 1.5 2.167 3.5 2.833m4.833 8.834v6.666c2.5-.5 3.834-2 3.834-3.5-.167-1.666-1.667-2.5-3.834-3.166"/><path fill="#fce13c" d="M46.318 117.333c-5.334-.5-9.167-2.5-11.834-5.167l4-5.5c1.834 2.001 4.667 3.667 8 4.334v-7.834c-5.166-1.333-10.833-3.166-10.833-10 0-5 4-9.333 10.833-10.166v-4.667h4.667v4.833c4 .5 7.5 2 10.334 4.5l-4 5.334c-1.834-1.667-4-2.667-6.334-3.334v7c5.167 1.334 11 3.334 11 10.167 0 5.5-3.666 9.833-11 10.667v4.5h-4.667v-4.667zm0-22v-6c-2.167.334-3.5 1.5-3.5 3.167.166 1.333 1.5 2.167 3.5 2.833m4.833 8.834v6.666c2.5-.5 3.833-2 3.833-3.5-.166-1.666-1.666-2.5-3.833-3.166"/><path fill="url(#h)" d="M74.94 88.543c20.805 0 37.67-16.865 37.67-37.669S95.745 13.205 74.94 13.205c-20.803 0-37.668 16.865-37.668 37.67 0 20.803 16.865 37.668 37.669 37.668"/><path fill="#fcffac" d="m54.107 53.864-8.805-26.24a37.6 37.6 0 0 0-6.071 11.228l20.484 46.487a37.3 37.3 0 0 0 8.052 2.521z" opacity=".7"/><path fill="#fcffac" d="m64.368 31.033 1.601-1.882-5.21-13.185q-1.488.607-2.91 1.33z"/><path fill="#fcffac" d="m91.875 36.587 15.614 33.26a37.6 37.6 0 0 0 2.406-4.906l-25.06-50.424a37.5 37.5 0 0 0-5.306-1.036z" opacity=".7"/><path fill="#fcffac" d="M95.5 72.14c10.969-10.967 10.969-28.75 0-39.718-10.967-10.968-28.75-10.968-39.718 0s-10.969 28.75 0 39.719c10.968 10.968 28.75 10.968 39.719 0"/><path fill="#fbaa12" d="M94.907 70.843c11.028-11.029 11.028-28.91 0-39.938s-28.91-11.029-39.938 0-11.029 28.91 0 39.938 28.91 11.028 39.938 0"/><path fill="#ea831c" d="M98.055 34.645a28.1 28.1 0 0 1 3.016 12.712c0 15.596-12.644 28.24-28.24 28.24-9.557 0-18.004-4.745-23.114-12.01 4.65 9.21 14.2 15.528 25.224 15.528 15.596 0 28.241-12.645 28.241-28.24a28.1 28.1 0 0 0-5.127-16.23" opacity=".3"/><path fill="#ffffeb" d="M38.436 41.55c3.53 11.582 14.299 20.01 27.036 20.01 15.608 0 28.26-12.653 28.26-28.261A28.15 28.15 0 0 0 87.22 15.25a37.6 37.6 0 0 0-12.278-2.047c-17.585.002-32.357 12.053-36.506 28.347" opacity=".25"/><path fill="#cf7310" d="M47.405 51.929c0-15.596 12.644-28.241 28.24-28.241 9.583 0 18.052 4.774 23.158 12.073-5.01-7.89-13.824-13.127-23.861-13.127-15.596 0-28.24 12.644-28.24 28.24a28.1 28.1 0 0 0 5.083 16.169 28.1 28.1 0 0 1-4.38-15.114"/><path fill="#db8412" d="M74.55 69.333c-5.333-.5-9.167-2.5-11.833-5.167l4-5.5c1.833 2 4.666 3.667 8 4.334v-7.834c-5.167-1.333-10.833-3.166-10.833-10 0-5 4-9.333 10.833-10.166v-4.667h4.666v4.833c4 .5 7.5 2 10.334 4.5l-4 5.334c-1.833-1.667-4-2.667-6.334-3.334v7c5.167 1.334 11 3.334 11 10.167 0 5.5-3.666 9.833-11 10.667V74h-4.666v-4.667zm0-22v-6c-2.167.334-3.5 1.5-3.5 3.167.167 1.333 1.5 2.167 3.5 2.833m4.833 8.834v6.666c2.5-.5 3.834-2 3.834-3.5-.167-1.666-1.667-2.5-3.834-3.166"/><path fill="#fce13c" d="M72.318 69.333c-5.334-.5-9.167-2.5-11.834-5.167l4-5.5c1.834 2 4.667 3.667 8 4.334v-7.834c-5.166-1.333-10.833-3.166-10.833-10 0-5 4-9.333 10.833-10.166v-4.667h4.667v4.833c4 .5 7.5 2 10.334 4.5l-4 5.334c-1.834-1.667-4-2.667-6.334-3.334v7c5.167 1.334 11 3.334 11 10.167 0 5.5-3.666 9.833-11 10.667V74h-4.667v-4.667zm0-22v-6c-2.167.334-3.5 1.5-3.5 3.167.166 1.333 1.5 2.167 3.5 2.833m4.833 8.834v6.666c2.5-.5 3.833-2 3.833-3.5-.166-1.666-1.666-2.5-3.833-3.166"/><path fill="url(#i)" d="M103.941 139.543c20.804 0 37.669-16.865 37.669-37.669s-16.865-37.669-37.669-37.669c-20.805 0-37.67 16.865-37.67 37.669s16.865 37.669 37.67 37.669"/><path fill="#fcffac" d="m83.107 104.864-8.805-26.24a37.6 37.6 0 0 0-6.071 11.228l20.484 46.487a37.3 37.3 0 0 0 8.052 2.521z" opacity=".7"/><path fill="#fcffac" d="m93.368 82.033 1.601-1.882-5.21-13.185q-1.488.606-2.91 1.33z"/><path fill="#fcffac" d="m120.874 87.587 15.615 33.259a37.6 37.6 0 0 0 2.406-4.905l-25.059-50.424a37.5 37.5 0 0 0-5.307-1.036z" opacity=".7"/><path fill="#fcffac" d="M124.501 123.141c10.968-10.968 10.968-28.751 0-39.72s-28.751-10.968-39.72 0-10.968 28.752 0 39.72 28.752 10.968 39.72 0"/><path fill="#fbaa12" d="M123.907 121.843c11.028-11.029 11.028-28.91 0-39.938s-28.91-11.029-39.938 0-11.029 28.909 0 39.938 28.909 11.029 39.938 0"/><path fill="#ea831c" d="M127.055 85.645a28.1 28.1 0 0 1 3.016 12.712c0 15.596-12.644 28.241-28.24 28.241-9.557 0-18.004-4.746-23.114-12.011 4.65 9.211 14.2 15.528 25.224 15.528 15.596 0 28.241-12.645 28.241-28.241a28.1 28.1 0 0 0-5.127-16.23" opacity=".3"/><path fill="#ffffeb" d="M67.436 92.55c3.53 11.582 14.299 20.01 27.036 20.01 15.608 0 28.261-12.653 28.261-28.261a28.14 28.14 0 0 0-6.514-18.049 37.6 37.6 0 0 0-12.278-2.047c-17.585.002-32.357 12.053-36.505 28.347" opacity=".25"/><path fill="#cf7310" d="M76.405 102.929c0-15.596 12.644-28.241 28.24-28.241 9.583 0 18.052 4.774 23.157 12.072-5.008-7.89-13.823-13.126-23.86-13.126-15.596 0-28.24 12.644-28.24 28.24a28.1 28.1 0 0 0 5.083 16.169 28.1 28.1 0 0 1-4.38-15.114"/><path fill="#db8412" d="M103.55 120.333c-5.333-.5-9.167-2.5-11.833-5.167l4-5.5c1.833 2.001 4.667 3.667 8 4.334v-7.834c-5.167-1.333-10.833-3.166-10.833-10 0-5 4-9.333 10.833-10.166v-4.667h4.667v4.833c4 .5 7.5 2 10.333 4.5l-4 5.334c-1.833-1.667-4-2.667-6.333-3.334v7c5.166 1.334 10.999 3.334 10.999 10.167 0 5.5-3.666 9.833-10.999 10.667v4.5h-4.667v-4.667zm0-22v-6c-2.167.334-3.5 1.5-3.5 3.167.167 1.333 1.5 2.167 3.5 2.833m4.833 8.834v6.666c2.5-.5 3.834-2 3.834-3.5-.167-1.666-1.667-2.5-3.834-3.166"/><path fill="#fce13c" d="M101.318 120.333c-5.334-.5-9.167-2.5-11.834-5.167l4-5.5c1.834 2.001 4.667 3.667 8 4.334v-7.834c-5.166-1.333-10.833-3.166-10.833-10 0-5 4-9.333 10.833-10.166v-4.667h4.667v4.833c4 .5 7.5 2 10.334 4.5l-4 5.334c-1.834-1.667-4.001-2.667-6.334-3.334v7c5.167 1.334 11 3.334 11 10.167 0 5.5-3.666 9.833-11 10.667v4.5h-4.667v-4.667zm0-22v-6c-2.167.334-3.5 1.5-3.5 3.167.166 1.333 1.5 2.167 3.5 2.833m4.833 8.834v6.666c2.5-.5 3.833-2 3.833-3.5-.166-1.666-1.666-2.5-3.833-3.166"/><defs><linearGradient id="a" x1="103.653" x2="130.289" y1="75.755" y2="49.119" gradientUnits="userSpaceOnUse"><stop stop-color="#fbc01e"/><stop offset=".461" stop-color="#fdc822"/><stop offset="1" stop-color="#fce13c"/></linearGradient><linearGradient id="b" x1="66.653" x2="93.289" y1="32.755" y2="6.119" gradientUnits="userSpaceOnUse"><stop stop-color="#fbc01e"/><stop offset=".461" stop-color="#fdc822"/><stop offset="1" stop-color="#fce13c"/></linearGradient><linearGradient id="c" x1="6.653" x2="33.289" y1="127.755" y2="101.119" gradientUnits="userSpaceOnUse"><stop stop-color="#fbc01e"/><stop offset=".461" stop-color="#fdc822"/><stop offset="1" stop-color="#fce13c"/></linearGradient><linearGradient id="d" x1="119.653" x2="146.289" y1="120.755" y2="94.119" gradientUnits="userSpaceOnUse"><stop stop-color="#fbc01e"/><stop offset=".461" stop-color="#fdc822"/><stop offset="1" stop-color="#fce13c"/></linearGradient><linearGradient id="e" x1="55.653" x2="82.289" y1="142.755" y2="116.119" gradientUnits="userSpaceOnUse"><stop stop-color="#fbc01e"/><stop offset=".461" stop-color="#fdc822"/><stop offset="1" stop-color="#fce13c"/></linearGradient><linearGradient id="f" x1="19.653" x2="46.289" y1="72.755" y2="46.119" gradientUnits="userSpaceOnUse"><stop stop-color="#fbc01e"/><stop offset=".461" stop-color="#fdc822"/><stop offset="1" stop-color="#fce13c"/></linearGradient><linearGradient id="g" x1="22.304" x2="75.576" y1="125.509" y2="72.238" gradientUnits="userSpaceOnUse"><stop stop-color="#fbc01e"/><stop offset=".461" stop-color="#fdc822"/><stop offset="1" stop-color="#fce13c"/></linearGradient><linearGradient id="h" x1="48.304" x2="101.576" y1="77.509" y2="24.238" gradientUnits="userSpaceOnUse"><stop stop-color="#fbc01e"/><stop offset=".461" stop-color="#fdc822"/><stop offset="1" stop-color="#fce13c"/></linearGradient><linearGradient id="i" x1="77.304" x2="130.576" y1="128.509" y2="75.238" gradientUnits="userSpaceOnUse"><stop stop-color="#fbc01e"/><stop offset=".461" stop-color="#fdc822"/><stop offset="1" stop-color="#fce13c"/></linearGradient></defs></svg>